M48
; DRILL file {KiCad 8.0.7-8.0.7-0~ubuntu22.04.1} date 2024-12-14T16:53:14+0100
; FORMAT={-:-/ absolute / inch / decimal}
; #@! TF.CreationDate,2024-12-14T16:53:14+01:00
; #@! TF.GenerationSoftware,Kicad,Pcbnew,8.0.7-8.0.7-0~ubuntu22.04.1
; #@! TF.FileFunction,Plated,1,2,PTH
FMAT,2
INCH
; #@! TA.AperFunction,Plated,PTH,ViaDrill
T1C0.0118
; #@! TA.AperFunction,Plated,PTH,ViaDrill
T2C0.0138
; #@! TA.AperFunction,Plated,PTH,ComponentDrill
T3C0.0236
; #@! TA.AperFunction,Plated,PTH,ComponentDrill
T4C0.0315
; #@! TA.AperFunction,Plated,PTH,ComponentDrill
T5C0.0350
; #@! TA.AperFunction,Plated,PTH,ComponentDrill
T6C0.0394
; #@! TA.AperFunction,Plated,PTH,ComponentDrill
T7C0.0618
; #@! TA.AperFunction,Plated,PTH,ComponentDrill
T8C0.1063
; #@! TA.AperFunction,Plated,PTH,ComponentDrill
T9C0.1575
%
G90
G05
T1
X3.5354Y-5.0748
X3.5394Y-5.1654
X3.5866Y-5.1732
X3.6299Y-4.9882
X3.6339Y-5.1024
X3.6575Y-4.8622
X3.6614Y-4.9252
X3.7115Y-4.8906
X3.9027Y-4.9109
X3.9694Y-4.8237
X4.2323Y-5.0354
T2
X3.2392Y-2.2392
X3.2392Y-2.3297
X3.2392Y-2.4203
X3.2392Y-2.5108
X3.2392Y-2.6014
X3.2392Y-2.6919
X3.2392Y-2.7825
X3.2392Y-2.873
X3.2392Y-2.9636
X3.2392Y-3.0541
X3.2392Y-3.1447
X3.2392Y-3.2352
X3.2392Y-3.3258
X3.2392Y-3.4163
X3.2392Y-3.5069
X3.2392Y-3.5974
X3.2392Y-3.688
X3.2392Y-3.7785
X3.2392Y-3.8691
X3.2392Y-3.9596
X3.2392Y-4.0502
X3.2392Y-4.1407
X3.2392Y-4.2313
X3.2392Y-4.3219
X3.2392Y-4.4124
X3.2392Y-4.5935
X3.2392Y-4.6841
X3.2392Y-4.7746
X3.2392Y-4.8652
X3.2392Y-4.9557
X3.2392Y-5.0463
X3.2392Y-5.6801
X3.2392Y-5.7707
X3.32Y-5.1509
X3.3203Y-5.0911
X3.3297Y-2.2392
X3.3297Y-2.3297
X3.3297Y-2.4203
X3.3297Y-2.5108
X3.3297Y-2.6014
X3.3297Y-2.6919
X3.3297Y-2.7825
X3.3297Y-2.873
X3.3297Y-2.9636
X3.3297Y-3.0541
X3.3297Y-3.1447
X3.3297Y-3.2352
X3.3297Y-3.3258
X3.3297Y-3.4163
X3.3297Y-3.5069
X3.3297Y-3.5974
X3.3297Y-3.688
X3.3297Y-3.7785
X3.3297Y-3.8691
X3.3297Y-3.9596
X3.3297Y-4.0502
X3.3297Y-4.1407
X3.3297Y-4.2313
X3.3297Y-4.3219
X3.3297Y-4.5935
X3.3297Y-4.6841
X3.3297Y-4.9557
X3.3297Y-5.0463
X3.3297Y-5.3179
X3.3297Y-5.7707
X3.4203Y-2.0581
X3.4203Y-2.1486
X3.4203Y-2.2392
X3.4203Y-2.3297
X3.4203Y-2.4203
X3.4203Y-2.5108
X3.4203Y-2.6014
X3.4203Y-2.6919
X3.4203Y-2.7825
X3.4203Y-2.873
X3.4203Y-2.9636
X3.4203Y-3.0541
X3.4203Y-3.1447
X3.4203Y-3.2352
X3.4203Y-3.3258
X3.4203Y-3.4163
X3.4203Y-3.5069
X3.4203Y-3.5974
X3.4203Y-3.688
X3.4203Y-3.7785
X3.4203Y-3.8691
X3.4203Y-3.9596
X3.4203Y-4.0502
X3.4203Y-4.1407
X3.4203Y-4.2313
X3.4203Y-4.3219
X3.4203Y-4.4124
X3.4203Y-4.503
X3.4203Y-4.5935
X3.4203Y-4.7746
X3.4203Y-4.8652
X3.4203Y-5.3179
X3.4203Y-5.5896
X3.4203Y-5.6801
X3.4203Y-5.7707
X3.4275Y-5.023
X3.4281Y-5.0536
X3.5108Y-2.0581
X3.5108Y-2.1486
X3.5108Y-2.2392
X3.5108Y-2.3297
X3.5108Y-2.4203
X3.5108Y-2.5108
X3.5108Y-2.6014
X3.5108Y-2.6919
X3.5108Y-2.7825
X3.5108Y-2.873
X3.5108Y-2.9636
X3.5108Y-3.0541
X3.5108Y-3.1447
X3.5108Y-3.2352
X3.5108Y-3.3258
X3.5108Y-3.4163
X3.5108Y-3.5069
X3.5108Y-3.5974
X3.5108Y-3.688
X3.5108Y-3.7785
X3.5108Y-3.8691
X3.5108Y-3.9596
X3.5108Y-4.0502
X3.5108Y-4.1407
X3.5108Y-4.2313
X3.5108Y-4.3219
X3.5108Y-4.4124
X3.5108Y-4.503
X3.5108Y-4.5935
X3.5108Y-4.7746
X3.5108Y-4.8652
X3.5108Y-5.2274
X3.5214Y-5.1361
X3.523Y-5.1055
X3.5812Y-5.1381
X3.5974Y-5.1122
X3.6014Y-2.0581
X3.6014Y-2.1486
X3.6014Y-2.2392
X3.6014Y-2.3297
X3.6014Y-2.4203
X3.6014Y-2.5108
X3.6014Y-2.6014
X3.6014Y-2.6919
X3.6014Y-2.7825
X3.6014Y-2.873
X3.6014Y-2.9636
X3.6014Y-3.0541
X3.6014Y-3.1447
X3.6014Y-3.2352
X3.6014Y-3.3258
X3.6014Y-3.4163
X3.6014Y-3.5069
X3.6014Y-3.7785
X3.6014Y-3.8691
X3.6014Y-3.9596
X3.6014Y-4.0502
X3.6014Y-4.1407
X3.6014Y-4.2313
X3.6014Y-4.3219
X3.6014Y-4.4124
X3.6014Y-4.503
X3.6014Y-5.2274
X3.6919Y-2.0581
X3.6919Y-2.1486
X3.6919Y-2.2392
X3.6919Y-2.3297
X3.6919Y-2.4203
X3.6919Y-2.5108
X3.6919Y-2.6014
X3.6919Y-2.6919
X3.6919Y-2.7825
X3.6919Y-2.873
X3.6919Y-2.9636
X3.6919Y-3.0541
X3.6919Y-3.1447
X3.6919Y-3.2352
X3.6919Y-3.3258
X3.6919Y-3.4163
X3.6919Y-3.5069
X3.6919Y-3.7785
X3.6919Y-3.8691
X3.6919Y-3.9596
X3.6919Y-4.0502
X3.6919Y-4.1407
X3.6919Y-4.2313
X3.6919Y-4.3219
X3.6919Y-4.4124
X3.6919Y-4.503
X3.6919Y-5.0463
X3.7825Y-2.0581
X3.7825Y-2.1486
X3.7825Y-2.2392
X3.7825Y-2.3297
X3.7825Y-2.4203
X3.7825Y-2.5108
X3.7825Y-2.6014
X3.7825Y-2.6919
X3.7825Y-2.7825
X3.7825Y-2.873
X3.7825Y-2.9636
X3.7825Y-3.0541
X3.7825Y-3.1447
X3.7825Y-3.2352
X3.7825Y-3.3258
X3.7825Y-3.4163
X3.7825Y-3.8691
X3.7825Y-3.9596
X3.7825Y-4.0502
X3.7825Y-4.1407
X3.7825Y-4.2313
X3.7825Y-4.3219
X3.7825Y-4.4124
X3.7825Y-4.503
X3.7825Y-5.1368
X3.7825Y-5.4085
X3.7825Y-5.499
X3.873Y-2.3297
X3.873Y-2.4203
X3.873Y-2.5108
X3.873Y-2.6014
X3.873Y-2.6919
X3.873Y-2.7825
X3.873Y-2.873
X3.873Y-2.9636
X3.873Y-3.0541
X3.873Y-3.1447
X3.873Y-3.2352
X3.873Y-4.0502
X3.873Y-4.1407
X3.873Y-4.2313
X3.873Y-4.3219
X3.873Y-4.4124
X3.873Y-4.503
X3.873Y-4.7746
X3.873Y-5.0463
X3.873Y-5.1368
X3.8985Y-5.267
X3.8985Y-5.3733
X3.9351Y-4.9796
X3.9355Y-5.0114
X3.9598Y-5.267
X3.9606Y-5.3733
X3.9636Y-2.4203
X3.9636Y-2.5108
X3.9636Y-2.6014
X3.9636Y-2.6919
X3.9636Y-2.7825
X3.9636Y-2.873
X3.9636Y-2.9636
X3.9636Y-3.0541
X3.9636Y-3.1447
X3.9636Y-4.1407
X3.9636Y-4.2313
X3.9636Y-4.3219
X3.9636Y-4.4124
X3.9636Y-4.503
X3.9636Y-4.7746
X3.9636Y-5.5896
X4.0541Y-2.4203
X4.0541Y-2.5108
X4.0541Y-2.6014
X4.0541Y-2.6919
X4.0541Y-2.7825
X4.0541Y-2.873
X4.0541Y-2.9636
X4.0541Y-3.0541
X4.0541Y-4.2313
X4.0541Y-4.3219
X4.0541Y-4.4124
X4.0541Y-4.5935
X4.0541Y-4.6841
X4.0541Y-4.7746
X4.0541Y-4.8652
X4.0541Y-4.9557
X4.0541Y-5.0463
X4.1447Y-2.3297
X4.1447Y-2.4203
X4.1447Y-2.5108
X4.1447Y-2.6014
X4.1447Y-2.6919
X4.1447Y-2.7825
X4.1447Y-2.873
X4.1447Y-2.9636
X4.1447Y-3.0541
X4.1447Y-4.2313
X4.1447Y-4.3219
X4.1447Y-4.4124
X4.1447Y-5.0463
X4.1447Y-5.4085
X4.1457Y-4.7825
X4.2067Y-4.7825
X4.2352Y-2.0581
X4.2352Y-2.1486
X4.2352Y-2.2392
X4.2352Y-2.3297
X4.2352Y-2.4203
X4.2352Y-2.5108
X4.2352Y-2.6014
X4.2352Y-2.6919
X4.2352Y-2.7825
X4.2352Y-2.873
X4.2352Y-3.0541
X4.2352Y-4.2313
X4.2352Y-4.4124
X4.2591Y-5.8545
X4.2871Y-5.8211
X4.2953Y-5.0276
X4.3258Y-2.6014
X4.3258Y-2.6919
X4.3258Y-2.7825
X4.3258Y-4.4124
X4.3258Y-5.2274
X4.3258Y-5.3179
X4.3614Y-5.6705
X4.3846Y-5.6268
X4.4163Y-2.6014
X4.4163Y-2.6919
X4.4163Y-2.7825
X4.4163Y-2.873
X4.4163Y-3.0541
X4.4163Y-4.4124
X4.4163Y-4.6841
X4.4163Y-5.2274
X4.4163Y-5.3179
X4.4386Y-5.7549
X4.4657Y-5.7215
X4.4744Y-4.8477
X4.5069Y-2.6014
X4.5069Y-2.6919
X4.5069Y-2.7825
X4.5069Y-2.873
X4.5069Y-2.9636
X4.5069Y-3.0541
X4.5069Y-4.2313
X4.5069Y-4.3219
X4.5069Y-4.4124
X4.5069Y-4.503
X4.5069Y-4.5935
X4.5069Y-5.3179
X4.5069Y-5.4085
X4.5974Y-2.6014
X4.5974Y-2.6919
X4.5974Y-2.7825
X4.5974Y-2.873
X4.5974Y-2.9636
X4.5974Y-3.0541
X4.5974Y-4.2313
X4.5974Y-4.3219
X4.5974Y-4.4124
X4.5974Y-5.3179
X4.5974Y-5.4085
X4.622Y-5.0443
X4.6626Y-5.1272
X4.688Y-2.6014
X4.688Y-2.6919
X4.688Y-2.7825
X4.688Y-2.873
X4.688Y-2.9636
X4.688Y-3.0541
X4.688Y-3.1447
X4.688Y-4.1407
X4.688Y-4.2313
X4.688Y-4.3219
X4.688Y-4.4124
X4.688Y-4.6841
X4.7785Y-2.6014
X4.7785Y-2.6919
X4.7785Y-2.7825
X4.7785Y-2.873
X4.7785Y-2.9636
X4.7785Y-3.0541
X4.7785Y-3.1447
X4.7785Y-3.2352
X4.7785Y-4.0502
X4.7785Y-4.1407
X4.7785Y-4.2313
X4.7785Y-4.3219
X4.7785Y-4.4124
X4.7785Y-4.503
X4.7785Y-4.5935
X4.7785Y-4.6841
X4.7785Y-4.9557
X4.8691Y-2.6014
X4.8691Y-2.6919
X4.8691Y-2.7825
X4.8691Y-2.873
X4.8691Y-2.9636
X4.8691Y-3.0541
X4.8691Y-3.1447
X4.8691Y-3.2352
X4.8691Y-3.3258
X4.8691Y-3.4163
X4.8691Y-3.8691
X4.8691Y-3.9596
X4.8691Y-4.0502
X4.8691Y-4.1407
X4.8691Y-4.2313
X4.8691Y-4.3219
X4.8691Y-4.4124
X4.8691Y-4.503
X4.8691Y-4.5935
X4.8691Y-4.6841
X4.8691Y-4.7746
X4.8691Y-4.8652
X4.8691Y-4.9557
X4.8691Y-5.0463
X4.9596Y-2.6014
X4.9596Y-2.6919
X4.9596Y-2.7825
X4.9596Y-2.873
X4.9596Y-2.9636
X4.9596Y-3.0541
X4.9596Y-3.1447
X4.9596Y-3.2352
X4.9596Y-3.3258
X4.9596Y-3.4163
X4.9596Y-3.5069
X4.9596Y-3.7785
X4.9596Y-3.8691
X4.9596Y-3.9596
X4.9596Y-4.0502
X4.9596Y-4.1407
X4.9596Y-4.2313
X4.9596Y-4.3219
X4.9596Y-4.4124
X4.9596Y-4.503
X4.9596Y-4.5935
X4.9596Y-4.6841
X4.9596Y-4.7746
X4.9596Y-4.8652
X4.9596Y-4.9557
X4.9596Y-5.0463
X4.9596Y-5.1368
X4.9596Y-5.3179
X4.9596Y-5.4085
X4.9596Y-5.499
X4.9596Y-5.5896
X4.9596Y-5.6801
X4.9596Y-5.7707
X5.0502Y-2.6014
X5.0502Y-2.6919
X5.0502Y-2.7825
X5.0502Y-2.873
X5.0502Y-2.9636
X5.0502Y-3.0541
X5.0502Y-3.1447
X5.0502Y-3.2352
X5.0502Y-3.3258
X5.0502Y-3.4163
X5.0502Y-3.5069
X5.0502Y-3.7785
X5.0502Y-3.8691
X5.0502Y-3.9596
X5.0502Y-4.0502
X5.0502Y-4.1407
X5.0502Y-4.2313
X5.0502Y-4.3219
X5.0502Y-4.4124
X5.0502Y-4.503
X5.0502Y-4.5935
X5.0502Y-4.6841
X5.0502Y-4.7746
X5.0502Y-4.8652
X5.0502Y-4.9557
X5.0502Y-5.0463
X5.0502Y-5.4085
X5.0502Y-5.499
X5.0502Y-5.5896
X5.0502Y-5.6801
X5.0502Y-5.7707
X5.1407Y-5.499
X5.1407Y-5.5896
X5.1407Y-5.6801
X5.1407Y-5.7707
X5.2313Y-5.499
X5.2313Y-5.5896
X5.2313Y-5.6801
X5.2313Y-5.7707
X5.3219Y-5.499
X5.3219Y-5.5896
X5.3219Y-5.6801
X5.3219Y-5.7707
X5.4124Y-5.5896
X5.4124Y-5.6801
X5.4124Y-5.7707
T3
X3.8976Y-2.1654
X3.9322Y-2.0818
X3.9322Y-2.2489
X4.0157Y-2.0472
X4.0157Y-2.2835
X4.0993Y-2.0818
X4.0993Y-2.2489
X4.1339Y-2.1654
X4.5276Y-2.1654
X4.5622Y-2.0818
X4.5622Y-2.2489
X4.6457Y-2.0472
X4.6457Y-2.2835
X4.7292Y-2.0818
X4.7292Y-2.2489
X4.7638Y-2.1654
T4
X4.6185Y-4.5512
X4.6185Y-4.8512
X4.7185Y-4.5512
X4.7185Y-4.8512
T5
X3.2943Y-5.252
X3.3845Y-5.252
X3.4246Y-5.4417
X3.4646Y-5.5118
X3.5046Y-5.4417
X3.5446Y-5.5118
X3.5846Y-5.4417
X3.6246Y-5.5118
X3.6646Y-5.4417
X3.7046Y-5.5118
X3.7443Y-5.252
X3.8345Y-5.252
X4.0679Y-5.2512
X4.158Y-5.2512
X4.1981Y-5.4409
X4.2381Y-5.511
X4.2781Y-5.4409
X4.3181Y-5.511
X4.3581Y-5.4409
X4.3981Y-5.511
X4.4381Y-5.4409
X4.4781Y-5.511
X4.5179Y-5.2512
X4.608Y-5.2512
T6
X3.5793Y-4.5787
X3.6793Y-4.5787
X3.7793Y-4.5787
X3.8793Y-4.5787
X3.9793Y-4.5787
X4.1268Y-4.5787
X4.1518Y-5.1102
X4.2268Y-4.5787
X4.2518Y-5.1102
X4.3268Y-4.5787
X4.4268Y-4.5787
T7
X3.2443Y-5.4768
X3.8845Y-5.4768
X4.0179Y-5.476
X4.658Y-5.476
T8
X5.024Y-5.2264
X5.3075Y-5.2264
T9
X4.0157Y-2.1654
X4.6457Y-2.1654
T3
G00X4.9Y-5.4843
M15
G01X4.9Y-5.4409
M16
G05
G00X5.4315Y-5.4843
M15
G01X5.4315Y-5.4409
M16
G05
M30
