%TF.GenerationSoftware,KiCad,Pcbnew,8.0.7-8.0.7-0~ubuntu22.04.1*%
%TF.CreationDate,2024-12-14T16:53:14+01:00*%
%TF.ProjectId,vesc_mms_board,76657363-5f6d-46d7-935f-626f6172642e,rev?*%
%TF.SameCoordinates,Original*%
%TF.FileFunction,Paste,Top*%
%TF.FilePolarity,Positive*%
%FSLAX46Y46*%
G04 Gerber Fmt 4.6, Leading zero omitted, Abs format (unit mm)*
G04 Created by KiCad (PCBNEW 8.0.7-8.0.7-0~ubuntu22.04.1) date 2024-12-14 16:53:14*
%MOMM*%
%LPD*%
G01*
G04 APERTURE LIST*
G04 Aperture macros list*
%AMRoundRect*
0 Rectangle with rounded corners*
0 $1 Rounding radius*
0 $2 $3 $4 $5 $6 $7 $8 $9 X,Y pos of 4 corners*
0 Add a 4 corners polygon primitive as box body*
4,1,4,$2,$3,$4,$5,$6,$7,$8,$9,$2,$3,0*
0 Add four circle primitives for the rounded corners*
1,1,$1+$1,$2,$3*
1,1,$1+$1,$4,$5*
1,1,$1+$1,$6,$7*
1,1,$1+$1,$8,$9*
0 Add four rect primitives between the rounded corners*
20,1,$1+$1,$2,$3,$4,$5,0*
20,1,$1+$1,$4,$5,$6,$7,0*
20,1,$1+$1,$6,$7,$8,$9,0*
20,1,$1+$1,$8,$9,$2,$3,0*%
G04 Aperture macros list end*
%ADD10RoundRect,0.100000X-0.712500X-0.100000X0.712500X-0.100000X0.712500X0.100000X-0.712500X0.100000X0*%
%ADD11RoundRect,0.225000X-0.250000X0.225000X-0.250000X-0.225000X0.250000X-0.225000X0.250000X0.225000X0*%
%ADD12RoundRect,0.225000X-0.225000X-0.250000X0.225000X-0.250000X0.225000X0.250000X-0.225000X0.250000X0*%
%ADD13RoundRect,0.135000X0.135000X0.185000X-0.135000X0.185000X-0.135000X-0.185000X0.135000X-0.185000X0*%
%ADD14RoundRect,0.200000X-0.275000X0.200000X-0.275000X-0.200000X0.275000X-0.200000X0.275000X0.200000X0*%
%ADD15RoundRect,0.200000X0.275000X-0.200000X0.275000X0.200000X-0.275000X0.200000X-0.275000X-0.200000X0*%
%ADD16RoundRect,0.135000X-0.135000X-0.185000X0.135000X-0.185000X0.135000X0.185000X-0.135000X0.185000X0*%
%ADD17R,1.200000X1.400000*%
%ADD18RoundRect,0.140000X-0.170000X0.140000X-0.170000X-0.140000X0.170000X-0.140000X0.170000X0.140000X0*%
%ADD19RoundRect,0.140000X0.140000X0.170000X-0.140000X0.170000X-0.140000X-0.170000X0.140000X-0.170000X0*%
%ADD20RoundRect,0.200000X-0.200000X-0.275000X0.200000X-0.275000X0.200000X0.275000X-0.200000X0.275000X0*%
G04 APERTURE END LIST*
D10*
%TO.C,U1*%
X90622500Y-123400000D03*
X90622500Y-124035000D03*
X90622500Y-124670000D03*
X90622500Y-125305000D03*
X90622500Y-125940000D03*
X90622500Y-126575000D03*
X90622500Y-127210000D03*
X90622500Y-127845000D03*
X95897500Y-127845000D03*
X95897500Y-127210000D03*
X95897500Y-126575000D03*
X95897500Y-125940000D03*
X95897500Y-125305000D03*
X95897500Y-124670000D03*
X95897500Y-124035000D03*
X95897500Y-123400000D03*
%TD*%
D11*
%TO.C,C5*%
X95300000Y-120625000D03*
X95300000Y-122175000D03*
%TD*%
D12*
%TO.C,C1*%
X103225000Y-127100000D03*
X104775000Y-127100000D03*
%TD*%
D13*
%TO.C,R11*%
X88779999Y-127422500D03*
X87760001Y-127422500D03*
%TD*%
D14*
%TO.C,R8*%
X105300000Y-121475000D03*
X105300000Y-123125000D03*
%TD*%
D15*
%TO.C,R2*%
X113600000Y-123125000D03*
X113600000Y-121475000D03*
%TD*%
D16*
%TO.C,R12*%
X87760000Y-128522500D03*
X88780000Y-128522500D03*
%TD*%
D15*
%TO.C,R3*%
X112000000Y-123125000D03*
X112000000Y-121475000D03*
%TD*%
D16*
%TO.C,R17*%
X94000000Y-131250000D03*
X95019998Y-131250000D03*
%TD*%
D17*
%TO.C,Y1*%
X100822500Y-124722500D03*
X100822500Y-122522500D03*
X99122500Y-122522500D03*
X99122500Y-124722500D03*
%TD*%
D16*
%TO.C,R9*%
X87760000Y-125422500D03*
X88780000Y-125422500D03*
%TD*%
D14*
%TO.C,R6*%
X106850001Y-121475000D03*
X106850001Y-123125000D03*
%TD*%
D11*
%TO.C,C6*%
X96800000Y-120625000D03*
X96800000Y-122175000D03*
%TD*%
%TO.C,C3*%
X90700000Y-120525000D03*
X90700000Y-122075000D03*
%TD*%
D18*
%TO.C,C4*%
X91900000Y-121420000D03*
X91900000Y-122380000D03*
%TD*%
D19*
%TO.C,C2*%
X111180000Y-131100000D03*
X110220000Y-131100000D03*
%TD*%
D18*
%TO.C,C7*%
X94100000Y-121420000D03*
X94100000Y-122380000D03*
%TD*%
D15*
%TO.C,R7*%
X108870001Y-123095000D03*
X108870001Y-121445000D03*
%TD*%
%TO.C,R5*%
X110410000Y-123095000D03*
X110410000Y-121445000D03*
%TD*%
D16*
%TO.C,R10*%
X87750000Y-126422500D03*
X88770000Y-126422500D03*
%TD*%
D20*
%TO.C,R13*%
X84327500Y-130832500D03*
X85977500Y-130832500D03*
%TD*%
D16*
%TO.C,R18*%
X102110001Y-131170000D03*
X103129999Y-131170000D03*
%TD*%
D20*
%TO.C,R14*%
X84337500Y-129312500D03*
X85987500Y-129312500D03*
%TD*%
M02*
