M48
; DRILL file {KiCad 8.0.7-8.0.7-0~ubuntu22.04.1} date 2025-01-12T18:49:43+0100
; FORMAT={-:-/ absolute / inch / decimal}
; #@! TF.CreationDate,2025-01-12T18:49:43+01:00
; #@! TF.GenerationSoftware,Kicad,Pcbnew,8.0.7-8.0.7-0~ubuntu22.04.1
; #@! TF.FileFunction,Plated,1,2,PTH
FMAT,2
INCH
; #@! TA.AperFunction,Plated,PTH,ViaDrill
T1C0.0118
; #@! TA.AperFunction,Plated,PTH,ViaDrill
T2C0.0138
; #@! TA.AperFunction,Plated,PTH,ComponentDrill
T3C0.0236
; #@! TA.AperFunction,Plated,PTH,ComponentDrill
T4C0.0315
; #@! TA.AperFunction,Plated,PTH,ComponentDrill
T5C0.0350
; #@! TA.AperFunction,Plated,PTH,ComponentDrill
T6C0.0374
; #@! TA.AperFunction,Plated,PTH,ComponentDrill
T7C0.0394
; #@! TA.AperFunction,Plated,PTH,ComponentDrill
T8C0.0618
; #@! TA.AperFunction,Plated,PTH,ComponentDrill
T9C0.1063
; #@! TA.AperFunction,Plated,PTH,ComponentDrill
T10C0.1575
%
G90
G05
T1
X3.2274Y-1.81
X3.2274Y-1.8888
X3.2274Y-1.9675
X3.2274Y-2.0463
X3.2274Y-2.2037
X3.2274Y-2.2825
X3.2274Y-2.3612
X3.2274Y-2.44
X3.2274Y-2.5187
X3.2274Y-2.5974
X3.2274Y-2.6762
X3.2274Y-2.7549
X3.2274Y-2.8337
X3.2274Y-2.9124
X3.2274Y-2.9911
X3.2274Y-3.0699
X3.2274Y-3.1486
X3.2274Y-3.2274
X3.2274Y-3.3061
X3.2274Y-3.3848
X3.2274Y-3.4636
X3.2274Y-3.5423
X3.2274Y-3.6211
X3.2274Y-3.6998
X3.2274Y-3.7785
X3.2274Y-3.8573
X3.2274Y-3.936
X3.2274Y-4.0148
X3.2274Y-4.0935
X3.2274Y-4.1722
X3.2274Y-4.251
X3.2274Y-4.3297
X3.2274Y-4.4085
X3.2274Y-4.5659
X3.2274Y-4.6447
X3.2274Y-4.7234
X3.2274Y-4.8022
X3.2274Y-4.8809
X3.2274Y-4.9596
X3.2274Y-5.0384
X3.2274Y-5.5896
X3.2274Y-5.6683
X3.2274Y-5.747
X3.3061Y-1.81
X3.3061Y-1.8888
X3.3061Y-1.9675
X3.3061Y-2.2825
X3.3061Y-2.3612
X3.3061Y-2.44
X3.3061Y-2.5187
X3.3061Y-2.5974
X3.3061Y-2.6762
X3.3061Y-2.7549
X3.3061Y-2.8337
X3.3061Y-2.9124
X3.3061Y-2.9911
X3.3061Y-3.0699
X3.3061Y-3.1486
X3.3061Y-3.2274
X3.3061Y-3.3061
X3.3061Y-3.3848
X3.3061Y-3.4636
X3.3061Y-3.5423
X3.3061Y-3.6211
X3.3061Y-3.6998
X3.3061Y-3.7785
X3.3061Y-3.8573
X3.3061Y-3.936
X3.3061Y-4.0148
X3.3061Y-4.0935
X3.3061Y-4.1722
X3.3061Y-4.251
X3.3061Y-4.3297
X3.3061Y-4.6447
X3.3061Y-4.7234
X3.3061Y-4.9596
X3.3061Y-5.0384
X3.3061Y-5.1959
X3.3061Y-5.3533
X3.3061Y-5.747
X3.3848Y-1.81
X3.3848Y-1.8888
X3.3848Y-1.9675
X3.3848Y-2.0463
X3.3848Y-2.2037
X3.3848Y-2.2825
X3.3848Y-2.3612
X3.3848Y-2.44
X3.3848Y-2.5187
X3.3848Y-2.5974
X3.3848Y-2.6762
X3.3848Y-2.7549
X3.3848Y-2.8337
X3.3848Y-2.9124
X3.3848Y-2.9911
X3.3848Y-3.0699
X3.3848Y-3.1486
X3.3848Y-3.2274
X3.3848Y-3.3061
X3.3848Y-3.3848
X3.3848Y-3.4636
X3.3848Y-3.5423
X3.3848Y-3.6211
X3.3848Y-3.6998
X3.3848Y-3.7785
X3.3848Y-3.8573
X3.3848Y-3.936
X3.3848Y-4.0148
X3.3848Y-4.0935
X3.3848Y-4.1722
X3.3848Y-4.251
X3.3848Y-4.3297
X3.3848Y-4.4085
X3.3848Y-4.5659
X3.3848Y-4.6447
X3.3848Y-4.8022
X3.3848Y-5.1959
X3.3848Y-5.3533
X3.3848Y-5.747
X3.4636Y-1.81
X3.4636Y-1.8888
X3.4636Y-1.9675
X3.4636Y-2.0463
X3.4636Y-2.125
X3.4636Y-2.2037
X3.4636Y-2.2825
X3.4636Y-2.3612
X3.4636Y-2.44
X3.4636Y-2.5187
X3.4636Y-2.5974
X3.4636Y-2.6762
X3.4636Y-2.7549
X3.4636Y-2.8337
X3.4636Y-2.9124
X3.4636Y-2.9911
X3.4636Y-3.0699
X3.4636Y-3.1486
X3.4636Y-3.2274
X3.4636Y-3.3061
X3.4636Y-3.3848
X3.4636Y-3.4636
X3.4636Y-3.5423
X3.4636Y-3.6211
X3.4636Y-3.6998
X3.4636Y-3.7785
X3.4636Y-3.8573
X3.4636Y-3.936
X3.4636Y-4.0148
X3.4636Y-4.0935
X3.4636Y-4.1722
X3.4636Y-4.251
X3.4636Y-4.3297
X3.4636Y-4.4085
X3.4636Y-4.4872
X3.4636Y-4.5659
X3.4636Y-4.7234
X3.4636Y-4.8022
X3.4636Y-4.8809
X3.4636Y-5.1959
X3.4636Y-5.2746
X3.4636Y-5.5896
X3.4636Y-5.6683
X3.4636Y-5.747
X3.5354Y-5.0748
X3.5394Y-5.1654
X3.5423Y-1.81
X3.5423Y-1.8888
X3.5423Y-1.9675
X3.5423Y-2.0463
X3.5423Y-2.125
X3.5423Y-2.2037
X3.5423Y-2.2825
X3.5423Y-2.3612
X3.5423Y-2.44
X3.5423Y-2.5187
X3.5423Y-2.5974
X3.5423Y-2.6762
X3.5423Y-2.7549
X3.5423Y-2.8337
X3.5423Y-2.9124
X3.5423Y-2.9911
X3.5423Y-3.0699
X3.5423Y-3.1486
X3.5423Y-3.2274
X3.5423Y-3.3061
X3.5423Y-3.3848
X3.5423Y-3.4636
X3.5423Y-3.5423
X3.5423Y-3.6211
X3.5423Y-3.6998
X3.5423Y-3.7785
X3.5423Y-3.8573
X3.5423Y-3.936
X3.5423Y-4.0148
X3.5423Y-4.0935
X3.5423Y-4.1722
X3.5423Y-4.251
X3.5423Y-4.3297
X3.5423Y-4.4085
X3.5866Y-5.1732
X3.6211Y-1.81
X3.6211Y-1.8888
X3.6211Y-1.9675
X3.6211Y-2.0463
X3.6211Y-2.125
X3.6211Y-2.2037
X3.6211Y-2.2825
X3.6211Y-2.3612
X3.6211Y-2.44
X3.6211Y-2.5187
X3.6211Y-2.5974
X3.6211Y-2.6762
X3.6211Y-2.7549
X3.6211Y-2.8337
X3.6211Y-2.9124
X3.6211Y-2.9911
X3.6211Y-3.0699
X3.6211Y-3.1486
X3.6211Y-3.2274
X3.6211Y-3.3061
X3.6211Y-3.3848
X3.6211Y-3.4636
X3.6211Y-3.7785
X3.6211Y-3.8573
X3.6211Y-3.936
X3.6211Y-4.0148
X3.6211Y-4.0935
X3.6211Y-4.1722
X3.6211Y-4.251
X3.6211Y-4.3297
X3.6211Y-4.4085
X3.6211Y-4.7234
X3.6299Y-4.9882
X3.6339Y-5.1024
X3.6575Y-4.8622
X3.6614Y-4.9252
X3.6998Y-1.81
X3.6998Y-1.8888
X3.6998Y-1.9675
X3.6998Y-2.0463
X3.6998Y-2.125
X3.6998Y-2.2037
X3.6998Y-2.2825
X3.6998Y-2.3612
X3.6998Y-2.44
X3.6998Y-2.5187
X3.6998Y-2.5974
X3.6998Y-2.6762
X3.6998Y-2.7549
X3.6998Y-2.8337
X3.6998Y-2.9124
X3.6998Y-2.9911
X3.6998Y-3.0699
X3.6998Y-3.1486
X3.6998Y-3.2274
X3.6998Y-3.3061
X3.6998Y-3.3848
X3.6998Y-3.4636
X3.6998Y-3.7785
X3.6998Y-3.8573
X3.6998Y-3.936
X3.6998Y-4.0148
X3.6998Y-4.0935
X3.6998Y-4.1722
X3.6998Y-4.251
X3.6998Y-4.3297
X3.6998Y-4.4085
X3.6998Y-5.0384
X3.6998Y-5.1171
X3.7115Y-4.8906
X3.7785Y-1.81
X3.7785Y-1.8888
X3.7785Y-1.9675
X3.7785Y-2.0463
X3.7785Y-2.125
X3.7785Y-2.2037
X3.7785Y-2.2825
X3.7785Y-2.3612
X3.7785Y-2.44
X3.7785Y-2.5187
X3.7785Y-2.5974
X3.7785Y-2.6762
X3.7785Y-2.7549
X3.7785Y-2.8337
X3.7785Y-2.9124
X3.7785Y-2.9911
X3.7785Y-3.0699
X3.7785Y-3.1486
X3.7785Y-3.2274
X3.7785Y-3.3061
X3.7785Y-3.3848
X3.7785Y-3.4636
X3.7785Y-3.8573
X3.7785Y-3.936
X3.7785Y-4.0148
X3.7785Y-4.0935
X3.7785Y-4.1722
X3.7785Y-4.251
X3.7785Y-4.3297
X3.7785Y-4.4085
X3.7785Y-5.1171
X3.7785Y-5.1959
X3.7785Y-5.4321
X3.7785Y-5.5108
X3.8573Y-1.81
X3.8573Y-1.8888
X3.8573Y-1.9675
X3.8573Y-2.0463
X3.8573Y-2.2825
X3.8573Y-2.3612
X3.8573Y-2.44
X3.8573Y-2.5187
X3.8573Y-2.5974
X3.8573Y-2.6762
X3.8573Y-2.7549
X3.8573Y-2.8337
X3.8573Y-2.9124
X3.8573Y-2.9911
X3.8573Y-3.0699
X3.8573Y-3.1486
X3.8573Y-3.2274
X3.8573Y-3.3061
X3.8573Y-4.0148
X3.8573Y-4.0935
X3.8573Y-4.1722
X3.8573Y-4.251
X3.8573Y-4.3297
X3.8573Y-4.4085
X3.8573Y-4.6447
X3.8573Y-4.8022
X3.8573Y-4.9596
X3.8573Y-5.0384
X3.8573Y-5.1171
X3.8573Y-5.1959
X3.9027Y-4.9109
X3.936Y-1.81
X3.936Y-1.8888
X3.936Y-1.9675
X3.936Y-2.3612
X3.936Y-2.44
X3.936Y-2.5187
X3.936Y-2.5974
X3.936Y-2.6762
X3.936Y-2.7549
X3.936Y-2.8337
X3.936Y-2.9124
X3.936Y-2.9911
X3.936Y-3.0699
X3.936Y-3.1486
X3.936Y-4.0935
X3.936Y-4.1722
X3.936Y-4.251
X3.936Y-4.3297
X3.936Y-4.4085
X3.936Y-4.7234
X3.936Y-5.5896
X3.9694Y-4.8237
X4.0148Y-1.81
X4.0148Y-1.8888
X4.0148Y-1.9675
X4.0148Y-2.3612
X4.0148Y-2.44
X4.0148Y-2.5187
X4.0148Y-2.5974
X4.0148Y-2.6762
X4.0148Y-2.7549
X4.0148Y-2.8337
X4.0148Y-2.9124
X4.0148Y-2.9911
X4.0148Y-3.0699
X4.0148Y-3.1486
X4.0148Y-4.1722
X4.0148Y-4.251
X4.0148Y-4.3297
X4.0148Y-4.4085
X4.0148Y-4.6447
X4.0148Y-4.7234
X4.0148Y-4.8022
X4.0148Y-4.8809
X4.0148Y-4.9596
X4.0935Y-1.81
X4.0935Y-1.8888
X4.0935Y-1.9675
X4.0935Y-2.3612
X4.0935Y-2.44
X4.0935Y-2.5187
X4.0935Y-2.5974
X4.0935Y-2.6762
X4.0935Y-2.7549
X4.0935Y-2.8337
X4.0935Y-2.9124
X4.0935Y-2.9911
X4.0935Y-3.0699
X4.0935Y-4.1722
X4.0935Y-4.251
X4.0935Y-4.3297
X4.0935Y-4.4085
X4.0935Y-4.4872
X4.0935Y-4.5659
X4.0935Y-4.6447
X4.0935Y-5.1959
X4.0935Y-5.5108
X4.1722Y-1.81
X4.1722Y-1.8888
X4.1722Y-1.9675
X4.1722Y-2.0463
X4.1722Y-2.2825
X4.1722Y-2.3612
X4.1722Y-2.44
X4.1722Y-2.5187
X4.1722Y-2.5974
X4.1722Y-2.6762
X4.1722Y-2.7549
X4.1722Y-2.8337
X4.1722Y-2.9124
X4.1722Y-2.9911
X4.1722Y-3.0699
X4.1722Y-4.251
X4.1722Y-4.3297
X4.1722Y-4.4085
X4.1722Y-5.1959
X4.2043Y-5.0079
X4.251Y-1.81
X4.251Y-1.8888
X4.251Y-1.9675
X4.251Y-2.0463
X4.251Y-2.125
X4.251Y-2.2037
X4.251Y-2.2825
X4.251Y-2.3612
X4.251Y-2.44
X4.251Y-2.5187
X4.251Y-2.5974
X4.251Y-2.6762
X4.251Y-2.7549
X4.251Y-2.8337
X4.251Y-4.251
X4.251Y-4.3297
X4.251Y-4.4085
X4.3297Y-1.81
X4.3297Y-1.8888
X4.3297Y-2.5974
X4.3297Y-2.6762
X4.3297Y-2.7549
X4.3297Y-2.8337
X4.3297Y-4.251
X4.3297Y-4.3297
X4.3297Y-4.4085
X4.3297Y-5.2746
X4.3297Y-5.3533
X4.4085Y-1.81
X4.4085Y-1.8888
X4.4085Y-2.5974
X4.4085Y-2.6762
X4.4085Y-2.7549
X4.4085Y-2.8337
X4.4085Y-4.251
X4.4085Y-4.3297
X4.4085Y-4.4085
X4.4085Y-5.2746
X4.4085Y-5.3533
X4.4872Y-1.81
X4.4872Y-1.8888
X4.4872Y-2.5974
X4.4872Y-2.6762
X4.4872Y-2.7549
X4.4872Y-2.8337
X4.4872Y-2.9124
X4.4872Y-2.9911
X4.4872Y-3.0699
X4.4872Y-4.251
X4.4872Y-4.3297
X4.4872Y-4.4085
X4.4872Y-4.6447
X4.4872Y-5.3533
X4.5659Y-1.81
X4.5659Y-1.8888
X4.5659Y-2.5974
X4.5659Y-2.6762
X4.5659Y-2.7549
X4.5659Y-2.8337
X4.5659Y-2.9124
X4.5659Y-2.9911
X4.5659Y-3.0699
X4.5659Y-4.1722
X4.5659Y-4.251
X4.5659Y-4.3297
X4.5659Y-4.4085
X4.5659Y-4.4872
X4.5659Y-4.5659
X4.5659Y-4.6447
X4.5659Y-4.8809
X4.5659Y-5.3533
X4.5659Y-5.4321
X4.5659Y-5.5108
X4.6447Y-1.81
X4.6447Y-1.8888
X4.6447Y-2.5974
X4.6447Y-2.6762
X4.6447Y-2.7549
X4.6447Y-2.8337
X4.6447Y-2.9124
X4.6447Y-2.9911
X4.6447Y-3.0699
X4.6447Y-3.1486
X4.6447Y-4.1722
X4.6447Y-4.251
X4.6447Y-4.3297
X4.6447Y-4.4085
X4.6447Y-4.4872
X4.6447Y-4.5659
X4.6447Y-5.3533
X4.7234Y-1.81
X4.7234Y-1.8888
X4.7234Y-2.5974
X4.7234Y-2.6762
X4.7234Y-2.7549
X4.7234Y-2.8337
X4.7234Y-2.9124
X4.7234Y-2.9911
X4.7234Y-3.0699
X4.7234Y-3.1486
X4.7234Y-4.0935
X4.7234Y-4.1722
X4.7234Y-4.251
X4.7234Y-4.3297
X4.7234Y-4.4085
X4.7234Y-4.4872
X4.8022Y-1.81
X4.8022Y-1.8888
X4.8022Y-2.5974
X4.8022Y-2.6762
X4.8022Y-2.7549
X4.8022Y-2.8337
X4.8022Y-2.9124
X4.8022Y-2.9911
X4.8022Y-3.0699
X4.8022Y-3.1486
X4.8022Y-3.2274
X4.8022Y-4.0148
X4.8022Y-4.0935
X4.8022Y-4.1722
X4.8022Y-4.251
X4.8022Y-4.3297
X4.8022Y-4.4085
X4.8022Y-4.4872
X4.8022Y-4.7234
X4.8809Y-1.81
X4.8809Y-1.8888
X4.8809Y-2.5974
X4.8809Y-2.6762
X4.8809Y-2.7549
X4.8809Y-2.8337
X4.8809Y-2.9124
X4.8809Y-2.9911
X4.8809Y-3.0699
X4.8809Y-3.1486
X4.8809Y-3.2274
X4.8809Y-3.3061
X4.8809Y-3.3848
X4.8809Y-3.8573
X4.8809Y-3.936
X4.8809Y-4.0148
X4.8809Y-4.0935
X4.8809Y-4.1722
X4.8809Y-4.251
X4.8809Y-4.3297
X4.8809Y-4.4085
X4.8809Y-4.4872
X4.8809Y-4.5659
X4.8809Y-4.6447
X4.8809Y-4.7234
X4.8809Y-4.9596
X4.8809Y-5.0384
X4.9596Y-1.81
X4.9596Y-1.8888
X4.9596Y-2.5974
X4.9596Y-2.6762
X4.9596Y-2.7549
X4.9596Y-2.8337
X4.9596Y-2.9124
X4.9596Y-2.9911
X4.9596Y-3.0699
X4.9596Y-3.1486
X4.9596Y-3.2274
X4.9596Y-3.3061
X4.9596Y-3.3848
X4.9596Y-3.4636
X4.9596Y-3.7785
X4.9596Y-3.8573
X4.9596Y-3.936
X4.9596Y-4.0148
X4.9596Y-4.0935
X4.9596Y-4.1722
X4.9596Y-4.251
X4.9596Y-4.3297
X4.9596Y-4.4085
X4.9596Y-4.4872
X4.9596Y-4.5659
X4.9596Y-4.6447
X4.9596Y-4.7234
X4.9596Y-4.8022
X4.9596Y-4.8809
X4.9596Y-4.9596
X4.9596Y-5.0384
X4.9596Y-5.2746
X4.9596Y-5.3533
X4.9596Y-5.4321
X4.9596Y-5.5108
X4.9596Y-5.5896
X4.9596Y-5.6683
X4.9596Y-5.747
X5.0384Y-1.81
X5.0384Y-1.8888
X5.0384Y-2.5974
X5.0384Y-2.6762
X5.0384Y-2.7549
X5.0384Y-2.8337
X5.0384Y-2.9124
X5.0384Y-2.9911
X5.0384Y-3.0699
X5.0384Y-3.1486
X5.0384Y-3.2274
X5.0384Y-3.3061
X5.0384Y-3.3848
X5.0384Y-3.4636
X5.0384Y-3.7785
X5.0384Y-3.8573
X5.0384Y-3.936
X5.0384Y-4.0148
X5.0384Y-4.0935
X5.0384Y-4.1722
X5.0384Y-4.251
X5.0384Y-4.3297
X5.0384Y-4.4085
X5.0384Y-4.4872
X5.0384Y-4.5659
X5.0384Y-4.6447
X5.0384Y-4.7234
X5.0384Y-4.8022
X5.0384Y-4.8809
X5.0384Y-4.9596
X5.0384Y-5.0384
X5.0384Y-5.3533
X5.0384Y-5.4321
X5.0384Y-5.5108
X5.0384Y-5.5896
X5.0384Y-5.6683
X5.0384Y-5.747
X5.1171Y-1.81
X5.1171Y-1.8888
X5.1171Y-2.5974
X5.1171Y-2.6762
X5.1171Y-2.7549
X5.1171Y-2.8337
X5.1171Y-2.9124
X5.1171Y-2.9911
X5.1171Y-3.0699
X5.1171Y-3.1486
X5.1171Y-3.2274
X5.1171Y-3.3061
X5.1171Y-3.3848
X5.1171Y-3.4636
X5.1171Y-3.5423
X5.1171Y-3.6211
X5.1171Y-3.6998
X5.1171Y-3.7785
X5.1171Y-3.8573
X5.1171Y-3.936
X5.1171Y-4.0148
X5.1171Y-4.0935
X5.1171Y-4.1722
X5.1171Y-4.251
X5.1171Y-4.3297
X5.1171Y-4.4085
X5.1171Y-4.4872
X5.1171Y-4.5659
X5.1171Y-4.6447
X5.1171Y-4.7234
X5.1171Y-4.8022
X5.1171Y-4.8809
X5.1171Y-4.9596
X5.1171Y-5.0384
X5.1171Y-5.1171
X5.1171Y-5.2746
X5.1171Y-5.3533
X5.1171Y-5.4321
X5.1171Y-5.5108
X5.1171Y-5.5896
X5.1171Y-5.6683
X5.1171Y-5.747
X5.1959Y-1.81
X5.1959Y-1.8888
X5.1959Y-5.4321
X5.1959Y-5.5108
X5.1959Y-5.5896
X5.1959Y-5.6683
X5.1959Y-5.747
X5.2746Y-1.81
X5.2746Y-1.8888
X5.2746Y-5.4321
X5.2746Y-5.5108
X5.2746Y-5.5896
X5.2746Y-5.6683
X5.2746Y-5.747
X5.3533Y-1.81
X5.3533Y-1.8888
X5.3533Y-5.4321
X5.3533Y-5.5108
X5.3533Y-5.5896
X5.3533Y-5.6683
X5.3533Y-5.747
X5.4321Y-1.81
X5.4321Y-1.8888
X5.4321Y-5.5108
X5.4321Y-5.5896
X5.4321Y-5.6683
X5.4321Y-5.747
T2
X3.32Y-5.1509
X3.3203Y-5.0911
X3.4275Y-5.023
X3.4281Y-5.0536
X3.5214Y-5.1361
X3.523Y-5.1055
X3.5812Y-5.1381
X3.5974Y-5.1122
X3.8985Y-5.267
X3.8985Y-5.3733
X3.9351Y-4.9796
X3.9355Y-5.0114
X3.9598Y-5.267
X3.9606Y-5.3733
X4.1457Y-4.7825
X4.2067Y-4.7825
X4.2583Y-5.8057
X4.2871Y-5.7722
X4.3268Y-5.0512
X4.378Y-5.6443
X4.4362Y-5.725
X4.4657Y-5.6906
X4.4744Y-4.8477
X4.622Y-5.0443
X4.6626Y-5.1272
T3
X3.8976Y-2.1654
X3.9322Y-2.0818
X3.9322Y-2.2489
X4.0157Y-2.0472
X4.0157Y-2.2835
X4.0993Y-2.0818
X4.0993Y-2.2489
X4.1339Y-2.1654
X4.5276Y-2.1654
X4.5622Y-2.0818
X4.5622Y-2.2489
X4.6457Y-2.0472
X4.6457Y-2.2835
X4.7292Y-2.0818
X4.7292Y-2.2489
X4.7638Y-2.1654
T4
X4.7075Y-4.5504
X4.7075Y-4.8504
X4.8075Y-4.5504
X4.8075Y-4.8504
T5
X3.2943Y-5.252
X3.3845Y-5.252
X3.4246Y-5.4417
X3.4646Y-5.5118
X3.5046Y-5.4417
X3.5446Y-5.5118
X3.5846Y-5.4417
X3.6246Y-5.5118
X3.6646Y-5.4417
X3.7046Y-5.5118
X3.7443Y-5.252
X3.8345Y-5.252
X4.0679Y-5.2512
X4.158Y-5.2512
X4.1981Y-5.4409
X4.2381Y-5.511
X4.2781Y-5.4409
X4.3181Y-5.511
X4.3581Y-5.4409
X4.3981Y-5.511
X4.4381Y-5.4409
X4.4781Y-5.511
X4.5179Y-5.2512
X4.608Y-5.2512
T6
X3.5724Y-4.537
X3.6709Y-4.537
X3.7693Y-4.537
X3.8677Y-4.537
X3.9661Y-4.537
X4.1992Y-4.5372
X4.2976Y-4.5372
X4.3961Y-4.5372
X4.4945Y-4.5372
T7
X4.1366Y-5.0724
X4.235Y-5.0724
T8
X3.2443Y-5.4768
X3.8845Y-5.4768
X4.0179Y-5.476
X4.658Y-5.476
T9
X5.024Y-5.1811
X5.3075Y-5.1811
T10
X4.0157Y-2.1654
X4.6457Y-2.1654
T3
G00X4.9Y-5.439
M15
G01X4.9Y-5.3957
M16
G05
G00X5.4315Y-5.439
M15
G01X5.4315Y-5.3957
M16
G05
M30
