M48
; DRILL file {KiCad 8.0.7-8.0.7-0~ubuntu22.04.1} date 2024-12-07T17:50:11+0100
; FORMAT={-:-/ absolute / inch / decimal}
; #@! TF.CreationDate,2024-12-07T17:50:11+01:00
; #@! TF.GenerationSoftware,Kicad,Pcbnew,8.0.7-8.0.7-0~ubuntu22.04.1
; #@! TF.FileFunction,Plated,1,2,PTH
FMAT,2
INCH
; #@! TA.AperFunction,Plated,PTH,ViaDrill
T1C0.0118
; #@! TA.AperFunction,Plated,PTH,ViaDrill
T2C0.0138
; #@! TA.AperFunction,Plated,PTH,ComponentDrill
T3C0.0236
; #@! TA.AperFunction,Plated,PTH,ComponentDrill
T4C0.0315
; #@! TA.AperFunction,Plated,PTH,ComponentDrill
T5C0.0350
; #@! TA.AperFunction,Plated,PTH,ComponentDrill
T6C0.0394
; #@! TA.AperFunction,Plated,PTH,ComponentDrill
T7C0.0618
; #@! TA.AperFunction,Plated,PTH,ComponentDrill
T8C0.1063
; #@! TA.AperFunction,Plated,PTH,ComponentDrill
T9C0.1575
%
G90
G05
T1
X3.5079Y-4.9656
X3.5748Y-4.9656
X3.8465Y-5.1811
X3.9921Y-5.1929
X4.0Y-4.7087
X4.126Y-5.1181
X4.1457Y-4.7106
X4.1772Y-4.7106
X4.1929Y-4.8622
X4.3189Y-4.7087
X4.3841Y-4.8824
X4.4508Y-4.7953
X4.5634Y-5.1146
X4.5867Y-5.1358
T2
X3.4213Y-5.0591
X3.4265Y-5.0262
X3.4409Y-4.9685
X3.4488Y-5.0039
X3.6737Y-5.7626
X3.6811Y-5.7953
X3.7835Y-4.9269
X3.7844Y-5.0669
X3.7844Y-5.1299
X3.7845Y-4.9587
X3.7845Y-4.9941
X3.7874Y-5.1654
X3.7875Y-5.0245
X3.7953Y-5.7402
X3.9402Y-5.7402
X4.0827Y-5.7402
X4.252Y-5.8622
X4.2835Y-5.8622
X4.315Y-5.6457
X4.315Y-5.8622
X4.3301Y-5.6122
X4.3465Y-5.8622
X4.37Y-5.6139
X4.378Y-5.8622
X4.4016Y-5.5984
X4.4094Y-5.8622
X4.4409Y-5.8622
X4.4803Y-5.8622
X4.5118Y-5.8622
X4.5433Y-5.8622
X4.5748Y-5.8622
T3
X3.8976Y-2.1654
X3.9322Y-2.0818
X3.9322Y-2.2489
X4.0157Y-2.0472
X4.0157Y-2.2835
X4.0993Y-2.0818
X4.0993Y-2.2489
X4.1339Y-2.1654
X4.5276Y-2.1654
X4.5622Y-2.0818
X4.5622Y-2.2489
X4.6457Y-2.0472
X4.6457Y-2.2835
X4.7292Y-2.0818
X4.7292Y-2.2489
X4.7638Y-2.1654
T4
X3.2835Y-4.826
X3.2835Y-5.126
X3.3835Y-4.826
X3.3835Y-5.126
T5
X3.3063Y-5.2402
X3.3965Y-5.2402
X3.4365Y-5.4299
X3.4765Y-5.5
X3.5165Y-5.4299
X3.5565Y-5.5
X3.5965Y-5.4299
X3.6365Y-5.5
X3.6765Y-5.4299
X3.7165Y-5.5
X3.7563Y-5.2402
X3.8465Y-5.2402
X4.0798Y-5.2394
X4.17Y-5.2394
X4.2101Y-5.4291
X4.2501Y-5.4992
X4.2901Y-5.4291
X4.3301Y-5.4992
X4.3701Y-5.4291
X4.4101Y-5.4992
X4.4501Y-5.4291
X4.4901Y-5.4992
X4.5298Y-5.2394
X4.62Y-5.2394
T6
X3.5205Y-4.6693
X3.6205Y-4.6693
X3.7205Y-4.6693
X3.8205Y-4.6693
X3.9205Y-4.6693
X4.4173Y-4.6693
X4.5173Y-4.6693
X4.6173Y-4.6693
X4.7173Y-4.6693
X4.9134Y-4.6654
X5.0134Y-4.6654
T7
X3.2563Y-5.465
X3.8965Y-5.465
X4.0298Y-5.4642
X4.67Y-5.4642
T8
X4.9213Y-5.1713
X5.2047Y-5.1713
T9
X4.0157Y-2.1654
X4.6457Y-2.1654
T3
G00X4.7972Y-5.4291
M15
G01X4.7972Y-5.3858
M16
G05
G00X5.3287Y-5.4291
M15
G01X5.3287Y-5.3858
M16
G05
M30
