%TF.GenerationSoftware,KiCad,Pcbnew,9.0.3-9.0.3-0~ubuntu24.04.1*%
%TF.CreationDate,2025-09-09T21:57:36+02:00*%
%TF.ProjectId,vesc_mms_board,76657363-5f6d-46d7-935f-626f6172642e,rev?*%
%TF.SameCoordinates,Original*%
%TF.FileFunction,Copper,L1,Top*%
%TF.FilePolarity,Positive*%
%FSLAX46Y46*%
G04 Gerber Fmt 4.6, Leading zero omitted, Abs format (unit mm)*
G04 Created by KiCad (PCBNEW 9.0.3-9.0.3-0~ubuntu24.04.1) date 2025-09-09 21:57:36*
%MOMM*%
%LPD*%
G01*
G04 APERTURE LIST*
G04 Aperture macros list*
%AMRoundRect*
0 Rectangle with rounded corners*
0 $1 Rounding radius*
0 $2 $3 $4 $5 $6 $7 $8 $9 X,Y pos of 4 corners*
0 Add a 4 corners polygon primitive as box body*
4,1,4,$2,$3,$4,$5,$6,$7,$8,$9,$2,$3,0*
0 Add four circle primitives for the rounded corners*
1,1,$1+$1,$2,$3*
1,1,$1+$1,$4,$5*
1,1,$1+$1,$6,$7*
1,1,$1+$1,$8,$9*
0 Add four rect primitives between the rounded corners*
20,1,$1+$1,$2,$3,$4,$5,0*
20,1,$1+$1,$4,$5,$6,$7,0*
20,1,$1+$1,$6,$7,$8,$9,0*
20,1,$1+$1,$8,$9,$2,$3,0*%
G04 Aperture macros list end*
%TA.AperFunction,SMDPad,CuDef*%
%ADD10RoundRect,0.100000X-0.712500X-0.100000X0.712500X-0.100000X0.712500X0.100000X-0.712500X0.100000X0*%
%TD*%
%TA.AperFunction,ComponentPad*%
%ADD11RoundRect,0.250000X-0.600000X-0.725000X0.600000X-0.725000X0.600000X0.725000X-0.600000X0.725000X0*%
%TD*%
%TA.AperFunction,ComponentPad*%
%ADD12O,1.700000X1.950000*%
%TD*%
%TA.AperFunction,SMDPad,CuDef*%
%ADD13RoundRect,0.225000X-0.250000X0.225000X-0.250000X-0.225000X0.250000X-0.225000X0.250000X0.225000X0*%
%TD*%
%TA.AperFunction,ComponentPad*%
%ADD14R,1.600000X1.600000*%
%TD*%
%TA.AperFunction,ComponentPad*%
%ADD15O,1.600000X1.600000*%
%TD*%
%TA.AperFunction,SMDPad,CuDef*%
%ADD16RoundRect,0.135000X0.135000X0.185000X-0.135000X0.185000X-0.135000X-0.185000X0.135000X-0.185000X0*%
%TD*%
%TA.AperFunction,SMDPad,CuDef*%
%ADD17RoundRect,0.200000X-0.275000X0.200000X-0.275000X-0.200000X0.275000X-0.200000X0.275000X0.200000X0*%
%TD*%
%TA.AperFunction,SMDPad,CuDef*%
%ADD18RoundRect,0.200000X0.275000X-0.200000X0.275000X0.200000X-0.275000X0.200000X-0.275000X-0.200000X0*%
%TD*%
%TA.AperFunction,SMDPad,CuDef*%
%ADD19RoundRect,0.135000X-0.135000X-0.185000X0.135000X-0.185000X0.135000X0.185000X-0.135000X0.185000X0*%
%TD*%
%TA.AperFunction,ComponentPad*%
%ADD20C,0.900000*%
%TD*%
%TA.AperFunction,ComponentPad*%
%ADD21C,8.000000*%
%TD*%
%TA.AperFunction,ComponentPad*%
%ADD22R,0.900000X2.000000*%
%TD*%
%TA.AperFunction,ComponentPad*%
%ADD23RoundRect,1.025000X1.025000X1.025000X-1.025000X1.025000X-1.025000X-1.025000X1.025000X-1.025000X0*%
%TD*%
%TA.AperFunction,ComponentPad*%
%ADD24C,4.100000*%
%TD*%
%TA.AperFunction,SMDPad,CuDef*%
%ADD25R,1.200000X1.400000*%
%TD*%
%TA.AperFunction,SMDPad,CuDef*%
%ADD26RoundRect,0.135000X-0.185000X0.135000X-0.185000X-0.135000X0.185000X-0.135000X0.185000X0.135000X0*%
%TD*%
%TA.AperFunction,SMDPad,CuDef*%
%ADD27RoundRect,0.140000X-0.170000X0.140000X-0.170000X-0.140000X0.170000X-0.140000X0.170000X0.140000X0*%
%TD*%
%TA.AperFunction,ComponentPad*%
%ADD28RoundRect,0.250000X0.600000X0.750000X-0.600000X0.750000X-0.600000X-0.750000X0.600000X-0.750000X0*%
%TD*%
%TA.AperFunction,ComponentPad*%
%ADD29O,1.700000X2.000000*%
%TD*%
%TA.AperFunction,SMDPad,CuDef*%
%ADD30RoundRect,0.200000X-0.200000X-0.275000X0.200000X-0.275000X0.200000X0.275000X-0.200000X0.275000X0*%
%TD*%
%TA.AperFunction,SMDPad,CuDef*%
%ADD31RoundRect,0.135000X0.185000X-0.135000X0.185000X0.135000X-0.185000X0.135000X-0.185000X-0.135000X0*%
%TD*%
%TA.AperFunction,ComponentPad*%
%ADD32R,1.500000X1.500000*%
%TD*%
%TA.AperFunction,ComponentPad*%
%ADD33C,1.500000*%
%TD*%
%TA.AperFunction,ComponentPad*%
%ADD34C,2.300000*%
%TD*%
%TA.AperFunction,ViaPad*%
%ADD35C,0.600000*%
%TD*%
%TA.AperFunction,ViaPad*%
%ADD36C,0.550000*%
%TD*%
%TA.AperFunction,ViaPad*%
%ADD37C,0.650000*%
%TD*%
%TA.AperFunction,Conductor*%
%ADD38C,0.200000*%
%TD*%
%TA.AperFunction,Conductor*%
%ADD39C,0.300000*%
%TD*%
%TA.AperFunction,Conductor*%
%ADD40C,0.750000*%
%TD*%
%TA.AperFunction,Conductor*%
%ADD41C,0.508000*%
%TD*%
%TA.AperFunction,Conductor*%
%ADD42C,0.240000*%
%TD*%
%TA.AperFunction,Conductor*%
%ADD43C,0.160000*%
%TD*%
%TA.AperFunction,Conductor*%
%ADD44C,0.254000*%
%TD*%
G04 APERTURE END LIST*
D10*
%TO.P,U1,1,DM4*%
%TO.N,unconnected-(U1-DM4-Pad1)*%
X90622500Y-123400000D03*
%TO.P,U1,2,DP4*%
%TO.N,unconnected-(U1-DP4-Pad2)*%
X90622500Y-124035000D03*
%TO.P,U1,3,DM3*%
%TO.N,unconnected-(U1-DM3-Pad3)*%
X90622500Y-124670000D03*
%TO.P,U1,4,DP3*%
%TO.N,unconnected-(U1-DP3-Pad4)*%
X90622500Y-125305000D03*
%TO.P,U1,5,DM2*%
%TO.N,Net-(U1-DM2)*%
X90622500Y-125940000D03*
%TO.P,U1,6,DP2*%
%TO.N,Net-(U1-DP2)*%
X90622500Y-126575000D03*
%TO.P,U1,7,DM1*%
%TO.N,Net-(U1-DM1)*%
X90622500Y-127210000D03*
%TO.P,U1,8,DP1*%
%TO.N,Net-(U1-DP1)*%
X90622500Y-127845000D03*
%TO.P,U1,9,RESET#/CDP*%
%TO.N,unconnected-(U1-RESET#{slash}CDP-Pad9)*%
X95897500Y-127845000D03*
%TO.P,U1,10,DMU*%
%TO.N,USB_UPSTREAM_D-*%
X95897500Y-127210000D03*
%TO.P,U1,11,DPU*%
%TO.N,USB_UPSTREAM_D+*%
X95897500Y-126575000D03*
%TO.P,U1,12,V5*%
%TO.N,+5V*%
X95897500Y-125940000D03*
%TO.P,U1,13,VDD33*%
%TO.N,Net-(U1-VDD33)*%
X95897500Y-125305000D03*
%TO.P,U1,14,GND*%
%TO.N,GND*%
X95897500Y-124670000D03*
%TO.P,U1,15,XO*%
%TO.N,Net-(U1-XO)*%
X95897500Y-124035000D03*
%TO.P,U1,16,XI*%
%TO.N,Net-(U1-XI)*%
X95897500Y-123400000D03*
%TD*%
D11*
%TO.P,J3,1,Pin_1*%
%TO.N,GND*%
X106660000Y-115245000D03*
D12*
%TO.P,J3,2,Pin_2*%
%TO.N,/CAN/CAN-*%
X109160000Y-115245000D03*
%TO.P,J3,3,Pin_3*%
%TO.N,/CAN/CAN+*%
X111660000Y-115245000D03*
%TO.P,J3,4,Pin_4*%
%TO.N,+5V*%
X114160000Y-115245000D03*
%TD*%
D13*
%TO.P,C5,1*%
%TO.N,GND*%
X95300000Y-120625000D03*
%TO.P,C5,2*%
%TO.N,Net-(U1-VDD33)*%
X95300000Y-122175000D03*
%TD*%
D14*
%TO.P,SW1,1*%
%TO.N,Net-(R2-Pad2)*%
X122110000Y-115580000D03*
D15*
%TO.P,SW1,2*%
%TO.N,Net-(R3-Pad2)*%
X119570000Y-115580000D03*
%TO.P,SW1,3*%
%TO.N,/CAN/CAN2-*%
X119570000Y-123200000D03*
%TO.P,SW1,4*%
%TO.N,/CAN/CAN1+*%
X122110000Y-123200000D03*
%TD*%
D16*
%TO.P,R11,1*%
%TO.N,Net-(U1-DM1)*%
X88779999Y-127422500D03*
%TO.P,R11,2*%
%TO.N,USB_DOWNSTREAM_D-*%
X87760001Y-127422500D03*
%TD*%
D17*
%TO.P,R8,1*%
%TO.N,/CAN/CAN-*%
X105300000Y-121475000D03*
%TO.P,R8,2*%
%TO.N,/CAN/CAN1-*%
X105300000Y-123125000D03*
%TD*%
D18*
%TO.P,R2,1*%
%TO.N,/CAN/CAN1-*%
X113600000Y-123125000D03*
%TO.P,R2,2*%
%TO.N,Net-(R2-Pad2)*%
X113600000Y-121475000D03*
%TD*%
D19*
%TO.P,R12,1*%
%TO.N,USB_DOWNSTREAM_D+*%
X87760000Y-128522500D03*
%TO.P,R12,2*%
%TO.N,Net-(U1-DP1)*%
X88780000Y-128522500D03*
%TD*%
D18*
%TO.P,R3,1*%
%TO.N,/CAN/CAN2+*%
X112000000Y-123125000D03*
%TO.P,R3,2*%
%TO.N,Net-(R3-Pad2)*%
X112000000Y-121475000D03*
%TD*%
D20*
%TO.P,H9,1,1*%
%TO.N,VCC*%
X115000000Y-55000000D03*
X115878680Y-52878680D03*
X115878680Y-57121320D03*
X118000000Y-52000000D03*
D21*
X118000000Y-55000000D03*
D20*
X118000000Y-58000000D03*
X120121320Y-52878680D03*
X120121320Y-57121320D03*
X121000000Y-55000000D03*
%TD*%
D19*
%TO.P,R17,1*%
%TO.N,+12V*%
X94000000Y-131250000D03*
%TO.P,R17,2*%
%TO.N,Net-(J2-Pad10)*%
X95019998Y-131250000D03*
%TD*%
D11*
%TO.P,J4,1,Pin_1*%
%TO.N,GND*%
X90740000Y-115240000D03*
D12*
%TO.P,J4,2,Pin_2*%
X93240000Y-115240000D03*
%TO.P,J4,3,Pin_3*%
%TO.N,/USB/USB_VESC_D+*%
X95740000Y-115240000D03*
%TO.P,J4,4,Pin_4*%
%TO.N,/USB/USB_VESC_D-*%
X98240000Y-115240000D03*
%TO.P,J4,5,Pin_5*%
%TO.N,+5V*%
X100740000Y-115240000D03*
%TD*%
D22*
%TO.P,J5,*%
%TO.N,*%
X138100000Y-137930001D03*
X124600000Y-137930001D03*
D23*
%TO.P,J5,1,Pin_1*%
%TO.N,GND*%
X134950000Y-131930001D03*
D24*
%TO.P,J5,2,Pin_2*%
%TO.N,VCC*%
X127750000Y-131930001D03*
%TD*%
D25*
%TO.P,Y1,1,1*%
%TO.N,Net-(U1-XO)*%
X100140000Y-124690001D03*
%TO.P,Y1,2,2*%
%TO.N,GND*%
X100140000Y-122490001D03*
%TO.P,Y1,3,3*%
%TO.N,Net-(U1-XI)*%
X98440000Y-122490001D03*
%TO.P,Y1,4,4*%
%TO.N,GND*%
X98440000Y-124690001D03*
%TD*%
D19*
%TO.P,R9,1*%
%TO.N,/USB/USB_VESC_D-*%
X87760000Y-125422500D03*
%TO.P,R9,2*%
%TO.N,Net-(U1-DM2)*%
X88780000Y-125422500D03*
%TD*%
D17*
%TO.P,R6,1*%
%TO.N,/CAN/CAN+*%
X106850001Y-121475000D03*
%TO.P,R6,2*%
%TO.N,/CAN/CAN1+*%
X106850001Y-123125000D03*
%TD*%
D13*
%TO.P,C6,1*%
%TO.N,GND*%
X96800000Y-120625000D03*
%TO.P,C6,2*%
%TO.N,Net-(U1-VDD33)*%
X96800000Y-122175000D03*
%TD*%
D26*
%TO.P,R1,1*%
%TO.N,+12V*%
X101150000Y-128240001D03*
%TO.P,R1,2*%
%TO.N,Net-(J1-Pad10)*%
X101150000Y-129260001D03*
%TD*%
D13*
%TO.P,C3,1*%
%TO.N,GND*%
X90700000Y-120525000D03*
%TO.P,C3,2*%
%TO.N,+5V*%
X90700000Y-122075000D03*
%TD*%
D27*
%TO.P,C4,1*%
%TO.N,GND*%
X91900000Y-121420000D03*
%TO.P,C4,2*%
%TO.N,+5V*%
X91900000Y-122380000D03*
%TD*%
D28*
%TO.P,J6,1,Pin_1*%
%TO.N,GND*%
X107130000Y-128800001D03*
D29*
%TO.P,J6,2,Pin_2*%
%TO.N,+12V*%
X104630000Y-128800001D03*
%TD*%
D27*
%TO.P,C7,1*%
%TO.N,GND*%
X94100000Y-121420000D03*
%TO.P,C7,2*%
%TO.N,Net-(U1-VDD33)*%
X94100000Y-122380000D03*
%TD*%
D18*
%TO.P,R7,1*%
%TO.N,/CAN/CAN2-*%
X108870001Y-123095000D03*
%TO.P,R7,2*%
%TO.N,/CAN/CAN-*%
X108870001Y-121445000D03*
%TD*%
D16*
%TO.P,R4,1*%
%TO.N,+12V*%
X88459999Y-131180001D03*
%TO.P,R4,2*%
%TO.N,Net-(J2-Pad12)*%
X87440001Y-131180001D03*
%TD*%
D18*
%TO.P,R5,1*%
%TO.N,/CAN/CAN2+*%
X110410000Y-123095000D03*
%TO.P,R5,2*%
%TO.N,/CAN/CAN+*%
X110410000Y-121445000D03*
%TD*%
D19*
%TO.P,R10,1*%
%TO.N,/USB/USB_VESC_D+*%
X87750000Y-126422500D03*
%TO.P,R10,2*%
%TO.N,Net-(U1-DP2)*%
X88770000Y-126422500D03*
%TD*%
D30*
%TO.P,R13,1*%
%TO.N,USB_DOWNSTREAM_D+*%
X84327500Y-130832500D03*
%TO.P,R13,2*%
%TO.N,USB_UPSTREAM_D+*%
X85977500Y-130832500D03*
%TD*%
D20*
%TO.P,H10,1,1*%
%TO.N,GND*%
X99000000Y-55000000D03*
X99878680Y-52878680D03*
X99878680Y-57121320D03*
X102000000Y-52000000D03*
D21*
X102000000Y-55000000D03*
D20*
X102000000Y-58000000D03*
X104121320Y-52878680D03*
X104121320Y-57121320D03*
X105000000Y-55000000D03*
%TD*%
D31*
%TO.P,R18,1*%
%TO.N,+12V*%
X101140000Y-131230000D03*
%TO.P,R18,2*%
%TO.N,Net-(J1-Pad12)*%
X101140000Y-130210002D03*
%TD*%
D32*
%TO.P,J1,1*%
%TO.N,/CAN/CAN1-*%
X113744000Y-139980001D03*
D33*
%TO.P,J1,2*%
%TO.N,/CAN/CAN1+*%
X112728000Y-138200000D03*
%TO.P,J1,3*%
%TO.N,GND*%
X111712000Y-139980001D03*
%TO.P,J1,4*%
%TO.N,/CAN/CAN2-*%
X110696000Y-138200000D03*
%TO.P,J1,5*%
%TO.N,/CAN/CAN2+*%
X109680000Y-139980001D03*
%TO.P,J1,6*%
%TO.N,+12V*%
X108664000Y-138200000D03*
%TO.P,J1,7*%
%TO.N,USB_UPSTREAM_D-*%
X107648000Y-139980001D03*
%TO.P,J1,8*%
%TO.N,USB_UPSTREAM_D+*%
X106632001Y-138200001D03*
%TO.P,J1,9*%
%TO.N,GND*%
X117044000Y-133380001D03*
%TO.P,J1,10*%
%TO.N,Net-(J1-Pad10)*%
X114754000Y-133380001D03*
%TO.P,J1,11*%
%TO.N,GND*%
X105614000Y-133380001D03*
%TO.P,J1,12*%
%TO.N,Net-(J1-Pad12)*%
X103324000Y-133380001D03*
D34*
%TO.P,J1,SH*%
%TO.N,GND*%
X118314000Y-139090001D03*
X102054000Y-139090001D03*
%TD*%
D32*
%TO.P,J2,1*%
%TO.N,/CAN/CAN1-*%
X94096000Y-140000000D03*
D33*
%TO.P,J2,2*%
%TO.N,/CAN/CAN1+*%
X93080000Y-138219999D03*
%TO.P,J2,3*%
%TO.N,GND*%
X92064000Y-140000000D03*
%TO.P,J2,4*%
%TO.N,/CAN/CAN2-*%
X91048000Y-138219999D03*
%TO.P,J2,5*%
%TO.N,/CAN/CAN2+*%
X90032000Y-140000000D03*
%TO.P,J2,6*%
%TO.N,+12V*%
X89016000Y-138219999D03*
%TO.P,J2,7*%
%TO.N,USB_DOWNSTREAM_D-*%
X88000000Y-140000000D03*
%TO.P,J2,8*%
%TO.N,USB_DOWNSTREAM_D+*%
X86984001Y-138220000D03*
%TO.P,J2,9*%
%TO.N,GND*%
X97396000Y-133400000D03*
%TO.P,J2,10*%
%TO.N,Net-(J2-Pad10)*%
X95106000Y-133400000D03*
%TO.P,J2,11*%
%TO.N,GND*%
X85966000Y-133400000D03*
%TO.P,J2,12*%
%TO.N,Net-(J2-Pad12)*%
X83676000Y-133400000D03*
D34*
%TO.P,J2,SH*%
%TO.N,GND*%
X98666000Y-139110000D03*
X82406000Y-139110000D03*
%TD*%
D30*
%TO.P,R14,1*%
%TO.N,USB_DOWNSTREAM_D-*%
X84337500Y-129312500D03*
%TO.P,R14,2*%
%TO.N,USB_UPSTREAM_D-*%
X85987500Y-129312500D03*
%TD*%
D13*
%TO.P,C1,1*%
%TO.N,GND*%
X101780000Y-122565001D03*
%TO.P,C1,2*%
%TO.N,+12V*%
X101780000Y-124115001D03*
%TD*%
D27*
%TO.P,C2,1*%
%TO.N,GND*%
X103030000Y-123430001D03*
%TO.P,C2,2*%
%TO.N,+12V*%
X103030000Y-124390001D03*
%TD*%
D35*
%TO.N,GND*%
X103110000Y-122650001D03*
X138395000Y-147060000D03*
X138395000Y-144520000D03*
X138395000Y-141980000D03*
X138395000Y-139440000D03*
X135855000Y-147060000D03*
X135855000Y-144520000D03*
X135855000Y-141980000D03*
X135855000Y-139440000D03*
X135855000Y-136900000D03*
X133315000Y-147060000D03*
X133315000Y-144520000D03*
X133315000Y-141980000D03*
X133315000Y-139440000D03*
X133315000Y-136900000D03*
X130775000Y-147060000D03*
X130775000Y-144520000D03*
X130775000Y-141980000D03*
X130775000Y-139440000D03*
X130775000Y-136900000D03*
X128235000Y-147060000D03*
X128235000Y-144520000D03*
X128235000Y-141980000D03*
X128235000Y-139440000D03*
X128235000Y-136900000D03*
X125695000Y-147060000D03*
X125695000Y-144520000D03*
X125695000Y-141980000D03*
X125695000Y-139440000D03*
X125695000Y-136900000D03*
X123155000Y-126740000D03*
X123155000Y-119120000D03*
X123155000Y-114040000D03*
X123155000Y-111500000D03*
X123155000Y-108960000D03*
X123155000Y-106420000D03*
X123155000Y-103880000D03*
X123155000Y-101340000D03*
X123155000Y-83560000D03*
X123155000Y-81020000D03*
X123155000Y-78480000D03*
X123155000Y-75940000D03*
X123155000Y-73400000D03*
X123155000Y-70860000D03*
X123155000Y-68320000D03*
X123155000Y-65780000D03*
X120615000Y-114040000D03*
X120615000Y-111500000D03*
X120615000Y-108960000D03*
X120615000Y-106420000D03*
X120615000Y-103880000D03*
X120615000Y-81020000D03*
X120615000Y-78480000D03*
X120615000Y-75940000D03*
X120615000Y-73400000D03*
X120615000Y-70860000D03*
X120615000Y-68320000D03*
X120615000Y-65780000D03*
X118075000Y-136900000D03*
X118075000Y-116580000D03*
X118075000Y-114040000D03*
X118075000Y-111500000D03*
X118075000Y-108960000D03*
X118075000Y-106420000D03*
X118075000Y-78480000D03*
X118075000Y-75940000D03*
X118075000Y-73400000D03*
X118075000Y-70860000D03*
X118075000Y-68320000D03*
X118075000Y-65780000D03*
X115535000Y-139440000D03*
X115535000Y-136900000D03*
X115535000Y-131820000D03*
X115535000Y-124200000D03*
X115535000Y-116580000D03*
X115535000Y-114040000D03*
X115535000Y-111500000D03*
X115535000Y-108960000D03*
X115535000Y-106420000D03*
X115535000Y-78480000D03*
X115535000Y-75940000D03*
X115535000Y-73400000D03*
X115535000Y-70860000D03*
X115535000Y-68320000D03*
X115535000Y-65780000D03*
X112995000Y-134360000D03*
X112995000Y-119120000D03*
X112995000Y-111500000D03*
X112995000Y-108960000D03*
X112995000Y-75940000D03*
X112995000Y-73400000D03*
X112995000Y-70860000D03*
X112995000Y-68320000D03*
X112995000Y-65780000D03*
X110455000Y-134360000D03*
X110455000Y-111500000D03*
X110455000Y-108960000D03*
X110455000Y-70860000D03*
X110455000Y-68320000D03*
X110455000Y-65780000D03*
X107915000Y-111500000D03*
X107915000Y-108960000D03*
X107915000Y-70860000D03*
X107915000Y-68320000D03*
X107915000Y-65780000D03*
X107915000Y-63240000D03*
X107915000Y-60700000D03*
X107915000Y-58160000D03*
X107915000Y-55620000D03*
X107915000Y-53080000D03*
X107915000Y-50540000D03*
X105375000Y-131820000D03*
X105375000Y-111500000D03*
X105375000Y-108960000D03*
X105375000Y-106420000D03*
X105375000Y-75940000D03*
X105375000Y-73400000D03*
X105375000Y-70860000D03*
X105375000Y-68320000D03*
X105375000Y-65780000D03*
X105375000Y-63240000D03*
X105375000Y-60700000D03*
X105375000Y-50540000D03*
X102835000Y-129280000D03*
X102835000Y-121660000D03*
X102835000Y-119120000D03*
X102835000Y-116580000D03*
X102835000Y-114040000D03*
X102835000Y-111500000D03*
X102835000Y-108960000D03*
X102835000Y-106420000D03*
X102835000Y-78480000D03*
X102835000Y-75940000D03*
X102835000Y-73400000D03*
X102835000Y-70860000D03*
X102835000Y-68320000D03*
X102835000Y-65780000D03*
X102835000Y-63240000D03*
X102835000Y-60700000D03*
X100295000Y-141980000D03*
X100295000Y-111500000D03*
X100295000Y-108960000D03*
X100295000Y-106420000D03*
X100295000Y-103880000D03*
X100295000Y-81020000D03*
X100295000Y-78480000D03*
X100295000Y-75940000D03*
X100295000Y-73400000D03*
X100295000Y-70860000D03*
X100295000Y-68320000D03*
X100295000Y-65780000D03*
X100295000Y-63240000D03*
X100295000Y-60700000D03*
X100295000Y-50540000D03*
X97755000Y-136900000D03*
X97755000Y-131820000D03*
X97755000Y-129280000D03*
X97755000Y-119120000D03*
X97755000Y-111500000D03*
X97755000Y-108960000D03*
X97755000Y-106420000D03*
X97755000Y-103880000D03*
X97755000Y-101340000D03*
X97755000Y-83560000D03*
X97755000Y-81020000D03*
X97755000Y-78480000D03*
X97755000Y-75940000D03*
X97755000Y-73400000D03*
X97755000Y-70860000D03*
X97755000Y-68320000D03*
X97755000Y-65780000D03*
X97755000Y-63240000D03*
X97755000Y-60700000D03*
X97755000Y-58160000D03*
X97755000Y-53080000D03*
X97755000Y-50540000D03*
X95215000Y-136900000D03*
X95215000Y-129280000D03*
X95215000Y-111500000D03*
X95215000Y-108960000D03*
X95215000Y-106420000D03*
X95215000Y-103880000D03*
X95215000Y-101340000D03*
X95215000Y-98800000D03*
X95215000Y-96260000D03*
X95215000Y-88640000D03*
X95215000Y-86100000D03*
X95215000Y-83560000D03*
X95215000Y-81020000D03*
X95215000Y-78480000D03*
X95215000Y-75940000D03*
X95215000Y-73400000D03*
X95215000Y-70860000D03*
X95215000Y-68320000D03*
X95215000Y-65780000D03*
X95215000Y-63240000D03*
X95215000Y-60700000D03*
X95215000Y-58160000D03*
X95215000Y-55620000D03*
X95215000Y-53080000D03*
X95215000Y-50540000D03*
X92675000Y-136900000D03*
X92675000Y-111500000D03*
X92675000Y-108960000D03*
X92675000Y-106420000D03*
X92675000Y-103880000D03*
X92675000Y-101340000D03*
X92675000Y-98800000D03*
X92675000Y-96260000D03*
X92675000Y-88640000D03*
X92675000Y-86100000D03*
X92675000Y-83560000D03*
X92675000Y-81020000D03*
X92675000Y-78480000D03*
X92675000Y-75940000D03*
X92675000Y-73400000D03*
X92675000Y-70860000D03*
X92675000Y-68320000D03*
X92675000Y-65780000D03*
X92675000Y-63240000D03*
X92675000Y-60700000D03*
X92675000Y-58160000D03*
X92675000Y-55620000D03*
X92675000Y-53080000D03*
X92675000Y-50540000D03*
X90135000Y-111500000D03*
X90135000Y-108960000D03*
X90135000Y-106420000D03*
X90135000Y-103880000D03*
X90135000Y-101340000D03*
X90135000Y-98800000D03*
X90135000Y-96260000D03*
X90135000Y-93720000D03*
X90135000Y-91180000D03*
X90135000Y-88640000D03*
X90135000Y-86100000D03*
X90135000Y-83560000D03*
X90135000Y-81020000D03*
X90135000Y-78480000D03*
X90135000Y-75940000D03*
X90135000Y-73400000D03*
X90135000Y-70860000D03*
X90135000Y-68320000D03*
X90135000Y-65780000D03*
X90135000Y-63240000D03*
X90135000Y-60700000D03*
X90135000Y-58160000D03*
X90135000Y-55620000D03*
X90135000Y-53080000D03*
X87595000Y-147060000D03*
X87595000Y-144520000D03*
X87595000Y-141980000D03*
X87595000Y-136900000D03*
X87595000Y-134360000D03*
X87595000Y-124200000D03*
X87595000Y-121660000D03*
X87595000Y-116580000D03*
X87595000Y-114040000D03*
X87595000Y-111500000D03*
X87595000Y-108960000D03*
X87595000Y-106420000D03*
X87595000Y-103880000D03*
X87595000Y-101340000D03*
X87595000Y-98800000D03*
X87595000Y-96260000D03*
X87595000Y-93720000D03*
X87595000Y-91180000D03*
X87595000Y-88640000D03*
X87595000Y-86100000D03*
X87595000Y-83560000D03*
X87595000Y-81020000D03*
X87595000Y-78480000D03*
X87595000Y-75940000D03*
X87595000Y-73400000D03*
X87595000Y-70860000D03*
X87595000Y-68320000D03*
X87595000Y-65780000D03*
X87595000Y-63240000D03*
X87595000Y-60700000D03*
X87595000Y-58160000D03*
X87595000Y-55620000D03*
X87595000Y-53080000D03*
X87595000Y-50540000D03*
X85055000Y-147060000D03*
X85055000Y-136900000D03*
X85055000Y-126740000D03*
X85055000Y-119120000D03*
X85055000Y-116580000D03*
X85055000Y-111500000D03*
X85055000Y-108960000D03*
X85055000Y-106420000D03*
X85055000Y-103880000D03*
X85055000Y-101340000D03*
X85055000Y-98800000D03*
X85055000Y-96260000D03*
X85055000Y-93720000D03*
X85055000Y-91180000D03*
X85055000Y-88640000D03*
X85055000Y-86100000D03*
X85055000Y-83560000D03*
X85055000Y-81020000D03*
X85055000Y-78480000D03*
X85055000Y-75940000D03*
X85055000Y-73400000D03*
X85055000Y-70860000D03*
X85055000Y-68320000D03*
X85055000Y-65780000D03*
X85055000Y-63240000D03*
X85055000Y-60700000D03*
X85055000Y-58160000D03*
X85055000Y-50540000D03*
X82515000Y-147060000D03*
X82515000Y-144520000D03*
X82515000Y-126740000D03*
X82515000Y-124200000D03*
X82515000Y-121660000D03*
X82515000Y-119120000D03*
X82515000Y-116580000D03*
X82515000Y-111500000D03*
X82515000Y-108960000D03*
X82515000Y-106420000D03*
X82515000Y-103880000D03*
X82515000Y-101340000D03*
X82515000Y-98800000D03*
X82515000Y-96260000D03*
X82515000Y-93720000D03*
X82515000Y-91180000D03*
X82515000Y-88640000D03*
X82515000Y-86100000D03*
X82515000Y-83560000D03*
X82515000Y-81020000D03*
X82515000Y-78480000D03*
X82515000Y-75940000D03*
X82515000Y-73400000D03*
X82515000Y-70860000D03*
X82515000Y-68320000D03*
X82515000Y-65780000D03*
X82515000Y-63240000D03*
X82515000Y-60700000D03*
X82515000Y-58160000D03*
X82515000Y-50540000D03*
X92300000Y-129600000D03*
X100140000Y-122490001D03*
X92900000Y-123500000D03*
X90100000Y-131030001D03*
X89800000Y-128900000D03*
D36*
X99021500Y-136482001D03*
D35*
X92200000Y-126700000D03*
D36*
X111200000Y-143365000D03*
X100579500Y-133761003D03*
X99021500Y-133782001D03*
D35*
X94272500Y-124222500D03*
X98440000Y-124690001D03*
X91649678Y-130962901D03*
X106790000Y-127200000D03*
D36*
X100600000Y-136482001D03*
D35*
X93000000Y-125100000D03*
%TO.N,+12V*%
X101100000Y-132030001D03*
X94000000Y-132080001D03*
D37*
%TO.N,USB_UPSTREAM_D+*%
X89442500Y-130455999D03*
X90961840Y-130507369D03*
%TO.N,USB_UPSTREAM_D-*%
X89483196Y-129680063D03*
X91374500Y-129849004D03*
D36*
%TO.N,/CAN/CAN2-*%
X117400000Y-128125000D03*
X108892000Y-146615000D03*
%TO.N,/CAN/CAN2+*%
X108160000Y-147465000D03*
%TO.N,/CAN/CAN1-*%
X110024999Y-128276370D03*
X113430000Y-144542000D03*
X113650000Y-123130741D03*
%TO.N,/CAN/CAN1+*%
X118480000Y-130120001D03*
X112680000Y-145415000D03*
%TO.N,/CAN/CAN-*%
X105300000Y-121475000D03*
%TO.N,/CAN/CAN+*%
X106850001Y-121475000D03*
D35*
%TO.N,GND*%
X90135000Y-50540000D03*
%TD*%
D38*
%TO.N,Net-(J1-Pad10)*%
X114754000Y-133380001D02*
X110330000Y-133380001D01*
X110330000Y-133380001D02*
X107750000Y-130800001D01*
X107750000Y-130800001D02*
X103040000Y-130800001D01*
X103040000Y-130800001D02*
X101500000Y-129260001D01*
X101500000Y-129260001D02*
X101150000Y-129260001D01*
%TO.N,+12V*%
X104630000Y-128800001D02*
X104070000Y-128240001D01*
X104070000Y-128240001D02*
X101150000Y-128240001D01*
%TO.N,GND*%
X101780000Y-122565001D02*
X103025000Y-122565001D01*
X103025000Y-122565001D02*
X103030000Y-122570001D01*
X103030000Y-122570001D02*
X103030000Y-123430001D01*
X103110000Y-122650001D02*
X101865000Y-122650001D01*
X101865000Y-122650001D02*
X101780000Y-122565001D01*
%TO.N,+12V*%
X103030000Y-124390001D02*
X102055000Y-124390001D01*
X102055000Y-124390001D02*
X101780000Y-124115001D01*
X103030000Y-124390001D02*
X103060000Y-124420001D01*
X103060000Y-124420001D02*
X103060000Y-127230001D01*
X103060000Y-127230001D02*
X104630000Y-128800001D01*
%TO.N,Net-(U1-XI)*%
X95897500Y-123400000D02*
X96711356Y-123400000D01*
X96711356Y-123400000D02*
X96822355Y-123289001D01*
X97741000Y-123289001D02*
X98407501Y-122622500D01*
X96822355Y-123289001D02*
X97741000Y-123289001D01*
X98407501Y-122622500D02*
X98407501Y-122522500D01*
%TO.N,Net-(U1-XO)*%
X95897500Y-124035000D02*
X96643456Y-124035000D01*
X96643456Y-124035000D02*
X96988455Y-123690001D01*
X96988455Y-123690001D02*
X99690000Y-123690001D01*
X99690000Y-123690001D02*
X100140000Y-124140001D01*
X100140000Y-124140001D02*
X100140000Y-124690001D01*
%TO.N,Net-(J1-Pad12)*%
X101280001Y-130210002D02*
X101780000Y-130710001D01*
X101140000Y-130210002D02*
X101280001Y-130210002D01*
X101780000Y-130710001D02*
X101780000Y-131836001D01*
X101780000Y-131836001D02*
X103324000Y-133380001D01*
D39*
%TO.N,/CAN/CAN1+*%
X93060000Y-141630000D02*
X93060000Y-143764266D01*
X120770000Y-132670000D02*
X117550001Y-129450001D01*
X112223935Y-129450001D02*
X108023934Y-125250000D01*
X93060000Y-143764266D02*
X94585734Y-145290000D01*
X94585734Y-145290000D02*
X119224266Y-145290000D01*
X119224266Y-145290000D02*
X120770000Y-143744266D01*
X117550001Y-129450001D02*
X112223935Y-129450001D01*
X120770000Y-143744266D02*
X120770000Y-132670000D01*
X108023934Y-125250000D02*
X107450000Y-125250000D01*
X107450000Y-125250000D02*
X106400000Y-124200000D01*
X106400000Y-124200000D02*
X106400000Y-123575001D01*
X106400000Y-123575001D02*
X106850001Y-123125000D01*
%TO.N,GND*%
X94720000Y-124670000D02*
X95897500Y-124670000D01*
X94272500Y-124222500D02*
X94720000Y-124670000D01*
%TO.N,+5V*%
X92060000Y-125460000D02*
X92060000Y-122540000D01*
D40*
X100740000Y-115240000D02*
X100740000Y-114290001D01*
D39*
X92800000Y-121700000D02*
X92120000Y-122380000D01*
X100740000Y-115240000D02*
X100740000Y-117860000D01*
X93775000Y-119825000D02*
X92800000Y-120800000D01*
X92060000Y-125460000D02*
X92060000Y-122560000D01*
X98775000Y-119825000D02*
X93775000Y-119825000D01*
X92800000Y-120800000D02*
X92800000Y-121700000D01*
X91523154Y-122050000D02*
X91395654Y-121922500D01*
X91395654Y-121922500D02*
X90460000Y-121922500D01*
D40*
X100740000Y-114290001D02*
X102035001Y-112995000D01*
X114160000Y-114060000D02*
X114160000Y-115245000D01*
D39*
X91550000Y-122050000D02*
X91523154Y-122050000D01*
X100740000Y-117860000D02*
X98775000Y-119825000D01*
X92060000Y-122560000D02*
X91550000Y-122050000D01*
X92120000Y-122380000D02*
X91900000Y-122380000D01*
X92060000Y-125460000D02*
X92540000Y-125940000D01*
X92060000Y-122540000D02*
X91900000Y-122380000D01*
D40*
X102035001Y-112995000D02*
X113095000Y-112995000D01*
D39*
X95897500Y-125940000D02*
X92540000Y-125940000D01*
D40*
X113095000Y-112995000D02*
X114160000Y-114060000D01*
D39*
%TO.N,Net-(U1-VDD33)*%
X94100000Y-122380000D02*
X93622500Y-122857500D01*
X96800000Y-122175000D02*
X96595000Y-122380000D01*
X93622500Y-122857500D02*
X93622500Y-124491739D01*
X94435761Y-125305000D02*
X95897500Y-125305000D01*
X93622500Y-124491739D02*
X94435761Y-125305000D01*
X96595000Y-122380000D02*
X94100000Y-122380000D01*
D38*
%TO.N,+12V*%
X101100000Y-131530001D02*
X101090001Y-131520002D01*
X89409999Y-132130001D02*
X93950000Y-132130001D01*
X88459999Y-131180001D02*
X89409999Y-132130001D01*
X101090001Y-131520002D02*
X101090001Y-131180001D01*
X101100000Y-132030001D02*
X101100000Y-131530001D01*
X94000000Y-131250000D02*
X94000000Y-132080001D01*
X93950000Y-132130001D02*
X94000000Y-132080001D01*
D41*
%TO.N,Net-(J2-Pad10)*%
X95099999Y-131230000D02*
X95099999Y-133393999D01*
X95099999Y-133393999D02*
X95106000Y-133400000D01*
D38*
%TO.N,Net-(J2-Pad12)*%
X86550000Y-132380001D02*
X84695999Y-132380001D01*
X87440001Y-131180001D02*
X87440001Y-131490000D01*
X84695999Y-132380001D02*
X83676000Y-133400000D01*
X87440001Y-131490000D02*
X86550000Y-132380001D01*
%TO.N,Net-(U1-DM2)*%
X90622500Y-125940000D02*
X89297500Y-125940000D01*
X89297500Y-125940000D02*
X88780000Y-125422500D01*
%TO.N,Net-(U1-DP2)*%
X88922500Y-126575000D02*
X88770000Y-126422500D01*
X90622500Y-126575000D02*
X88922500Y-126575000D01*
%TO.N,Net-(U1-DM1)*%
X88992499Y-127210000D02*
X90622500Y-127210000D01*
X88779999Y-127422500D02*
X88992499Y-127210000D01*
%TO.N,Net-(U1-DP1)*%
X89457500Y-127845000D02*
X88780000Y-128522500D01*
X90622500Y-127845000D02*
X89457500Y-127845000D01*
D42*
%TO.N,USB_UPSTREAM_D+*%
X94678749Y-126575000D02*
X95897500Y-126575000D01*
X96510000Y-126575000D02*
X95897500Y-126575000D01*
X90961840Y-130507369D02*
X90961840Y-130245275D01*
X99048429Y-126708000D02*
X96643000Y-126708000D01*
X86558999Y-130251001D02*
X85977500Y-130832500D01*
X90961840Y-130245275D02*
X90802500Y-130085935D01*
X105350414Y-139151500D02*
X103333414Y-137134500D01*
X89237502Y-130251001D02*
X86558999Y-130251001D01*
X106632001Y-138202501D02*
X106632001Y-138810499D01*
X94544749Y-126709000D02*
X94678749Y-126575000D01*
X100352430Y-137134500D02*
X99984500Y-136766570D01*
X96643000Y-126708000D02*
X96510000Y-126575000D01*
X89442500Y-130455999D02*
X89237502Y-130251001D01*
X93386000Y-126709000D02*
X94544749Y-126709000D01*
X90802500Y-129292500D02*
X93386000Y-126709000D01*
X103333414Y-137134500D02*
X100352430Y-137134500D01*
X99984500Y-136766570D02*
X99984500Y-127644070D01*
X99984500Y-127644070D02*
X99048429Y-126708000D01*
X106632001Y-138810499D02*
X106291000Y-139151500D01*
X106291000Y-139151500D02*
X105350414Y-139151500D01*
X90802500Y-130085935D02*
X90802500Y-129292500D01*
%TO.N,USB_UPSTREAM_D-*%
X99616500Y-127796501D02*
X98895999Y-127076000D01*
X107648000Y-139982501D02*
X107184999Y-139519500D01*
X103180984Y-137502500D02*
X100200000Y-137502500D01*
X94678749Y-127210000D02*
X95897500Y-127210000D01*
X94544749Y-127076000D02*
X94678749Y-127210000D01*
X105197984Y-139519500D02*
X103180984Y-137502500D01*
X89483196Y-129680063D02*
X89279260Y-129883999D01*
X100200000Y-137502500D02*
X99616500Y-136919000D01*
X96644000Y-127076000D02*
X96510000Y-127210000D01*
X98895999Y-127076000D02*
X96644000Y-127076000D01*
X93549000Y-127076000D02*
X94544749Y-127076000D01*
X96510000Y-127210000D02*
X95897500Y-127210000D01*
X86558999Y-129883999D02*
X85987500Y-129312500D01*
X91374500Y-129849004D02*
X91374500Y-129250500D01*
X89279260Y-129883999D02*
X86558999Y-129883999D01*
X107184999Y-139519500D02*
X105197984Y-139519500D01*
X91374500Y-129250500D02*
X93549000Y-127076000D01*
X99616500Y-136919000D02*
X99616500Y-127796501D01*
D39*
%TO.N,/CAN/CAN2-*%
X122265000Y-131219164D02*
X119045836Y-128000000D01*
D43*
X91048000Y-140780001D02*
X91048000Y-138219999D01*
D39*
X122265000Y-145355000D02*
X122265000Y-131219164D01*
X91713447Y-146740000D02*
X120880000Y-146740000D01*
X119045836Y-128000000D02*
X113775001Y-128000000D01*
X120880000Y-146740000D02*
X122265000Y-145355000D01*
X91048000Y-146074553D02*
X91713447Y-146740000D01*
X91048000Y-140780001D02*
X91048000Y-146074553D01*
X113775001Y-128000000D02*
X108870001Y-123095000D01*
%TO.N,/CAN/CAN2+*%
X121128942Y-147341000D02*
X91464505Y-147341000D01*
X112000000Y-123125000D02*
X110440000Y-123125000D01*
X114023943Y-127399000D02*
X119294778Y-127399000D01*
X122866000Y-145603942D02*
X121128942Y-147341000D01*
X119294778Y-127399000D02*
X122866000Y-130970222D01*
X91464505Y-147341000D02*
X90447000Y-146323495D01*
X110410000Y-123095000D02*
X110410000Y-123785057D01*
X122866000Y-130970222D02*
X122866000Y-145603942D01*
X110410000Y-123785057D02*
X114023943Y-127399000D01*
X110440000Y-123125000D02*
X110410000Y-123095000D01*
X90447000Y-146323495D02*
X90447000Y-140415000D01*
X90447000Y-140415000D02*
X90032000Y-140000000D01*
%TO.N,/CAN/CAN1-*%
X120170000Y-143495734D02*
X120170000Y-132918528D01*
X105800000Y-123625000D02*
X105300000Y-123125000D01*
X93660000Y-143515734D02*
X94834266Y-144690000D01*
X94096000Y-140000000D02*
X93660000Y-140436000D01*
X120170000Y-132918528D02*
X117431473Y-130180001D01*
X113650000Y-123130741D02*
X113644259Y-123125000D01*
X93660000Y-140436000D02*
X93660000Y-143515734D01*
X94834266Y-144690000D02*
X118975734Y-144690000D01*
X105800000Y-124448528D02*
X105800000Y-123625000D01*
X107201472Y-125850000D02*
X105800000Y-124448528D01*
X117431473Y-130180001D02*
X112105407Y-130180001D01*
X112105407Y-130180001D02*
X107775406Y-125850000D01*
X107775406Y-125850000D02*
X107201472Y-125850000D01*
X118975734Y-144690000D02*
X120170000Y-143495734D01*
X113644259Y-123125000D02*
X113600000Y-123125000D01*
D43*
%TO.N,/CAN/CAN1+*%
X93080000Y-141610000D02*
X93060000Y-141630000D01*
X93080000Y-138219999D02*
X93080000Y-141610000D01*
D42*
%TO.N,USB_DOWNSTREAM_D-*%
X83829251Y-129820749D02*
X82739741Y-129820749D01*
X85441003Y-127788998D02*
X84337500Y-128892501D01*
X81580000Y-135819510D02*
X85280490Y-139520000D01*
X84335000Y-129315000D02*
X83829251Y-129820749D01*
X84335000Y-129315000D02*
X84337500Y-129312500D01*
X81576500Y-133646010D02*
X81580000Y-133649510D01*
X81576500Y-130983990D02*
X81576500Y-133646010D01*
X87393501Y-127789000D02*
X86000002Y-127789000D01*
X85280490Y-139520000D02*
X87520000Y-139520000D01*
X81580000Y-133649510D02*
X81580000Y-135819510D01*
X87598384Y-127584117D02*
X87760001Y-127422500D01*
X82739741Y-129820749D02*
X81576500Y-130983990D01*
X84337500Y-128892501D02*
X84337500Y-129312500D01*
X87760001Y-127422500D02*
X87393501Y-127789000D01*
X86000002Y-127789000D02*
X86000000Y-127788998D01*
X87520000Y-139520000D02*
X88000000Y-140000000D01*
X86000000Y-127788998D02*
X85441003Y-127788998D01*
%TO.N,USB_DOWNSTREAM_D+*%
X81947000Y-135667490D02*
X85389510Y-139110000D01*
X81947000Y-133497494D02*
X81947000Y-135667490D01*
X85250000Y-129910000D02*
X84327500Y-130832500D01*
X83682749Y-130187749D02*
X82891761Y-130187749D01*
X82891761Y-130187749D02*
X81943500Y-131136010D01*
X86000003Y-128156001D02*
X86000000Y-128155998D01*
X85631876Y-128155998D02*
X85250000Y-128537874D01*
X85250000Y-128537874D02*
X85250000Y-129910000D01*
X87598500Y-128361000D02*
X87760000Y-128522500D01*
X86730000Y-139110000D02*
X86984001Y-138855999D01*
X86984001Y-138855999D02*
X86984001Y-138220000D01*
X84327500Y-130832500D02*
X83682749Y-130187749D01*
X87760000Y-128522500D02*
X87393501Y-128156001D01*
X86000000Y-128155998D02*
X85631876Y-128155998D01*
X85389510Y-139110000D02*
X86730000Y-139110000D01*
X81943500Y-131136010D02*
X81943500Y-133493994D01*
X87393501Y-128156001D02*
X86000003Y-128156001D01*
X81943500Y-133493994D02*
X81947000Y-133497494D01*
D39*
%TO.N,/CAN/CAN-*%
X108870001Y-120732499D02*
X109340000Y-120262500D01*
X109340000Y-120262500D02*
X109340000Y-117841472D01*
X109340000Y-117841472D02*
X110180000Y-117001472D01*
X109475000Y-115245000D02*
X109160000Y-115245000D01*
X108870001Y-121445000D02*
X108870001Y-120732499D01*
X110180000Y-117001472D02*
X110180000Y-115950000D01*
X110180000Y-115950000D02*
X109475000Y-115245000D01*
%TO.N,/CAN/CAN+*%
X110410000Y-121445000D02*
X110410000Y-120732499D01*
X110780000Y-115920000D02*
X111455000Y-115245000D01*
X109940000Y-118090000D02*
X110780000Y-117250000D01*
X110410000Y-120732499D02*
X109940000Y-120262499D01*
X109940000Y-120262499D02*
X109940000Y-118090000D01*
X110780000Y-117250000D02*
X110780000Y-115920000D01*
X111455000Y-115245000D02*
X111660000Y-115245000D01*
D44*
%TO.N,/USB/USB_VESC_D-*%
X97300000Y-118217585D02*
X97300000Y-116180000D01*
X96680585Y-118837000D02*
X97300000Y-118217585D01*
X84837000Y-121298170D02*
X87298170Y-118837000D01*
X87492000Y-125690500D02*
X86625670Y-125690500D01*
X87760000Y-125422500D02*
X87492000Y-125690500D01*
X86625670Y-125690500D02*
X84837000Y-123901830D01*
X84837000Y-123901830D02*
X84837000Y-121298170D01*
X87298170Y-118837000D02*
X96680585Y-118837000D01*
X97300000Y-116180000D02*
X98240000Y-115240000D01*
%TO.N,/USB/USB_VESC_D+*%
X96800000Y-116250000D02*
X95790000Y-115240000D01*
X87492000Y-126164500D02*
X86429330Y-126164500D01*
X87750000Y-126422500D02*
X87492000Y-126164500D01*
X87101830Y-118363000D02*
X96485177Y-118363000D01*
X95790000Y-115240000D02*
X95740000Y-115240000D01*
X96485177Y-118363000D02*
X96800000Y-118048177D01*
X96800000Y-118048177D02*
X96800000Y-116250000D01*
X84363000Y-121101830D02*
X87101830Y-118363000D01*
X84363000Y-124098170D02*
X84363000Y-121101830D01*
X86429330Y-126164500D02*
X84363000Y-124098170D01*
D39*
%TO.N,Net-(R2-Pad2)*%
X122110000Y-116790000D02*
X122110000Y-115580000D01*
X113600000Y-121475000D02*
X117425000Y-121475000D01*
X117425000Y-121475000D02*
X122110000Y-116790000D01*
%TO.N,Net-(R3-Pad2)*%
X116790000Y-119610000D02*
X119570000Y-116830000D01*
X113865000Y-119610000D02*
X116790000Y-119610000D01*
X119570000Y-116830000D02*
X119570000Y-115580000D01*
X112000000Y-121475000D02*
X113865000Y-119610000D01*
%TD*%
%TA.AperFunction,Conductor*%
%TO.N,GND*%
G36*
X138934108Y-49230502D02*
G01*
X138993042Y-49230502D01*
X139006922Y-49231282D01*
X139023411Y-49233139D01*
X139097267Y-49241460D01*
X139124332Y-49247638D01*
X139203538Y-49275353D01*
X139228548Y-49287397D01*
X139299605Y-49332045D01*
X139321309Y-49349355D01*
X139321312Y-49349357D01*
X139380644Y-49408689D01*
X139397954Y-49430395D01*
X139442601Y-49501451D01*
X139454646Y-49526463D01*
X139482360Y-49605664D01*
X139488539Y-49632736D01*
X139498720Y-49723098D01*
X139499500Y-49736981D01*
X139499500Y-147473038D01*
X139498720Y-147486923D01*
X139488540Y-147577265D01*
X139482362Y-147604334D01*
X139454648Y-147683537D01*
X139442600Y-147708555D01*
X139397957Y-147779604D01*
X139380644Y-147801313D01*
X139321313Y-147860644D01*
X139299604Y-147877957D01*
X139228552Y-147922602D01*
X139203537Y-147934648D01*
X139203535Y-147934649D01*
X139124337Y-147962362D01*
X139097265Y-147968541D01*
X139006911Y-147978721D01*
X138993028Y-147979501D01*
X122275434Y-147979501D01*
X122208395Y-147959816D01*
X122162640Y-147907012D01*
X122152696Y-147837854D01*
X122181721Y-147774298D01*
X122187753Y-147767820D01*
X122482535Y-147473038D01*
X123535651Y-146419921D01*
X123535655Y-146419919D01*
X123681977Y-146273597D01*
X123796941Y-146101540D01*
X123876130Y-145910362D01*
X123916500Y-145707407D01*
X123916500Y-139239077D01*
X123936185Y-139172038D01*
X123988989Y-139126283D01*
X124058147Y-139116339D01*
X124064693Y-139117460D01*
X124071768Y-139118867D01*
X124071769Y-139118868D01*
X124109047Y-139126283D01*
X124130251Y-139130501D01*
X124130252Y-139130501D01*
X125069750Y-139130501D01*
X125069751Y-139130500D01*
X125084568Y-139127553D01*
X125128229Y-139118869D01*
X125128229Y-139118868D01*
X125128231Y-139118868D01*
X125194552Y-139074553D01*
X125238867Y-139008232D01*
X125238867Y-139008230D01*
X125238868Y-139008230D01*
X125247968Y-138962479D01*
X125250500Y-138949749D01*
X125250500Y-136910253D01*
X125250500Y-136910250D01*
X125250499Y-136910248D01*
X137449500Y-136910248D01*
X137449500Y-138949753D01*
X137461131Y-139008230D01*
X137461132Y-139008231D01*
X137505447Y-139074553D01*
X137571769Y-139118868D01*
X137571770Y-139118869D01*
X137630247Y-139130500D01*
X137630250Y-139130501D01*
X137630252Y-139130501D01*
X138569750Y-139130501D01*
X138569751Y-139130500D01*
X138584568Y-139127553D01*
X138628229Y-139118869D01*
X138628229Y-139118868D01*
X138628231Y-139118868D01*
X138694552Y-139074553D01*
X138738867Y-139008232D01*
X138738867Y-139008230D01*
X138738868Y-139008230D01*
X138747968Y-138962479D01*
X138750500Y-138949749D01*
X138750500Y-136910253D01*
X138750500Y-136910250D01*
X138750499Y-136910248D01*
X138738868Y-136851771D01*
X138738867Y-136851770D01*
X138694552Y-136785448D01*
X138628230Y-136741133D01*
X138628229Y-136741132D01*
X138569752Y-136729501D01*
X138569748Y-136729501D01*
X137630252Y-136729501D01*
X137630247Y-136729501D01*
X137571770Y-136741132D01*
X137571769Y-136741133D01*
X137505447Y-136785448D01*
X137461132Y-136851770D01*
X137461131Y-136851771D01*
X137449500Y-136910248D01*
X125250499Y-136910248D01*
X125238868Y-136851771D01*
X125238867Y-136851770D01*
X125194552Y-136785448D01*
X125128230Y-136741133D01*
X125128229Y-136741132D01*
X125069752Y-136729501D01*
X125069748Y-136729501D01*
X124130252Y-136729501D01*
X124130247Y-136729501D01*
X124064691Y-136742541D01*
X123995099Y-136736314D01*
X123939922Y-136693451D01*
X123916678Y-136627561D01*
X123916500Y-136620924D01*
X123916500Y-131782487D01*
X125499500Y-131782487D01*
X125499500Y-132077514D01*
X125516081Y-132203453D01*
X125538007Y-132369994D01*
X125607012Y-132627525D01*
X125614361Y-132654952D01*
X125614364Y-132654962D01*
X125727254Y-132927501D01*
X125727258Y-132927511D01*
X125874761Y-133182994D01*
X126054352Y-133417041D01*
X126054358Y-133417048D01*
X126262952Y-133625642D01*
X126262959Y-133625648D01*
X126497006Y-133805239D01*
X126752489Y-133952742D01*
X126752490Y-133952742D01*
X126752493Y-133952744D01*
X126963296Y-134040061D01*
X127015294Y-134061600D01*
X127025048Y-134065640D01*
X127310007Y-134141994D01*
X127602494Y-134180501D01*
X127602501Y-134180501D01*
X127897499Y-134180501D01*
X127897506Y-134180501D01*
X128189993Y-134141994D01*
X128474952Y-134065640D01*
X128747507Y-133952744D01*
X129002994Y-133805239D01*
X129237042Y-133625647D01*
X129445646Y-133417043D01*
X129625238Y-133182995D01*
X129772743Y-132927508D01*
X129885639Y-132654953D01*
X129961993Y-132369994D01*
X130000500Y-132077507D01*
X130000500Y-131782495D01*
X129961993Y-131490008D01*
X129885639Y-131205049D01*
X129772743Y-130932494D01*
X129770074Y-130927872D01*
X129625238Y-130677007D01*
X129445647Y-130442960D01*
X129445641Y-130442953D01*
X129237047Y-130234359D01*
X129237040Y-130234353D01*
X129002993Y-130054762D01*
X128747510Y-129907259D01*
X128747500Y-129907255D01*
X128474961Y-129794365D01*
X128474954Y-129794363D01*
X128474952Y-129794362D01*
X128189993Y-129718008D01*
X128141113Y-129711572D01*
X127897513Y-129679501D01*
X127897506Y-129679501D01*
X127602494Y-129679501D01*
X127602486Y-129679501D01*
X127324085Y-129716154D01*
X127310007Y-129718008D01*
X127088930Y-129777245D01*
X127025048Y-129794362D01*
X127025038Y-129794365D01*
X126752499Y-129907255D01*
X126752489Y-129907259D01*
X126497006Y-130054762D01*
X126262959Y-130234353D01*
X126262952Y-130234359D01*
X126054358Y-130442953D01*
X126054352Y-130442960D01*
X125874761Y-130677007D01*
X125727258Y-130932490D01*
X125727254Y-130932500D01*
X125614364Y-131205039D01*
X125614361Y-131205049D01*
X125547878Y-131453171D01*
X125538008Y-131490005D01*
X125538006Y-131490016D01*
X125499500Y-131782487D01*
X123916500Y-131782487D01*
X123916500Y-131079822D01*
X123916501Y-131079801D01*
X123916501Y-130866754D01*
X123876130Y-130663803D01*
X123876129Y-130663801D01*
X123876001Y-130663492D01*
X123876002Y-130663491D01*
X123875972Y-130663422D01*
X123847222Y-130594012D01*
X123796942Y-130472624D01*
X123796940Y-130472622D01*
X123796940Y-130472620D01*
X123681977Y-130300567D01*
X123681974Y-130300563D01*
X120117825Y-126736416D01*
X120117822Y-126736412D01*
X120117822Y-126736413D01*
X120110755Y-126729346D01*
X120110755Y-126729345D01*
X119964433Y-126583023D01*
X119792376Y-126468059D01*
X119754900Y-126452536D01*
X119601198Y-126388870D01*
X119601190Y-126388868D01*
X119398247Y-126348500D01*
X119398243Y-126348500D01*
X114510436Y-126348500D01*
X114443397Y-126328815D01*
X114422755Y-126312181D01*
X112655022Y-124544448D01*
X112639642Y-124516282D01*
X112622928Y-124488861D01*
X112623000Y-124485805D01*
X112621537Y-124483125D01*
X112623826Y-124451104D01*
X112624591Y-124419011D01*
X112626302Y-124416481D01*
X112626521Y-124413433D01*
X112645758Y-124387735D01*
X112663753Y-124361148D01*
X112667264Y-124359007D01*
X112668393Y-124357500D01*
X112693888Y-124342780D01*
X112751187Y-124318242D01*
X112820563Y-124309948D01*
X112848812Y-124318242D01*
X112988388Y-124378013D01*
X112988396Y-124378014D01*
X112988397Y-124378015D01*
X113193749Y-124422687D01*
X113193750Y-124422687D01*
X113193755Y-124422688D01*
X113240962Y-124425500D01*
X113240973Y-124425500D01*
X113959027Y-124425500D01*
X113959038Y-124425500D01*
X114006245Y-124422688D01*
X114006871Y-124422552D01*
X114123250Y-124397235D01*
X114211612Y-124378013D01*
X114404813Y-124295279D01*
X114578865Y-124177477D01*
X114727477Y-124028865D01*
X114845279Y-123854813D01*
X114928013Y-123661612D01*
X114967459Y-123480282D01*
X114972687Y-123456250D01*
X114972687Y-123456249D01*
X114972688Y-123456245D01*
X114975500Y-123409038D01*
X114975500Y-123088549D01*
X117869500Y-123088549D01*
X117869500Y-123311450D01*
X117869501Y-123311466D01*
X117898594Y-123532452D01*
X117898595Y-123532457D01*
X117898596Y-123532463D01*
X117954519Y-123741171D01*
X117956290Y-123747780D01*
X117956293Y-123747790D01*
X118041593Y-123953722D01*
X118041595Y-123953726D01*
X118153052Y-124146774D01*
X118153057Y-124146780D01*
X118153058Y-124146782D01*
X118288751Y-124323622D01*
X118288757Y-124323629D01*
X118446370Y-124481242D01*
X118446377Y-124481248D01*
X118538580Y-124551997D01*
X118623226Y-124616948D01*
X118816274Y-124728405D01*
X119022219Y-124813710D01*
X119237537Y-124871404D01*
X119458543Y-124900500D01*
X119458550Y-124900500D01*
X119681450Y-124900500D01*
X119681457Y-124900500D01*
X119902463Y-124871404D01*
X120117781Y-124813710D01*
X120323726Y-124728405D01*
X120516774Y-124616948D01*
X120693624Y-124481247D01*
X120752320Y-124422550D01*
X120813641Y-124389067D01*
X120883333Y-124394051D01*
X120927679Y-124422550D01*
X120978256Y-124473127D01*
X120986378Y-124481249D01*
X121101708Y-124569744D01*
X121163226Y-124616948D01*
X121356274Y-124728405D01*
X121562219Y-124813710D01*
X121777537Y-124871404D01*
X121998543Y-124900500D01*
X121998550Y-124900500D01*
X122221450Y-124900500D01*
X122221457Y-124900500D01*
X122442463Y-124871404D01*
X122657781Y-124813710D01*
X122863726Y-124728405D01*
X123056774Y-124616948D01*
X123233624Y-124481247D01*
X123391247Y-124323624D01*
X123526948Y-124146774D01*
X123638405Y-123953726D01*
X123723710Y-123747781D01*
X123781404Y-123532463D01*
X123810500Y-123311457D01*
X123810500Y-123088543D01*
X123781404Y-122867537D01*
X123723710Y-122652219D01*
X123719596Y-122642288D01*
X123638406Y-122446277D01*
X123638405Y-122446274D01*
X123526948Y-122253226D01*
X123391247Y-122076376D01*
X123391242Y-122076370D01*
X123233629Y-121918757D01*
X123233622Y-121918751D01*
X123056782Y-121783058D01*
X123056780Y-121783057D01*
X123056774Y-121783052D01*
X122863726Y-121671595D01*
X122863722Y-121671593D01*
X122657790Y-121586293D01*
X122657783Y-121586291D01*
X122657781Y-121586290D01*
X122442463Y-121528596D01*
X122442457Y-121528595D01*
X122442452Y-121528594D01*
X122221466Y-121499501D01*
X122221463Y-121499500D01*
X122221457Y-121499500D01*
X121998543Y-121499500D01*
X121998537Y-121499500D01*
X121998533Y-121499501D01*
X121777547Y-121528594D01*
X121777540Y-121528595D01*
X121777537Y-121528596D01*
X121733928Y-121540281D01*
X121562219Y-121586290D01*
X121562209Y-121586293D01*
X121356277Y-121671593D01*
X121356273Y-121671595D01*
X121163226Y-121783052D01*
X121163217Y-121783058D01*
X120986377Y-121918751D01*
X120986370Y-121918757D01*
X120927681Y-121977447D01*
X120866358Y-122010932D01*
X120796666Y-122005948D01*
X120752319Y-121977447D01*
X120693629Y-121918757D01*
X120693622Y-121918751D01*
X120516782Y-121783058D01*
X120516780Y-121783057D01*
X120516774Y-121783052D01*
X120323726Y-121671595D01*
X120323722Y-121671593D01*
X120117790Y-121586293D01*
X120117783Y-121586291D01*
X120117781Y-121586290D01*
X119902463Y-121528596D01*
X119902457Y-121528595D01*
X119902452Y-121528594D01*
X119681466Y-121499501D01*
X119681463Y-121499500D01*
X119681457Y-121499500D01*
X119458543Y-121499500D01*
X119458537Y-121499500D01*
X119458533Y-121499501D01*
X119237547Y-121528594D01*
X119237540Y-121528595D01*
X119237537Y-121528596D01*
X119193928Y-121540281D01*
X119022219Y-121586290D01*
X119022209Y-121586293D01*
X118816277Y-121671593D01*
X118816273Y-121671595D01*
X118623226Y-121783052D01*
X118623217Y-121783058D01*
X118446377Y-121918751D01*
X118446370Y-121918757D01*
X118288757Y-122076370D01*
X118288751Y-122076377D01*
X118153058Y-122253217D01*
X118153052Y-122253226D01*
X118041595Y-122446273D01*
X118041593Y-122446277D01*
X117956293Y-122652209D01*
X117956290Y-122652219D01*
X117899723Y-122863333D01*
X117898597Y-122867534D01*
X117898594Y-122867547D01*
X117869501Y-123088533D01*
X117869500Y-123088549D01*
X114975500Y-123088549D01*
X114975500Y-122840962D01*
X114972688Y-122793755D01*
X114966828Y-122766819D01*
X114928015Y-122588397D01*
X114928012Y-122588386D01*
X114912953Y-122553221D01*
X114867156Y-122446274D01*
X114845281Y-122395191D01*
X114845280Y-122395189D01*
X114845279Y-122395187D01*
X114727477Y-122221135D01*
X114578865Y-122072523D01*
X114578863Y-122072522D01*
X114578858Y-122072517D01*
X114548825Y-122052191D01*
X114504339Y-121998313D01*
X114496044Y-121928938D01*
X114526572Y-121866091D01*
X114586233Y-121829725D01*
X114618327Y-121825500D01*
X117471142Y-121825500D01*
X117471144Y-121825500D01*
X117560288Y-121801614D01*
X117577416Y-121791725D01*
X117592529Y-121783000D01*
X117592530Y-121782999D01*
X117640212Y-121755470D01*
X122390470Y-117005212D01*
X122436614Y-116925288D01*
X122460500Y-116836143D01*
X122460500Y-116743856D01*
X122460500Y-116704500D01*
X122480185Y-116637461D01*
X122532989Y-116591706D01*
X122584500Y-116580500D01*
X122929750Y-116580500D01*
X122929751Y-116580499D01*
X122944568Y-116577552D01*
X122988229Y-116568868D01*
X122988229Y-116568867D01*
X122988231Y-116568867D01*
X123054552Y-116524552D01*
X123098867Y-116458231D01*
X123098867Y-116458229D01*
X123098868Y-116458229D01*
X123110499Y-116399752D01*
X123110500Y-116399750D01*
X123110500Y-114760249D01*
X123110499Y-114760247D01*
X123098868Y-114701770D01*
X123098867Y-114701769D01*
X123054552Y-114635447D01*
X122988230Y-114591132D01*
X122988229Y-114591131D01*
X122929752Y-114579500D01*
X122929748Y-114579500D01*
X121290252Y-114579500D01*
X121290247Y-114579500D01*
X121231770Y-114591131D01*
X121231769Y-114591132D01*
X121165447Y-114635447D01*
X121121132Y-114701769D01*
X121121131Y-114701770D01*
X121109500Y-114760247D01*
X121109500Y-116399752D01*
X121121131Y-116458229D01*
X121121132Y-116458230D01*
X121165447Y-116524552D01*
X121231769Y-116568867D01*
X121231770Y-116568868D01*
X121290247Y-116580499D01*
X121290250Y-116580500D01*
X121290252Y-116580500D01*
X121524456Y-116580500D01*
X121591495Y-116600185D01*
X121637250Y-116652989D01*
X121647194Y-116722147D01*
X121618169Y-116785703D01*
X121612137Y-116792181D01*
X117316137Y-121088181D01*
X117254814Y-121121666D01*
X117228456Y-121124500D01*
X114323795Y-121124500D01*
X114256756Y-121104815D01*
X114213311Y-121056796D01*
X114211412Y-121053071D01*
X114203050Y-121036658D01*
X114203047Y-121036655D01*
X114203045Y-121036652D01*
X114113347Y-120946954D01*
X114113344Y-120946952D01*
X114113342Y-120946950D01*
X114022652Y-120900741D01*
X114000301Y-120889352D01*
X113906524Y-120874500D01*
X113395542Y-120874500D01*
X113328503Y-120854815D01*
X113282748Y-120802011D01*
X113272804Y-120732853D01*
X113301829Y-120669297D01*
X113307847Y-120662833D01*
X113973862Y-119996819D01*
X114035185Y-119963334D01*
X114061543Y-119960500D01*
X116836142Y-119960500D01*
X116836144Y-119960500D01*
X116925288Y-119936614D01*
X116960088Y-119916522D01*
X117005212Y-119890470D01*
X119850470Y-117045212D01*
X119896614Y-116965288D01*
X119902494Y-116943344D01*
X119920500Y-116876144D01*
X119920500Y-116600605D01*
X119940185Y-116533566D01*
X119992989Y-116487811D01*
X119997009Y-116486060D01*
X120043914Y-116466632D01*
X120207782Y-116357139D01*
X120347139Y-116217782D01*
X120456632Y-116053914D01*
X120464609Y-116034657D01*
X120519476Y-115902193D01*
X120532051Y-115871835D01*
X120553516Y-115763926D01*
X120570500Y-115678543D01*
X120570500Y-115481456D01*
X120532052Y-115288170D01*
X120532051Y-115288169D01*
X120532051Y-115288165D01*
X120460751Y-115116030D01*
X120456635Y-115106092D01*
X120456628Y-115106079D01*
X120347139Y-114942218D01*
X120347136Y-114942214D01*
X120207785Y-114802863D01*
X120207781Y-114802860D01*
X120043920Y-114693371D01*
X120043907Y-114693364D01*
X119861839Y-114617950D01*
X119861829Y-114617947D01*
X119668543Y-114579500D01*
X119668541Y-114579500D01*
X119471459Y-114579500D01*
X119471457Y-114579500D01*
X119278170Y-114617947D01*
X119278160Y-114617950D01*
X119096092Y-114693364D01*
X119096079Y-114693371D01*
X118932218Y-114802860D01*
X118932214Y-114802863D01*
X118792863Y-114942214D01*
X118792860Y-114942218D01*
X118683371Y-115106079D01*
X118683364Y-115106092D01*
X118607950Y-115288160D01*
X118607947Y-115288170D01*
X118569500Y-115481456D01*
X118569500Y-115481459D01*
X118569500Y-115678541D01*
X118569500Y-115678543D01*
X118569499Y-115678543D01*
X118607947Y-115871829D01*
X118607950Y-115871839D01*
X118683364Y-116053907D01*
X118683371Y-116053920D01*
X118792860Y-116217781D01*
X118792863Y-116217785D01*
X118932217Y-116357139D01*
X119083513Y-116458231D01*
X119096086Y-116466632D01*
X119142953Y-116486044D01*
X119158517Y-116498586D01*
X119176703Y-116506892D01*
X119185167Y-116520062D01*
X119197355Y-116529884D01*
X119203668Y-116548850D01*
X119214477Y-116565670D01*
X119218439Y-116593229D01*
X119219421Y-116596178D01*
X119219500Y-116600605D01*
X119219500Y-116633456D01*
X119199815Y-116700495D01*
X119183181Y-116721137D01*
X116681137Y-119223181D01*
X116619814Y-119256666D01*
X116593456Y-119259500D01*
X113818856Y-119259500D01*
X113729712Y-119283386D01*
X113729711Y-119283386D01*
X113729709Y-119283387D01*
X113729706Y-119283388D01*
X113649794Y-119329526D01*
X113649785Y-119329533D01*
X112141136Y-120838181D01*
X112114208Y-120852884D01*
X112088390Y-120869477D01*
X112082189Y-120870368D01*
X112079813Y-120871666D01*
X112053455Y-120874500D01*
X111805292Y-120874500D01*
X111738253Y-120854815D01*
X111692498Y-120802011D01*
X111691304Y-120799313D01*
X111655281Y-120715191D01*
X111655280Y-120715189D01*
X111655279Y-120715187D01*
X111537477Y-120541135D01*
X111435951Y-120439609D01*
X111409071Y-120399381D01*
X111390475Y-120354486D01*
X111340941Y-120234901D01*
X111225977Y-120062844D01*
X111225975Y-120062841D01*
X111076559Y-119913425D01*
X111076528Y-119913396D01*
X111026819Y-119863687D01*
X110993334Y-119802364D01*
X110990500Y-119776006D01*
X110990500Y-118576492D01*
X111010185Y-118509453D01*
X111026815Y-118488815D01*
X111449651Y-118065979D01*
X111449655Y-118065977D01*
X111595977Y-117919655D01*
X111605004Y-117906146D01*
X111635062Y-117861160D01*
X111710941Y-117747598D01*
X111790130Y-117556420D01*
X111830500Y-117353465D01*
X111830500Y-117221902D01*
X111850185Y-117154863D01*
X111902989Y-117109108D01*
X111938312Y-117098964D01*
X112002238Y-117090548D01*
X112223887Y-117031158D01*
X112435888Y-116943344D01*
X112634612Y-116828611D01*
X112816661Y-116688919D01*
X112816665Y-116688914D01*
X112816670Y-116688911D01*
X112978911Y-116526670D01*
X112978914Y-116526665D01*
X112978919Y-116526661D01*
X113118611Y-116344612D01*
X113231939Y-116148320D01*
X113282506Y-116100105D01*
X113351113Y-116086882D01*
X113415978Y-116112850D01*
X113427007Y-116122640D01*
X113490342Y-116185975D01*
X113490345Y-116185977D01*
X113662402Y-116300941D01*
X113853580Y-116380130D01*
X114007061Y-116410659D01*
X114056530Y-116420499D01*
X114056534Y-116420500D01*
X114056535Y-116420500D01*
X114263466Y-116420500D01*
X114263467Y-116420499D01*
X114466420Y-116380130D01*
X114657598Y-116300941D01*
X114829655Y-116185977D01*
X114975977Y-116039655D01*
X115090941Y-115867598D01*
X115170130Y-115676420D01*
X115210500Y-115473465D01*
X115210500Y-115016535D01*
X115170130Y-114813580D01*
X115090941Y-114622402D01*
X114975977Y-114450345D01*
X114975975Y-114450342D01*
X114829658Y-114304025D01*
X114829654Y-114304022D01*
X114790609Y-114277933D01*
X114786873Y-114273463D01*
X114781496Y-114271223D01*
X114764722Y-114246958D01*
X114745804Y-114224321D01*
X114744217Y-114217295D01*
X114741766Y-114213749D01*
X114737666Y-114188285D01*
X114735570Y-114179003D01*
X114735500Y-114176923D01*
X114735500Y-113984234D01*
X114731759Y-113970274D01*
X114722251Y-113934790D01*
X114712033Y-113896651D01*
X114704519Y-113868610D01*
X133995500Y-113868610D01*
X133995500Y-114131389D01*
X134017571Y-114299024D01*
X134029798Y-114391898D01*
X134097806Y-114645708D01*
X134097807Y-114645711D01*
X134097809Y-114645717D01*
X134198359Y-114888466D01*
X134198364Y-114888477D01*
X134229390Y-114942214D01*
X134329743Y-115116030D01*
X134329745Y-115116033D01*
X134329746Y-115116034D01*
X134489701Y-115324493D01*
X134489707Y-115324500D01*
X134675499Y-115510292D01*
X134675505Y-115510297D01*
X134883970Y-115670257D01*
X135015247Y-115746050D01*
X135111522Y-115801635D01*
X135111527Y-115801637D01*
X135111530Y-115801639D01*
X135354292Y-115902194D01*
X135608102Y-115970202D01*
X135868618Y-116004500D01*
X135868625Y-116004500D01*
X136131375Y-116004500D01*
X136131382Y-116004500D01*
X136391898Y-115970202D01*
X136645708Y-115902194D01*
X136888470Y-115801639D01*
X137116030Y-115670257D01*
X137324495Y-115510297D01*
X137510297Y-115324495D01*
X137670257Y-115116030D01*
X137801639Y-114888470D01*
X137902194Y-114645708D01*
X137970202Y-114391898D01*
X138004500Y-114131382D01*
X138004500Y-113868618D01*
X137970202Y-113608102D01*
X137902194Y-113354292D01*
X137801639Y-113111530D01*
X137801637Y-113111527D01*
X137801635Y-113111522D01*
X137754696Y-113030223D01*
X137670257Y-112883970D01*
X137510297Y-112675505D01*
X137510292Y-112675499D01*
X137324500Y-112489707D01*
X137324493Y-112489701D01*
X137116034Y-112329746D01*
X137116033Y-112329745D01*
X137116030Y-112329743D01*
X137025303Y-112277362D01*
X136888477Y-112198364D01*
X136888466Y-112198359D01*
X136645717Y-112097809D01*
X136645711Y-112097807D01*
X136645708Y-112097806D01*
X136391898Y-112029798D01*
X136334005Y-112022176D01*
X136131389Y-111995500D01*
X136131382Y-111995500D01*
X135868618Y-111995500D01*
X135868610Y-111995500D01*
X135637048Y-112025987D01*
X135608102Y-112029798D01*
X135354292Y-112097806D01*
X135354290Y-112097806D01*
X135354282Y-112097809D01*
X135111533Y-112198359D01*
X135111522Y-112198364D01*
X134883965Y-112329746D01*
X134675506Y-112489701D01*
X134675499Y-112489707D01*
X134489707Y-112675499D01*
X134489701Y-112675506D01*
X134329746Y-112883965D01*
X134198364Y-113111522D01*
X134198359Y-113111533D01*
X134097809Y-113354282D01*
X134097806Y-113354290D01*
X134097806Y-113354292D01*
X134039874Y-113570500D01*
X134029798Y-113608103D01*
X133995500Y-113868610D01*
X114704519Y-113868610D01*
X114696281Y-113837865D01*
X114675044Y-113801081D01*
X114620517Y-113706638D01*
X114620512Y-113706632D01*
X113448367Y-112534487D01*
X113448365Y-112534485D01*
X113370797Y-112489701D01*
X113317136Y-112458719D01*
X113243950Y-112439109D01*
X113170766Y-112419500D01*
X102110768Y-112419500D01*
X101959235Y-112419500D01*
X101812864Y-112458719D01*
X101681636Y-112534485D01*
X101681633Y-112534487D01*
X100279487Y-113936633D01*
X100279485Y-113936636D01*
X100264069Y-113963338D01*
X100203719Y-114067866D01*
X100193804Y-114104870D01*
X100169439Y-114195802D01*
X100133074Y-114255462D01*
X100118554Y-114266810D01*
X100070349Y-114299019D01*
X100070341Y-114299025D01*
X99924024Y-114445342D01*
X99809058Y-114617403D01*
X99729870Y-114808579D01*
X99729868Y-114808587D01*
X99689500Y-115011530D01*
X99689500Y-115468469D01*
X99729868Y-115671412D01*
X99729870Y-115671420D01*
X99771931Y-115772965D01*
X99809059Y-115862598D01*
X99862557Y-115942664D01*
X99924024Y-116034657D01*
X100070342Y-116180975D01*
X100242405Y-116295943D01*
X100312952Y-116325164D01*
X100367356Y-116369005D01*
X100389421Y-116435299D01*
X100389500Y-116439725D01*
X100389500Y-117663456D01*
X100369815Y-117730495D01*
X100353181Y-117751137D01*
X98666137Y-119438181D01*
X98604814Y-119471666D01*
X98578456Y-119474500D01*
X93728856Y-119474500D01*
X93639712Y-119498386D01*
X93639709Y-119498387D01*
X93559791Y-119544527D01*
X93559786Y-119544531D01*
X92519531Y-120584786D01*
X92519527Y-120584791D01*
X92493985Y-120629033D01*
X92493985Y-120629034D01*
X92473386Y-120664710D01*
X92449500Y-120753856D01*
X92449500Y-121503455D01*
X92429815Y-121570494D01*
X92413181Y-121591136D01*
X92141136Y-121863181D01*
X92114208Y-121877884D01*
X92088390Y-121894477D01*
X92082189Y-121895368D01*
X92079813Y-121896666D01*
X92053455Y-121899500D01*
X91946544Y-121899500D01*
X91879505Y-121879815D01*
X91858863Y-121863181D01*
X91765214Y-121769532D01*
X91765208Y-121769527D01*
X91715830Y-121741019D01*
X91690149Y-121721313D01*
X91610867Y-121642031D01*
X91610862Y-121642027D01*
X91530944Y-121595887D01*
X91530943Y-121595886D01*
X91530942Y-121595886D01*
X91441798Y-121572000D01*
X91441797Y-121572000D01*
X91325110Y-121572000D01*
X91258071Y-121552315D01*
X91237428Y-121535680D01*
X91203224Y-121501475D01*
X91203221Y-121501473D01*
X91203220Y-121501472D01*
X91083126Y-121440281D01*
X91083124Y-121440280D01*
X91083121Y-121440279D01*
X90983493Y-121424500D01*
X90983488Y-121424500D01*
X90416512Y-121424500D01*
X90416507Y-121424500D01*
X90316878Y-121440279D01*
X90196778Y-121501473D01*
X90196774Y-121501476D01*
X90101476Y-121596774D01*
X90101473Y-121596778D01*
X90040279Y-121716878D01*
X90024500Y-121816506D01*
X90024500Y-122333493D01*
X90040279Y-122433121D01*
X90040280Y-122433124D01*
X90040281Y-122433126D01*
X90046982Y-122446277D01*
X90101473Y-122553221D01*
X90101476Y-122553225D01*
X90196774Y-122648523D01*
X90196778Y-122648526D01*
X90196780Y-122648528D01*
X90316874Y-122709719D01*
X90316876Y-122709719D01*
X90316878Y-122709720D01*
X90416507Y-122725500D01*
X90416512Y-122725500D01*
X90983493Y-122725500D01*
X91083121Y-122709720D01*
X91083121Y-122709719D01*
X91083126Y-122709719D01*
X91203220Y-122648528D01*
X91221906Y-122629841D01*
X91283227Y-122596357D01*
X91352918Y-122601340D01*
X91408155Y-122642288D01*
X91416298Y-122652956D01*
X91446776Y-122718316D01*
X91528773Y-122800313D01*
X91533801Y-122806900D01*
X91543467Y-122832094D01*
X91556399Y-122855777D01*
X91555794Y-122864224D01*
X91558829Y-122872133D01*
X91553339Y-122898552D01*
X91551415Y-122925469D01*
X91546338Y-122932249D01*
X91544616Y-122940542D01*
X91525713Y-122959801D01*
X91509543Y-122981402D01*
X91501608Y-122984361D01*
X91495675Y-122990407D01*
X91469360Y-122996389D01*
X91444079Y-123005819D01*
X91432740Y-123004714D01*
X91427544Y-123005896D01*
X91421174Y-123003587D01*
X91414321Y-123002920D01*
X91414255Y-123003490D01*
X91404991Y-123002415D01*
X91379865Y-122999500D01*
X89865143Y-122999500D01*
X89865117Y-122999502D01*
X89840012Y-123002413D01*
X89840008Y-123002415D01*
X89737235Y-123047793D01*
X89657794Y-123127234D01*
X89612415Y-123230006D01*
X89612415Y-123230008D01*
X89609500Y-123255131D01*
X89609500Y-123544856D01*
X89609502Y-123544882D01*
X89612413Y-123569987D01*
X89612414Y-123569991D01*
X89650454Y-123656141D01*
X89652869Y-123661612D01*
X89655431Y-123667413D01*
X89664503Y-123736691D01*
X89655431Y-123767585D01*
X89612416Y-123865003D01*
X89612415Y-123865008D01*
X89609500Y-123890131D01*
X89609500Y-124179856D01*
X89609502Y-124179882D01*
X89612413Y-124204987D01*
X89612414Y-124204991D01*
X89655431Y-124302413D01*
X89664503Y-124371691D01*
X89655431Y-124402585D01*
X89612416Y-124500003D01*
X89612415Y-124500008D01*
X89609500Y-124525131D01*
X89609500Y-124814856D01*
X89609502Y-124814882D01*
X89612413Y-124839987D01*
X89612414Y-124839991D01*
X89655431Y-124937413D01*
X89664503Y-125006691D01*
X89655431Y-125037585D01*
X89612416Y-125135003D01*
X89612415Y-125135008D01*
X89609500Y-125160131D01*
X89609500Y-125449856D01*
X89609502Y-125449882D01*
X89612413Y-125474987D01*
X89614579Y-125482945D01*
X89614075Y-125508172D01*
X89617667Y-125533147D01*
X89613391Y-125542509D01*
X89613186Y-125552801D01*
X89599123Y-125573750D01*
X89588642Y-125596703D01*
X89579982Y-125602268D01*
X89574246Y-125610814D01*
X89551091Y-125620835D01*
X89529864Y-125634477D01*
X89514449Y-125636693D01*
X89510125Y-125638565D01*
X89494929Y-125639500D01*
X89473333Y-125639500D01*
X89406294Y-125619815D01*
X89385652Y-125603181D01*
X89286819Y-125504348D01*
X89253334Y-125443025D01*
X89250500Y-125416667D01*
X89250500Y-125198183D01*
X89244068Y-125149328D01*
X89244068Y-125149327D01*
X89194065Y-125042096D01*
X89110404Y-124958435D01*
X89003173Y-124908432D01*
X89003171Y-124908431D01*
X89003172Y-124908431D01*
X88954317Y-124902000D01*
X88954316Y-124902000D01*
X88605684Y-124902000D01*
X88605683Y-124902000D01*
X88556828Y-124908431D01*
X88449595Y-124958435D01*
X88358264Y-125049767D01*
X88355440Y-125046943D01*
X88316958Y-125077683D01*
X88247458Y-125084852D01*
X88185114Y-125053308D01*
X88181901Y-125049601D01*
X88181736Y-125049767D01*
X88090404Y-124958435D01*
X88064003Y-124946124D01*
X87983173Y-124908432D01*
X87983171Y-124908431D01*
X87983172Y-124908431D01*
X87934317Y-124902000D01*
X87934316Y-124902000D01*
X87585684Y-124902000D01*
X87585683Y-124902000D01*
X87536828Y-124908431D01*
X87429595Y-124958435D01*
X87345935Y-125042095D01*
X87295931Y-125149328D01*
X87289500Y-125198183D01*
X87289500Y-125239000D01*
X87269815Y-125306039D01*
X87217011Y-125351794D01*
X87165500Y-125363000D01*
X86812687Y-125363000D01*
X86745648Y-125343315D01*
X86725006Y-125326681D01*
X85200819Y-123802494D01*
X85167334Y-123741171D01*
X85164500Y-123714813D01*
X85164500Y-121485187D01*
X85184185Y-121418148D01*
X85200819Y-121397506D01*
X87397506Y-119200819D01*
X87458829Y-119167334D01*
X87485187Y-119164500D01*
X96723699Y-119164500D01*
X96723701Y-119164500D01*
X96806995Y-119142181D01*
X96881675Y-119099065D01*
X97562065Y-118418675D01*
X97605181Y-118343995D01*
X97627500Y-118260701D01*
X97627500Y-118174469D01*
X97627500Y-116433926D01*
X97647185Y-116366887D01*
X97699989Y-116321132D01*
X97769147Y-116311188D01*
X97798950Y-116319364D01*
X97933580Y-116375130D01*
X98136530Y-116415499D01*
X98136534Y-116415500D01*
X98136535Y-116415500D01*
X98343466Y-116415500D01*
X98343467Y-116415499D01*
X98546420Y-116375130D01*
X98737598Y-116295941D01*
X98909655Y-116180977D01*
X99055977Y-116034655D01*
X99170941Y-115862598D01*
X99250130Y-115671420D01*
X99290500Y-115468465D01*
X99290500Y-115011535D01*
X99250130Y-114808580D01*
X99170941Y-114617402D01*
X99055977Y-114445345D01*
X99055975Y-114445342D01*
X98909657Y-114299024D01*
X98797855Y-114224321D01*
X98737598Y-114184059D01*
X98546420Y-114104870D01*
X98546412Y-114104868D01*
X98343469Y-114064500D01*
X98343465Y-114064500D01*
X98136535Y-114064500D01*
X98136530Y-114064500D01*
X97933587Y-114104868D01*
X97933579Y-114104870D01*
X97742403Y-114184058D01*
X97570342Y-114299024D01*
X97424024Y-114445342D01*
X97309058Y-114617403D01*
X97229870Y-114808579D01*
X97229868Y-114808587D01*
X97189500Y-115011530D01*
X97189500Y-115468469D01*
X97229868Y-115671412D01*
X97229870Y-115671420D01*
X97232008Y-115676581D01*
X97234145Y-115696458D01*
X97241131Y-115715188D01*
X97237803Y-115730484D01*
X97239477Y-115746050D01*
X97230528Y-115763926D01*
X97226279Y-115783461D01*
X97209592Y-115805751D01*
X97208202Y-115808529D01*
X97205128Y-115811715D01*
X97102680Y-115914163D01*
X97041357Y-115947648D01*
X96971665Y-115942664D01*
X96927318Y-115914163D01*
X96786120Y-115772965D01*
X96752635Y-115711642D01*
X96752184Y-115661093D01*
X96782180Y-115510292D01*
X96790500Y-115468465D01*
X96790500Y-115011535D01*
X96750130Y-114808580D01*
X96670941Y-114617402D01*
X96555977Y-114445345D01*
X96555975Y-114445342D01*
X96409657Y-114299024D01*
X96297855Y-114224321D01*
X96237598Y-114184059D01*
X96046420Y-114104870D01*
X96046412Y-114104868D01*
X95843469Y-114064500D01*
X95843465Y-114064500D01*
X95636535Y-114064500D01*
X95636530Y-114064500D01*
X95433587Y-114104868D01*
X95433579Y-114104870D01*
X95242403Y-114184058D01*
X95070342Y-114299024D01*
X94924024Y-114445342D01*
X94809058Y-114617403D01*
X94729870Y-114808579D01*
X94729868Y-114808587D01*
X94689500Y-115011530D01*
X94689500Y-115468469D01*
X94729868Y-115671412D01*
X94729870Y-115671420D01*
X94771931Y-115772965D01*
X94809059Y-115862598D01*
X94862557Y-115942664D01*
X94924024Y-116034657D01*
X95070342Y-116180975D01*
X95070345Y-116180977D01*
X95242402Y-116295941D01*
X95433580Y-116375130D01*
X95636530Y-116415499D01*
X95636534Y-116415500D01*
X95636535Y-116415500D01*
X95843466Y-116415500D01*
X95843467Y-116415499D01*
X96046420Y-116375130D01*
X96237598Y-116295941D01*
X96240012Y-116294327D01*
X96241469Y-116293871D01*
X96242973Y-116293068D01*
X96243125Y-116293352D01*
X96270314Y-116284837D01*
X96300063Y-116273742D01*
X96303414Y-116274471D01*
X96306688Y-116273446D01*
X96337313Y-116281845D01*
X96368336Y-116288594D01*
X96372045Y-116291371D01*
X96374069Y-116291926D01*
X96396590Y-116309745D01*
X96436181Y-116349336D01*
X96469666Y-116410659D01*
X96472500Y-116437017D01*
X96472500Y-117861160D01*
X96452815Y-117928199D01*
X96436181Y-117948841D01*
X96385841Y-117999181D01*
X96324518Y-118032666D01*
X96298160Y-118035500D01*
X87144946Y-118035500D01*
X87058714Y-118035500D01*
X87003184Y-118050379D01*
X86975419Y-118057819D01*
X86900741Y-118100934D01*
X86900738Y-118100936D01*
X84100936Y-120900738D01*
X84100934Y-120900741D01*
X84057819Y-120975419D01*
X84057819Y-120975420D01*
X84035500Y-121058714D01*
X84035500Y-124055054D01*
X84035500Y-124141286D01*
X84057819Y-124224580D01*
X84100935Y-124299260D01*
X86228240Y-126426565D01*
X86302920Y-126469681D01*
X86386214Y-126492000D01*
X86472446Y-126492000D01*
X87155500Y-126492000D01*
X87222539Y-126511685D01*
X87268294Y-126564489D01*
X87279500Y-126616000D01*
X87279500Y-126646816D01*
X87285931Y-126695671D01*
X87335935Y-126802904D01*
X87372850Y-126839819D01*
X87406335Y-126901142D01*
X87401351Y-126970834D01*
X87372852Y-127015180D01*
X87345935Y-127042097D01*
X87295932Y-127149328D01*
X87289501Y-127198183D01*
X87289501Y-127344500D01*
X87269816Y-127411539D01*
X87217012Y-127457294D01*
X87165501Y-127468500D01*
X86050850Y-127468500D01*
X86050822Y-127468498D01*
X86042195Y-127468498D01*
X85398808Y-127468498D01*
X85398806Y-127468498D01*
X85317293Y-127490339D01*
X85244211Y-127532534D01*
X85244208Y-127532536D01*
X85184537Y-127592208D01*
X84174586Y-128602158D01*
X84113263Y-128635643D01*
X84106301Y-128636951D01*
X84105985Y-128637000D01*
X84105982Y-128637001D01*
X84012196Y-128651854D01*
X83899158Y-128709450D01*
X83899157Y-128709451D01*
X83899152Y-128709454D01*
X83809454Y-128799152D01*
X83809451Y-128799157D01*
X83809450Y-128799158D01*
X83803034Y-128811750D01*
X83751852Y-128912198D01*
X83737000Y-129005975D01*
X83737000Y-129376249D01*
X83717315Y-129443288D01*
X83664511Y-129489043D01*
X83613000Y-129500249D01*
X82697544Y-129500249D01*
X82616031Y-129522090D01*
X82542949Y-129564285D01*
X82542946Y-129564287D01*
X81320038Y-130787195D01*
X81320036Y-130787198D01*
X81277841Y-130860280D01*
X81256000Y-130941793D01*
X81256000Y-133688203D01*
X81257061Y-133696261D01*
X81256698Y-133696308D01*
X81259500Y-133717591D01*
X81259500Y-135861705D01*
X81281341Y-135943219D01*
X81323536Y-136016302D01*
X81323538Y-136016304D01*
X81390273Y-136083039D01*
X81390279Y-136083044D01*
X85019685Y-139712450D01*
X85019695Y-139712461D01*
X85024026Y-139716792D01*
X85083698Y-139776464D01*
X85156781Y-139818659D01*
X85238295Y-139840500D01*
X86998500Y-139840500D01*
X87065539Y-139860185D01*
X87111294Y-139912989D01*
X87122500Y-139964500D01*
X87122500Y-140086430D01*
X87156219Y-140255949D01*
X87156222Y-140255958D01*
X87222369Y-140415652D01*
X87222370Y-140415655D01*
X87318400Y-140559373D01*
X87318403Y-140559377D01*
X87440622Y-140681596D01*
X87440626Y-140681599D01*
X87584344Y-140777629D01*
X87584346Y-140777629D01*
X87584348Y-140777631D01*
X87744043Y-140843778D01*
X87744045Y-140843778D01*
X87744050Y-140843780D01*
X87913569Y-140877499D01*
X87913572Y-140877500D01*
X87913574Y-140877500D01*
X88086428Y-140877500D01*
X88086429Y-140877499D01*
X88142936Y-140866259D01*
X88255949Y-140843780D01*
X88255952Y-140843778D01*
X88255957Y-140843778D01*
X88415652Y-140777631D01*
X88559374Y-140681599D01*
X88681599Y-140559374D01*
X88777631Y-140415652D01*
X88807813Y-140342785D01*
X88851650Y-140288384D01*
X88917944Y-140266318D01*
X88985643Y-140283596D01*
X89033255Y-140334732D01*
X89036933Y-140342786D01*
X89101057Y-140497594D01*
X89101062Y-140497604D01*
X89216022Y-140669653D01*
X89216023Y-140669654D01*
X89216024Y-140669655D01*
X89360182Y-140813813D01*
X89393666Y-140875134D01*
X89396500Y-140901493D01*
X89396500Y-146426964D01*
X89436868Y-146629907D01*
X89436870Y-146629915D01*
X89516058Y-146821091D01*
X89631024Y-146993152D01*
X89781664Y-147143792D01*
X89781686Y-147143812D01*
X90405694Y-147767820D01*
X90439179Y-147829143D01*
X90434195Y-147898835D01*
X90392323Y-147954768D01*
X90326859Y-147979185D01*
X90318013Y-147979501D01*
X81006962Y-147979501D01*
X80993078Y-147978721D01*
X80980553Y-147977309D01*
X80902735Y-147968541D01*
X80875666Y-147962363D01*
X80796460Y-147934648D01*
X80771443Y-147922600D01*
X80700399Y-147877961D01*
X80678688Y-147860648D01*
X80619352Y-147801311D01*
X80602043Y-147779607D01*
X80557394Y-147708550D01*
X80545350Y-147683538D01*
X80517636Y-147604333D01*
X80511458Y-147577263D01*
X80501280Y-147486929D01*
X80500500Y-147473046D01*
X80500500Y-142416803D01*
X82306500Y-142416803D01*
X82306500Y-142663196D01*
X82333284Y-142866636D01*
X82338659Y-142907459D01*
X82338660Y-142907461D01*
X82402425Y-143145440D01*
X82496708Y-143373058D01*
X82496712Y-143373068D01*
X82619899Y-143586434D01*
X82769883Y-143781898D01*
X82769889Y-143781905D01*
X82944094Y-143956110D01*
X82944101Y-143956116D01*
X83139565Y-144106100D01*
X83352931Y-144229287D01*
X83352932Y-144229287D01*
X83352935Y-144229289D01*
X83580558Y-144323574D01*
X83818541Y-144387341D01*
X84062811Y-144419500D01*
X84062818Y-144419500D01*
X84309182Y-144419500D01*
X84309189Y-144419500D01*
X84553459Y-144387341D01*
X84791442Y-144323574D01*
X85019065Y-144229289D01*
X85232435Y-144106100D01*
X85427900Y-143956115D01*
X85602115Y-143781900D01*
X85752100Y-143586435D01*
X85875289Y-143373065D01*
X85969574Y-143145442D01*
X86033341Y-142907459D01*
X86065500Y-142663189D01*
X86065500Y-142416811D01*
X86033341Y-142172541D01*
X85969574Y-141934558D01*
X85875289Y-141706935D01*
X85863740Y-141686932D01*
X85752100Y-141493565D01*
X85602116Y-141298101D01*
X85602110Y-141298094D01*
X85427905Y-141123889D01*
X85427898Y-141123883D01*
X85232434Y-140973899D01*
X85019068Y-140850712D01*
X85019058Y-140850708D01*
X84791440Y-140756425D01*
X84672450Y-140724542D01*
X84553459Y-140692659D01*
X84512636Y-140687284D01*
X84309196Y-140660500D01*
X84309189Y-140660500D01*
X84062811Y-140660500D01*
X84062803Y-140660500D01*
X83830299Y-140691110D01*
X83818541Y-140692659D01*
X83768246Y-140706135D01*
X83580559Y-140756425D01*
X83352941Y-140850708D01*
X83352931Y-140850712D01*
X83139565Y-140973899D01*
X82944101Y-141123883D01*
X82944094Y-141123889D01*
X82769889Y-141298094D01*
X82769883Y-141298101D01*
X82619899Y-141493565D01*
X82496712Y-141706931D01*
X82496708Y-141706941D01*
X82402425Y-141934559D01*
X82352135Y-142122246D01*
X82344019Y-142152539D01*
X82338660Y-142172538D01*
X82338658Y-142172549D01*
X82306500Y-142416803D01*
X80500500Y-142416803D01*
X80500500Y-113868610D01*
X81995500Y-113868610D01*
X81995500Y-114131389D01*
X82017571Y-114299024D01*
X82029798Y-114391898D01*
X82097806Y-114645708D01*
X82097807Y-114645711D01*
X82097809Y-114645717D01*
X82198359Y-114888466D01*
X82198364Y-114888477D01*
X82229390Y-114942214D01*
X82329743Y-115116030D01*
X82329745Y-115116033D01*
X82329746Y-115116034D01*
X82489701Y-115324493D01*
X82489707Y-115324500D01*
X82675499Y-115510292D01*
X82675505Y-115510297D01*
X82883970Y-115670257D01*
X83015247Y-115746050D01*
X83111522Y-115801635D01*
X83111527Y-115801637D01*
X83111530Y-115801639D01*
X83354292Y-115902194D01*
X83608102Y-115970202D01*
X83868618Y-116004500D01*
X83868625Y-116004500D01*
X84131375Y-116004500D01*
X84131382Y-116004500D01*
X84391898Y-115970202D01*
X84645708Y-115902194D01*
X84888470Y-115801639D01*
X85116030Y-115670257D01*
X85324495Y-115510297D01*
X85510297Y-115324495D01*
X85670257Y-115116030D01*
X85801639Y-114888470D01*
X85902194Y-114645708D01*
X85970202Y-114391898D01*
X86004500Y-114131382D01*
X86004500Y-113868618D01*
X85970202Y-113608102D01*
X85902194Y-113354292D01*
X85801639Y-113111530D01*
X85801637Y-113111527D01*
X85801635Y-113111522D01*
X85754696Y-113030223D01*
X85670257Y-112883970D01*
X85510297Y-112675505D01*
X85510292Y-112675499D01*
X85324500Y-112489707D01*
X85324493Y-112489701D01*
X85116034Y-112329746D01*
X85116033Y-112329745D01*
X85116030Y-112329743D01*
X85025303Y-112277362D01*
X84888477Y-112198364D01*
X84888466Y-112198359D01*
X84645717Y-112097809D01*
X84645711Y-112097807D01*
X84645708Y-112097806D01*
X84391898Y-112029798D01*
X84334005Y-112022176D01*
X84131389Y-111995500D01*
X84131382Y-111995500D01*
X83868618Y-111995500D01*
X83868610Y-111995500D01*
X83637048Y-112025987D01*
X83608102Y-112029798D01*
X83354292Y-112097806D01*
X83354290Y-112097806D01*
X83354282Y-112097809D01*
X83111533Y-112198359D01*
X83111522Y-112198364D01*
X82883965Y-112329746D01*
X82675506Y-112489701D01*
X82675499Y-112489707D01*
X82489707Y-112675499D01*
X82489701Y-112675506D01*
X82329746Y-112883965D01*
X82198364Y-113111522D01*
X82198359Y-113111533D01*
X82097809Y-113354282D01*
X82097806Y-113354290D01*
X82097806Y-113354292D01*
X82039874Y-113570500D01*
X82029798Y-113608103D01*
X81995500Y-113868610D01*
X80500500Y-113868610D01*
X80500500Y-92237544D01*
X90624937Y-92237544D01*
X90624937Y-92507621D01*
X90655173Y-92775979D01*
X90715269Y-93039282D01*
X90715273Y-93039294D01*
X90804465Y-93294188D01*
X90804471Y-93294202D01*
X90921644Y-93537515D01*
X90921646Y-93537518D01*
X91065331Y-93766191D01*
X91233715Y-93977338D01*
X91424682Y-94168305D01*
X91635829Y-94336689D01*
X91864502Y-94480374D01*
X92107825Y-94597552D01*
X92107831Y-94597554D01*
X92362725Y-94686746D01*
X92362737Y-94686750D01*
X92626034Y-94746845D01*
X92626037Y-94746845D01*
X92626040Y-94746846D01*
X92626039Y-94746846D01*
X92760218Y-94761964D01*
X92894399Y-94777082D01*
X92894400Y-94777083D01*
X92894403Y-94777083D01*
X93164474Y-94777083D01*
X93164474Y-94777082D01*
X93358285Y-94755245D01*
X93432833Y-94746846D01*
X93432834Y-94746845D01*
X93432840Y-94746845D01*
X93696137Y-94686750D01*
X93951049Y-94597552D01*
X94194372Y-94480374D01*
X94423045Y-94336689D01*
X94634192Y-94168305D01*
X94825159Y-93977338D01*
X94993543Y-93766191D01*
X95137228Y-93537518D01*
X95254406Y-93294195D01*
X95343604Y-93039283D01*
X95403699Y-92775986D01*
X95407664Y-92740801D01*
X95412099Y-92701431D01*
X95433937Y-92507617D01*
X95433937Y-92237549D01*
X95433936Y-92237544D01*
X95433936Y-92237542D01*
X95409048Y-92016645D01*
X95407666Y-92004385D01*
X95939068Y-92004385D01*
X95939068Y-92030714D01*
X95939068Y-92740781D01*
X95939068Y-92740799D01*
X95939069Y-92740801D01*
X95977607Y-93476153D01*
X95977607Y-93476161D01*
X96054582Y-94208538D01*
X96169778Y-94935851D01*
X96169786Y-94935895D01*
X96322882Y-95656155D01*
X96513480Y-96367477D01*
X96513481Y-96367481D01*
X96631947Y-96732078D01*
X96741039Y-97067827D01*
X97004940Y-97755313D01*
X97304459Y-98428045D01*
X97304468Y-98428062D01*
X97638779Y-99084186D01*
X98006978Y-99721923D01*
X98408039Y-100339505D01*
X98408041Y-100339508D01*
X98840881Y-100935261D01*
X98840883Y-100935263D01*
X98840889Y-100935270D01*
X99304318Y-101507558D01*
X99797064Y-102054808D01*
X100317775Y-102575519D01*
X100865025Y-103068265D01*
X101224755Y-103359568D01*
X101437319Y-103531699D01*
X101437321Y-103531701D01*
X102033074Y-103964541D01*
X102033077Y-103964543D01*
X102535980Y-104291130D01*
X102650665Y-104365608D01*
X103288403Y-104733807D01*
X103944538Y-105068124D01*
X104617270Y-105367643D01*
X105304756Y-105631544D01*
X105862506Y-105812768D01*
X106005101Y-105859101D01*
X106005104Y-105859101D01*
X106005111Y-105859104D01*
X106716415Y-106049697D01*
X106716418Y-106049697D01*
X106716427Y-106049700D01*
X107436687Y-106202796D01*
X107436720Y-106202803D01*
X108071141Y-106303285D01*
X108164044Y-106318000D01*
X108164046Y-106318000D01*
X108164051Y-106318001D01*
X108896414Y-106394975D01*
X109631802Y-106433515D01*
X109631821Y-106433515D01*
X110368179Y-106433515D01*
X110368198Y-106433515D01*
X111103586Y-106394975D01*
X111835949Y-106318001D01*
X112563280Y-106202803D01*
X112891491Y-106133039D01*
X113283572Y-106049700D01*
X113283576Y-106049698D01*
X113283585Y-106049697D01*
X113994889Y-105859104D01*
X114695244Y-105631544D01*
X115382730Y-105367643D01*
X116055462Y-105068124D01*
X116711597Y-104733807D01*
X117349335Y-104365608D01*
X117966930Y-103964538D01*
X118311539Y-103714164D01*
X118562678Y-103531701D01*
X118562680Y-103531699D01*
X118562678Y-103531699D01*
X118562687Y-103531694D01*
X119134975Y-103068265D01*
X119682225Y-102575519D01*
X120202936Y-102054808D01*
X120695682Y-101507558D01*
X121159111Y-100935270D01*
X121591955Y-100339513D01*
X121993025Y-99721918D01*
X122361224Y-99084180D01*
X122695541Y-98428045D01*
X122995060Y-97755313D01*
X123258961Y-97067827D01*
X123486521Y-96367472D01*
X123677114Y-95656168D01*
X123830220Y-94935863D01*
X123945418Y-94208532D01*
X124022392Y-93476169D01*
X124060932Y-92740781D01*
X124060932Y-92237544D01*
X124566063Y-92237544D01*
X124566063Y-92507621D01*
X124596299Y-92775979D01*
X124656395Y-93039282D01*
X124656399Y-93039294D01*
X124745591Y-93294188D01*
X124745597Y-93294202D01*
X124862770Y-93537515D01*
X124862772Y-93537518D01*
X125006457Y-93766191D01*
X125174841Y-93977338D01*
X125365808Y-94168305D01*
X125576955Y-94336689D01*
X125805628Y-94480374D01*
X126048951Y-94597552D01*
X126048957Y-94597554D01*
X126303851Y-94686746D01*
X126303863Y-94686750D01*
X126567160Y-94746845D01*
X126567163Y-94746845D01*
X126567166Y-94746846D01*
X126567165Y-94746846D01*
X126701344Y-94761964D01*
X126835525Y-94777082D01*
X126835526Y-94777083D01*
X126835529Y-94777083D01*
X127105600Y-94777083D01*
X127105600Y-94777082D01*
X127299411Y-94755245D01*
X127373959Y-94746846D01*
X127373960Y-94746845D01*
X127373966Y-94746845D01*
X127637263Y-94686750D01*
X127892175Y-94597552D01*
X128135498Y-94480374D01*
X128364171Y-94336689D01*
X128575318Y-94168305D01*
X128766285Y-93977338D01*
X128934669Y-93766191D01*
X129078354Y-93537518D01*
X129195532Y-93294195D01*
X129284730Y-93039283D01*
X129344825Y-92775986D01*
X129348790Y-92740801D01*
X129353225Y-92701431D01*
X129375063Y-92507617D01*
X129375063Y-92237549D01*
X129348792Y-92004385D01*
X129344826Y-91969186D01*
X129284730Y-91705883D01*
X129284726Y-91705871D01*
X129195534Y-91450977D01*
X129195532Y-91450971D01*
X129078354Y-91207648D01*
X128934669Y-90978975D01*
X128766285Y-90767828D01*
X128575318Y-90576861D01*
X128364171Y-90408477D01*
X128135498Y-90264792D01*
X128135495Y-90264790D01*
X127892182Y-90147617D01*
X127892168Y-90147611D01*
X127637274Y-90058419D01*
X127637262Y-90058415D01*
X127373959Y-89998319D01*
X127373960Y-89998319D01*
X127105601Y-89968083D01*
X127105597Y-89968083D01*
X126835529Y-89968083D01*
X126835524Y-89968083D01*
X126567166Y-89998319D01*
X126303863Y-90058415D01*
X126303851Y-90058419D01*
X126048957Y-90147611D01*
X126048943Y-90147617D01*
X125805630Y-90264790D01*
X125576956Y-90408476D01*
X125365808Y-90576860D01*
X125174840Y-90767828D01*
X125006456Y-90978976D01*
X124862770Y-91207650D01*
X124745597Y-91450963D01*
X124745591Y-91450977D01*
X124656399Y-91705871D01*
X124656395Y-91705883D01*
X124596299Y-91969186D01*
X124566063Y-92237544D01*
X124060932Y-92237544D01*
X124060932Y-92004385D01*
X124022392Y-91268997D01*
X123945418Y-90536634D01*
X123830220Y-89809303D01*
X123830213Y-89809270D01*
X123677117Y-89089010D01*
X123486519Y-88377688D01*
X123486518Y-88377684D01*
X123440185Y-88235089D01*
X123258961Y-87677339D01*
X122995060Y-86989853D01*
X122695541Y-86317121D01*
X122361224Y-85660986D01*
X121993025Y-85023248D01*
X121591955Y-84405653D01*
X121159118Y-83809904D01*
X121159116Y-83809902D01*
X120695685Y-83237612D01*
X120695682Y-83237608D01*
X120202936Y-82690358D01*
X119682225Y-82169647D01*
X119134975Y-81676901D01*
X119051805Y-81609551D01*
X118562680Y-81213466D01*
X118562678Y-81213464D01*
X117966925Y-80780624D01*
X117966922Y-80780622D01*
X117349340Y-80379561D01*
X116711603Y-80011362D01*
X116395818Y-79850462D01*
X116055462Y-79677042D01*
X115382730Y-79377523D01*
X114695244Y-79113622D01*
X114523764Y-79057904D01*
X113994898Y-78886064D01*
X113994894Y-78886063D01*
X113283572Y-78695465D01*
X112563312Y-78542369D01*
X112563285Y-78542364D01*
X112563280Y-78542363D01*
X112563272Y-78542361D01*
X112563268Y-78542361D01*
X111835955Y-78427165D01*
X111318101Y-78372737D01*
X111103586Y-78350191D01*
X111103581Y-78350190D01*
X111103574Y-78350190D01*
X110368218Y-78311652D01*
X110368216Y-78311651D01*
X110368198Y-78311651D01*
X109631802Y-78311651D01*
X109631784Y-78311651D01*
X109631781Y-78311652D01*
X108896429Y-78350190D01*
X108896421Y-78350190D01*
X108164044Y-78427165D01*
X107436731Y-78542361D01*
X107436687Y-78542369D01*
X106716427Y-78695465D01*
X106005105Y-78886063D01*
X106005101Y-78886064D01*
X105304759Y-79113621D01*
X105304739Y-79113628D01*
X104617267Y-79377524D01*
X103944542Y-79677040D01*
X103944520Y-79677051D01*
X103288396Y-80011362D01*
X102650659Y-80379561D01*
X102033077Y-80780622D01*
X102033074Y-80780624D01*
X101437321Y-81213464D01*
X101437319Y-81213466D01*
X100865029Y-81676897D01*
X100865021Y-81676904D01*
X100317788Y-82169634D01*
X100317759Y-82169662D01*
X99797079Y-82690342D01*
X99797051Y-82690371D01*
X99304321Y-83237604D01*
X99304314Y-83237612D01*
X98840883Y-83809902D01*
X98840881Y-83809904D01*
X98408041Y-84405657D01*
X98408039Y-84405660D01*
X98006978Y-85023242D01*
X97638779Y-85660979D01*
X97304468Y-86317103D01*
X97304457Y-86317125D01*
X97004941Y-86989850D01*
X96741045Y-87677322D01*
X96741038Y-87677342D01*
X96513481Y-88377684D01*
X96513480Y-88377688D01*
X96322882Y-89089010D01*
X96169786Y-89809270D01*
X96169778Y-89809314D01*
X96054582Y-90536627D01*
X95977607Y-91269004D01*
X95977607Y-91269012D01*
X95968071Y-91450971D01*
X95939068Y-92004385D01*
X95407666Y-92004385D01*
X95403700Y-91969186D01*
X95343604Y-91705883D01*
X95343600Y-91705871D01*
X95254408Y-91450977D01*
X95254406Y-91450971D01*
X95137228Y-91207648D01*
X94993543Y-90978975D01*
X94825159Y-90767828D01*
X94634192Y-90576861D01*
X94423045Y-90408477D01*
X94194372Y-90264792D01*
X94194369Y-90264790D01*
X93951056Y-90147617D01*
X93951042Y-90147611D01*
X93696148Y-90058419D01*
X93696136Y-90058415D01*
X93432833Y-89998319D01*
X93432834Y-89998319D01*
X93164475Y-89968083D01*
X93164471Y-89968083D01*
X92894403Y-89968083D01*
X92894398Y-89968083D01*
X92626040Y-89998319D01*
X92362737Y-90058415D01*
X92362725Y-90058419D01*
X92107831Y-90147611D01*
X92107817Y-90147617D01*
X91864504Y-90264790D01*
X91635830Y-90408476D01*
X91424682Y-90576860D01*
X91233714Y-90767828D01*
X91065330Y-90978976D01*
X90921644Y-91207650D01*
X90804471Y-91450963D01*
X90804465Y-91450977D01*
X90715273Y-91705871D01*
X90715269Y-91705883D01*
X90655173Y-91969186D01*
X90624937Y-92237544D01*
X80500500Y-92237544D01*
X80500500Y-75266981D01*
X107595500Y-75266981D01*
X107595500Y-75537058D01*
X107625736Y-75805416D01*
X107685832Y-76068719D01*
X107685836Y-76068731D01*
X107775028Y-76323625D01*
X107775034Y-76323639D01*
X107892207Y-76566952D01*
X107892209Y-76566955D01*
X108035894Y-76795628D01*
X108204278Y-77006775D01*
X108395245Y-77197742D01*
X108606392Y-77366126D01*
X108835065Y-77509811D01*
X109078388Y-77626989D01*
X109078394Y-77626991D01*
X109333288Y-77716183D01*
X109333300Y-77716187D01*
X109596597Y-77776282D01*
X109596600Y-77776282D01*
X109596603Y-77776283D01*
X109596602Y-77776283D01*
X109730781Y-77791401D01*
X109864962Y-77806519D01*
X109864963Y-77806520D01*
X109864966Y-77806520D01*
X110135037Y-77806520D01*
X110135037Y-77806519D01*
X110328848Y-77784682D01*
X110403396Y-77776283D01*
X110403397Y-77776282D01*
X110403403Y-77776282D01*
X110666700Y-77716187D01*
X110921612Y-77626989D01*
X111164935Y-77509811D01*
X111393608Y-77366126D01*
X111604755Y-77197742D01*
X111795722Y-77006775D01*
X111964106Y-76795628D01*
X112107791Y-76566955D01*
X112224969Y-76323632D01*
X112314167Y-76068720D01*
X112374262Y-75805423D01*
X112404500Y-75537054D01*
X112404500Y-75266986D01*
X112374262Y-74998617D01*
X112314167Y-74735320D01*
X112224969Y-74480408D01*
X112107791Y-74237085D01*
X111964106Y-74008412D01*
X111795722Y-73797265D01*
X111604755Y-73606298D01*
X111393608Y-73437914D01*
X111164935Y-73294229D01*
X111164932Y-73294227D01*
X110921619Y-73177054D01*
X110921605Y-73177048D01*
X110666711Y-73087856D01*
X110666699Y-73087852D01*
X110403396Y-73027756D01*
X110403397Y-73027756D01*
X110135038Y-72997520D01*
X110135034Y-72997520D01*
X109864966Y-72997520D01*
X109864961Y-72997520D01*
X109596603Y-73027756D01*
X109333300Y-73087852D01*
X109333288Y-73087856D01*
X109078394Y-73177048D01*
X109078380Y-73177054D01*
X108835067Y-73294227D01*
X108606393Y-73437913D01*
X108395245Y-73606297D01*
X108204277Y-73797265D01*
X108035893Y-74008413D01*
X107892207Y-74237087D01*
X107775034Y-74480400D01*
X107775028Y-74480414D01*
X107685836Y-74735308D01*
X107685832Y-74735320D01*
X107625736Y-74998623D01*
X107595500Y-75266981D01*
X80500500Y-75266981D01*
X80500500Y-53868610D01*
X81995500Y-53868610D01*
X81995500Y-54131389D01*
X82022176Y-54334005D01*
X82029798Y-54391898D01*
X82097806Y-54645708D01*
X82097807Y-54645711D01*
X82097809Y-54645717D01*
X82198359Y-54888466D01*
X82198364Y-54888477D01*
X82277362Y-55025303D01*
X82329743Y-55116030D01*
X82329745Y-55116033D01*
X82329746Y-55116034D01*
X82489701Y-55324493D01*
X82489707Y-55324500D01*
X82675499Y-55510292D01*
X82675505Y-55510297D01*
X82883970Y-55670257D01*
X83030223Y-55754696D01*
X83111522Y-55801635D01*
X83111527Y-55801637D01*
X83111530Y-55801639D01*
X83354292Y-55902194D01*
X83608102Y-55970202D01*
X83868618Y-56004500D01*
X83868625Y-56004500D01*
X84131375Y-56004500D01*
X84131382Y-56004500D01*
X84391898Y-55970202D01*
X84645708Y-55902194D01*
X84888470Y-55801639D01*
X85116030Y-55670257D01*
X85324495Y-55510297D01*
X85510297Y-55324495D01*
X85670257Y-55116030D01*
X85801639Y-54888470D01*
X85801643Y-54888461D01*
X85840917Y-54793646D01*
X113799500Y-54793646D01*
X113799500Y-55206353D01*
X113839952Y-55617084D01*
X113920464Y-56021848D01*
X113920467Y-56021859D01*
X114040274Y-56416814D01*
X114198214Y-56798113D01*
X114198216Y-56798118D01*
X114392759Y-57162081D01*
X114392770Y-57162099D01*
X114622052Y-57505244D01*
X114622062Y-57505258D01*
X114883885Y-57824291D01*
X115175708Y-58116114D01*
X115175713Y-58116118D01*
X115175714Y-58116119D01*
X115494747Y-58377942D01*
X115837907Y-58607234D01*
X115837916Y-58607239D01*
X115837918Y-58607240D01*
X116201881Y-58801783D01*
X116201883Y-58801783D01*
X116201889Y-58801787D01*
X116583187Y-58959726D01*
X116978131Y-59079530D01*
X116978137Y-59079531D01*
X116978140Y-59079532D01*
X116978151Y-59079535D01*
X117382915Y-59160047D01*
X117793643Y-59200500D01*
X117793646Y-59200500D01*
X118206354Y-59200500D01*
X118206357Y-59200500D01*
X118617085Y-59160047D01*
X118695884Y-59144372D01*
X119021848Y-59079535D01*
X119021859Y-59079532D01*
X119021859Y-59079531D01*
X119021869Y-59079530D01*
X119416813Y-58959726D01*
X119798111Y-58801787D01*
X120162093Y-58607234D01*
X120505253Y-58377942D01*
X120824286Y-58116119D01*
X121116119Y-57824286D01*
X121377942Y-57505253D01*
X121607234Y-57162093D01*
X121801787Y-56798111D01*
X121959726Y-56416813D01*
X122079530Y-56021869D01*
X122079532Y-56021859D01*
X122079535Y-56021848D01*
X122160047Y-55617084D01*
X122200500Y-55206357D01*
X122200500Y-54793643D01*
X122160047Y-54382915D01*
X122079535Y-53978151D01*
X122079532Y-53978140D01*
X122079531Y-53978137D01*
X122079530Y-53978131D01*
X122046307Y-53868610D01*
X133995500Y-53868610D01*
X133995500Y-54131389D01*
X134022176Y-54334005D01*
X134029798Y-54391898D01*
X134097806Y-54645708D01*
X134097807Y-54645711D01*
X134097809Y-54645717D01*
X134198359Y-54888466D01*
X134198364Y-54888477D01*
X134277362Y-55025303D01*
X134329743Y-55116030D01*
X134329745Y-55116033D01*
X134329746Y-55116034D01*
X134489701Y-55324493D01*
X134489707Y-55324500D01*
X134675499Y-55510292D01*
X134675505Y-55510297D01*
X134883970Y-55670257D01*
X135030223Y-55754696D01*
X135111522Y-55801635D01*
X135111527Y-55801637D01*
X135111530Y-55801639D01*
X135354292Y-55902194D01*
X135608102Y-55970202D01*
X135868618Y-56004500D01*
X135868625Y-56004500D01*
X136131375Y-56004500D01*
X136131382Y-56004500D01*
X136391898Y-55970202D01*
X136645708Y-55902194D01*
X136888470Y-55801639D01*
X137116030Y-55670257D01*
X137324495Y-55510297D01*
X137510297Y-55324495D01*
X137670257Y-55116030D01*
X137801639Y-54888470D01*
X137902194Y-54645708D01*
X137970202Y-54391898D01*
X138004500Y-54131382D01*
X138004500Y-53868618D01*
X137970202Y-53608102D01*
X137902194Y-53354292D01*
X137801639Y-53111530D01*
X137801637Y-53111527D01*
X137801635Y-53111522D01*
X137754696Y-53030223D01*
X137670257Y-52883970D01*
X137510297Y-52675505D01*
X137510292Y-52675499D01*
X137324500Y-52489707D01*
X137324493Y-52489701D01*
X137116034Y-52329746D01*
X137116033Y-52329745D01*
X137116030Y-52329743D01*
X137025303Y-52277362D01*
X136888477Y-52198364D01*
X136888466Y-52198359D01*
X136645717Y-52097809D01*
X136645711Y-52097807D01*
X136645708Y-52097806D01*
X136391898Y-52029798D01*
X136334005Y-52022176D01*
X136131389Y-51995500D01*
X136131382Y-51995500D01*
X135868618Y-51995500D01*
X135868610Y-51995500D01*
X135637048Y-52025987D01*
X135608102Y-52029798D01*
X135354292Y-52097806D01*
X135354290Y-52097806D01*
X135354282Y-52097809D01*
X135111533Y-52198359D01*
X135111522Y-52198364D01*
X134883965Y-52329746D01*
X134675506Y-52489701D01*
X134675499Y-52489707D01*
X134489707Y-52675499D01*
X134489701Y-52675506D01*
X134329746Y-52883965D01*
X134198364Y-53111522D01*
X134198359Y-53111533D01*
X134097809Y-53354282D01*
X134097806Y-53354290D01*
X134097806Y-53354292D01*
X134036475Y-53583185D01*
X134029798Y-53608103D01*
X133995500Y-53868610D01*
X122046307Y-53868610D01*
X121959726Y-53583187D01*
X121801787Y-53201889D01*
X121607234Y-52837907D01*
X121377942Y-52494747D01*
X121116119Y-52175714D01*
X121116118Y-52175713D01*
X121116114Y-52175708D01*
X120824291Y-51883885D01*
X120505258Y-51622062D01*
X120505257Y-51622061D01*
X120505253Y-51622058D01*
X120162093Y-51392766D01*
X120162088Y-51392763D01*
X120162081Y-51392759D01*
X119798118Y-51198216D01*
X119798113Y-51198214D01*
X119416814Y-51040274D01*
X119021859Y-50920467D01*
X119021848Y-50920464D01*
X118617084Y-50839952D01*
X118307741Y-50809485D01*
X118206357Y-50799500D01*
X117793643Y-50799500D01*
X117699966Y-50808726D01*
X117382915Y-50839952D01*
X116978151Y-50920464D01*
X116978140Y-50920467D01*
X116583185Y-51040274D01*
X116201886Y-51198214D01*
X116201881Y-51198216D01*
X115837918Y-51392759D01*
X115837900Y-51392770D01*
X115494755Y-51622052D01*
X115494741Y-51622062D01*
X115175708Y-51883885D01*
X114883885Y-52175708D01*
X114622062Y-52494741D01*
X114622052Y-52494755D01*
X114392770Y-52837900D01*
X114392759Y-52837918D01*
X114198216Y-53201881D01*
X114198214Y-53201886D01*
X114040274Y-53583185D01*
X113920467Y-53978140D01*
X113920464Y-53978151D01*
X113839952Y-54382915D01*
X113814070Y-54645706D01*
X113804474Y-54743147D01*
X113799500Y-54793646D01*
X85840917Y-54793646D01*
X85861834Y-54743147D01*
X85861834Y-54743146D01*
X85902190Y-54645717D01*
X85902194Y-54645708D01*
X85970202Y-54391898D01*
X86004500Y-54131382D01*
X86004500Y-53868618D01*
X85970202Y-53608102D01*
X85902194Y-53354292D01*
X85801639Y-53111530D01*
X85801637Y-53111527D01*
X85801635Y-53111522D01*
X85754696Y-53030223D01*
X85670257Y-52883970D01*
X85510297Y-52675505D01*
X85510292Y-52675499D01*
X85324500Y-52489707D01*
X85324493Y-52489701D01*
X85116034Y-52329746D01*
X85116033Y-52329745D01*
X85116030Y-52329743D01*
X85025303Y-52277362D01*
X84888477Y-52198364D01*
X84888466Y-52198359D01*
X84645717Y-52097809D01*
X84645711Y-52097807D01*
X84645708Y-52097806D01*
X84391898Y-52029798D01*
X84334005Y-52022176D01*
X84131389Y-51995500D01*
X84131382Y-51995500D01*
X83868618Y-51995500D01*
X83868610Y-51995500D01*
X83637048Y-52025987D01*
X83608102Y-52029798D01*
X83354292Y-52097806D01*
X83354290Y-52097806D01*
X83354282Y-52097809D01*
X83111533Y-52198359D01*
X83111522Y-52198364D01*
X82883965Y-52329746D01*
X82675506Y-52489701D01*
X82675499Y-52489707D01*
X82489707Y-52675499D01*
X82489701Y-52675506D01*
X82329746Y-52883965D01*
X82198364Y-53111522D01*
X82198359Y-53111533D01*
X82097809Y-53354282D01*
X82097806Y-53354290D01*
X82097806Y-53354292D01*
X82036475Y-53583185D01*
X82029798Y-53608103D01*
X81995500Y-53868610D01*
X80500500Y-53868610D01*
X80500500Y-49736953D01*
X80501280Y-49723070D01*
X80502008Y-49716603D01*
X80511459Y-49632730D01*
X80517632Y-49605678D01*
X80545357Y-49526447D01*
X80557391Y-49501457D01*
X80602047Y-49430387D01*
X80619350Y-49408691D01*
X80678690Y-49349351D01*
X80700389Y-49332046D01*
X80771450Y-49287396D01*
X80796456Y-49275353D01*
X80875670Y-49247635D01*
X80902733Y-49241459D01*
X80967183Y-49234197D01*
X80993061Y-49231282D01*
X81006944Y-49230502D01*
X81073488Y-49230502D01*
X81073504Y-49230501D01*
X138926498Y-49230501D01*
X138934104Y-49230501D01*
X138934108Y-49230502D01*
G37*
%TD.AperFunction*%
%TA.AperFunction,Conductor*%
G36*
X108005585Y-113590185D02*
G01*
X108051340Y-113642989D01*
X108061284Y-113712147D01*
X108032259Y-113775703D01*
X108014034Y-113792874D01*
X108003341Y-113801079D01*
X108003330Y-113801089D01*
X107841081Y-113963338D01*
X107701392Y-114145382D01*
X107586657Y-114344109D01*
X107586650Y-114344123D01*
X107498842Y-114556112D01*
X107439453Y-114777759D01*
X107439451Y-114777770D01*
X107409500Y-115005258D01*
X107409500Y-115484741D01*
X107433924Y-115670253D01*
X107439452Y-115712238D01*
X107490349Y-115902190D01*
X107498842Y-115933887D01*
X107586650Y-116145876D01*
X107586657Y-116145890D01*
X107701392Y-116344617D01*
X107841081Y-116526661D01*
X107841089Y-116526670D01*
X108003330Y-116688911D01*
X108003338Y-116688918D01*
X108003339Y-116688919D01*
X108045326Y-116721137D01*
X108185382Y-116828607D01*
X108185385Y-116828608D01*
X108185388Y-116828611D01*
X108384109Y-116943342D01*
X108384112Y-116943344D01*
X108473997Y-116980576D01*
X108528397Y-117024414D01*
X108550463Y-117090708D01*
X108533184Y-117158407D01*
X108527358Y-117166720D01*
X108527407Y-117166753D01*
X108409058Y-117343874D01*
X108329870Y-117535051D01*
X108329868Y-117535059D01*
X108289500Y-117738002D01*
X108289500Y-119776006D01*
X108280855Y-119805446D01*
X108274332Y-119835433D01*
X108270577Y-119840448D01*
X108269815Y-119843045D01*
X108253181Y-119863687D01*
X108200348Y-119916520D01*
X108200346Y-119916522D01*
X108120049Y-119996819D01*
X108054023Y-120062845D01*
X107939063Y-120234894D01*
X107939057Y-120234906D01*
X107912404Y-120299250D01*
X107868562Y-120353652D01*
X107802268Y-120375716D01*
X107734569Y-120358436D01*
X107728342Y-120354486D01*
X107654811Y-120304719D01*
X107461614Y-120221987D01*
X107461603Y-120221984D01*
X107256251Y-120177312D01*
X107241493Y-120176433D01*
X107209039Y-120174500D01*
X106490963Y-120174500D01*
X106460417Y-120176319D01*
X106443750Y-120177312D01*
X106238392Y-120221985D01*
X106238385Y-120221987D01*
X106123813Y-120271051D01*
X106054437Y-120279346D01*
X106026187Y-120271051D01*
X105911613Y-120221987D01*
X105911602Y-120221984D01*
X105706250Y-120177312D01*
X105691492Y-120176433D01*
X105659038Y-120174500D01*
X104940962Y-120174500D01*
X104910416Y-120176319D01*
X104893749Y-120177312D01*
X104688397Y-120221984D01*
X104688386Y-120221987D01*
X104495191Y-120304718D01*
X104321137Y-120422521D01*
X104321132Y-120422525D01*
X104172525Y-120571132D01*
X104172521Y-120571137D01*
X104054718Y-120745191D01*
X103971987Y-120938386D01*
X103971984Y-120938397D01*
X103927312Y-121143749D01*
X103927312Y-121143755D01*
X103924500Y-121190962D01*
X103924500Y-121759038D01*
X103925931Y-121783058D01*
X103927312Y-121806250D01*
X103971984Y-122011602D01*
X103971987Y-122011613D01*
X103999721Y-122076377D01*
X104054721Y-122204813D01*
X104068598Y-122225317D01*
X104072106Y-122230500D01*
X104093378Y-122297053D01*
X104075292Y-122364541D01*
X104072106Y-122369500D01*
X104054721Y-122395187D01*
X104054719Y-122395189D01*
X104054719Y-122395191D01*
X103971987Y-122588386D01*
X103971984Y-122588397D01*
X103927312Y-122793749D01*
X103926748Y-122803223D01*
X103924500Y-122840962D01*
X103924500Y-123409038D01*
X103926318Y-123439562D01*
X103927312Y-123456250D01*
X103971984Y-123661602D01*
X103971987Y-123661613D01*
X104054718Y-123854808D01*
X104054720Y-123854811D01*
X104054721Y-123854813D01*
X104172523Y-124028865D01*
X104321135Y-124177477D01*
X104495187Y-124295279D01*
X104495191Y-124295280D01*
X104495193Y-124295282D01*
X104605546Y-124342538D01*
X104674312Y-124371985D01*
X104728190Y-124416470D01*
X104749465Y-124483022D01*
X104749500Y-124485973D01*
X104749500Y-124551997D01*
X104789868Y-124754940D01*
X104789870Y-124754948D01*
X104853445Y-124908432D01*
X104869059Y-124946126D01*
X104984023Y-125118183D01*
X105130345Y-125264505D01*
X105130346Y-125264505D01*
X105137413Y-125271572D01*
X105137412Y-125271572D01*
X105137416Y-125271575D01*
X106531813Y-126665974D01*
X106531817Y-126665977D01*
X106703867Y-126780938D01*
X106703880Y-126780945D01*
X106852279Y-126842413D01*
X106895052Y-126860130D01*
X106895056Y-126860130D01*
X106895057Y-126860131D01*
X107098004Y-126900501D01*
X107288914Y-126900501D01*
X107355953Y-126920186D01*
X107376595Y-126936820D01*
X108828694Y-128388919D01*
X108862179Y-128450242D01*
X108863486Y-128457201D01*
X108878444Y-128551636D01*
X108878444Y-128551638D01*
X108935618Y-128727602D01*
X108935619Y-128727605D01*
X109006820Y-128867343D01*
X109019621Y-128892466D01*
X109128378Y-129042157D01*
X109259212Y-129172991D01*
X109408903Y-129281748D01*
X109478311Y-129317113D01*
X109573763Y-129365749D01*
X109573766Y-129365750D01*
X109749734Y-129422925D01*
X109801678Y-129431152D01*
X109844164Y-129437881D01*
X109907299Y-129467810D01*
X109912448Y-129472673D01*
X111286304Y-130846529D01*
X111286333Y-130846560D01*
X111435749Y-130995976D01*
X111435752Y-130995978D01*
X111582178Y-131093816D01*
X111590761Y-131099551D01*
X111607808Y-131110942D01*
X111686997Y-131143742D01*
X111798987Y-131190131D01*
X111976951Y-131225530D01*
X112001937Y-131230500D01*
X112001941Y-131230501D01*
X112001942Y-131230501D01*
X112208872Y-131230501D01*
X116944980Y-131230501D01*
X117012019Y-131250186D01*
X117032661Y-131266820D01*
X119083181Y-133317340D01*
X119116666Y-133378663D01*
X119119500Y-133405021D01*
X119119500Y-143009241D01*
X119099815Y-143076280D01*
X119083181Y-143096922D01*
X118576922Y-143603181D01*
X118549994Y-143617884D01*
X118524176Y-143634477D01*
X118517975Y-143635368D01*
X118515599Y-143636666D01*
X118489241Y-143639500D01*
X118272691Y-143639500D01*
X118205652Y-143619815D01*
X118159897Y-143567011D01*
X118149953Y-143497853D01*
X118165304Y-143453500D01*
X118211741Y-143373068D01*
X118223289Y-143353066D01*
X118317574Y-143125443D01*
X118381341Y-142887460D01*
X118413500Y-142643190D01*
X118413500Y-142396812D01*
X118381341Y-142152542D01*
X118317574Y-141914559D01*
X118223289Y-141686936D01*
X118100100Y-141473566D01*
X117950116Y-141278102D01*
X117950110Y-141278095D01*
X117775905Y-141103890D01*
X117775898Y-141103884D01*
X117580434Y-140953900D01*
X117367068Y-140830713D01*
X117367058Y-140830709D01*
X117139440Y-140736426D01*
X116976100Y-140692660D01*
X116901459Y-140672660D01*
X116860636Y-140667285D01*
X116657196Y-140640501D01*
X116657189Y-140640501D01*
X116410811Y-140640501D01*
X116410803Y-140640501D01*
X116189381Y-140669653D01*
X116166541Y-140672660D01*
X116133191Y-140681596D01*
X115928559Y-140736426D01*
X115700941Y-140830709D01*
X115700931Y-140830713D01*
X115487565Y-140953900D01*
X115292101Y-141103884D01*
X115292094Y-141103890D01*
X115117889Y-141278095D01*
X115117883Y-141278102D01*
X114967899Y-141473566D01*
X114844712Y-141686932D01*
X114844708Y-141686942D01*
X114750425Y-141914560D01*
X114686660Y-142152539D01*
X114686658Y-142152550D01*
X114654500Y-142396804D01*
X114654500Y-142643197D01*
X114681284Y-142846637D01*
X114686659Y-142887460D01*
X114718542Y-143006451D01*
X114750425Y-143125441D01*
X114844708Y-143353059D01*
X114844712Y-143353069D01*
X114902696Y-143453500D01*
X114919169Y-143521401D01*
X114896316Y-143587427D01*
X114841395Y-143630618D01*
X114795309Y-143639500D01*
X114227986Y-143639500D01*
X114160947Y-143619815D01*
X114155101Y-143615818D01*
X114046099Y-143536624D01*
X114046098Y-143536623D01*
X114046096Y-143536622D01*
X113970008Y-143497853D01*
X113881235Y-143452620D01*
X113881232Y-143452619D01*
X113705265Y-143395445D01*
X113563919Y-143373058D01*
X113522514Y-143366500D01*
X113337486Y-143366500D01*
X113296081Y-143373058D01*
X113154734Y-143395445D01*
X112978767Y-143452619D01*
X112978764Y-143452620D01*
X112813900Y-143536624D01*
X112704899Y-143615818D01*
X112639093Y-143639298D01*
X112632014Y-143639500D01*
X105572691Y-143639500D01*
X105505652Y-143619815D01*
X105459897Y-143567011D01*
X105449953Y-143497853D01*
X105465304Y-143453500D01*
X105511741Y-143373068D01*
X105523289Y-143353066D01*
X105617574Y-143125443D01*
X105681341Y-142887460D01*
X105713500Y-142643190D01*
X105713500Y-142396812D01*
X105681341Y-142152542D01*
X105617574Y-141914559D01*
X105523289Y-141686936D01*
X105400100Y-141473566D01*
X105250116Y-141278102D01*
X105250110Y-141278095D01*
X105075905Y-141103890D01*
X105075898Y-141103884D01*
X104880434Y-140953900D01*
X104667068Y-140830713D01*
X104667058Y-140830709D01*
X104439440Y-140736426D01*
X104276100Y-140692660D01*
X104201459Y-140672660D01*
X104160636Y-140667285D01*
X103957196Y-140640501D01*
X103957189Y-140640501D01*
X103710811Y-140640501D01*
X103710803Y-140640501D01*
X103489381Y-140669653D01*
X103466541Y-140672660D01*
X103433191Y-140681596D01*
X103228559Y-140736426D01*
X103000941Y-140830709D01*
X103000931Y-140830713D01*
X102787565Y-140953900D01*
X102592101Y-141103884D01*
X102592094Y-141103890D01*
X102417889Y-141278095D01*
X102417883Y-141278102D01*
X102267899Y-141473566D01*
X102144712Y-141686932D01*
X102144708Y-141686942D01*
X102050425Y-141914560D01*
X101986660Y-142152539D01*
X101986658Y-142152550D01*
X101954500Y-142396804D01*
X101954500Y-142643197D01*
X101981284Y-142846637D01*
X101986659Y-142887460D01*
X102018542Y-143006451D01*
X102050425Y-143125441D01*
X102144708Y-143353059D01*
X102144712Y-143353069D01*
X102202696Y-143453500D01*
X102219169Y-143521401D01*
X102196316Y-143587427D01*
X102141395Y-143630618D01*
X102095309Y-143639500D01*
X98636237Y-143639500D01*
X98569198Y-143619815D01*
X98523443Y-143567011D01*
X98513499Y-143497853D01*
X98528850Y-143453500D01*
X98575287Y-143373068D01*
X98575289Y-143373065D01*
X98669574Y-143145442D01*
X98733341Y-142907459D01*
X98765500Y-142663189D01*
X98765500Y-142416811D01*
X98733341Y-142172541D01*
X98669574Y-141934558D01*
X98575289Y-141706935D01*
X98563740Y-141686932D01*
X98452100Y-141493565D01*
X98302116Y-141298101D01*
X98302110Y-141298094D01*
X98127905Y-141123889D01*
X98127898Y-141123883D01*
X97932434Y-140973899D01*
X97719068Y-140850712D01*
X97719058Y-140850708D01*
X97491440Y-140756425D01*
X97372450Y-140724542D01*
X97253459Y-140692659D01*
X97212636Y-140687284D01*
X97009196Y-140660500D01*
X97009189Y-140660500D01*
X96762811Y-140660500D01*
X96762803Y-140660500D01*
X96530299Y-140691110D01*
X96518541Y-140692659D01*
X96468246Y-140706135D01*
X96280559Y-140756425D01*
X96052941Y-140850708D01*
X96052931Y-140850712D01*
X95839565Y-140973899D01*
X95644101Y-141123883D01*
X95644094Y-141123889D01*
X95469889Y-141298094D01*
X95469883Y-141298101D01*
X95319899Y-141493565D01*
X95196712Y-141706931D01*
X95196708Y-141706941D01*
X95102425Y-141934559D01*
X95052135Y-142122246D01*
X95044019Y-142152539D01*
X95038660Y-142172538D01*
X95038658Y-142172549D01*
X95006500Y-142416803D01*
X95006500Y-142663196D01*
X95033284Y-142866636D01*
X95038659Y-142907459D01*
X95038660Y-142907461D01*
X95102373Y-143145245D01*
X95100710Y-143215095D01*
X95061547Y-143272957D01*
X94997319Y-143300461D01*
X94928416Y-143288874D01*
X94894917Y-143265019D01*
X94746819Y-143116921D01*
X94713334Y-143055598D01*
X94710500Y-143029240D01*
X94710500Y-141001500D01*
X94730185Y-140934461D01*
X94782989Y-140888706D01*
X94834500Y-140877500D01*
X94858559Y-140877500D01*
X94865957Y-140876028D01*
X94895748Y-140870102D01*
X94937922Y-140841922D01*
X94966102Y-140799748D01*
X94973500Y-140762558D01*
X94973500Y-140615192D01*
X94993185Y-140548153D01*
X94994398Y-140546301D01*
X94999026Y-140539375D01*
X95026941Y-140497598D01*
X95106130Y-140306420D01*
X95146500Y-140103465D01*
X95146500Y-139896535D01*
X95106130Y-139693580D01*
X95026941Y-139502402D01*
X95026940Y-139502401D01*
X95026937Y-139502395D01*
X94994398Y-139453697D01*
X94973520Y-139387019D01*
X94973500Y-139384806D01*
X94973500Y-139237441D01*
X94970502Y-139222370D01*
X94966102Y-139200252D01*
X94965600Y-139199500D01*
X94937922Y-139158077D01*
X94895749Y-139129898D01*
X94858559Y-139122500D01*
X94858558Y-139122500D01*
X94711193Y-139122500D01*
X94644154Y-139102815D01*
X94642349Y-139101633D01*
X94593598Y-139069059D01*
X94593595Y-139069057D01*
X94402420Y-138989870D01*
X94402412Y-138989868D01*
X94199469Y-138949500D01*
X94199465Y-138949500D01*
X94184500Y-138949500D01*
X94117461Y-138929815D01*
X94071706Y-138877011D01*
X94060500Y-138825500D01*
X94060500Y-138123425D01*
X94060499Y-138123423D01*
X94037359Y-138007090D01*
X94022820Y-137933998D01*
X94005956Y-137893284D01*
X93948911Y-137755564D01*
X93948904Y-137755551D01*
X93841604Y-137594967D01*
X93841601Y-137594963D01*
X93705035Y-137458397D01*
X93705031Y-137458394D01*
X93544447Y-137351094D01*
X93544434Y-137351087D01*
X93366005Y-137277180D01*
X93365993Y-137277177D01*
X93176574Y-137239499D01*
X93176571Y-137239499D01*
X92983429Y-137239499D01*
X92983426Y-137239499D01*
X92794006Y-137277177D01*
X92793994Y-137277180D01*
X92615565Y-137351087D01*
X92615552Y-137351094D01*
X92454968Y-137458394D01*
X92454964Y-137458397D01*
X92318398Y-137594963D01*
X92318395Y-137594967D01*
X92211095Y-137755551D01*
X92211088Y-137755564D01*
X92178561Y-137834094D01*
X92134720Y-137888498D01*
X92068426Y-137910563D01*
X92000727Y-137893284D01*
X91953116Y-137842147D01*
X91949439Y-137834094D01*
X91916911Y-137755564D01*
X91916904Y-137755551D01*
X91809604Y-137594967D01*
X91809601Y-137594963D01*
X91673035Y-137458397D01*
X91673031Y-137458394D01*
X91512447Y-137351094D01*
X91512434Y-137351087D01*
X91334005Y-137277180D01*
X91333993Y-137277177D01*
X91144574Y-137239499D01*
X91144571Y-137239499D01*
X90951429Y-137239499D01*
X90951426Y-137239499D01*
X90762006Y-137277177D01*
X90761994Y-137277180D01*
X90583565Y-137351087D01*
X90583552Y-137351094D01*
X90422968Y-137458394D01*
X90422964Y-137458397D01*
X90286398Y-137594963D01*
X90286395Y-137594967D01*
X90179095Y-137755551D01*
X90179088Y-137755564D01*
X90105181Y-137933993D01*
X90105177Y-137934007D01*
X90100957Y-137955220D01*
X90068570Y-138017130D01*
X90007853Y-138051702D01*
X89938083Y-138047959D01*
X89881413Y-138007090D01*
X89860679Y-137967016D01*
X89859780Y-137964054D01*
X89859778Y-137964042D01*
X89793631Y-137804347D01*
X89793629Y-137804344D01*
X89793629Y-137804343D01*
X89697599Y-137660625D01*
X89697596Y-137660621D01*
X89575377Y-137538402D01*
X89575373Y-137538399D01*
X89431655Y-137442369D01*
X89431652Y-137442368D01*
X89271958Y-137376221D01*
X89271949Y-137376218D01*
X89102429Y-137342499D01*
X89102426Y-137342499D01*
X88929574Y-137342499D01*
X88929571Y-137342499D01*
X88760050Y-137376218D01*
X88760041Y-137376221D01*
X88600347Y-137442368D01*
X88600344Y-137442369D01*
X88456626Y-137538399D01*
X88456622Y-137538402D01*
X88334403Y-137660621D01*
X88334400Y-137660625D01*
X88238370Y-137804343D01*
X88238369Y-137804346D01*
X88172222Y-137964040D01*
X88172219Y-137964049D01*
X88138500Y-138133568D01*
X88138500Y-138306429D01*
X88172219Y-138475948D01*
X88172222Y-138475957D01*
X88238369Y-138635651D01*
X88238370Y-138635654D01*
X88334400Y-138779372D01*
X88334403Y-138779376D01*
X88456622Y-138901595D01*
X88456626Y-138901598D01*
X88600344Y-138997628D01*
X88600346Y-138997628D01*
X88600348Y-138997630D01*
X88760043Y-139063777D01*
X88760045Y-139063777D01*
X88760050Y-139063779D01*
X88929569Y-139097498D01*
X88929572Y-139097499D01*
X88929574Y-139097499D01*
X89102427Y-139097499D01*
X89115681Y-139094862D01*
X89133971Y-139091224D01*
X89203563Y-139097450D01*
X89258741Y-139140313D01*
X89281986Y-139206202D01*
X89265919Y-139274199D01*
X89245847Y-139300521D01*
X89216023Y-139330345D01*
X89101062Y-139502395D01*
X89101057Y-139502405D01*
X89036933Y-139657213D01*
X88993091Y-139711617D01*
X88926797Y-139733681D01*
X88859098Y-139716401D01*
X88811488Y-139665264D01*
X88807825Y-139657245D01*
X88777631Y-139584348D01*
X88764267Y-139564348D01*
X88681599Y-139440626D01*
X88681596Y-139440622D01*
X88559377Y-139318403D01*
X88559373Y-139318400D01*
X88415655Y-139222370D01*
X88415652Y-139222369D01*
X88255958Y-139156222D01*
X88255949Y-139156219D01*
X88086429Y-139122500D01*
X88086426Y-139122500D01*
X87913574Y-139122500D01*
X87913571Y-139122500D01*
X87744045Y-139156220D01*
X87744041Y-139156222D01*
X87648056Y-139195979D01*
X87592839Y-139205174D01*
X87580477Y-139204398D01*
X87562195Y-139199500D01*
X87502416Y-139199500D01*
X87498543Y-139199257D01*
X87469203Y-139188604D01*
X87439270Y-139179815D01*
X87436642Y-139176782D01*
X87432868Y-139175412D01*
X87413944Y-139150588D01*
X87393515Y-139127011D01*
X87392943Y-139123038D01*
X87390510Y-139119846D01*
X87388011Y-139088737D01*
X87383571Y-139057853D01*
X87385238Y-139054202D01*
X87384917Y-139050201D01*
X87399633Y-139022681D01*
X87412596Y-138994297D01*
X87416791Y-138990595D01*
X87417865Y-138988588D01*
X87421129Y-138986768D01*
X87437418Y-138972398D01*
X87501147Y-138929815D01*
X87543375Y-138901599D01*
X87665600Y-138779374D01*
X87761632Y-138635652D01*
X87827779Y-138475957D01*
X87828181Y-138473939D01*
X87861500Y-138306430D01*
X87861501Y-138306428D01*
X87861501Y-138133571D01*
X87861500Y-138133569D01*
X87827781Y-137964050D01*
X87827778Y-137964042D01*
X87761632Y-137804348D01*
X87761630Y-137804346D01*
X87761630Y-137804344D01*
X87665600Y-137660626D01*
X87665597Y-137660622D01*
X87543378Y-137538403D01*
X87543374Y-137538400D01*
X87399656Y-137442370D01*
X87399653Y-137442369D01*
X87239959Y-137376222D01*
X87239950Y-137376219D01*
X87070430Y-137342500D01*
X87070427Y-137342500D01*
X86897575Y-137342500D01*
X86897572Y-137342500D01*
X86728051Y-137376219D01*
X86728042Y-137376222D01*
X86568348Y-137442369D01*
X86568345Y-137442370D01*
X86424627Y-137538400D01*
X86424623Y-137538403D01*
X86302404Y-137660622D01*
X86302401Y-137660626D01*
X86206371Y-137804344D01*
X86206370Y-137804347D01*
X86140223Y-137964041D01*
X86140220Y-137964050D01*
X86106501Y-138133569D01*
X86106501Y-138306430D01*
X86140220Y-138475949D01*
X86140223Y-138475958D01*
X86199078Y-138618048D01*
X86206547Y-138687517D01*
X86175271Y-138749996D01*
X86115182Y-138785648D01*
X86084517Y-138789500D01*
X85573628Y-138789500D01*
X85506589Y-138769815D01*
X85485947Y-138753181D01*
X82303819Y-135571053D01*
X82270334Y-135509730D01*
X82267500Y-135483372D01*
X82267500Y-133551427D01*
X82267500Y-133539692D01*
X82267501Y-133539689D01*
X82267501Y-133455300D01*
X82264461Y-133443954D01*
X82264050Y-133429415D01*
X82264324Y-133428373D01*
X82264000Y-133425910D01*
X82264000Y-131320127D01*
X82283685Y-131253088D01*
X82300319Y-131232446D01*
X82988197Y-130544568D01*
X83049520Y-130511083D01*
X83075878Y-130508249D01*
X83498632Y-130508249D01*
X83528072Y-130516893D01*
X83558059Y-130523417D01*
X83563074Y-130527171D01*
X83565671Y-130527934D01*
X83586313Y-130544568D01*
X83690681Y-130648936D01*
X83724166Y-130710259D01*
X83727000Y-130736617D01*
X83727000Y-131139017D01*
X83735096Y-131190131D01*
X83741854Y-131232804D01*
X83799450Y-131345842D01*
X83799452Y-131345844D01*
X83799454Y-131345847D01*
X83889152Y-131435545D01*
X83889154Y-131435546D01*
X83889158Y-131435550D01*
X83996053Y-131490016D01*
X84002198Y-131493147D01*
X84095975Y-131507999D01*
X84095981Y-131508000D01*
X84559018Y-131507999D01*
X84652804Y-131493146D01*
X84765842Y-131435550D01*
X84855550Y-131345842D01*
X84913146Y-131232804D01*
X84913146Y-131232802D01*
X84913147Y-131232801D01*
X84927999Y-131139024D01*
X84928000Y-131139019D01*
X84927999Y-130736615D01*
X84947683Y-130669577D01*
X84964313Y-130648940D01*
X85165321Y-130447932D01*
X85226642Y-130414449D01*
X85296334Y-130419433D01*
X85352267Y-130461305D01*
X85376684Y-130526769D01*
X85377000Y-130535615D01*
X85377000Y-131139017D01*
X85385096Y-131190131D01*
X85391854Y-131232804D01*
X85449450Y-131345842D01*
X85449452Y-131345844D01*
X85449454Y-131345847D01*
X85539152Y-131435545D01*
X85539154Y-131435546D01*
X85539158Y-131435550D01*
X85646053Y-131490016D01*
X85652198Y-131493147D01*
X85745975Y-131507999D01*
X85745981Y-131508000D01*
X86209018Y-131507999D01*
X86302804Y-131493146D01*
X86415842Y-131435550D01*
X86505550Y-131345842D01*
X86563146Y-131232804D01*
X86563146Y-131232802D01*
X86563147Y-131232801D01*
X86577999Y-131139024D01*
X86578000Y-131139019D01*
X86577999Y-130736617D01*
X86586646Y-130707166D01*
X86593168Y-130677190D01*
X86596919Y-130672178D01*
X86597683Y-130669579D01*
X86614319Y-130648936D01*
X86655437Y-130607819D01*
X86716760Y-130574334D01*
X86743117Y-130571501D01*
X86954670Y-130571501D01*
X87021709Y-130591186D01*
X87067464Y-130643990D01*
X87077408Y-130713148D01*
X87048383Y-130776704D01*
X87042351Y-130783182D01*
X87025936Y-130799596D01*
X86975932Y-130906829D01*
X86969501Y-130955684D01*
X86969501Y-131404320D01*
X86976783Y-131459639D01*
X86966017Y-131528674D01*
X86941525Y-131563503D01*
X86461848Y-132043182D01*
X86400525Y-132076667D01*
X86374167Y-132079501D01*
X84656437Y-132079501D01*
X84618223Y-132089740D01*
X84580008Y-132099980D01*
X84580003Y-132099983D01*
X84511494Y-132139536D01*
X84511486Y-132139542D01*
X84105695Y-132545332D01*
X84044372Y-132578817D01*
X83974680Y-132573833D01*
X83970563Y-132572213D01*
X83931957Y-132556222D01*
X83931953Y-132556221D01*
X83931949Y-132556219D01*
X83762429Y-132522500D01*
X83762426Y-132522500D01*
X83589574Y-132522500D01*
X83589571Y-132522500D01*
X83420050Y-132556219D01*
X83420041Y-132556222D01*
X83260347Y-132622369D01*
X83260344Y-132622370D01*
X83116626Y-132718400D01*
X83116622Y-132718403D01*
X82994403Y-132840622D01*
X82994400Y-132840626D01*
X82898370Y-132984344D01*
X82898369Y-132984347D01*
X82832222Y-133144041D01*
X82832219Y-133144050D01*
X82798500Y-133313569D01*
X82798500Y-133486430D01*
X82832219Y-133655949D01*
X82832222Y-133655958D01*
X82898369Y-133815652D01*
X82898370Y-133815655D01*
X82994400Y-133959373D01*
X82994403Y-133959377D01*
X83116622Y-134081596D01*
X83116626Y-134081599D01*
X83260344Y-134177629D01*
X83260346Y-134177629D01*
X83260348Y-134177631D01*
X83420043Y-134243778D01*
X83420045Y-134243778D01*
X83420050Y-134243780D01*
X83589569Y-134277499D01*
X83589572Y-134277500D01*
X83589574Y-134277500D01*
X83762428Y-134277500D01*
X83762429Y-134277499D01*
X83818936Y-134266259D01*
X83931949Y-134243780D01*
X83931952Y-134243778D01*
X83931957Y-134243778D01*
X84091652Y-134177631D01*
X84235374Y-134081599D01*
X84357599Y-133959374D01*
X84453631Y-133815652D01*
X84519778Y-133655957D01*
X84553500Y-133486426D01*
X84553500Y-133313574D01*
X84553500Y-133313571D01*
X84553499Y-133313569D01*
X84519779Y-133144050D01*
X84519778Y-133144043D01*
X84503786Y-133105437D01*
X84496317Y-133035969D01*
X84527591Y-132973489D01*
X84530606Y-132970363D01*
X84784152Y-132716817D01*
X84845474Y-132683335D01*
X84871832Y-132680501D01*
X86589560Y-132680501D01*
X86589562Y-132680501D01*
X86665989Y-132660022D01*
X86734511Y-132620461D01*
X86790460Y-132564512D01*
X87643459Y-131711511D01*
X87678730Y-131686814D01*
X87770405Y-131644066D01*
X87854066Y-131560405D01*
X87854066Y-131560404D01*
X87861737Y-131552734D01*
X87864567Y-131555564D01*
X87902949Y-131524856D01*
X87972444Y-131517631D01*
X88034813Y-131549125D01*
X88038090Y-131552906D01*
X88038263Y-131552734D01*
X88045934Y-131560405D01*
X88129595Y-131644066D01*
X88236826Y-131694069D01*
X88285682Y-131700501D01*
X88285683Y-131700501D01*
X88504166Y-131700501D01*
X88571205Y-131720186D01*
X88591847Y-131736820D01*
X89169539Y-132314512D01*
X89225488Y-132370461D01*
X89225490Y-132370462D01*
X89225494Y-132370465D01*
X89294003Y-132410018D01*
X89294010Y-132410022D01*
X89370437Y-132430501D01*
X89449561Y-132430501D01*
X93591324Y-132430501D01*
X93658363Y-132450186D01*
X93679005Y-132466820D01*
X93692686Y-132480501D01*
X93806814Y-132546393D01*
X93934108Y-132580501D01*
X93934110Y-132580501D01*
X94065890Y-132580501D01*
X94065892Y-132580501D01*
X94193186Y-132546393D01*
X94307314Y-132480501D01*
X94400500Y-132387315D01*
X94414112Y-132363737D01*
X94416323Y-132361629D01*
X94417184Y-132358699D01*
X94441434Y-132337685D01*
X94464678Y-132315523D01*
X94467679Y-132314944D01*
X94469988Y-132312944D01*
X94501756Y-132308376D01*
X94533285Y-132302299D01*
X94536122Y-132303434D01*
X94539146Y-132303000D01*
X94568348Y-132316336D01*
X94598150Y-132328267D01*
X94599922Y-132330755D01*
X94602702Y-132332025D01*
X94620059Y-132359034D01*
X94638679Y-132385181D01*
X94639322Y-132389008D01*
X94640476Y-132390803D01*
X94645499Y-132425738D01*
X94645499Y-132586056D01*
X94625814Y-132653095D01*
X94590390Y-132689158D01*
X94546626Y-132718400D01*
X94546622Y-132718403D01*
X94424403Y-132840622D01*
X94424400Y-132840626D01*
X94328370Y-132984344D01*
X94328369Y-132984347D01*
X94262222Y-133144041D01*
X94262219Y-133144050D01*
X94228500Y-133313569D01*
X94228500Y-133486430D01*
X94262219Y-133655949D01*
X94262222Y-133655958D01*
X94328369Y-133815652D01*
X94328370Y-133815655D01*
X94424400Y-133959373D01*
X94424403Y-133959377D01*
X94546622Y-134081596D01*
X94546626Y-134081599D01*
X94690344Y-134177629D01*
X94690346Y-134177629D01*
X94690348Y-134177631D01*
X94850043Y-134243778D01*
X94850045Y-134243778D01*
X94850050Y-134243780D01*
X95019569Y-134277499D01*
X95019572Y-134277500D01*
X95019574Y-134277500D01*
X95192428Y-134277500D01*
X95192429Y-134277499D01*
X95248936Y-134266259D01*
X95361949Y-134243780D01*
X95361952Y-134243778D01*
X95361957Y-134243778D01*
X95521652Y-134177631D01*
X95665374Y-134081599D01*
X95787599Y-133959374D01*
X95883631Y-133815652D01*
X95949778Y-133655957D01*
X95983500Y-133486426D01*
X95983500Y-133313574D01*
X95983500Y-133313571D01*
X95983499Y-133313569D01*
X95949780Y-133144050D01*
X95949777Y-133144041D01*
X95883631Y-132984348D01*
X95883629Y-132984346D01*
X95883629Y-132984344D01*
X95787599Y-132840626D01*
X95787596Y-132840622D01*
X95665377Y-132718403D01*
X95665371Y-132718398D01*
X95609607Y-132681137D01*
X95564803Y-132627525D01*
X95554499Y-132578036D01*
X95554499Y-131170166D01*
X95554499Y-131170164D01*
X95523526Y-131054569D01*
X95497070Y-131008746D01*
X95485409Y-130981438D01*
X95484066Y-130976828D01*
X95484066Y-130976827D01*
X95434063Y-130869596D01*
X95350402Y-130785935D01*
X95243171Y-130735932D01*
X95243169Y-130735931D01*
X95243170Y-130735931D01*
X95194315Y-130729500D01*
X95194314Y-130729500D01*
X94845682Y-130729500D01*
X94845681Y-130729500D01*
X94796826Y-130735931D01*
X94689593Y-130785935D01*
X94598262Y-130877267D01*
X94595436Y-130874441D01*
X94556985Y-130905170D01*
X94487486Y-130912356D01*
X94425135Y-130880827D01*
X94421904Y-130877098D01*
X94421736Y-130877267D01*
X94330404Y-130785935D01*
X94324500Y-130783182D01*
X94223173Y-130735932D01*
X94223171Y-130735931D01*
X94223172Y-130735931D01*
X94174317Y-130729500D01*
X94174316Y-130729500D01*
X93825684Y-130729500D01*
X93825683Y-130729500D01*
X93776828Y-130735931D01*
X93669595Y-130785935D01*
X93585935Y-130869595D01*
X93535931Y-130976828D01*
X93529500Y-131025683D01*
X93529500Y-131474316D01*
X93535931Y-131523171D01*
X93585934Y-131630402D01*
X93588717Y-131634376D01*
X93611045Y-131700581D01*
X93594036Y-131768349D01*
X93543089Y-131816163D01*
X93487143Y-131829501D01*
X89585832Y-131829501D01*
X89518793Y-131809816D01*
X89498151Y-131793182D01*
X88966818Y-131261849D01*
X88952114Y-131234921D01*
X88935522Y-131209103D01*
X88934630Y-131202902D01*
X88933333Y-131200526D01*
X88930499Y-131174168D01*
X88930499Y-130981965D01*
X88950184Y-130914926D01*
X89002988Y-130869171D01*
X89072146Y-130859227D01*
X89116499Y-130874578D01*
X89119835Y-130876504D01*
X89239664Y-130945687D01*
X89373317Y-130981499D01*
X89373319Y-130981499D01*
X89511681Y-130981499D01*
X89511683Y-130981499D01*
X89645336Y-130945687D01*
X89765165Y-130876504D01*
X89863005Y-130778664D01*
X89932188Y-130658835D01*
X89968000Y-130525182D01*
X89968000Y-130386816D01*
X89932188Y-130253163D01*
X89877668Y-130158732D01*
X89861196Y-130090834D01*
X89884048Y-130024807D01*
X89897367Y-130009061D01*
X89903701Y-130002728D01*
X89972884Y-129882899D01*
X90008696Y-129749246D01*
X90008696Y-129610880D01*
X89972884Y-129477227D01*
X89938292Y-129417312D01*
X89903703Y-129357401D01*
X89903699Y-129357396D01*
X89805862Y-129259559D01*
X89805857Y-129259555D01*
X89686034Y-129190376D01*
X89686033Y-129190375D01*
X89686032Y-129190375D01*
X89552379Y-129154563D01*
X89414013Y-129154563D01*
X89280360Y-129190375D01*
X89280357Y-129190376D01*
X89160534Y-129259555D01*
X89160529Y-129259559D01*
X89062692Y-129357396D01*
X89062688Y-129357401D01*
X88993509Y-129477224D01*
X88990400Y-129484732D01*
X88987696Y-129483612D01*
X88958634Y-129531270D01*
X88895781Y-129561786D01*
X88875243Y-129563499D01*
X86743116Y-129563499D01*
X86713675Y-129554854D01*
X86683689Y-129548331D01*
X86678673Y-129544576D01*
X86676077Y-129543814D01*
X86655435Y-129527180D01*
X86624318Y-129496063D01*
X86590833Y-129434740D01*
X86587999Y-129408382D01*
X86587999Y-129005982D01*
X86584924Y-128986564D01*
X86573146Y-128912196D01*
X86515550Y-128799158D01*
X86515546Y-128799154D01*
X86515545Y-128799152D01*
X86425847Y-128709454D01*
X86425843Y-128709451D01*
X86425842Y-128709450D01*
X86425840Y-128709449D01*
X86417950Y-128703717D01*
X86419255Y-128701919D01*
X86378060Y-128663013D01*
X86361264Y-128595193D01*
X86383800Y-128529057D01*
X86438514Y-128485605D01*
X86485150Y-128476501D01*
X87165500Y-128476501D01*
X87232539Y-128496186D01*
X87278294Y-128548990D01*
X87289500Y-128600501D01*
X87289500Y-128746816D01*
X87295931Y-128795671D01*
X87340684Y-128891643D01*
X87345935Y-128902904D01*
X87429596Y-128986565D01*
X87536827Y-129036568D01*
X87585683Y-129043000D01*
X87585684Y-129043000D01*
X87934317Y-129043000D01*
X87950601Y-129040856D01*
X87983173Y-129036568D01*
X88090404Y-128986565D01*
X88174065Y-128902904D01*
X88174065Y-128902903D01*
X88181736Y-128895233D01*
X88184564Y-128898061D01*
X88222977Y-128867343D01*
X88292474Y-128860135D01*
X88354835Y-128891643D01*
X88358093Y-128895403D01*
X88358264Y-128895233D01*
X88365935Y-128902904D01*
X88449596Y-128986565D01*
X88556827Y-129036568D01*
X88605683Y-129043000D01*
X88605684Y-129043000D01*
X88954317Y-129043000D01*
X88970601Y-129040856D01*
X89003173Y-129036568D01*
X89110404Y-128986565D01*
X89194065Y-128902904D01*
X89244068Y-128795673D01*
X89250500Y-128746816D01*
X89250500Y-128528333D01*
X89270185Y-128461294D01*
X89286819Y-128440652D01*
X89545652Y-128181819D01*
X89572579Y-128167115D01*
X89598398Y-128150523D01*
X89604598Y-128149631D01*
X89606975Y-128148334D01*
X89633333Y-128145500D01*
X89634167Y-128145500D01*
X89701206Y-128165185D01*
X89721848Y-128181819D01*
X89737235Y-128197206D01*
X89840009Y-128242585D01*
X89865135Y-128245500D01*
X91096882Y-128245499D01*
X91163921Y-128265184D01*
X91209676Y-128317987D01*
X91219620Y-128387146D01*
X91190595Y-128450702D01*
X91184563Y-128457180D01*
X90605710Y-129036034D01*
X90546038Y-129095705D01*
X90546036Y-129095708D01*
X90503841Y-129168790D01*
X90482000Y-129250303D01*
X90482000Y-130128133D01*
X90497868Y-130187355D01*
X90496204Y-130257205D01*
X90485483Y-130281441D01*
X90472154Y-130304529D01*
X90472152Y-130304533D01*
X90436340Y-130438186D01*
X90436340Y-130576552D01*
X90461267Y-130669579D01*
X90472152Y-130710204D01*
X90472153Y-130710207D01*
X90541332Y-130830030D01*
X90541334Y-130830033D01*
X90541335Y-130830034D01*
X90639175Y-130927874D01*
X90639176Y-130927875D01*
X90639178Y-130927876D01*
X90687345Y-130955685D01*
X90759004Y-130997057D01*
X90892657Y-131032869D01*
X90892659Y-131032869D01*
X91031021Y-131032869D01*
X91031023Y-131032869D01*
X91164676Y-130997057D01*
X91284505Y-130927874D01*
X91382345Y-130830034D01*
X91451528Y-130710205D01*
X91487340Y-130576552D01*
X91487340Y-130457955D01*
X91507025Y-130390916D01*
X91559829Y-130345161D01*
X91574140Y-130340016D01*
X91577330Y-130338693D01*
X91577336Y-130338692D01*
X91697165Y-130269509D01*
X91795005Y-130171669D01*
X91864188Y-130051840D01*
X91900000Y-129918187D01*
X91900000Y-129779821D01*
X91864188Y-129646168D01*
X91795005Y-129526339D01*
X91761141Y-129492475D01*
X91727656Y-129431152D01*
X91732640Y-129361460D01*
X91761139Y-129317115D01*
X93645437Y-127432819D01*
X93706760Y-127399334D01*
X93733118Y-127396500D01*
X94360630Y-127396500D01*
X94383569Y-127403235D01*
X94407357Y-127405641D01*
X94419735Y-127413855D01*
X94427669Y-127416185D01*
X94437823Y-127423458D01*
X94443337Y-127427844D01*
X94481957Y-127466464D01*
X94510191Y-127482765D01*
X94555041Y-127508660D01*
X94636555Y-127530501D01*
X94636558Y-127530501D01*
X94728540Y-127530501D01*
X94728556Y-127530500D01*
X94764963Y-127530500D01*
X94832002Y-127550185D01*
X94877757Y-127602989D01*
X94888137Y-127668793D01*
X94887415Y-127675006D01*
X94887415Y-127675009D01*
X94886109Y-127686268D01*
X94884500Y-127700136D01*
X94884500Y-127989856D01*
X94884502Y-127989882D01*
X94887413Y-128014987D01*
X94887415Y-128014991D01*
X94932793Y-128117764D01*
X94932794Y-128117765D01*
X95012235Y-128197206D01*
X95115009Y-128242585D01*
X95140135Y-128245500D01*
X96654864Y-128245499D01*
X96654879Y-128245497D01*
X96654882Y-128245497D01*
X96679987Y-128242586D01*
X96679988Y-128242585D01*
X96679991Y-128242585D01*
X96782765Y-128197206D01*
X96862206Y-128117765D01*
X96907585Y-128014991D01*
X96910500Y-127989865D01*
X96910499Y-127700136D01*
X96910497Y-127700117D01*
X96907586Y-127675012D01*
X96907585Y-127675010D01*
X96907585Y-127675009D01*
X96864569Y-127577586D01*
X96860228Y-127544442D01*
X96855053Y-127511398D01*
X96855631Y-127509333D01*
X96855497Y-127508308D01*
X96864570Y-127477411D01*
X96867661Y-127470411D01*
X96912748Y-127417036D01*
X96979535Y-127396510D01*
X96981094Y-127396500D01*
X98711882Y-127396500D01*
X98778921Y-127416185D01*
X98799563Y-127432819D01*
X99259681Y-127892937D01*
X99293166Y-127954260D01*
X99296000Y-127980618D01*
X99296000Y-136961195D01*
X99317841Y-137042709D01*
X99360036Y-137115792D01*
X99360038Y-137115794D01*
X99426773Y-137182529D01*
X99426779Y-137182534D01*
X99943534Y-137699289D01*
X99943536Y-137699292D01*
X100003208Y-137758964D01*
X100029412Y-137774093D01*
X100076292Y-137801160D01*
X100157806Y-137823001D01*
X100157809Y-137823001D01*
X100249791Y-137823001D01*
X100249807Y-137823000D01*
X102996867Y-137823000D01*
X103063906Y-137842685D01*
X103084548Y-137859319D01*
X104937179Y-139711950D01*
X104937189Y-139711961D01*
X104941519Y-139716291D01*
X104941520Y-139716292D01*
X105001192Y-139775964D01*
X105074275Y-139818159D01*
X105081847Y-139820187D01*
X105086975Y-139821562D01*
X105086977Y-139821562D01*
X105096117Y-139824011D01*
X105155790Y-139840001D01*
X105240179Y-139840001D01*
X105240183Y-139840000D01*
X106646500Y-139840000D01*
X106713539Y-139859685D01*
X106759294Y-139912489D01*
X106770500Y-139964000D01*
X106770500Y-140066431D01*
X106804219Y-140235950D01*
X106804222Y-140235959D01*
X106870369Y-140395653D01*
X106870370Y-140395656D01*
X106966400Y-140539374D01*
X106966403Y-140539378D01*
X107088622Y-140661597D01*
X107088626Y-140661600D01*
X107232344Y-140757630D01*
X107232346Y-140757630D01*
X107232348Y-140757632D01*
X107392043Y-140823779D01*
X107392045Y-140823779D01*
X107392050Y-140823781D01*
X107561569Y-140857500D01*
X107561572Y-140857501D01*
X107561574Y-140857501D01*
X107734428Y-140857501D01*
X107734429Y-140857500D01*
X107803421Y-140843777D01*
X107903949Y-140823781D01*
X107903952Y-140823779D01*
X107903957Y-140823779D01*
X108063652Y-140757632D01*
X108207374Y-140661600D01*
X108329599Y-140539375D01*
X108425631Y-140395653D01*
X108491778Y-140235958D01*
X108525500Y-140066427D01*
X108525500Y-139893575D01*
X108525500Y-139893572D01*
X108525499Y-139893570D01*
X108802500Y-139893570D01*
X108802500Y-140066431D01*
X108836219Y-140235950D01*
X108836222Y-140235959D01*
X108902369Y-140395653D01*
X108902370Y-140395656D01*
X108998400Y-140539374D01*
X108998403Y-140539378D01*
X109120622Y-140661597D01*
X109120626Y-140661600D01*
X109264344Y-140757630D01*
X109264346Y-140757630D01*
X109264348Y-140757632D01*
X109424043Y-140823779D01*
X109424045Y-140823779D01*
X109424050Y-140823781D01*
X109593569Y-140857500D01*
X109593572Y-140857501D01*
X109593574Y-140857501D01*
X109766428Y-140857501D01*
X109766429Y-140857500D01*
X109835421Y-140843777D01*
X109935949Y-140823781D01*
X109935952Y-140823779D01*
X109935957Y-140823779D01*
X110095652Y-140757632D01*
X110239374Y-140661600D01*
X110361599Y-140539375D01*
X110457631Y-140395653D01*
X110523778Y-140235958D01*
X110557500Y-140066427D01*
X110557500Y-139893575D01*
X110557500Y-139893572D01*
X110557499Y-139893570D01*
X110523780Y-139724051D01*
X110523777Y-139724042D01*
X110518980Y-139712461D01*
X110457631Y-139564349D01*
X110457629Y-139564347D01*
X110457629Y-139564345D01*
X110361599Y-139420627D01*
X110361596Y-139420623D01*
X110239377Y-139298404D01*
X110239373Y-139298401D01*
X110095655Y-139202371D01*
X110095652Y-139202370D01*
X109935958Y-139136223D01*
X109935949Y-139136220D01*
X109766429Y-139102501D01*
X109766426Y-139102501D01*
X109593574Y-139102501D01*
X109593571Y-139102501D01*
X109424050Y-139136220D01*
X109424041Y-139136223D01*
X109264347Y-139202370D01*
X109264344Y-139202371D01*
X109120626Y-139298401D01*
X109120622Y-139298404D01*
X108998403Y-139420623D01*
X108998400Y-139420627D01*
X108902370Y-139564345D01*
X108902369Y-139564348D01*
X108836222Y-139724042D01*
X108836219Y-139724051D01*
X108802500Y-139893570D01*
X108525499Y-139893570D01*
X108491780Y-139724051D01*
X108491777Y-139724042D01*
X108486980Y-139712461D01*
X108425631Y-139564349D01*
X108425629Y-139564347D01*
X108425629Y-139564345D01*
X108329599Y-139420627D01*
X108329596Y-139420623D01*
X108207377Y-139298404D01*
X108207373Y-139298401D01*
X108063655Y-139202371D01*
X108063652Y-139202370D01*
X107903958Y-139136223D01*
X107903949Y-139136220D01*
X107734429Y-139102501D01*
X107734426Y-139102501D01*
X107561574Y-139102501D01*
X107561571Y-139102501D01*
X107392050Y-139136220D01*
X107392041Y-139136223D01*
X107263271Y-139189561D01*
X107255094Y-139191187D01*
X107250754Y-139193977D01*
X107215819Y-139199000D01*
X107125126Y-139199000D01*
X107058087Y-139179315D01*
X107012332Y-139126511D01*
X107002388Y-139057353D01*
X107031413Y-138993797D01*
X107056235Y-138971898D01*
X107161444Y-138901599D01*
X107191375Y-138881600D01*
X107313600Y-138759375D01*
X107409632Y-138615653D01*
X107475779Y-138455958D01*
X107509501Y-138286427D01*
X107509501Y-138113575D01*
X107509500Y-138113569D01*
X107786500Y-138113569D01*
X107786500Y-138286430D01*
X107820219Y-138455949D01*
X107820222Y-138455958D01*
X107886369Y-138615652D01*
X107886370Y-138615655D01*
X107982400Y-138759373D01*
X107982403Y-138759377D01*
X108104622Y-138881596D01*
X108104626Y-138881599D01*
X108248344Y-138977629D01*
X108248346Y-138977629D01*
X108248348Y-138977631D01*
X108408043Y-139043778D01*
X108408045Y-139043778D01*
X108408050Y-139043780D01*
X108577569Y-139077499D01*
X108577572Y-139077500D01*
X108577574Y-139077500D01*
X108750428Y-139077500D01*
X108750429Y-139077499D01*
X108849198Y-139057853D01*
X108919949Y-139043780D01*
X108919952Y-139043778D01*
X108919957Y-139043778D01*
X109079652Y-138977631D01*
X109223374Y-138881599D01*
X109345599Y-138759374D01*
X109441631Y-138615652D01*
X109507778Y-138455957D01*
X109507778Y-138455952D01*
X109507780Y-138455949D01*
X109541499Y-138286430D01*
X109541500Y-138286428D01*
X109541500Y-138113571D01*
X109541499Y-138113569D01*
X109818500Y-138113569D01*
X109818500Y-138286430D01*
X109852219Y-138455949D01*
X109852222Y-138455958D01*
X109918369Y-138615652D01*
X109918370Y-138615655D01*
X110014400Y-138759373D01*
X110014403Y-138759377D01*
X110136622Y-138881596D01*
X110136626Y-138881599D01*
X110280344Y-138977629D01*
X110280346Y-138977629D01*
X110280348Y-138977631D01*
X110440043Y-139043778D01*
X110440045Y-139043778D01*
X110440050Y-139043780D01*
X110609569Y-139077499D01*
X110609572Y-139077500D01*
X110609574Y-139077500D01*
X110782428Y-139077500D01*
X110782429Y-139077499D01*
X110881198Y-139057853D01*
X110951949Y-139043780D01*
X110951952Y-139043778D01*
X110951957Y-139043778D01*
X111111652Y-138977631D01*
X111255374Y-138881599D01*
X111377599Y-138759374D01*
X111473631Y-138615652D01*
X111539778Y-138455957D01*
X111539778Y-138455952D01*
X111539780Y-138455949D01*
X111573499Y-138286430D01*
X111573500Y-138286428D01*
X111573500Y-138113571D01*
X111573499Y-138113569D01*
X111850500Y-138113569D01*
X111850500Y-138286430D01*
X111884219Y-138455949D01*
X111884222Y-138455958D01*
X111950369Y-138615652D01*
X111950370Y-138615655D01*
X112046400Y-138759373D01*
X112046403Y-138759377D01*
X112168622Y-138881596D01*
X112168626Y-138881599D01*
X112312344Y-138977629D01*
X112312346Y-138977629D01*
X112312348Y-138977631D01*
X112472043Y-139043778D01*
X112472045Y-139043778D01*
X112472050Y-139043780D01*
X112641569Y-139077499D01*
X112641572Y-139077500D01*
X112743470Y-139077500D01*
X112810509Y-139097185D01*
X112856264Y-139149989D01*
X112866490Y-139211351D01*
X112866500Y-139211351D01*
X112866500Y-139211412D01*
X112866873Y-139213651D01*
X112866500Y-139217439D01*
X112866500Y-140742559D01*
X112873898Y-140779750D01*
X112902077Y-140821923D01*
X112944250Y-140850102D01*
X112944252Y-140850103D01*
X112972205Y-140855663D01*
X112981441Y-140857501D01*
X112981442Y-140857501D01*
X114506559Y-140857501D01*
X114513957Y-140856029D01*
X114543748Y-140850103D01*
X114585922Y-140821923D01*
X114614102Y-140779749D01*
X114621500Y-140742559D01*
X114621500Y-139217443D01*
X114614102Y-139180253D01*
X114614101Y-139180251D01*
X114585922Y-139138078D01*
X114543749Y-139109899D01*
X114506559Y-139102501D01*
X114506558Y-139102501D01*
X113364761Y-139102501D01*
X113297722Y-139082816D01*
X113251967Y-139030012D01*
X113242023Y-138960854D01*
X113271048Y-138897298D01*
X113286100Y-138882645D01*
X113287371Y-138881600D01*
X113287374Y-138881599D01*
X113409599Y-138759374D01*
X113505631Y-138615652D01*
X113571778Y-138455957D01*
X113571778Y-138455952D01*
X113571780Y-138455949D01*
X113605499Y-138286430D01*
X113605500Y-138286428D01*
X113605500Y-138113571D01*
X113605499Y-138113569D01*
X113571780Y-137944050D01*
X113571777Y-137944042D01*
X113505631Y-137784348D01*
X113505629Y-137784345D01*
X113505629Y-137784344D01*
X113409599Y-137640626D01*
X113409596Y-137640622D01*
X113287377Y-137518403D01*
X113287373Y-137518400D01*
X113143655Y-137422370D01*
X113143652Y-137422369D01*
X112983958Y-137356222D01*
X112983949Y-137356219D01*
X112814429Y-137322500D01*
X112814426Y-137322500D01*
X112641574Y-137322500D01*
X112641571Y-137322500D01*
X112472050Y-137356219D01*
X112472041Y-137356222D01*
X112312347Y-137422369D01*
X112312344Y-137422370D01*
X112168626Y-137518400D01*
X112168622Y-137518403D01*
X112046403Y-137640622D01*
X112046400Y-137640626D01*
X111950370Y-137784344D01*
X111950369Y-137784347D01*
X111884222Y-137944041D01*
X111884219Y-137944050D01*
X111850500Y-138113569D01*
X111573499Y-138113569D01*
X111539780Y-137944050D01*
X111539777Y-137944042D01*
X111473631Y-137784348D01*
X111473629Y-137784345D01*
X111473629Y-137784344D01*
X111377599Y-137640626D01*
X111377596Y-137640622D01*
X111255377Y-137518403D01*
X111255373Y-137518400D01*
X111111655Y-137422370D01*
X111111652Y-137422369D01*
X110951958Y-137356222D01*
X110951949Y-137356219D01*
X110782429Y-137322500D01*
X110782426Y-137322500D01*
X110609574Y-137322500D01*
X110609571Y-137322500D01*
X110440050Y-137356219D01*
X110440041Y-137356222D01*
X110280347Y-137422369D01*
X110280344Y-137422370D01*
X110136626Y-137518400D01*
X110136622Y-137518403D01*
X110014403Y-137640622D01*
X110014400Y-137640626D01*
X109918370Y-137784344D01*
X109918369Y-137784347D01*
X109852222Y-137944041D01*
X109852219Y-137944050D01*
X109818500Y-138113569D01*
X109541499Y-138113569D01*
X109507780Y-137944050D01*
X109507777Y-137944042D01*
X109441631Y-137784348D01*
X109441629Y-137784345D01*
X109441629Y-137784344D01*
X109345599Y-137640626D01*
X109345596Y-137640622D01*
X109223377Y-137518403D01*
X109223373Y-137518400D01*
X109079655Y-137422370D01*
X109079652Y-137422369D01*
X108919958Y-137356222D01*
X108919949Y-137356219D01*
X108750429Y-137322500D01*
X108750426Y-137322500D01*
X108577574Y-137322500D01*
X108577571Y-137322500D01*
X108408050Y-137356219D01*
X108408041Y-137356222D01*
X108248347Y-137422369D01*
X108248344Y-137422370D01*
X108104626Y-137518400D01*
X108104622Y-137518403D01*
X107982403Y-137640622D01*
X107982400Y-137640626D01*
X107886370Y-137784344D01*
X107886369Y-137784347D01*
X107820222Y-137944041D01*
X107820219Y-137944050D01*
X107786500Y-138113569D01*
X107509500Y-138113569D01*
X107488320Y-138007090D01*
X107475781Y-137944051D01*
X107475778Y-137944043D01*
X107409632Y-137784349D01*
X107409630Y-137784347D01*
X107409630Y-137784345D01*
X107313600Y-137640627D01*
X107313597Y-137640623D01*
X107191378Y-137518404D01*
X107191374Y-137518401D01*
X107047656Y-137422371D01*
X107047653Y-137422370D01*
X106887959Y-137356223D01*
X106887950Y-137356220D01*
X106718430Y-137322501D01*
X106718427Y-137322501D01*
X106545575Y-137322501D01*
X106545572Y-137322501D01*
X106376051Y-137356220D01*
X106376042Y-137356223D01*
X106216348Y-137422370D01*
X106216345Y-137422371D01*
X106072627Y-137518401D01*
X106072623Y-137518404D01*
X105950404Y-137640623D01*
X105950401Y-137640627D01*
X105854371Y-137784345D01*
X105854370Y-137784348D01*
X105788223Y-137944042D01*
X105788220Y-137944051D01*
X105754501Y-138113570D01*
X105754501Y-138286431D01*
X105788220Y-138455950D01*
X105788223Y-138455959D01*
X105854370Y-138615653D01*
X105854371Y-138615656D01*
X105869374Y-138638109D01*
X105872411Y-138647809D01*
X105879066Y-138655489D01*
X105882674Y-138680588D01*
X105890252Y-138704787D01*
X105887563Y-138714586D01*
X105889010Y-138724647D01*
X105878475Y-138747715D01*
X105871767Y-138772167D01*
X105864207Y-138778957D01*
X105859985Y-138788203D01*
X105838653Y-138801912D01*
X105819789Y-138818857D01*
X105808191Y-138821488D01*
X105801207Y-138825977D01*
X105766272Y-138831000D01*
X105534531Y-138831000D01*
X105467492Y-138811315D01*
X105446850Y-138794681D01*
X103596948Y-136944779D01*
X103596946Y-136944776D01*
X103530208Y-136878038D01*
X103530206Y-136878036D01*
X103457123Y-136835841D01*
X103375610Y-136814000D01*
X103375609Y-136814000D01*
X100536547Y-136814000D01*
X100469508Y-136794315D01*
X100448866Y-136777681D01*
X100341319Y-136670134D01*
X100307834Y-136608811D01*
X100305000Y-136582453D01*
X100305000Y-127696267D01*
X100305001Y-127696254D01*
X100305001Y-127601877D01*
X100304364Y-127599501D01*
X100283159Y-127520362D01*
X100283159Y-127520361D01*
X100240964Y-127447278D01*
X100181292Y-127387606D01*
X100181291Y-127387605D01*
X100176961Y-127383275D01*
X100176950Y-127383265D01*
X99311963Y-126518279D01*
X99311961Y-126518276D01*
X99245223Y-126451538D01*
X99245221Y-126451536D01*
X99172138Y-126409341D01*
X99155978Y-126405011D01*
X99090625Y-126387500D01*
X99090624Y-126387500D01*
X96980652Y-126387500D01*
X96962814Y-126382262D01*
X96944226Y-126382029D01*
X96929986Y-126372622D01*
X96913613Y-126367815D01*
X96901439Y-126353765D01*
X96885927Y-126343519D01*
X96868753Y-126316044D01*
X96867858Y-126315011D01*
X96867220Y-126313591D01*
X96864569Y-126307588D01*
X96855495Y-126238312D01*
X96855496Y-126238309D01*
X96864564Y-126207424D01*
X96907585Y-126109991D01*
X96910500Y-126084865D01*
X96910499Y-125795136D01*
X96910497Y-125795117D01*
X96907586Y-125770012D01*
X96907585Y-125770011D01*
X96907585Y-125770009D01*
X96864567Y-125672583D01*
X96855496Y-125603309D01*
X96864565Y-125572420D01*
X96907585Y-125474991D01*
X96910500Y-125449865D01*
X96910499Y-125160136D01*
X96909246Y-125149328D01*
X96907586Y-125135012D01*
X96907585Y-125135010D01*
X96907585Y-125135009D01*
X96862206Y-125032235D01*
X96782765Y-124952794D01*
X96679992Y-124907415D01*
X96654865Y-124904500D01*
X95140143Y-124904500D01*
X95140117Y-124904502D01*
X95115012Y-124907413D01*
X95115008Y-124907414D01*
X95032301Y-124943934D01*
X94982215Y-124954500D01*
X94632305Y-124954500D01*
X94565266Y-124934815D01*
X94544624Y-124918181D01*
X94009319Y-124382876D01*
X93975834Y-124321553D01*
X93973000Y-124295195D01*
X93973000Y-123054044D01*
X93981644Y-123024603D01*
X93988168Y-122994617D01*
X93991922Y-122989601D01*
X93992685Y-122987005D01*
X94009319Y-122966363D01*
X94078864Y-122896818D01*
X94140187Y-122863333D01*
X94166545Y-122860499D01*
X94309895Y-122860499D01*
X94309900Y-122860499D01*
X94359487Y-122853972D01*
X94468316Y-122803224D01*
X94504721Y-122766819D01*
X94531648Y-122752115D01*
X94557467Y-122735523D01*
X94563667Y-122734631D01*
X94566044Y-122733334D01*
X94592402Y-122730500D01*
X94731677Y-122730500D01*
X94786770Y-122746677D01*
X94788085Y-122744097D01*
X94796778Y-122748526D01*
X94796780Y-122748528D01*
X94916874Y-122809719D01*
X94968938Y-122817965D01*
X95032071Y-122847893D01*
X95069003Y-122907204D01*
X95068006Y-122977067D01*
X95029396Y-123035300D01*
X95019619Y-123042736D01*
X95012233Y-123047795D01*
X94932794Y-123127234D01*
X94887415Y-123230006D01*
X94887415Y-123230008D01*
X94884500Y-123255131D01*
X94884500Y-123544856D01*
X94884502Y-123544882D01*
X94887413Y-123569987D01*
X94887414Y-123569991D01*
X94925454Y-123656141D01*
X94927869Y-123661612D01*
X94930431Y-123667413D01*
X94939503Y-123736691D01*
X94930431Y-123767585D01*
X94887416Y-123865003D01*
X94887415Y-123865008D01*
X94884500Y-123890131D01*
X94884500Y-124179856D01*
X94884502Y-124179882D01*
X94887413Y-124204987D01*
X94887415Y-124204991D01*
X94932793Y-124307764D01*
X94932794Y-124307765D01*
X95012235Y-124387206D01*
X95115009Y-124432585D01*
X95140135Y-124435500D01*
X96654864Y-124435499D01*
X96654879Y-124435497D01*
X96654882Y-124435497D01*
X96679987Y-124432586D01*
X96679988Y-124432585D01*
X96679991Y-124432585D01*
X96782765Y-124387206D01*
X96862206Y-124307765D01*
X96905459Y-124209805D01*
X96909223Y-124204310D01*
X96910059Y-124200468D01*
X96931203Y-124172222D01*
X97076608Y-124026818D01*
X97137931Y-123993335D01*
X97164288Y-123990501D01*
X99215500Y-123990501D01*
X99282539Y-124010186D01*
X99328294Y-124062990D01*
X99339500Y-124114501D01*
X99339500Y-125409753D01*
X99351131Y-125468230D01*
X99351132Y-125468231D01*
X99395447Y-125534553D01*
X99461769Y-125578868D01*
X99461770Y-125578869D01*
X99520247Y-125590500D01*
X99520250Y-125590501D01*
X99520252Y-125590501D01*
X100759750Y-125590501D01*
X100759751Y-125590500D01*
X100785041Y-125585470D01*
X100818229Y-125578869D01*
X100818229Y-125578868D01*
X100818231Y-125578868D01*
X100884552Y-125534553D01*
X100928867Y-125468232D01*
X100928867Y-125468230D01*
X100928868Y-125468230D01*
X100940499Y-125409753D01*
X100940500Y-125409751D01*
X100940500Y-124636783D01*
X100960185Y-124569744D01*
X101012989Y-124523989D01*
X101082147Y-124514045D01*
X101145703Y-124543070D01*
X101174985Y-124580489D01*
X101181471Y-124593219D01*
X101181476Y-124593226D01*
X101276774Y-124688524D01*
X101276778Y-124688527D01*
X101276780Y-124688529D01*
X101396874Y-124749720D01*
X101396876Y-124749720D01*
X101396878Y-124749721D01*
X101496507Y-124765501D01*
X101496512Y-124765501D01*
X102063493Y-124765501D01*
X102163123Y-124749721D01*
X102163124Y-124749720D01*
X102163126Y-124749720D01*
X102240716Y-124710186D01*
X102252826Y-124704016D01*
X102265828Y-124700894D01*
X102274185Y-124695524D01*
X102309120Y-124690501D01*
X102487598Y-124690501D01*
X102554637Y-124710186D01*
X102575279Y-124726820D01*
X102576776Y-124728317D01*
X102661684Y-124813225D01*
X102687905Y-124825452D01*
X102740343Y-124871621D01*
X102759500Y-124937833D01*
X102759500Y-127269563D01*
X102779979Y-127345990D01*
X102809141Y-127396500D01*
X102814418Y-127405641D01*
X102819539Y-127414510D01*
X102819541Y-127414513D01*
X103132848Y-127727820D01*
X103166333Y-127789143D01*
X103161349Y-127858835D01*
X103119477Y-127914768D01*
X103054013Y-127939185D01*
X103045167Y-127939501D01*
X101695331Y-127939501D01*
X101628292Y-127919816D01*
X101607650Y-127903182D01*
X101530404Y-127825936D01*
X101481012Y-127802904D01*
X101423173Y-127775933D01*
X101423171Y-127775932D01*
X101423172Y-127775932D01*
X101374317Y-127769501D01*
X101374316Y-127769501D01*
X100925684Y-127769501D01*
X100925683Y-127769501D01*
X100876828Y-127775932D01*
X100769595Y-127825936D01*
X100685935Y-127909596D01*
X100635931Y-128016829D01*
X100629500Y-128065684D01*
X100629500Y-128414317D01*
X100635931Y-128463172D01*
X100685935Y-128570405D01*
X100777267Y-128661737D01*
X100774443Y-128664560D01*
X100805183Y-128703043D01*
X100812352Y-128772543D01*
X100780808Y-128834887D01*
X100777101Y-128838099D01*
X100777267Y-128838265D01*
X100685935Y-128929596D01*
X100635931Y-129036829D01*
X100629500Y-129085684D01*
X100629500Y-129434317D01*
X100635931Y-129483172D01*
X100685935Y-129590405D01*
X100737850Y-129642320D01*
X100771335Y-129703643D01*
X100766351Y-129773335D01*
X100737851Y-129817682D01*
X100675934Y-129879599D01*
X100625931Y-129986830D01*
X100619500Y-130035685D01*
X100619500Y-130384318D01*
X100625931Y-130433173D01*
X100675935Y-130540406D01*
X100767267Y-130631738D01*
X100764441Y-130634563D01*
X100795170Y-130673015D01*
X100802356Y-130742514D01*
X100770827Y-130804865D01*
X100767098Y-130808095D01*
X100767267Y-130808264D01*
X100675935Y-130899595D01*
X100625931Y-131006828D01*
X100619500Y-131055683D01*
X100619500Y-131404316D01*
X100625931Y-131453171D01*
X100625932Y-131453173D01*
X100675935Y-131560404D01*
X100675936Y-131560405D01*
X100675935Y-131560405D01*
X100682996Y-131567466D01*
X100716479Y-131628790D01*
X100711492Y-131698482D01*
X100702699Y-131717144D01*
X100633609Y-131836811D01*
X100633609Y-131836812D01*
X100599500Y-131964109D01*
X100599500Y-132095892D01*
X100633608Y-132223188D01*
X100635225Y-132225988D01*
X100699500Y-132337315D01*
X100792686Y-132430501D01*
X100906814Y-132496393D01*
X101034108Y-132530501D01*
X101034110Y-132530501D01*
X101165890Y-132530501D01*
X101165892Y-132530501D01*
X101293186Y-132496393D01*
X101407314Y-132430501D01*
X101500500Y-132337315D01*
X101549948Y-132251669D01*
X101600515Y-132203453D01*
X101669122Y-132190231D01*
X101733987Y-132216199D01*
X101745016Y-132225988D01*
X102469332Y-132950304D01*
X102502817Y-133011627D01*
X102497833Y-133081319D01*
X102496214Y-133085434D01*
X102480221Y-133124047D01*
X102480219Y-133124051D01*
X102446500Y-133293570D01*
X102446500Y-133466431D01*
X102480219Y-133635950D01*
X102480222Y-133635959D01*
X102546369Y-133795653D01*
X102546370Y-133795656D01*
X102642400Y-133939374D01*
X102642403Y-133939378D01*
X102764622Y-134061597D01*
X102764626Y-134061600D01*
X102908344Y-134157630D01*
X102908346Y-134157630D01*
X102908348Y-134157632D01*
X103068043Y-134223779D01*
X103068045Y-134223779D01*
X103068050Y-134223781D01*
X103237569Y-134257500D01*
X103237572Y-134257501D01*
X103237574Y-134257501D01*
X103410428Y-134257501D01*
X103410429Y-134257500D01*
X103479421Y-134243777D01*
X103579949Y-134223781D01*
X103579952Y-134223779D01*
X103579957Y-134223779D01*
X103739652Y-134157632D01*
X103883374Y-134061600D01*
X104005599Y-133939375D01*
X104101631Y-133795653D01*
X104167778Y-133635958D01*
X104201500Y-133466427D01*
X104201500Y-133293575D01*
X104201500Y-133293572D01*
X104201499Y-133293570D01*
X104167780Y-133124051D01*
X104167777Y-133124042D01*
X104141174Y-133059816D01*
X104101631Y-132964349D01*
X104101629Y-132964347D01*
X104101629Y-132964345D01*
X104005599Y-132820627D01*
X104005596Y-132820623D01*
X103883377Y-132698404D01*
X103883373Y-132698401D01*
X103739655Y-132602371D01*
X103739652Y-132602370D01*
X103579958Y-132536223D01*
X103579949Y-132536220D01*
X103410429Y-132502501D01*
X103410426Y-132502501D01*
X103237574Y-132502501D01*
X103237571Y-132502501D01*
X103068050Y-132536220D01*
X103068046Y-132536222D01*
X103068044Y-132536222D01*
X103068043Y-132536223D01*
X103054943Y-132541648D01*
X103029433Y-132552215D01*
X102959963Y-132559681D01*
X102897485Y-132528404D01*
X102894303Y-132525333D01*
X102116819Y-131747849D01*
X102083334Y-131686526D01*
X102080500Y-131660168D01*
X102080500Y-130670440D01*
X102080500Y-130670439D01*
X102060021Y-130594012D01*
X102054187Y-130583908D01*
X102037715Y-130516009D01*
X102060567Y-130449982D01*
X102115489Y-130406792D01*
X102185042Y-130400150D01*
X102247145Y-130432166D01*
X102249256Y-130434228D01*
X102799540Y-130984512D01*
X102855489Y-131040461D01*
X102855491Y-131040462D01*
X102855495Y-131040465D01*
X102881854Y-131055683D01*
X102924011Y-131080022D01*
X103000438Y-131100501D01*
X103079562Y-131100501D01*
X107574167Y-131100501D01*
X107641206Y-131120186D01*
X107661848Y-131136820D01*
X110089540Y-133564512D01*
X110145489Y-133620461D01*
X110145491Y-133620462D01*
X110145495Y-133620465D01*
X110172332Y-133635959D01*
X110214011Y-133660022D01*
X110290438Y-133680501D01*
X110369562Y-133680501D01*
X113845818Y-133680501D01*
X113912857Y-133700186D01*
X113958612Y-133752990D01*
X113960357Y-133756996D01*
X113976369Y-133795653D01*
X113976370Y-133795655D01*
X113976372Y-133795659D01*
X114072400Y-133939374D01*
X114072403Y-133939378D01*
X114194622Y-134061597D01*
X114194626Y-134061600D01*
X114338344Y-134157630D01*
X114338346Y-134157630D01*
X114338348Y-134157632D01*
X114498043Y-134223779D01*
X114498045Y-134223779D01*
X114498050Y-134223781D01*
X114667569Y-134257500D01*
X114667572Y-134257501D01*
X114667574Y-134257501D01*
X114840428Y-134257501D01*
X114840429Y-134257500D01*
X114909421Y-134243777D01*
X115009949Y-134223781D01*
X115009952Y-134223779D01*
X115009957Y-134223779D01*
X115169652Y-134157632D01*
X115313374Y-134061600D01*
X115435599Y-133939375D01*
X115531631Y-133795653D01*
X115597778Y-133635958D01*
X115631500Y-133466427D01*
X115631500Y-133293575D01*
X115631500Y-133293572D01*
X115631499Y-133293570D01*
X115597780Y-133124051D01*
X115597777Y-133124042D01*
X115571174Y-133059816D01*
X115531631Y-132964349D01*
X115531629Y-132964347D01*
X115531629Y-132964345D01*
X115435599Y-132820627D01*
X115435596Y-132820623D01*
X115313377Y-132698404D01*
X115313373Y-132698401D01*
X115169655Y-132602371D01*
X115169652Y-132602370D01*
X115009958Y-132536223D01*
X115009949Y-132536220D01*
X114840429Y-132502501D01*
X114840426Y-132502501D01*
X114667574Y-132502501D01*
X114667571Y-132502501D01*
X114498050Y-132536220D01*
X114498041Y-132536223D01*
X114338347Y-132602370D01*
X114338344Y-132602371D01*
X114194626Y-132698401D01*
X114194622Y-132698404D01*
X114072403Y-132820623D01*
X114072400Y-132820627D01*
X113976372Y-132964342D01*
X113976369Y-132964348D01*
X113976369Y-132964349D01*
X113960377Y-133002955D01*
X113916539Y-133057357D01*
X113850245Y-133079422D01*
X113845818Y-133079501D01*
X110505833Y-133079501D01*
X110438794Y-133059816D01*
X110418152Y-133043182D01*
X107934510Y-130559540D01*
X107934507Y-130559538D01*
X107931344Y-130557711D01*
X107931344Y-130557712D01*
X107865989Y-130519980D01*
X107865990Y-130519980D01*
X107840513Y-130513153D01*
X107789562Y-130499501D01*
X107789560Y-130499501D01*
X103215833Y-130499501D01*
X103148794Y-130479816D01*
X103128152Y-130463182D01*
X101684513Y-129019543D01*
X101684508Y-129019539D01*
X101679360Y-129016567D01*
X101645849Y-128988257D01*
X101635704Y-128976003D01*
X101614065Y-128929597D01*
X101530404Y-128845936D01*
X101526527Y-128844128D01*
X101514066Y-128829076D01*
X101506619Y-128811750D01*
X101494843Y-128797024D01*
X101493110Y-128780317D01*
X101486477Y-128764884D01*
X101489580Y-128746281D01*
X101487635Y-128727527D01*
X101495208Y-128712536D01*
X101497973Y-128695966D01*
X101510639Y-128681995D01*
X101519143Y-128665166D01*
X101522903Y-128661907D01*
X101522733Y-128661737D01*
X101607650Y-128576820D01*
X101668973Y-128543335D01*
X101695331Y-128540501D01*
X103455500Y-128540501D01*
X103522539Y-128560186D01*
X103568294Y-128612990D01*
X103579500Y-128664501D01*
X103579500Y-129053470D01*
X103619868Y-129256413D01*
X103619870Y-129256421D01*
X103695033Y-129437881D01*
X103699059Y-129447599D01*
X103734238Y-129500249D01*
X103814024Y-129619658D01*
X103960342Y-129765976D01*
X103960345Y-129765978D01*
X104132402Y-129880942D01*
X104323580Y-129960131D01*
X104457801Y-129986829D01*
X104526530Y-130000500D01*
X104526534Y-130000501D01*
X104526535Y-130000501D01*
X104733466Y-130000501D01*
X104733467Y-130000500D01*
X104936420Y-129960131D01*
X105127598Y-129880942D01*
X105299655Y-129765978D01*
X105445977Y-129619656D01*
X105560941Y-129447599D01*
X105640130Y-129256421D01*
X105680500Y-129053466D01*
X105680500Y-128546536D01*
X105640130Y-128343581D01*
X105560941Y-128152403D01*
X105445977Y-127980346D01*
X105445975Y-127980343D01*
X105299657Y-127834025D01*
X105203089Y-127769501D01*
X105127598Y-127719060D01*
X105107019Y-127710536D01*
X104936420Y-127639871D01*
X104936412Y-127639869D01*
X104733469Y-127599501D01*
X104733465Y-127599501D01*
X104526535Y-127599501D01*
X104526530Y-127599501D01*
X104323587Y-127639869D01*
X104323579Y-127639871D01*
X104132401Y-127719060D01*
X104122072Y-127725961D01*
X104055393Y-127746835D01*
X103988014Y-127728347D01*
X103965506Y-127710536D01*
X103396819Y-127141849D01*
X103363334Y-127080526D01*
X103360500Y-127054168D01*
X103360500Y-124902403D01*
X103380185Y-124835364D01*
X103396819Y-124814722D01*
X103398318Y-124813223D01*
X103483224Y-124728317D01*
X103533972Y-124619488D01*
X103540500Y-124569902D01*
X103540499Y-124210101D01*
X103533972Y-124160514D01*
X103483224Y-124051685D01*
X103398316Y-123966777D01*
X103289487Y-123916029D01*
X103289485Y-123916028D01*
X103289486Y-123916028D01*
X103239901Y-123909501D01*
X102820105Y-123909501D01*
X102804386Y-123911570D01*
X102770513Y-123916029D01*
X102770511Y-123916030D01*
X102770509Y-123916030D01*
X102661682Y-123966777D01*
X102652798Y-123972999D01*
X102650840Y-123970202D01*
X102605858Y-123994765D01*
X102536166Y-123989781D01*
X102480233Y-123947909D01*
X102455816Y-123882445D01*
X102455500Y-123873599D01*
X102455500Y-123856507D01*
X102439720Y-123756879D01*
X102439719Y-123756877D01*
X102439719Y-123756875D01*
X102378528Y-123636781D01*
X102378526Y-123636779D01*
X102378523Y-123636775D01*
X102283225Y-123541477D01*
X102283221Y-123541474D01*
X102283220Y-123541473D01*
X102163126Y-123480282D01*
X102163124Y-123480281D01*
X102163121Y-123480280D01*
X102063493Y-123464501D01*
X102063488Y-123464501D01*
X101496512Y-123464501D01*
X101496507Y-123464501D01*
X101396878Y-123480280D01*
X101276778Y-123541474D01*
X101276774Y-123541477D01*
X101181476Y-123636775D01*
X101181473Y-123636779D01*
X101120279Y-123756879D01*
X101113331Y-123800750D01*
X101083402Y-123863885D01*
X101024090Y-123900816D01*
X100954227Y-123899818D01*
X100895995Y-123861208D01*
X100887757Y-123850245D01*
X100884551Y-123845448D01*
X100818230Y-123801133D01*
X100818229Y-123801132D01*
X100759752Y-123789501D01*
X100759748Y-123789501D01*
X100265833Y-123789501D01*
X100198794Y-123769816D01*
X100178152Y-123753182D01*
X99874513Y-123449543D01*
X99874511Y-123449541D01*
X99857227Y-123439562D01*
X99805991Y-123409981D01*
X99805990Y-123409980D01*
X99780513Y-123403153D01*
X99729562Y-123389501D01*
X99729560Y-123389501D01*
X99355840Y-123389501D01*
X99288801Y-123369816D01*
X99243046Y-123317012D01*
X99233102Y-123247854D01*
X99234223Y-123241310D01*
X99240499Y-123209753D01*
X99240500Y-123209751D01*
X99240500Y-121770250D01*
X99240499Y-121770248D01*
X99228868Y-121711771D01*
X99228867Y-121711770D01*
X99184552Y-121645448D01*
X99118230Y-121601133D01*
X99118229Y-121601132D01*
X99059752Y-121589501D01*
X99059748Y-121589501D01*
X97820252Y-121589501D01*
X97820247Y-121589501D01*
X97761770Y-121601132D01*
X97761769Y-121601133D01*
X97695447Y-121645448D01*
X97651132Y-121711770D01*
X97646458Y-121723055D01*
X97644136Y-121722093D01*
X97619715Y-121768763D01*
X97558994Y-121803329D01*
X97489225Y-121799579D01*
X97432559Y-121758704D01*
X97420013Y-121738947D01*
X97398528Y-121696780D01*
X97398526Y-121696778D01*
X97398523Y-121696774D01*
X97303225Y-121601476D01*
X97303221Y-121601473D01*
X97303220Y-121601472D01*
X97183126Y-121540281D01*
X97183124Y-121540280D01*
X97183121Y-121540279D01*
X97083493Y-121524500D01*
X97083488Y-121524500D01*
X96516512Y-121524500D01*
X96516507Y-121524500D01*
X96416878Y-121540279D01*
X96296778Y-121601473D01*
X96296774Y-121601476D01*
X96201476Y-121696774D01*
X96201474Y-121696778D01*
X96201472Y-121696780D01*
X96171569Y-121755468D01*
X96160485Y-121777222D01*
X96112510Y-121828018D01*
X96044689Y-121844813D01*
X95978554Y-121822275D01*
X95939515Y-121777222D01*
X95935964Y-121770253D01*
X95898528Y-121696780D01*
X95898524Y-121696776D01*
X95898523Y-121696774D01*
X95803225Y-121601476D01*
X95803221Y-121601473D01*
X95803220Y-121601472D01*
X95683126Y-121540281D01*
X95683124Y-121540280D01*
X95683121Y-121540279D01*
X95583493Y-121524500D01*
X95583488Y-121524500D01*
X95016512Y-121524500D01*
X95016507Y-121524500D01*
X94916878Y-121540279D01*
X94796778Y-121601473D01*
X94796774Y-121601476D01*
X94701476Y-121696774D01*
X94701473Y-121696778D01*
X94640279Y-121816877D01*
X94633560Y-121859302D01*
X94603630Y-121922436D01*
X94544318Y-121959366D01*
X94474455Y-121958368D01*
X94458687Y-121952286D01*
X94359487Y-121906028D01*
X94359485Y-121906027D01*
X94359486Y-121906027D01*
X94309901Y-121899500D01*
X93890105Y-121899500D01*
X93874386Y-121901569D01*
X93840513Y-121906028D01*
X93840511Y-121906029D01*
X93840509Y-121906029D01*
X93731683Y-121956776D01*
X93646776Y-122041683D01*
X93596027Y-122150514D01*
X93589500Y-122200098D01*
X93589500Y-122343455D01*
X93569815Y-122410494D01*
X93553181Y-122431136D01*
X93342031Y-122642286D01*
X93342030Y-122642288D01*
X93303100Y-122709714D01*
X93303101Y-122709715D01*
X93295886Y-122722212D01*
X93272000Y-122811356D01*
X93272000Y-124537884D01*
X93289852Y-124604510D01*
X93295885Y-124627024D01*
X93295887Y-124627029D01*
X93342027Y-124706947D01*
X93342031Y-124706952D01*
X94012897Y-125377819D01*
X94046382Y-125439142D01*
X94041398Y-125508834D01*
X93999526Y-125564767D01*
X93934062Y-125589184D01*
X93925216Y-125589500D01*
X92736544Y-125589500D01*
X92669505Y-125569815D01*
X92648863Y-125553181D01*
X92446819Y-125351137D01*
X92413334Y-125289814D01*
X92410500Y-125263456D01*
X92410500Y-122636544D01*
X92430185Y-122569505D01*
X92446819Y-122548863D01*
X92742465Y-122253217D01*
X93080470Y-121915212D01*
X93126614Y-121835288D01*
X93134395Y-121806250D01*
X93135989Y-121800303D01*
X93144234Y-121769530D01*
X93150500Y-121746144D01*
X93150500Y-120996544D01*
X93170185Y-120929505D01*
X93186819Y-120908863D01*
X93883863Y-120211819D01*
X93945186Y-120178334D01*
X93971544Y-120175500D01*
X98821142Y-120175500D01*
X98821144Y-120175500D01*
X98910288Y-120151614D01*
X98922610Y-120144500D01*
X98990212Y-120105470D01*
X101020470Y-118075212D01*
X101066614Y-117995288D01*
X101086880Y-117919655D01*
X101090500Y-117906144D01*
X101090500Y-116439725D01*
X101110185Y-116372686D01*
X101162989Y-116326931D01*
X101167048Y-116325164D01*
X101237594Y-116295943D01*
X101237595Y-116295942D01*
X101237598Y-116295941D01*
X101409655Y-116180977D01*
X101555977Y-116034655D01*
X101670941Y-115862598D01*
X101750130Y-115671420D01*
X101790500Y-115468465D01*
X101790500Y-115011535D01*
X101750130Y-114808580D01*
X101670941Y-114617402D01*
X101555977Y-114445345D01*
X101555976Y-114445344D01*
X101552592Y-114440279D01*
X101553675Y-114439555D01*
X101528993Y-114381428D01*
X101540789Y-114312561D01*
X101564476Y-114279403D01*
X102237062Y-113606819D01*
X102298385Y-113573334D01*
X102324743Y-113570500D01*
X107938546Y-113570500D01*
X108005585Y-113590185D01*
G37*
%TD.AperFunction*%
%TA.AperFunction,Conductor*%
G36*
X91840701Y-125736830D02*
G01*
X91847180Y-125742862D01*
X92324788Y-126220470D01*
X92404712Y-126266614D01*
X92493856Y-126290500D01*
X92493857Y-126290500D01*
X92586144Y-126290500D01*
X93051882Y-126290500D01*
X93073127Y-126296738D01*
X93095216Y-126298318D01*
X93105999Y-126306390D01*
X93118921Y-126310185D01*
X93133420Y-126326918D01*
X93151149Y-126340190D01*
X93155856Y-126352810D01*
X93164676Y-126362989D01*
X93167827Y-126384906D01*
X93175566Y-126405654D01*
X93172703Y-126418814D01*
X93174620Y-126432147D01*
X93165420Y-126452290D01*
X93160714Y-126473927D01*
X93147445Y-126491652D01*
X93145595Y-126495703D01*
X93139563Y-126502181D01*
X93129534Y-126512210D01*
X91847180Y-127794563D01*
X91785857Y-127828048D01*
X91716165Y-127823064D01*
X91660232Y-127781192D01*
X91635815Y-127715728D01*
X91635499Y-127706882D01*
X91635499Y-127700143D01*
X91635499Y-127700136D01*
X91635497Y-127700117D01*
X91632586Y-127675012D01*
X91632585Y-127675011D01*
X91632585Y-127675009D01*
X91589567Y-127577583D01*
X91580496Y-127508309D01*
X91589565Y-127477420D01*
X91632585Y-127379991D01*
X91635500Y-127354865D01*
X91635499Y-127065136D01*
X91634227Y-127054168D01*
X91632586Y-127040012D01*
X91632585Y-127040011D01*
X91632585Y-127040009D01*
X91589567Y-126942583D01*
X91580496Y-126873309D01*
X91589565Y-126842420D01*
X91632585Y-126744991D01*
X91635500Y-126719865D01*
X91635499Y-126430136D01*
X91634186Y-126418814D01*
X91632586Y-126405012D01*
X91632585Y-126405011D01*
X91632585Y-126405009D01*
X91589567Y-126307583D01*
X91580496Y-126238309D01*
X91589565Y-126207420D01*
X91632585Y-126109991D01*
X91635500Y-126084865D01*
X91635499Y-125830542D01*
X91655183Y-125763504D01*
X91707987Y-125717749D01*
X91777146Y-125707805D01*
X91840701Y-125736830D01*
G37*
%TD.AperFunction*%
%TD*%
M02*
