%TF.GenerationSoftware,KiCad,Pcbnew,8.0.7-8.0.7-0~ubuntu22.04.1*%
%TF.CreationDate,2024-12-14T16:53:14+01:00*%
%TF.ProjectId,vesc_mms_board,76657363-5f6d-46d7-935f-626f6172642e,rev?*%
%TF.SameCoordinates,Original*%
%TF.FileFunction,Copper,L2,Bot*%
%TF.FilePolarity,Positive*%
%FSLAX46Y46*%
G04 Gerber Fmt 4.6, Leading zero omitted, Abs format (unit mm)*
G04 Created by KiCad (PCBNEW 8.0.7-8.0.7-0~ubuntu22.04.1) date 2024-12-14 16:53:14*
%MOMM*%
%LPD*%
G01*
G04 APERTURE LIST*
G04 Aperture macros list*
%AMRoundRect*
0 Rectangle with rounded corners*
0 $1 Rounding radius*
0 $2 $3 $4 $5 $6 $7 $8 $9 X,Y pos of 4 corners*
0 Add a 4 corners polygon primitive as box body*
4,1,4,$2,$3,$4,$5,$6,$7,$8,$9,$2,$3,0*
0 Add four circle primitives for the rounded corners*
1,1,$1+$1,$2,$3*
1,1,$1+$1,$4,$5*
1,1,$1+$1,$6,$7*
1,1,$1+$1,$8,$9*
0 Add four rect primitives between the rounded corners*
20,1,$1+$1,$2,$3,$4,$5,0*
20,1,$1+$1,$4,$5,$6,$7,0*
20,1,$1+$1,$6,$7,$8,$9,0*
20,1,$1+$1,$8,$9,$2,$3,0*%
G04 Aperture macros list end*
%TA.AperFunction,ComponentPad*%
%ADD10R,1.600000X1.600000*%
%TD*%
%TA.AperFunction,ComponentPad*%
%ADD11O,1.600000X1.600000*%
%TD*%
%TA.AperFunction,ComponentPad*%
%ADD12C,0.900000*%
%TD*%
%TA.AperFunction,ComponentPad*%
%ADD13C,8.000000*%
%TD*%
%TA.AperFunction,ComponentPad*%
%ADD14R,1.700000X1.700000*%
%TD*%
%TA.AperFunction,ComponentPad*%
%ADD15O,1.700000X1.700000*%
%TD*%
%TA.AperFunction,ComponentPad*%
%ADD16R,0.900000X2.000000*%
%TD*%
%TA.AperFunction,ComponentPad*%
%ADD17RoundRect,1.025000X1.025000X1.025000X-1.025000X1.025000X-1.025000X-1.025000X1.025000X-1.025000X0*%
%TD*%
%TA.AperFunction,ComponentPad*%
%ADD18C,4.100000*%
%TD*%
%TA.AperFunction,ComponentPad*%
%ADD19R,1.500000X1.500000*%
%TD*%
%TA.AperFunction,ComponentPad*%
%ADD20C,1.500000*%
%TD*%
%TA.AperFunction,ComponentPad*%
%ADD21C,2.300000*%
%TD*%
%TA.AperFunction,ViaPad*%
%ADD22C,0.650000*%
%TD*%
%TA.AperFunction,ViaPad*%
%ADD23C,0.600000*%
%TD*%
%TA.AperFunction,ViaPad*%
%ADD24C,0.550000*%
%TD*%
%TA.AperFunction,Conductor*%
%ADD25C,0.240000*%
%TD*%
%TA.AperFunction,Conductor*%
%ADD26C,0.254000*%
%TD*%
%TA.AperFunction,Conductor*%
%ADD27C,0.300000*%
%TD*%
G04 APERTURE END LIST*
D10*
%TO.P,SW1,1*%
%TO.N,Net-(R2-Pad2)*%
X119850000Y-115600000D03*
D11*
%TO.P,SW1,2*%
%TO.N,Net-(R3-Pad2)*%
X117310000Y-115600000D03*
%TO.P,SW1,3*%
%TO.N,/CAN/CAN2-*%
X117310000Y-123220000D03*
%TO.P,SW1,4*%
%TO.N,/CAN/CAN1+*%
X119850000Y-123220000D03*
%TD*%
D12*
%TO.P,H9,1,1*%
%TO.N,VCC*%
X115000000Y-55000000D03*
X115878680Y-52878680D03*
X115878680Y-57121320D03*
X118000000Y-52000000D03*
D13*
X118000000Y-55000000D03*
D12*
X118000000Y-58000000D03*
X120121320Y-52878680D03*
X120121320Y-57121320D03*
X121000000Y-55000000D03*
%TD*%
D14*
%TO.P,J4,1,Pin_1*%
%TO.N,+5V*%
X101075000Y-116300000D03*
D15*
%TO.P,J4,2,Pin_2*%
%TO.N,/USB/USB_VESC_D-*%
X98535000Y-116300000D03*
%TO.P,J4,3,Pin_3*%
%TO.N,/USB/USB_VESC_D+*%
X95995001Y-116300000D03*
%TO.P,J4,4,Pin_4*%
%TO.N,GND*%
X93455000Y-116300000D03*
%TO.P,J4,5,Pin_5*%
X90915000Y-116300000D03*
%TD*%
D16*
%TO.P,J5,*%
%TO.N,*%
X137960000Y-138750000D03*
X124460000Y-138750000D03*
D17*
%TO.P,J5,1,Pin_1*%
%TO.N,VCC*%
X134810000Y-132750000D03*
D18*
%TO.P,J5,2,Pin_2*%
%TO.N,GND*%
X127610000Y-132750000D03*
%TD*%
D14*
%TO.P,J7,1,Pin_1*%
%TO.N,+5V*%
X112440000Y-116300000D03*
D15*
%TO.P,J7,2,Pin_2*%
%TO.N,/CAN/CAN+*%
X109900000Y-116300000D03*
%TO.P,J7,3,Pin_3*%
%TO.N,/CAN/CAN-*%
X107360001Y-116300000D03*
%TO.P,J7,4,Pin_4*%
%TO.N,GND*%
X104820000Y-116300000D03*
%TD*%
D14*
%TO.P,J6,1,Pin_1*%
%TO.N,+12V*%
X107995000Y-129800000D03*
D15*
%TO.P,J6,2,Pin_2*%
%TO.N,GND*%
X105455000Y-129800000D03*
%TD*%
D12*
%TO.P,H10,1,1*%
%TO.N,GND*%
X99000000Y-55000000D03*
X99878680Y-52878680D03*
X99878680Y-57121320D03*
X102000000Y-52000000D03*
D13*
X102000000Y-55000000D03*
D12*
X102000000Y-58000000D03*
X104121320Y-52878680D03*
X104121320Y-57121320D03*
X105000000Y-55000000D03*
%TD*%
D19*
%TO.P,J1,1*%
%TO.N,/CAN/CAN1-*%
X113744000Y-139980001D03*
D20*
%TO.P,J1,2*%
%TO.N,/CAN/CAN1+*%
X112728000Y-138200000D03*
%TO.P,J1,3*%
%TO.N,GND*%
X111712000Y-139980001D03*
%TO.P,J1,4*%
%TO.N,/CAN/CAN2-*%
X110696000Y-138200000D03*
%TO.P,J1,5*%
%TO.N,/CAN/CAN2+*%
X109680000Y-139980001D03*
%TO.P,J1,6*%
%TO.N,+12V*%
X108664000Y-138200000D03*
%TO.P,J1,7*%
%TO.N,USB_UPSTREAM_D-*%
X107648000Y-139980001D03*
%TO.P,J1,8*%
%TO.N,USB_UPSTREAM_D+*%
X106632001Y-138200001D03*
%TO.P,J1,9*%
%TO.N,unconnected-(J1-Pad9)*%
X117044000Y-133380001D03*
%TO.P,J1,10*%
%TO.N,unconnected-(J1-Pad10)*%
X114754000Y-133380001D03*
%TO.P,J1,11*%
%TO.N,GND*%
X105614000Y-133380001D03*
%TO.P,J1,12*%
%TO.N,Net-(J1-Pad12)*%
X103324000Y-133380001D03*
D21*
%TO.P,J1,SH*%
%TO.N,GND*%
X118314000Y-139090001D03*
X102054000Y-139090001D03*
%TD*%
D19*
%TO.P,J2,1*%
%TO.N,/CAN/CAN1-*%
X94096000Y-140000000D03*
D20*
%TO.P,J2,2*%
%TO.N,/CAN/CAN1+*%
X93080000Y-138219999D03*
%TO.P,J2,3*%
%TO.N,GND*%
X92064000Y-140000000D03*
%TO.P,J2,4*%
%TO.N,/CAN/CAN2-*%
X91048000Y-138219999D03*
%TO.P,J2,5*%
%TO.N,/CAN/CAN2+*%
X90032000Y-140000000D03*
%TO.P,J2,6*%
%TO.N,+12V*%
X89016000Y-138219999D03*
%TO.P,J2,7*%
%TO.N,USB_DOWNSTREAM_D-*%
X88000000Y-140000000D03*
%TO.P,J2,8*%
%TO.N,USB_DOWNSTREAM_D+*%
X86984001Y-138220000D03*
%TO.P,J2,9*%
%TO.N,GND*%
X97396000Y-133400000D03*
%TO.P,J2,10*%
%TO.N,Net-(J2-Pad10)*%
X95106000Y-133400000D03*
%TO.P,J2,11*%
%TO.N,unconnected-(J2-Pad11)*%
X85966000Y-133400000D03*
%TO.P,J2,12*%
%TO.N,unconnected-(J2-Pad12)*%
X83676000Y-133400000D03*
D21*
%TO.P,J2,SH*%
%TO.N,GND*%
X98666000Y-139110000D03*
X82406000Y-139110000D03*
%TD*%
D22*
%TO.N,GND*%
X93775000Y-68375000D03*
X84575000Y-91375000D03*
X125975000Y-112075000D03*
X91475000Y-114375000D03*
X123675000Y-114375000D03*
X125975000Y-79875000D03*
D23*
X92300000Y-129600000D03*
D22*
X93775000Y-59175000D03*
X114475000Y-109775000D03*
X114475000Y-77575000D03*
X89175000Y-132775000D03*
X91475000Y-132775000D03*
X91475000Y-98275000D03*
X86875000Y-54575000D03*
X114475000Y-68375000D03*
X128275000Y-89075000D03*
X109875000Y-112075000D03*
X82275000Y-123575000D03*
X107575000Y-112075000D03*
X96075000Y-52275000D03*
X123675000Y-77575000D03*
X84575000Y-82175000D03*
X86875000Y-86775000D03*
X84575000Y-98275000D03*
X100675000Y-107475000D03*
X128275000Y-100575000D03*
X114475000Y-116675000D03*
X102975000Y-68375000D03*
X96075000Y-109775000D03*
X86875000Y-105175000D03*
X86875000Y-141975000D03*
X93775000Y-66075000D03*
X93775000Y-89075000D03*
X98375000Y-75275000D03*
X96075000Y-130475000D03*
X98375000Y-109775000D03*
X93775000Y-98275000D03*
X86875000Y-109775000D03*
X91475000Y-112075000D03*
X86875000Y-114375000D03*
X91475000Y-105175000D03*
X82275000Y-144275000D03*
X123675000Y-128175000D03*
X82275000Y-61475000D03*
X121375000Y-116675000D03*
X105275000Y-128175000D03*
X116775000Y-112075000D03*
X89175000Y-82175000D03*
D24*
X110780000Y-144030000D03*
D22*
X96075000Y-84475000D03*
X119075000Y-107475000D03*
X119075000Y-68375000D03*
X96075000Y-98275000D03*
X96075000Y-137375000D03*
X100675000Y-77575000D03*
X82275000Y-93675000D03*
X135175000Y-146575000D03*
X82275000Y-89075000D03*
X121375000Y-125875000D03*
X114475000Y-107475000D03*
D23*
X100822500Y-122522500D03*
X92900000Y-123500000D03*
D22*
X100675000Y-114375000D03*
X93775000Y-56875000D03*
X135175000Y-144275000D03*
X89175000Y-121275000D03*
X128275000Y-105175000D03*
X112175000Y-68375000D03*
X128275000Y-70675000D03*
X125975000Y-102875000D03*
X125975000Y-137375000D03*
X123675000Y-125875000D03*
X84575000Y-59175000D03*
X102975000Y-72975000D03*
X82275000Y-102875000D03*
X125975000Y-70675000D03*
X98375000Y-112075000D03*
D23*
X89900000Y-131200000D03*
D22*
X96075000Y-105175000D03*
X96075000Y-66075000D03*
X123675000Y-118975000D03*
X128275000Y-146575000D03*
X98375000Y-105175000D03*
X125975000Y-84475000D03*
X86875000Y-91375000D03*
X91475000Y-109775000D03*
X121375000Y-102875000D03*
X130575000Y-146575000D03*
X91475000Y-66075000D03*
X128275000Y-144275000D03*
X125975000Y-68375000D03*
X91475000Y-82175000D03*
X84575000Y-63775000D03*
X100675000Y-68375000D03*
D23*
X89800000Y-128900000D03*
D22*
X82275000Y-125875000D03*
X116775000Y-135075000D03*
X116775000Y-70675000D03*
X93775000Y-114375000D03*
X86875000Y-135075000D03*
X109875000Y-66075000D03*
X116775000Y-109775000D03*
X125975000Y-107475000D03*
X84575000Y-105175000D03*
X96075000Y-82175000D03*
X125975000Y-144275000D03*
X119075000Y-70675000D03*
X102975000Y-63775000D03*
X128275000Y-123575000D03*
X89175000Y-91375000D03*
D24*
X99021500Y-136482001D03*
D22*
X98375000Y-121275000D03*
X82275000Y-100575000D03*
X89175000Y-112075000D03*
X121375000Y-109775000D03*
X86875000Y-68375000D03*
X123675000Y-121275000D03*
X82275000Y-105175000D03*
X98375000Y-114375000D03*
X82275000Y-112075000D03*
X121375000Y-107475000D03*
X125975000Y-86775000D03*
X89175000Y-68375000D03*
X123675000Y-109775000D03*
X96075000Y-75275000D03*
X100675000Y-121275000D03*
X93775000Y-105175000D03*
X112175000Y-118975000D03*
X89175000Y-105175000D03*
X114475000Y-135075000D03*
X123675000Y-84475000D03*
X100675000Y-66075000D03*
X91475000Y-79875000D03*
X107575000Y-56875000D03*
X128275000Y-109775000D03*
X91475000Y-89075000D03*
X84575000Y-84475000D03*
X89175000Y-54575000D03*
X102975000Y-121275000D03*
X98375000Y-130475000D03*
X84575000Y-93675000D03*
X123675000Y-100575000D03*
X128275000Y-82175000D03*
X128275000Y-114375000D03*
X98375000Y-59175000D03*
X109875000Y-132775000D03*
X93775000Y-70675000D03*
X121375000Y-79875000D03*
X86875000Y-116675000D03*
X105275000Y-66075000D03*
X96075000Y-59175000D03*
X125975000Y-72975000D03*
X82275000Y-128175000D03*
X84575000Y-135075000D03*
X93775000Y-75275000D03*
X135175000Y-139675000D03*
X123675000Y-66075000D03*
X125975000Y-66075000D03*
X109875000Y-68375000D03*
X121375000Y-112075000D03*
X119075000Y-79875000D03*
X98375000Y-70675000D03*
X119075000Y-105175000D03*
X123675000Y-68375000D03*
X93775000Y-107475000D03*
X105275000Y-109775000D03*
X128275000Y-141975000D03*
X102975000Y-107475000D03*
X119075000Y-112075000D03*
X89175000Y-61475000D03*
X96075000Y-107475000D03*
X128275000Y-112075000D03*
X86875000Y-123575000D03*
X82275000Y-109775000D03*
X107575000Y-107475000D03*
X89175000Y-114375000D03*
X128275000Y-95975000D03*
X96075000Y-63775000D03*
X137475000Y-141975000D03*
D23*
X92200000Y-126700000D03*
D22*
X112175000Y-132775000D03*
X128275000Y-79875000D03*
X84575000Y-79875000D03*
X125975000Y-135075000D03*
X89175000Y-56875000D03*
X100675000Y-79875000D03*
X89175000Y-86775000D03*
D24*
X111370000Y-142920000D03*
D22*
X125975000Y-116675000D03*
X82275000Y-72975000D03*
D24*
X100578500Y-133782001D03*
D22*
X102975000Y-75275000D03*
X125975000Y-75275000D03*
X82275000Y-56875000D03*
X86875000Y-112075000D03*
X89175000Y-63775000D03*
X96075000Y-100575000D03*
D24*
X99021500Y-133782001D03*
D22*
X116775000Y-107475000D03*
X107575000Y-77575000D03*
X96075000Y-114375000D03*
X121375000Y-82175000D03*
X84575000Y-118975000D03*
X82275000Y-146575000D03*
X107575000Y-54575000D03*
X93775000Y-63775000D03*
X86875000Y-89075000D03*
X93775000Y-54575000D03*
X91475000Y-100575000D03*
X102975000Y-128175000D03*
X105275000Y-107475000D03*
X93775000Y-61475000D03*
X100675000Y-61475000D03*
X125975000Y-77575000D03*
X91475000Y-95975000D03*
X91475000Y-84475000D03*
X107575000Y-66075000D03*
X86875000Y-100575000D03*
X89175000Y-84475000D03*
X102975000Y-123575000D03*
X98375000Y-66075000D03*
X128275000Y-139675000D03*
X98375000Y-82175000D03*
D23*
X94272500Y-124222500D03*
D22*
X128275000Y-72975000D03*
X93775000Y-112075000D03*
X128275000Y-75275000D03*
X89175000Y-77575000D03*
X98375000Y-72975000D03*
X98375000Y-128175000D03*
X93775000Y-72975000D03*
X128275000Y-137375000D03*
X82275000Y-75275000D03*
X82275000Y-70675000D03*
X89175000Y-93675000D03*
X105275000Y-61475000D03*
X109875000Y-135075000D03*
X128275000Y-116675000D03*
X128275000Y-102875000D03*
D23*
X99128829Y-124735821D03*
D22*
X89175000Y-116675000D03*
X89175000Y-70675000D03*
X121375000Y-75275000D03*
X112175000Y-66075000D03*
X91475000Y-70675000D03*
X114475000Y-75275000D03*
X82275000Y-59175000D03*
X84575000Y-75275000D03*
X93775000Y-128175000D03*
X89175000Y-102875000D03*
X114475000Y-137375000D03*
X128275000Y-125875000D03*
X82275000Y-84475000D03*
X91475000Y-61475000D03*
X86875000Y-63775000D03*
X96075000Y-139675000D03*
X89175000Y-75275000D03*
X116775000Y-75275000D03*
X114475000Y-70675000D03*
X112175000Y-135075000D03*
X84575000Y-86775000D03*
X102975000Y-118975000D03*
X123675000Y-123575000D03*
D23*
X91100000Y-131400000D03*
D22*
X107575000Y-52275000D03*
X96075000Y-68375000D03*
X84575000Y-77575000D03*
X125975000Y-98275000D03*
X121375000Y-105175000D03*
X128275000Y-86775000D03*
X107575000Y-68375000D03*
X91475000Y-59175000D03*
X89175000Y-95975000D03*
X86875000Y-56875000D03*
X98375000Y-102875000D03*
X84575000Y-107475000D03*
X96075000Y-79875000D03*
X119075000Y-75275000D03*
X96075000Y-102875000D03*
X91475000Y-72975000D03*
X128275000Y-84475000D03*
X112175000Y-70675000D03*
X125975000Y-118975000D03*
X105275000Y-72975000D03*
X96075000Y-54575000D03*
X86875000Y-146575000D03*
X100675000Y-63775000D03*
X86875000Y-77575000D03*
X98375000Y-63775000D03*
X82275000Y-79875000D03*
X82275000Y-63775000D03*
X116775000Y-137375000D03*
X121375000Y-66075000D03*
X84575000Y-109775000D03*
X98375000Y-61475000D03*
X123675000Y-98275000D03*
X96075000Y-72975000D03*
X102975000Y-70675000D03*
X100675000Y-109775000D03*
X119075000Y-109775000D03*
X112175000Y-72975000D03*
X89175000Y-59175000D03*
X93775000Y-95975000D03*
X84575000Y-72975000D03*
X125975000Y-146575000D03*
X105275000Y-68375000D03*
X86875000Y-102875000D03*
X112175000Y-77575000D03*
X130575000Y-144275000D03*
X82275000Y-66075000D03*
X100675000Y-70675000D03*
X128275000Y-121275000D03*
X82275000Y-82175000D03*
D23*
X107500000Y-127900000D03*
D22*
X135175000Y-141975000D03*
X128275000Y-66075000D03*
X125975000Y-89075000D03*
X102975000Y-125875000D03*
X96075000Y-70675000D03*
X123675000Y-79875000D03*
X86875000Y-79875000D03*
X107575000Y-70675000D03*
X98375000Y-77575000D03*
X128275000Y-77575000D03*
X84575000Y-68375000D03*
X105275000Y-77575000D03*
X121375000Y-118975000D03*
X105275000Y-70675000D03*
X91475000Y-86775000D03*
X125975000Y-125875000D03*
X84575000Y-66075000D03*
X123675000Y-72975000D03*
X114475000Y-66075000D03*
X93775000Y-77575000D03*
X93775000Y-84475000D03*
X84575000Y-125875000D03*
X89175000Y-72975000D03*
X125975000Y-105175000D03*
X98375000Y-79875000D03*
X116775000Y-66075000D03*
X125975000Y-141975000D03*
X125975000Y-128175000D03*
X89175000Y-100575000D03*
X125975000Y-100575000D03*
X93775000Y-109775000D03*
X123675000Y-112075000D03*
X130575000Y-141975000D03*
X91475000Y-75275000D03*
X91475000Y-54575000D03*
X132875000Y-141975000D03*
X82275000Y-118975000D03*
X137475000Y-144275000D03*
X93775000Y-86775000D03*
X107575000Y-59175000D03*
X123675000Y-82175000D03*
X119075000Y-77575000D03*
X116775000Y-68375000D03*
X132875000Y-144275000D03*
X121375000Y-114375000D03*
X84575000Y-70675000D03*
X84575000Y-102875000D03*
X82275000Y-95975000D03*
X84575000Y-116675000D03*
X102975000Y-116675000D03*
X96075000Y-56875000D03*
X82275000Y-91375000D03*
X130575000Y-139675000D03*
X102975000Y-109775000D03*
X100675000Y-141975000D03*
X91475000Y-63775000D03*
X93775000Y-102875000D03*
X84575000Y-100575000D03*
X105275000Y-112075000D03*
X84575000Y-128175000D03*
X89175000Y-89075000D03*
X86875000Y-95975000D03*
X98375000Y-68375000D03*
X105275000Y-59175000D03*
X86875000Y-72975000D03*
X121375000Y-68375000D03*
X125975000Y-121275000D03*
X98375000Y-107475000D03*
X123675000Y-102875000D03*
X100675000Y-105175000D03*
X86875000Y-70675000D03*
X128275000Y-107475000D03*
X121375000Y-70675000D03*
X121375000Y-77575000D03*
X125975000Y-82175000D03*
X91475000Y-77575000D03*
X125975000Y-123575000D03*
X91475000Y-56875000D03*
X82275000Y-86775000D03*
X109875000Y-70675000D03*
X125975000Y-130475000D03*
X116775000Y-77575000D03*
X86875000Y-144275000D03*
X93775000Y-52275000D03*
X125975000Y-139675000D03*
X89175000Y-98275000D03*
X102975000Y-77575000D03*
X86875000Y-84475000D03*
X89175000Y-66075000D03*
D24*
X100600000Y-136482001D03*
D22*
X114475000Y-72975000D03*
X105275000Y-75275000D03*
X86875000Y-75275000D03*
X86875000Y-82175000D03*
X82275000Y-77575000D03*
X86875000Y-107475000D03*
D23*
X93000000Y-125100000D03*
D22*
X96075000Y-112075000D03*
X82275000Y-116675000D03*
X123675000Y-107475000D03*
X86875000Y-52275000D03*
X102975000Y-66075000D03*
X105275000Y-137375000D03*
X86875000Y-93675000D03*
X89175000Y-79875000D03*
X107575000Y-72975000D03*
X132875000Y-139675000D03*
X93775000Y-79875000D03*
X123675000Y-116675000D03*
X128275000Y-118975000D03*
X82275000Y-121275000D03*
X123675000Y-75275000D03*
X89175000Y-123575000D03*
X128275000Y-68375000D03*
X119075000Y-66075000D03*
X125975000Y-95975000D03*
X119075000Y-72975000D03*
X96075000Y-77575000D03*
X121375000Y-72975000D03*
X102975000Y-61475000D03*
X123675000Y-86775000D03*
X100675000Y-72975000D03*
X125975000Y-114375000D03*
X119075000Y-118975000D03*
X86875000Y-61475000D03*
X123675000Y-70675000D03*
X91475000Y-68375000D03*
X128275000Y-98275000D03*
X82275000Y-107475000D03*
X100675000Y-75275000D03*
X132875000Y-146575000D03*
X96075000Y-86775000D03*
X93775000Y-82175000D03*
X89175000Y-107475000D03*
X84575000Y-61475000D03*
X84575000Y-146575000D03*
X86875000Y-98275000D03*
X125975000Y-109775000D03*
X91475000Y-107475000D03*
X89175000Y-109775000D03*
X86875000Y-59175000D03*
X84575000Y-56875000D03*
X114475000Y-114375000D03*
X86875000Y-66075000D03*
X107575000Y-61475000D03*
X91475000Y-102875000D03*
X100675000Y-112075000D03*
X116775000Y-72975000D03*
X84575000Y-95975000D03*
X82275000Y-68375000D03*
X86875000Y-121275000D03*
X91475000Y-52275000D03*
X107575000Y-63775000D03*
X137475000Y-146575000D03*
X89175000Y-52275000D03*
X82275000Y-98275000D03*
X105275000Y-63775000D03*
X114475000Y-112075000D03*
X123675000Y-105175000D03*
X102975000Y-112075000D03*
X112175000Y-112075000D03*
X96075000Y-61475000D03*
X93775000Y-100575000D03*
X84575000Y-89075000D03*
X128275000Y-128175000D03*
%TO.N,USB_UPSTREAM_D+*%
X89442500Y-130455999D03*
X90961840Y-130507369D03*
X99952500Y-126482500D03*
%TO.N,USB_UPSTREAM_D-*%
X99962440Y-127288620D03*
X89483196Y-129680063D03*
X91374500Y-129849004D03*
D24*
%TO.N,/CAN/CAN2-*%
X117400000Y-128125000D03*
X108892000Y-147855000D03*
%TO.N,/CAN/CAN2+*%
X108180000Y-148705000D03*
%TO.N,/CAN/CAN1-*%
X109099480Y-127700520D03*
X113430000Y-145325000D03*
X113650000Y-123130741D03*
%TO.N,/CAN/CAN1+*%
X118428917Y-130230187D03*
X112740000Y-146175000D03*
%TO.N,USB_DOWNSTREAM_D-*%
X84335000Y-129315000D03*
D22*
X87058918Y-127584117D03*
D24*
%TO.N,USB_DOWNSTREAM_D+*%
X84327500Y-130832500D03*
D22*
X87072500Y-128361000D03*
D24*
%TO.N,/CAN/CAN-*%
X105300000Y-121475000D03*
%TO.N,/CAN/CAN+*%
X106850001Y-121475000D03*
%TD*%
D25*
%TO.N,USB_UPSTREAM_D+*%
X106632001Y-138807999D02*
X106290000Y-139150000D01*
X101862501Y-127347500D02*
X101265501Y-126750500D01*
X90716971Y-130262500D02*
X89635999Y-130262500D01*
X100220500Y-126750500D02*
X99952500Y-126482500D01*
X99983500Y-131346011D02*
X101862501Y-129467010D01*
X89635999Y-130262500D02*
X89442500Y-130455999D01*
X103333000Y-137133000D02*
X100352016Y-137133000D01*
X101265501Y-126750500D02*
X100220500Y-126750500D01*
X105350000Y-139150000D02*
X103333000Y-137133000D01*
X106632001Y-138200001D02*
X106632001Y-138807999D01*
X106290000Y-139150000D02*
X105350000Y-139150000D01*
X100352016Y-137133000D02*
X99983500Y-136764484D01*
X90961840Y-130507369D02*
X90716971Y-130262500D01*
X101862501Y-129467010D02*
X101862501Y-127347500D01*
X99983500Y-136764484D02*
X99983500Y-131346011D01*
%TO.N,USB_UPSTREAM_D-*%
X103180984Y-137500000D02*
X100200000Y-137500000D01*
X99616500Y-136916500D02*
X99616500Y-131193994D01*
X91341004Y-129882500D02*
X89685633Y-129882500D01*
X101495501Y-129314993D02*
X101495501Y-127499516D01*
X100133560Y-127117500D02*
X99962440Y-127288620D01*
X101495501Y-127499516D02*
X101113485Y-127117500D01*
X105197984Y-139517000D02*
X103180984Y-137500000D01*
X107648000Y-139980001D02*
X107184999Y-139517000D01*
X100200000Y-137500000D02*
X99616500Y-136916500D01*
X107184999Y-139517000D02*
X105197984Y-139517000D01*
X91374500Y-129849004D02*
X91341004Y-129882500D01*
X99616500Y-131193994D02*
X101495501Y-129314993D01*
X101113485Y-127117500D02*
X100133560Y-127117500D01*
X89685633Y-129882500D02*
X89483196Y-129680063D01*
D26*
%TO.N,/CAN/CAN2-*%
X108892000Y-147855000D02*
X108744000Y-147707000D01*
D27*
X117310000Y-128035000D02*
X117400000Y-128125000D01*
X117310000Y-123320000D02*
X117310000Y-128035000D01*
D26*
X108744000Y-143496000D02*
X110696000Y-141544000D01*
X108744000Y-147707000D02*
X108744000Y-143496000D01*
X110696000Y-141544000D02*
X110696000Y-138200000D01*
%TO.N,/CAN/CAN2+*%
X108180000Y-148705000D02*
X108190000Y-148695000D01*
X110142000Y-140442001D02*
X109680000Y-139980001D01*
X108190000Y-148695000D02*
X108190000Y-143266526D01*
X108190000Y-143266526D02*
X110142000Y-141314526D01*
X110142000Y-141314526D02*
X110142000Y-140442001D01*
D27*
%TO.N,/CAN/CAN1-*%
X113500000Y-123300000D02*
X109099480Y-127700520D01*
D26*
X113430000Y-145325000D02*
X113282000Y-145177000D01*
X113282000Y-145177000D02*
X113282000Y-140442001D01*
X113282000Y-140442001D02*
X113744000Y-139980001D01*
D27*
X113650000Y-123130741D02*
X113500000Y-123280741D01*
X113500000Y-123280741D02*
X113500000Y-123300000D01*
%TO.N,/CAN/CAN1+*%
X119850000Y-128809104D02*
X118428917Y-130230187D01*
D26*
X112728000Y-146163000D02*
X112740000Y-146175000D01*
D27*
X119850000Y-123320000D02*
X119850000Y-128809104D01*
D26*
X112728000Y-138200000D02*
X112728000Y-146163000D01*
D25*
%TO.N,USB_DOWNSTREAM_D-*%
X85232500Y-129842500D02*
X84672500Y-129842500D01*
X84335000Y-129505000D02*
X84335000Y-129315000D01*
X86820535Y-127822500D02*
X86163569Y-127822500D01*
X84672500Y-129842500D02*
X84335000Y-129505000D01*
X87058918Y-127584117D02*
X86820535Y-127822500D01*
X85512500Y-128473569D02*
X85512500Y-129562500D01*
X86163569Y-127822500D02*
X85512500Y-128473569D01*
X85512500Y-129562500D02*
X85232500Y-129842500D01*
%TO.N,USB_DOWNSTREAM_D+*%
X85879500Y-128625585D02*
X85879500Y-129714516D01*
X86315585Y-128189500D02*
X85879500Y-128625585D01*
X84725500Y-130209500D02*
X84327500Y-130607500D01*
X87072500Y-128361000D02*
X86901000Y-128189500D01*
X85384516Y-130209500D02*
X84725500Y-130209500D01*
X85879500Y-129714516D02*
X85384516Y-130209500D01*
X86901000Y-128189500D02*
X86315585Y-128189500D01*
D27*
%TO.N,/CAN/CAN-*%
X108300000Y-117239999D02*
X108300000Y-117851472D01*
X105900000Y-120251472D02*
X105900000Y-121100000D01*
X105525000Y-121475000D02*
X105300000Y-121475000D01*
X108300000Y-117851472D02*
X105900000Y-120251472D01*
X105900000Y-121100000D02*
X105525000Y-121475000D01*
X107360001Y-116300000D02*
X108300000Y-117239999D01*
%TO.N,/CAN/CAN+*%
X108900000Y-118100000D02*
X108900000Y-117300000D01*
X106500000Y-121124999D02*
X106500000Y-120500000D01*
X106500000Y-120500000D02*
X108900000Y-118100000D01*
X106850001Y-121475000D02*
X106500000Y-121124999D01*
X108900000Y-117300000D02*
X109900000Y-116300000D01*
%TD*%
%TA.AperFunction,Conductor*%
%TO.N,GND*%
G36*
X109737539Y-50520185D02*
G01*
X109783294Y-50572989D01*
X109794500Y-50624500D01*
X109794500Y-63876007D01*
X109799197Y-63919686D01*
X109810397Y-63971174D01*
X109812890Y-63981372D01*
X109812891Y-63981375D01*
X109855899Y-64062083D01*
X109855901Y-64062086D01*
X109901660Y-64114895D01*
X109919242Y-64132839D01*
X109919246Y-64132843D01*
X109919247Y-64132844D01*
X109919249Y-64132845D01*
X109999059Y-64177488D01*
X109999063Y-64177490D01*
X110066102Y-64197175D01*
X110124000Y-64205500D01*
X130170500Y-64205500D01*
X130237539Y-64225185D01*
X130283294Y-64277989D01*
X130294500Y-64329500D01*
X130294500Y-136876007D01*
X130299197Y-136919686D01*
X130310397Y-136971174D01*
X130312890Y-136981372D01*
X130312891Y-136981375D01*
X130355899Y-137062083D01*
X130355901Y-137062086D01*
X130401660Y-137114895D01*
X130419242Y-137132839D01*
X130419246Y-137132843D01*
X130419247Y-137132844D01*
X130419249Y-137132845D01*
X130490973Y-137172965D01*
X130499063Y-137177490D01*
X130566102Y-137197175D01*
X130624000Y-137205500D01*
X130624004Y-137205500D01*
X139375500Y-137205500D01*
X139442539Y-137225185D01*
X139488294Y-137277989D01*
X139499500Y-137329500D01*
X139499500Y-149375500D01*
X139479815Y-149442539D01*
X139427011Y-149488294D01*
X139375500Y-149499500D01*
X109297821Y-149499500D01*
X109230782Y-149479815D01*
X109185027Y-149427011D01*
X109175083Y-149357853D01*
X109186821Y-149320228D01*
X109280816Y-149131461D01*
X109280817Y-149131459D01*
X109317149Y-149003761D01*
X109354426Y-148944673D01*
X109391622Y-148922072D01*
X109418202Y-148911775D01*
X109418201Y-148911775D01*
X109418210Y-148911772D01*
X109603432Y-148797088D01*
X109764427Y-148650322D01*
X109895712Y-148476472D01*
X109992817Y-148281459D01*
X110052435Y-148071923D01*
X110072536Y-147855000D01*
X110052435Y-147638077D01*
X109992817Y-147428541D01*
X109895712Y-147233528D01*
X109796545Y-147102209D01*
X109771854Y-147036850D01*
X109771500Y-147027484D01*
X109771500Y-143972966D01*
X109791185Y-143905927D01*
X109807819Y-143885285D01*
X111488819Y-142204286D01*
X111550142Y-142170801D01*
X111619834Y-142175785D01*
X111675767Y-142217657D01*
X111700184Y-142283121D01*
X111700500Y-142291967D01*
X111700500Y-145596235D01*
X111687500Y-145651506D01*
X111639186Y-145748532D01*
X111639182Y-145748542D01*
X111579564Y-145958081D01*
X111559464Y-146174999D01*
X111559464Y-146175000D01*
X111579564Y-146391918D01*
X111579564Y-146391920D01*
X111579565Y-146391923D01*
X111639183Y-146601459D01*
X111736288Y-146796472D01*
X111867573Y-146970322D01*
X112028568Y-147117088D01*
X112028575Y-147117092D01*
X112028576Y-147117093D01*
X112213786Y-147231770D01*
X112213792Y-147231773D01*
X112236664Y-147240633D01*
X112416931Y-147310470D01*
X112631074Y-147350500D01*
X112631076Y-147350500D01*
X112848924Y-147350500D01*
X112848926Y-147350500D01*
X113063069Y-147310470D01*
X113266210Y-147231772D01*
X113451432Y-147117088D01*
X113612427Y-146970322D01*
X113743712Y-146796472D01*
X113840817Y-146601459D01*
X113879874Y-146464185D01*
X113917152Y-146405093D01*
X113951135Y-146384446D01*
X113951076Y-146384328D01*
X113952484Y-146383626D01*
X113954353Y-146382491D01*
X113956210Y-146381772D01*
X114141432Y-146267088D01*
X114302427Y-146120322D01*
X114433712Y-145946472D01*
X114530817Y-145751459D01*
X114590435Y-145541923D01*
X114610536Y-145325000D01*
X114590435Y-145108077D01*
X114530817Y-144898541D01*
X114433712Y-144703528D01*
X114334545Y-144572209D01*
X114309854Y-144506850D01*
X114309500Y-144497484D01*
X114309500Y-142396804D01*
X114654500Y-142396804D01*
X114654500Y-142643197D01*
X114672487Y-142779815D01*
X114686659Y-142887460D01*
X114707922Y-142966814D01*
X114750425Y-143125441D01*
X114844708Y-143353059D01*
X114844712Y-143353069D01*
X114967899Y-143566435D01*
X115117883Y-143761899D01*
X115117889Y-143761906D01*
X115292094Y-143936111D01*
X115292101Y-143936117D01*
X115487565Y-144086101D01*
X115700931Y-144209288D01*
X115700932Y-144209288D01*
X115700935Y-144209290D01*
X115928558Y-144303575D01*
X116166541Y-144367342D01*
X116410811Y-144399501D01*
X116410818Y-144399501D01*
X116657182Y-144399501D01*
X116657189Y-144399501D01*
X116901459Y-144367342D01*
X117139442Y-144303575D01*
X117367065Y-144209290D01*
X117580435Y-144086101D01*
X117775900Y-143936116D01*
X117950115Y-143761901D01*
X118100100Y-143566436D01*
X118223289Y-143353066D01*
X118317574Y-143125443D01*
X118381341Y-142887460D01*
X118413500Y-142643190D01*
X118413500Y-142396812D01*
X118381341Y-142152542D01*
X118317574Y-141914559D01*
X118223289Y-141686936D01*
X118100100Y-141473566D01*
X117950116Y-141278102D01*
X117950110Y-141278095D01*
X117775905Y-141103890D01*
X117775898Y-141103884D01*
X117580434Y-140953900D01*
X117367068Y-140830713D01*
X117367058Y-140830709D01*
X117139440Y-140736426D01*
X116976100Y-140692660D01*
X116901459Y-140672660D01*
X116860636Y-140667285D01*
X116657196Y-140640501D01*
X116657189Y-140640501D01*
X116410811Y-140640501D01*
X116410803Y-140640501D01*
X116178299Y-140671111D01*
X116166541Y-140672660D01*
X116116246Y-140686136D01*
X115928559Y-140736426D01*
X115700941Y-140830709D01*
X115700931Y-140830713D01*
X115487565Y-140953900D01*
X115292101Y-141103884D01*
X115292094Y-141103890D01*
X115117889Y-141278095D01*
X115117883Y-141278102D01*
X114967899Y-141473566D01*
X114844712Y-141686932D01*
X114844708Y-141686942D01*
X114750425Y-141914560D01*
X114686660Y-142152539D01*
X114686658Y-142152550D01*
X114654500Y-142396804D01*
X114309500Y-142396804D01*
X114309500Y-140981501D01*
X114329185Y-140914462D01*
X114381989Y-140868707D01*
X114433500Y-140857501D01*
X114506559Y-140857501D01*
X114513957Y-140856029D01*
X114543748Y-140850103D01*
X114585922Y-140821923D01*
X114614102Y-140779749D01*
X114621500Y-140742559D01*
X114621500Y-140553794D01*
X114641185Y-140486755D01*
X114642399Y-140484902D01*
X114654559Y-140466704D01*
X114732014Y-140279712D01*
X114751162Y-140183451D01*
X114771501Y-140081203D01*
X114771501Y-139878797D01*
X114732015Y-139680295D01*
X114732014Y-139680294D01*
X114732014Y-139680290D01*
X114654559Y-139493297D01*
X114654558Y-139493295D01*
X114642397Y-139475094D01*
X114621520Y-139408416D01*
X114621500Y-139406205D01*
X114621500Y-139217442D01*
X114619662Y-139208206D01*
X114614102Y-139180253D01*
X114614101Y-139180251D01*
X114585922Y-139138078D01*
X114543749Y-139109899D01*
X114506559Y-139102501D01*
X114506558Y-139102501D01*
X114317795Y-139102501D01*
X114250756Y-139082816D01*
X114248935Y-139081624D01*
X114230704Y-139069442D01*
X114230701Y-139069440D01*
X114230700Y-139069440D01*
X114043711Y-138991987D01*
X114043705Y-138991985D01*
X113855308Y-138954509D01*
X113793397Y-138922123D01*
X113758823Y-138861407D01*
X113755500Y-138832892D01*
X113755500Y-138098799D01*
X113755499Y-138098795D01*
X113716015Y-137900296D01*
X113716014Y-137900289D01*
X113649683Y-137740152D01*
X113645580Y-137730247D01*
X123809500Y-137730247D01*
X123809500Y-139769752D01*
X123821131Y-139828229D01*
X123821132Y-139828230D01*
X123865447Y-139894552D01*
X123931769Y-139938867D01*
X123931770Y-139938868D01*
X123990247Y-139950499D01*
X123990250Y-139950500D01*
X123990252Y-139950500D01*
X124929750Y-139950500D01*
X124929751Y-139950499D01*
X124944568Y-139947552D01*
X124988229Y-139938868D01*
X124988229Y-139938867D01*
X124988231Y-139938867D01*
X125054552Y-139894552D01*
X125098867Y-139828231D01*
X125098867Y-139828229D01*
X125098868Y-139828229D01*
X125110499Y-139769752D01*
X125110500Y-139769750D01*
X125110500Y-137730249D01*
X125110499Y-137730247D01*
X137309500Y-137730247D01*
X137309500Y-139769752D01*
X137321131Y-139828229D01*
X137321132Y-139828230D01*
X137365447Y-139894552D01*
X137431769Y-139938867D01*
X137431770Y-139938868D01*
X137490247Y-139950499D01*
X137490250Y-139950500D01*
X137490252Y-139950500D01*
X138429750Y-139950500D01*
X138429751Y-139950499D01*
X138444568Y-139947552D01*
X138488229Y-139938868D01*
X138488229Y-139938867D01*
X138488231Y-139938867D01*
X138554552Y-139894552D01*
X138598867Y-139828231D01*
X138598867Y-139828229D01*
X138598868Y-139828229D01*
X138610499Y-139769752D01*
X138610500Y-139769750D01*
X138610500Y-137730249D01*
X138610499Y-137730247D01*
X138598868Y-137671770D01*
X138598867Y-137671769D01*
X138554552Y-137605447D01*
X138488230Y-137561132D01*
X138488229Y-137561131D01*
X138429752Y-137549500D01*
X138429748Y-137549500D01*
X137490252Y-137549500D01*
X137490247Y-137549500D01*
X137431770Y-137561131D01*
X137431769Y-137561132D01*
X137365447Y-137605447D01*
X137321132Y-137671769D01*
X137321131Y-137671770D01*
X137309500Y-137730247D01*
X125110499Y-137730247D01*
X125098868Y-137671770D01*
X125098867Y-137671769D01*
X125054552Y-137605447D01*
X124988230Y-137561132D01*
X124988229Y-137561131D01*
X124929752Y-137549500D01*
X124929748Y-137549500D01*
X123990252Y-137549500D01*
X123990247Y-137549500D01*
X123931770Y-137561131D01*
X123931769Y-137561132D01*
X123865447Y-137605447D01*
X123821132Y-137671769D01*
X123821131Y-137671770D01*
X123809500Y-137730247D01*
X113645580Y-137730247D01*
X113638560Y-137713298D01*
X113638555Y-137713289D01*
X113526112Y-137545007D01*
X113526109Y-137545003D01*
X113382996Y-137401890D01*
X113382992Y-137401887D01*
X113214710Y-137289444D01*
X113214701Y-137289439D01*
X113027711Y-137211986D01*
X113027703Y-137211984D01*
X112829204Y-137172500D01*
X112829200Y-137172500D01*
X112626800Y-137172500D01*
X112626795Y-137172500D01*
X112428296Y-137211984D01*
X112428288Y-137211986D01*
X112241298Y-137289439D01*
X112241289Y-137289444D01*
X112073007Y-137401887D01*
X112073003Y-137401890D01*
X111929890Y-137545003D01*
X111929887Y-137545007D01*
X111815102Y-137716795D01*
X111761490Y-137761600D01*
X111692165Y-137770307D01*
X111629137Y-137740152D01*
X111608898Y-137716795D01*
X111494112Y-137545007D01*
X111494109Y-137545003D01*
X111350996Y-137401890D01*
X111350992Y-137401887D01*
X111182710Y-137289444D01*
X111182701Y-137289439D01*
X110995711Y-137211986D01*
X110995703Y-137211984D01*
X110797204Y-137172500D01*
X110797200Y-137172500D01*
X110594800Y-137172500D01*
X110594795Y-137172500D01*
X110396296Y-137211984D01*
X110396288Y-137211986D01*
X110209298Y-137289439D01*
X110209289Y-137289444D01*
X110041007Y-137401887D01*
X110041003Y-137401890D01*
X109897890Y-137545003D01*
X109897887Y-137545007D01*
X109785444Y-137713289D01*
X109785439Y-137713299D01*
X109714046Y-137885657D01*
X109670205Y-137940060D01*
X109603911Y-137962125D01*
X109536211Y-137944846D01*
X109488601Y-137893708D01*
X109481554Y-137876521D01*
X109470055Y-137841130D01*
X109470052Y-137841123D01*
X109470052Y-137841122D01*
X109377823Y-137681377D01*
X109254397Y-137544298D01*
X109164332Y-137478862D01*
X109105170Y-137435878D01*
X109105169Y-137435877D01*
X109105167Y-137435876D01*
X108936656Y-137360850D01*
X108936655Y-137360849D01*
X108936651Y-137360848D01*
X108756229Y-137322500D01*
X108571771Y-137322500D01*
X108391348Y-137360848D01*
X108346423Y-137380850D01*
X108299174Y-137401887D01*
X108222829Y-137435878D01*
X108073601Y-137544299D01*
X107950176Y-137681378D01*
X107857948Y-137841121D01*
X107857945Y-137841128D01*
X107800948Y-138016548D01*
X107800947Y-138016552D01*
X107781666Y-138200000D01*
X107800947Y-138383448D01*
X107800948Y-138383451D01*
X107857945Y-138558871D01*
X107857948Y-138558878D01*
X107950177Y-138718623D01*
X108073603Y-138855702D01*
X108222833Y-138964124D01*
X108391344Y-139039150D01*
X108391347Y-139039150D01*
X108391348Y-139039151D01*
X108420183Y-139045279D01*
X108571771Y-139077500D01*
X108756228Y-139077500D01*
X108756229Y-139077500D01*
X108820659Y-139063805D01*
X108890324Y-139069121D01*
X108946058Y-139111258D01*
X108970163Y-139176837D01*
X108954986Y-139245039D01*
X108934120Y-139272775D01*
X108881892Y-139325003D01*
X108881888Y-139325008D01*
X108769439Y-139493299D01*
X108698046Y-139665658D01*
X108654205Y-139720061D01*
X108587911Y-139742126D01*
X108520211Y-139724847D01*
X108472601Y-139673709D01*
X108465554Y-139656522D01*
X108454055Y-139621131D01*
X108454053Y-139621127D01*
X108454052Y-139621123D01*
X108361823Y-139461378D01*
X108238397Y-139324299D01*
X108116693Y-139235876D01*
X108089170Y-139215879D01*
X108089169Y-139215878D01*
X108089167Y-139215877D01*
X107920656Y-139140851D01*
X107920655Y-139140850D01*
X107920651Y-139140849D01*
X107740229Y-139102501D01*
X107555771Y-139102501D01*
X107375347Y-139140850D01*
X107375344Y-139140850D01*
X107274431Y-139185780D01*
X107223996Y-139196500D01*
X107133457Y-139196500D01*
X107066418Y-139176815D01*
X107020663Y-139124011D01*
X107010719Y-139054853D01*
X107039744Y-138991297D01*
X107067954Y-138968005D01*
X107067910Y-138967945D01*
X107068890Y-138967232D01*
X107071459Y-138965112D01*
X107073164Y-138964127D01*
X107073164Y-138964126D01*
X107073168Y-138964125D01*
X107222398Y-138855703D01*
X107345824Y-138718624D01*
X107438053Y-138558879D01*
X107495054Y-138383449D01*
X107514335Y-138200001D01*
X107495054Y-138016553D01*
X107438053Y-137841123D01*
X107345824Y-137681378D01*
X107227081Y-137549500D01*
X107222399Y-137544300D01*
X107222396Y-137544298D01*
X107073168Y-137435877D01*
X106904657Y-137360851D01*
X106904656Y-137360850D01*
X106904652Y-137360849D01*
X106724230Y-137322501D01*
X106539772Y-137322501D01*
X106359349Y-137360849D01*
X106275089Y-137398364D01*
X106190837Y-137435876D01*
X106190830Y-137435879D01*
X106041602Y-137544300D01*
X105918177Y-137681379D01*
X105825949Y-137841122D01*
X105825946Y-137841129D01*
X105768949Y-138016549D01*
X105768948Y-138016553D01*
X105749667Y-138200001D01*
X105768948Y-138383449D01*
X105768949Y-138383451D01*
X105768949Y-138383452D01*
X105825946Y-138558872D01*
X105825949Y-138558879D01*
X105874805Y-138643500D01*
X105891278Y-138711400D01*
X105868425Y-138777427D01*
X105813504Y-138820618D01*
X105767418Y-138829500D01*
X105534117Y-138829500D01*
X105467078Y-138809815D01*
X105446436Y-138793181D01*
X103596534Y-136943279D01*
X103596532Y-136943276D01*
X103529794Y-136876538D01*
X103529792Y-136876536D01*
X103456709Y-136834341D01*
X103375196Y-136812500D01*
X103375195Y-136812500D01*
X100536134Y-136812500D01*
X100469095Y-136792815D01*
X100448453Y-136776181D01*
X100340319Y-136668047D01*
X100306834Y-136606724D01*
X100304000Y-136580366D01*
X100304000Y-133380001D01*
X102441666Y-133380001D01*
X102460947Y-133563449D01*
X102460948Y-133563452D01*
X102517945Y-133738872D01*
X102517948Y-133738879D01*
X102610177Y-133898624D01*
X102733603Y-134035703D01*
X102882833Y-134144125D01*
X103051344Y-134219151D01*
X103051347Y-134219151D01*
X103051348Y-134219152D01*
X103080183Y-134225280D01*
X103231771Y-134257501D01*
X103416229Y-134257501D01*
X103596656Y-134219151D01*
X103765167Y-134144125D01*
X103914397Y-134035703D01*
X104037823Y-133898624D01*
X104130052Y-133738879D01*
X104187053Y-133563449D01*
X104206334Y-133380001D01*
X113871666Y-133380001D01*
X113890947Y-133563449D01*
X113890948Y-133563452D01*
X113947945Y-133738872D01*
X113947948Y-133738879D01*
X114040177Y-133898624D01*
X114163603Y-134035703D01*
X114312833Y-134144125D01*
X114481344Y-134219151D01*
X114481347Y-134219151D01*
X114481348Y-134219152D01*
X114510183Y-134225280D01*
X114661771Y-134257501D01*
X114846229Y-134257501D01*
X115026656Y-134219151D01*
X115195167Y-134144125D01*
X115344397Y-134035703D01*
X115467823Y-133898624D01*
X115560052Y-133738879D01*
X115617053Y-133563449D01*
X115636334Y-133380001D01*
X116161666Y-133380001D01*
X116180947Y-133563449D01*
X116180948Y-133563452D01*
X116237945Y-133738872D01*
X116237948Y-133738879D01*
X116330177Y-133898624D01*
X116453603Y-134035703D01*
X116602833Y-134144125D01*
X116771344Y-134219151D01*
X116771347Y-134219151D01*
X116771348Y-134219152D01*
X116800183Y-134225280D01*
X116951771Y-134257501D01*
X117136229Y-134257501D01*
X117316656Y-134219151D01*
X117485167Y-134144125D01*
X117634397Y-134035703D01*
X117757823Y-133898624D01*
X117850052Y-133738879D01*
X117907053Y-133563449D01*
X117926334Y-133380001D01*
X117907053Y-133196553D01*
X117850052Y-133021123D01*
X117757823Y-132861378D01*
X117634397Y-132724299D01*
X117485167Y-132615877D01*
X117316656Y-132540851D01*
X117316655Y-132540850D01*
X117316651Y-132540849D01*
X117136229Y-132502501D01*
X116951771Y-132502501D01*
X116771348Y-132540849D01*
X116602829Y-132615879D01*
X116453601Y-132724300D01*
X116330176Y-132861379D01*
X116237948Y-133021122D01*
X116237945Y-133021129D01*
X116180948Y-133196549D01*
X116180947Y-133196553D01*
X116161666Y-133380001D01*
X115636334Y-133380001D01*
X115617053Y-133196553D01*
X115560052Y-133021123D01*
X115467823Y-132861378D01*
X115344397Y-132724299D01*
X115195167Y-132615877D01*
X115026656Y-132540851D01*
X115026655Y-132540850D01*
X115026651Y-132540849D01*
X114846229Y-132502501D01*
X114661771Y-132502501D01*
X114481348Y-132540849D01*
X114312829Y-132615879D01*
X114163601Y-132724300D01*
X114040176Y-132861379D01*
X113947948Y-133021122D01*
X113947945Y-133021129D01*
X113890948Y-133196549D01*
X113890947Y-133196553D01*
X113871666Y-133380001D01*
X104206334Y-133380001D01*
X104187053Y-133196553D01*
X104130052Y-133021123D01*
X104037823Y-132861378D01*
X103914397Y-132724299D01*
X103765167Y-132615877D01*
X103596656Y-132540851D01*
X103596655Y-132540850D01*
X103596651Y-132540849D01*
X103416229Y-132502501D01*
X103231771Y-132502501D01*
X103051348Y-132540849D01*
X102882829Y-132615879D01*
X102733601Y-132724300D01*
X102610176Y-132861379D01*
X102517948Y-133021122D01*
X102517945Y-133021129D01*
X102460948Y-133196549D01*
X102460947Y-133196553D01*
X102441666Y-133380001D01*
X100304000Y-133380001D01*
X100304000Y-131530127D01*
X100323685Y-131463088D01*
X100340314Y-131442451D01*
X102049083Y-129733681D01*
X102049088Y-129733678D01*
X102059291Y-129723474D01*
X102059293Y-129723474D01*
X102118965Y-129663802D01*
X102161160Y-129590719D01*
X102171978Y-129550345D01*
X102183002Y-129509204D01*
X102183002Y-129424815D01*
X102183002Y-129417220D01*
X102183001Y-129417202D01*
X102183001Y-128930247D01*
X106944500Y-128930247D01*
X106944500Y-130669752D01*
X106956131Y-130728229D01*
X106956132Y-130728230D01*
X107000447Y-130794552D01*
X107066769Y-130838867D01*
X107066770Y-130838868D01*
X107125247Y-130850499D01*
X107125250Y-130850500D01*
X107125252Y-130850500D01*
X108864750Y-130850500D01*
X108864751Y-130850499D01*
X108879568Y-130847552D01*
X108923229Y-130838868D01*
X108923229Y-130838867D01*
X108923231Y-130838867D01*
X108989552Y-130794552D01*
X109033867Y-130728231D01*
X109033867Y-130728229D01*
X109033868Y-130728229D01*
X109045499Y-130669752D01*
X109045500Y-130669750D01*
X109045500Y-129000020D01*
X109065185Y-128932981D01*
X109117989Y-128887226D01*
X109169500Y-128876020D01*
X109208404Y-128876020D01*
X109208406Y-128876020D01*
X109422549Y-128835990D01*
X109625690Y-128757292D01*
X109810912Y-128642608D01*
X109971907Y-128495842D01*
X110103192Y-128321992D01*
X110200297Y-128126979D01*
X110208044Y-128099748D01*
X110239628Y-128046001D01*
X114030236Y-124255393D01*
X114073120Y-124227449D01*
X114176210Y-124187513D01*
X114361432Y-124072829D01*
X114522427Y-123926063D01*
X114653712Y-123752213D01*
X114750817Y-123557200D01*
X114810435Y-123347664D01*
X114822265Y-123219995D01*
X115604732Y-123219995D01*
X115604732Y-123220004D01*
X115623777Y-123474154D01*
X115642732Y-123557203D01*
X115680492Y-123722637D01*
X115773607Y-123959888D01*
X115901041Y-124180612D01*
X116059950Y-124379877D01*
X116219841Y-124528234D01*
X116255596Y-124588261D01*
X116259500Y-124619132D01*
X116259500Y-127820716D01*
X116254766Y-127854650D01*
X116239565Y-127908074D01*
X116239564Y-127908077D01*
X116219464Y-128124999D01*
X116219464Y-128125000D01*
X116239564Y-128341918D01*
X116239564Y-128341920D01*
X116239565Y-128341923D01*
X116265016Y-128431374D01*
X116299184Y-128551462D01*
X116383718Y-128721229D01*
X116396288Y-128746472D01*
X116527573Y-128920322D01*
X116688568Y-129067088D01*
X116688575Y-129067092D01*
X116688576Y-129067093D01*
X116873786Y-129181770D01*
X116873792Y-129181773D01*
X116896664Y-129190633D01*
X117076931Y-129260470D01*
X117291074Y-129300500D01*
X117291076Y-129300500D01*
X117408932Y-129300500D01*
X117475971Y-129320185D01*
X117521726Y-129372989D01*
X117531670Y-129442147D01*
X117507886Y-129499226D01*
X117425206Y-129608711D01*
X117328101Y-129803724D01*
X117268481Y-130013268D01*
X117248381Y-130230186D01*
X117248381Y-130230187D01*
X117268481Y-130447105D01*
X117268481Y-130447107D01*
X117268482Y-130447110D01*
X117324659Y-130644552D01*
X117328101Y-130656649D01*
X117363745Y-130728231D01*
X117425205Y-130851659D01*
X117556490Y-131025509D01*
X117717485Y-131172275D01*
X117717492Y-131172279D01*
X117717493Y-131172280D01*
X117902703Y-131286957D01*
X117902709Y-131286960D01*
X117925581Y-131295820D01*
X118105848Y-131365657D01*
X118319991Y-131405687D01*
X118319993Y-131405687D01*
X118537841Y-131405687D01*
X118537843Y-131405687D01*
X118751986Y-131365657D01*
X118955127Y-131286959D01*
X119140349Y-131172275D01*
X119301344Y-131025509D01*
X119432629Y-130851659D01*
X119529734Y-130656646D01*
X119537481Y-130629415D01*
X119569065Y-130575668D01*
X120665977Y-129478759D01*
X120780942Y-129306702D01*
X120860130Y-129115524D01*
X120883106Y-129000020D01*
X120900501Y-128912571D01*
X120900501Y-128700529D01*
X120900500Y-128700503D01*
X120900500Y-124619132D01*
X120920185Y-124552093D01*
X120940156Y-124528235D01*
X121100050Y-124379877D01*
X121258959Y-124180612D01*
X121386393Y-123959888D01*
X121479508Y-123722637D01*
X121536222Y-123474157D01*
X121545701Y-123347664D01*
X121555268Y-123220004D01*
X121555268Y-123219995D01*
X121536222Y-122965845D01*
X121524348Y-122913822D01*
X121479508Y-122717363D01*
X121386393Y-122480112D01*
X121258959Y-122259388D01*
X121100050Y-122060123D01*
X120913217Y-121886768D01*
X120702634Y-121743195D01*
X120702630Y-121743193D01*
X120702627Y-121743191D01*
X120702626Y-121743190D01*
X120473006Y-121632612D01*
X120473008Y-121632612D01*
X120229466Y-121557489D01*
X120229462Y-121557488D01*
X120229458Y-121557487D01*
X120108231Y-121539214D01*
X119977440Y-121519500D01*
X119977435Y-121519500D01*
X119722565Y-121519500D01*
X119722559Y-121519500D01*
X119565609Y-121543157D01*
X119470542Y-121557487D01*
X119470539Y-121557488D01*
X119470533Y-121557489D01*
X119226992Y-121632612D01*
X118997373Y-121743190D01*
X118997372Y-121743191D01*
X118786782Y-121886768D01*
X118664341Y-122000377D01*
X118601808Y-122031545D01*
X118532352Y-122023958D01*
X118495659Y-122000377D01*
X118373217Y-121886768D01*
X118162634Y-121743195D01*
X118162630Y-121743193D01*
X118162627Y-121743191D01*
X118162626Y-121743190D01*
X117933006Y-121632612D01*
X117933008Y-121632612D01*
X117689466Y-121557489D01*
X117689462Y-121557488D01*
X117689458Y-121557487D01*
X117568231Y-121539214D01*
X117437440Y-121519500D01*
X117437435Y-121519500D01*
X117182565Y-121519500D01*
X117182559Y-121519500D01*
X117025609Y-121543157D01*
X116930542Y-121557487D01*
X116930539Y-121557488D01*
X116930533Y-121557489D01*
X116686992Y-121632612D01*
X116457373Y-121743190D01*
X116457372Y-121743191D01*
X116246782Y-121886768D01*
X116059952Y-122060121D01*
X116059950Y-122060123D01*
X115901041Y-122259388D01*
X115773608Y-122480109D01*
X115680492Y-122717362D01*
X115680490Y-122717369D01*
X115623777Y-122965845D01*
X115604732Y-123219995D01*
X114822265Y-123219995D01*
X114830536Y-123130741D01*
X114810435Y-122913818D01*
X114750817Y-122704282D01*
X114653712Y-122509269D01*
X114522427Y-122335419D01*
X114361432Y-122188653D01*
X114361428Y-122188650D01*
X114361423Y-122188647D01*
X114176213Y-122073970D01*
X114176207Y-122073967D01*
X114091113Y-122041001D01*
X113973069Y-121995271D01*
X113758926Y-121955241D01*
X113541074Y-121955241D01*
X113326931Y-121995271D01*
X113278130Y-122014176D01*
X113123792Y-122073967D01*
X113123786Y-122073970D01*
X112938576Y-122188647D01*
X112938566Y-122188654D01*
X112777574Y-122335417D01*
X112646288Y-122509268D01*
X112549184Y-122704277D01*
X112533776Y-122758431D01*
X112502191Y-122812176D01*
X108750681Y-126563686D01*
X108707795Y-126591631D01*
X108573270Y-126643748D01*
X108573266Y-126643750D01*
X108388056Y-126758426D01*
X108388046Y-126758433D01*
X108227054Y-126905196D01*
X108095768Y-127079047D01*
X107998664Y-127274057D01*
X107989774Y-127305303D01*
X107940110Y-127479856D01*
X107939044Y-127483601D01*
X107918944Y-127700519D01*
X107918944Y-127700520D01*
X107939044Y-127917438D01*
X107939044Y-127917440D01*
X107939045Y-127917443D01*
X107998100Y-128124999D01*
X107998664Y-128126982D01*
X108095768Y-128321992D01*
X108227053Y-128495842D01*
X108268761Y-128533863D01*
X108305041Y-128593573D01*
X108303281Y-128663421D01*
X108264038Y-128721229D01*
X108199771Y-128748643D01*
X108185222Y-128749500D01*
X107125247Y-128749500D01*
X107066770Y-128761131D01*
X107066769Y-128761132D01*
X107000447Y-128805447D01*
X106956132Y-128871769D01*
X106956131Y-128871770D01*
X106944500Y-128930247D01*
X102183001Y-128930247D01*
X102183001Y-127305308D01*
X102183001Y-127305305D01*
X102161160Y-127223791D01*
X102118965Y-127150708D01*
X102059293Y-127091036D01*
X102059292Y-127091035D01*
X101529034Y-126560778D01*
X101529033Y-126560776D01*
X101462295Y-126494038D01*
X101462293Y-126494036D01*
X101389210Y-126451841D01*
X101307697Y-126430000D01*
X101307696Y-126430000D01*
X100582313Y-126430000D01*
X100515274Y-126410315D01*
X100469519Y-126357511D01*
X100467801Y-126352734D01*
X100467584Y-126352825D01*
X100411525Y-126217485D01*
X100411524Y-126217484D01*
X100411524Y-126217483D01*
X100327291Y-126107709D01*
X100327289Y-126107708D01*
X100327289Y-126107707D01*
X100217515Y-126023474D01*
X100089686Y-125970527D01*
X100089684Y-125970526D01*
X100089683Y-125970526D01*
X99998227Y-125958485D01*
X99952501Y-125952465D01*
X99952499Y-125952465D01*
X99883908Y-125961495D01*
X99815317Y-125970526D01*
X99815316Y-125970526D01*
X99815313Y-125970527D01*
X99687485Y-126023474D01*
X99577709Y-126107709D01*
X99493474Y-126217485D01*
X99440527Y-126345313D01*
X99440526Y-126345318D01*
X99422465Y-126482499D01*
X99422465Y-126482500D01*
X99440526Y-126619681D01*
X99440527Y-126619686D01*
X99493474Y-126747515D01*
X99493475Y-126747517D01*
X99493476Y-126747518D01*
X99546447Y-126816550D01*
X99571641Y-126881720D01*
X99557603Y-126950164D01*
X99546447Y-126967523D01*
X99503416Y-127023602D01*
X99503414Y-127023604D01*
X99450467Y-127151433D01*
X99450466Y-127151436D01*
X99450466Y-127151437D01*
X99432405Y-127288620D01*
X99448926Y-127414108D01*
X99450466Y-127425801D01*
X99450467Y-127425806D01*
X99503414Y-127553635D01*
X99503415Y-127553636D01*
X99503416Y-127553638D01*
X99587649Y-127663411D01*
X99697422Y-127747644D01*
X99825257Y-127800594D01*
X99948142Y-127816772D01*
X99962439Y-127818655D01*
X99962440Y-127818655D01*
X99962441Y-127818655D01*
X99975387Y-127816950D01*
X100099623Y-127800594D01*
X100227458Y-127747644D01*
X100337231Y-127663411D01*
X100421464Y-127553638D01*
X100437655Y-127514546D01*
X100481494Y-127460145D01*
X100547788Y-127438079D01*
X100552216Y-127438000D01*
X100929368Y-127438000D01*
X100996407Y-127457685D01*
X101017049Y-127474319D01*
X101138682Y-127595952D01*
X101172167Y-127657275D01*
X101175001Y-127683633D01*
X101175001Y-129130875D01*
X101155316Y-129197914D01*
X101138682Y-129218556D01*
X99360038Y-130997199D01*
X99360036Y-130997202D01*
X99317841Y-131070284D01*
X99296000Y-131151797D01*
X99296000Y-136958696D01*
X99299349Y-136971195D01*
X99317841Y-137040209D01*
X99360036Y-137113292D01*
X99360038Y-137113294D01*
X99426773Y-137180029D01*
X99426779Y-137180034D01*
X99939195Y-137692450D01*
X99939205Y-137692461D01*
X99943535Y-137696791D01*
X99943536Y-137696792D01*
X100003208Y-137756464D01*
X100033742Y-137774093D01*
X100076292Y-137798660D01*
X100157806Y-137820501D01*
X100157809Y-137820501D01*
X100249791Y-137820501D01*
X100249807Y-137820500D01*
X102996867Y-137820500D01*
X103063906Y-137840185D01*
X103084548Y-137856819D01*
X104937179Y-139709450D01*
X104937189Y-139709461D01*
X104941519Y-139713791D01*
X104941520Y-139713792D01*
X105001192Y-139773464D01*
X105074275Y-139815659D01*
X105087641Y-139819240D01*
X105096112Y-139821510D01*
X105096117Y-139821511D01*
X105155790Y-139837501D01*
X105155791Y-139837501D01*
X105247775Y-139837501D01*
X105247791Y-139837500D01*
X106642928Y-139837500D01*
X106709967Y-139857185D01*
X106755722Y-139909989D01*
X106766247Y-139974465D01*
X106765666Y-139980001D01*
X106784947Y-140163449D01*
X106784948Y-140163452D01*
X106841945Y-140338872D01*
X106841947Y-140338876D01*
X106841948Y-140338879D01*
X106934177Y-140498624D01*
X106983852Y-140553794D01*
X107056964Y-140634994D01*
X107057603Y-140635703D01*
X107206833Y-140744125D01*
X107375344Y-140819151D01*
X107375347Y-140819151D01*
X107375348Y-140819152D01*
X107404183Y-140825280D01*
X107555771Y-140857501D01*
X107740229Y-140857501D01*
X107920656Y-140819151D01*
X108089167Y-140744125D01*
X108238397Y-140635703D01*
X108361823Y-140498624D01*
X108454052Y-140338879D01*
X108465554Y-140303477D01*
X108504990Y-140245804D01*
X108569348Y-140218605D01*
X108638194Y-140230518D01*
X108689671Y-140277761D01*
X108698046Y-140294343D01*
X108769439Y-140466702D01*
X108881888Y-140634993D01*
X108881891Y-140634997D01*
X109037476Y-140790582D01*
X109070961Y-140851905D01*
X109065977Y-140921597D01*
X109037476Y-140965944D01*
X108242592Y-141760829D01*
X107535009Y-142468412D01*
X107535007Y-142468414D01*
X107463446Y-142539974D01*
X107391886Y-142611534D01*
X107279444Y-142779815D01*
X107279439Y-142779824D01*
X107201986Y-142966814D01*
X107201984Y-142966822D01*
X107162500Y-143165321D01*
X107162500Y-148082053D01*
X107149500Y-148137325D01*
X107079184Y-148278537D01*
X107019564Y-148488081D01*
X106999464Y-148704999D01*
X106999464Y-148705000D01*
X107019564Y-148921918D01*
X107019564Y-148921920D01*
X107019565Y-148921923D01*
X107079183Y-149131459D01*
X107079184Y-149131462D01*
X107173179Y-149320228D01*
X107185440Y-149389013D01*
X107158567Y-149453508D01*
X107101091Y-149493236D01*
X107062179Y-149499500D01*
X80624500Y-149499500D01*
X80557461Y-149479815D01*
X80511706Y-149427011D01*
X80500500Y-149375500D01*
X80500500Y-142416803D01*
X82306500Y-142416803D01*
X82306500Y-142663196D01*
X82321854Y-142779815D01*
X82338659Y-142907459D01*
X82354565Y-142966822D01*
X82402425Y-143145440D01*
X82496708Y-143373058D01*
X82496712Y-143373068D01*
X82619899Y-143586434D01*
X82769883Y-143781898D01*
X82769889Y-143781905D01*
X82944094Y-143956110D01*
X82944101Y-143956116D01*
X83139565Y-144106100D01*
X83352931Y-144229287D01*
X83352932Y-144229287D01*
X83352935Y-144229289D01*
X83580558Y-144323574D01*
X83818541Y-144387341D01*
X84062811Y-144419500D01*
X84062818Y-144419500D01*
X84309182Y-144419500D01*
X84309189Y-144419500D01*
X84553459Y-144387341D01*
X84791442Y-144323574D01*
X85019065Y-144229289D01*
X85232435Y-144106100D01*
X85427900Y-143956115D01*
X85602115Y-143781900D01*
X85752100Y-143586435D01*
X85875289Y-143373065D01*
X85969574Y-143145442D01*
X86033341Y-142907459D01*
X86065500Y-142663189D01*
X86065500Y-142416811D01*
X86065499Y-142416803D01*
X95006500Y-142416803D01*
X95006500Y-142663196D01*
X95021854Y-142779815D01*
X95038659Y-142907459D01*
X95054565Y-142966822D01*
X95102425Y-143145440D01*
X95196708Y-143373058D01*
X95196712Y-143373068D01*
X95319899Y-143586434D01*
X95469883Y-143781898D01*
X95469889Y-143781905D01*
X95644094Y-143956110D01*
X95644101Y-143956116D01*
X95839565Y-144106100D01*
X96052931Y-144229287D01*
X96052932Y-144229287D01*
X96052935Y-144229289D01*
X96280558Y-144323574D01*
X96518541Y-144387341D01*
X96762811Y-144419500D01*
X96762818Y-144419500D01*
X97009182Y-144419500D01*
X97009189Y-144419500D01*
X97253459Y-144387341D01*
X97491442Y-144323574D01*
X97719065Y-144229289D01*
X97932435Y-144106100D01*
X98127900Y-143956115D01*
X98302115Y-143781900D01*
X98452100Y-143586435D01*
X98575289Y-143373065D01*
X98669574Y-143145442D01*
X98733341Y-142907459D01*
X98765500Y-142663189D01*
X98765500Y-142416811D01*
X98762866Y-142396804D01*
X101954500Y-142396804D01*
X101954500Y-142643197D01*
X101972487Y-142779815D01*
X101986659Y-142887460D01*
X102007922Y-142966814D01*
X102050425Y-143125441D01*
X102144708Y-143353059D01*
X102144712Y-143353069D01*
X102267899Y-143566435D01*
X102417883Y-143761899D01*
X102417889Y-143761906D01*
X102592094Y-143936111D01*
X102592101Y-143936117D01*
X102787565Y-144086101D01*
X103000931Y-144209288D01*
X103000932Y-144209288D01*
X103000935Y-144209290D01*
X103228558Y-144303575D01*
X103466541Y-144367342D01*
X103710811Y-144399501D01*
X103710818Y-144399501D01*
X103957182Y-144399501D01*
X103957189Y-144399501D01*
X104201459Y-144367342D01*
X104439442Y-144303575D01*
X104667065Y-144209290D01*
X104880435Y-144086101D01*
X105075900Y-143936116D01*
X105250115Y-143761901D01*
X105400100Y-143566436D01*
X105523289Y-143353066D01*
X105617574Y-143125443D01*
X105681341Y-142887460D01*
X105713500Y-142643190D01*
X105713500Y-142396812D01*
X105681341Y-142152542D01*
X105617574Y-141914559D01*
X105523289Y-141686936D01*
X105400100Y-141473566D01*
X105250116Y-141278102D01*
X105250110Y-141278095D01*
X105075905Y-141103890D01*
X105075898Y-141103884D01*
X104880434Y-140953900D01*
X104667068Y-140830713D01*
X104667058Y-140830709D01*
X104439440Y-140736426D01*
X104276100Y-140692660D01*
X104201459Y-140672660D01*
X104160636Y-140667285D01*
X103957196Y-140640501D01*
X103957189Y-140640501D01*
X103710811Y-140640501D01*
X103710803Y-140640501D01*
X103478299Y-140671111D01*
X103466541Y-140672660D01*
X103416246Y-140686136D01*
X103228559Y-140736426D01*
X103000941Y-140830709D01*
X103000931Y-140830713D01*
X102787565Y-140953900D01*
X102592101Y-141103884D01*
X102592094Y-141103890D01*
X102417889Y-141278095D01*
X102417883Y-141278102D01*
X102267899Y-141473566D01*
X102144712Y-141686932D01*
X102144708Y-141686942D01*
X102050425Y-141914560D01*
X101986660Y-142152539D01*
X101986658Y-142152550D01*
X101954500Y-142396804D01*
X98762866Y-142396804D01*
X98733341Y-142172541D01*
X98669574Y-141934558D01*
X98575289Y-141706935D01*
X98563740Y-141686932D01*
X98452100Y-141493565D01*
X98302116Y-141298101D01*
X98302110Y-141298094D01*
X98127905Y-141123889D01*
X98127898Y-141123883D01*
X97932434Y-140973899D01*
X97719068Y-140850712D01*
X97719058Y-140850708D01*
X97491440Y-140756425D01*
X97372450Y-140724542D01*
X97253459Y-140692659D01*
X97212636Y-140687284D01*
X97009196Y-140660500D01*
X97009189Y-140660500D01*
X96762811Y-140660500D01*
X96762803Y-140660500D01*
X96530299Y-140691110D01*
X96518541Y-140692659D01*
X96468246Y-140706135D01*
X96280559Y-140756425D01*
X96052941Y-140850708D01*
X96052931Y-140850712D01*
X95839565Y-140973899D01*
X95644101Y-141123883D01*
X95644094Y-141123889D01*
X95469889Y-141298094D01*
X95469883Y-141298101D01*
X95319899Y-141493565D01*
X95196712Y-141706931D01*
X95196708Y-141706941D01*
X95102425Y-141934559D01*
X95076664Y-142030704D01*
X95044019Y-142152539D01*
X95038660Y-142172538D01*
X95038658Y-142172549D01*
X95006500Y-142416803D01*
X86065499Y-142416803D01*
X86033341Y-142172541D01*
X85969574Y-141934558D01*
X85875289Y-141706935D01*
X85863740Y-141686932D01*
X85752100Y-141493565D01*
X85602116Y-141298101D01*
X85602110Y-141298094D01*
X85427905Y-141123889D01*
X85427898Y-141123883D01*
X85232434Y-140973899D01*
X85019068Y-140850712D01*
X85019058Y-140850708D01*
X84791440Y-140756425D01*
X84672450Y-140724542D01*
X84553459Y-140692659D01*
X84512636Y-140687284D01*
X84309196Y-140660500D01*
X84309189Y-140660500D01*
X84062811Y-140660500D01*
X84062803Y-140660500D01*
X83830299Y-140691110D01*
X83818541Y-140692659D01*
X83768246Y-140706135D01*
X83580559Y-140756425D01*
X83352941Y-140850708D01*
X83352931Y-140850712D01*
X83139565Y-140973899D01*
X82944101Y-141123883D01*
X82944094Y-141123889D01*
X82769889Y-141298094D01*
X82769883Y-141298101D01*
X82619899Y-141493565D01*
X82496712Y-141706931D01*
X82496708Y-141706941D01*
X82402425Y-141934559D01*
X82376664Y-142030704D01*
X82344019Y-142152539D01*
X82338660Y-142172538D01*
X82338658Y-142172549D01*
X82306500Y-142416803D01*
X80500500Y-142416803D01*
X80500500Y-140000000D01*
X87117666Y-140000000D01*
X87136947Y-140183448D01*
X87136948Y-140183451D01*
X87193945Y-140358871D01*
X87193948Y-140358878D01*
X87286177Y-140518623D01*
X87385014Y-140628394D01*
X87390957Y-140634994D01*
X87409603Y-140655702D01*
X87558833Y-140764124D01*
X87727344Y-140839150D01*
X87727347Y-140839150D01*
X87727348Y-140839151D01*
X87756183Y-140845279D01*
X87907771Y-140877500D01*
X88092229Y-140877500D01*
X88272656Y-140839150D01*
X88441167Y-140764124D01*
X88590397Y-140655702D01*
X88713823Y-140518623D01*
X88806052Y-140358878D01*
X88863053Y-140183448D01*
X88882334Y-140000000D01*
X89149666Y-140000000D01*
X89168947Y-140183448D01*
X89168948Y-140183451D01*
X89225945Y-140358871D01*
X89225948Y-140358878D01*
X89318177Y-140518623D01*
X89417014Y-140628394D01*
X89422957Y-140634994D01*
X89441603Y-140655702D01*
X89590833Y-140764124D01*
X89759344Y-140839150D01*
X89759347Y-140839150D01*
X89759348Y-140839151D01*
X89788183Y-140845279D01*
X89939771Y-140877500D01*
X90124229Y-140877500D01*
X90304656Y-140839150D01*
X90473167Y-140764124D01*
X90622397Y-140655702D01*
X90745823Y-140518623D01*
X90838052Y-140358878D01*
X90895053Y-140183448D01*
X90914334Y-140000000D01*
X90895053Y-139816552D01*
X90838052Y-139641122D01*
X90745823Y-139481377D01*
X90622397Y-139344298D01*
X90485779Y-139245039D01*
X90473170Y-139235878D01*
X90473169Y-139235877D01*
X90473167Y-139235876D01*
X90304656Y-139160850D01*
X90304655Y-139160849D01*
X90304651Y-139160848D01*
X90124229Y-139122500D01*
X89939771Y-139122500D01*
X89759348Y-139160848D01*
X89715764Y-139180253D01*
X89632237Y-139217442D01*
X89590829Y-139235878D01*
X89441601Y-139344299D01*
X89318176Y-139481378D01*
X89225948Y-139641121D01*
X89225945Y-139641128D01*
X89182947Y-139773464D01*
X89168947Y-139816552D01*
X89149666Y-140000000D01*
X88882334Y-140000000D01*
X88863053Y-139816552D01*
X88806052Y-139641122D01*
X88713823Y-139481377D01*
X88590397Y-139344298D01*
X88453779Y-139245039D01*
X88441170Y-139235878D01*
X88441169Y-139235877D01*
X88441167Y-139235876D01*
X88272656Y-139160850D01*
X88272655Y-139160849D01*
X88272651Y-139160848D01*
X88092229Y-139122500D01*
X87907771Y-139122500D01*
X87727348Y-139160848D01*
X87683764Y-139180253D01*
X87600237Y-139217442D01*
X87558829Y-139235878D01*
X87409601Y-139344299D01*
X87286176Y-139481378D01*
X87193948Y-139641121D01*
X87193945Y-139641128D01*
X87150947Y-139773464D01*
X87136947Y-139816552D01*
X87117666Y-140000000D01*
X80500500Y-140000000D01*
X80500500Y-138220000D01*
X86101667Y-138220000D01*
X86120948Y-138403448D01*
X86120949Y-138403450D01*
X86120949Y-138403451D01*
X86177946Y-138578871D01*
X86177949Y-138578877D01*
X86177949Y-138578878D01*
X86270178Y-138738623D01*
X86393604Y-138875702D01*
X86542834Y-138984124D01*
X86711345Y-139059150D01*
X86711348Y-139059150D01*
X86711349Y-139059151D01*
X86740184Y-139065279D01*
X86891772Y-139097500D01*
X87076230Y-139097500D01*
X87256657Y-139059150D01*
X87425168Y-138984124D01*
X87574398Y-138875702D01*
X87697824Y-138738623D01*
X87790053Y-138578878D01*
X87847054Y-138403448D01*
X87866335Y-138220000D01*
X87866335Y-138219999D01*
X88133666Y-138219999D01*
X88152947Y-138403447D01*
X88152948Y-138403450D01*
X88209945Y-138578870D01*
X88209948Y-138578877D01*
X88302177Y-138738622D01*
X88425603Y-138875701D01*
X88574833Y-138984123D01*
X88743344Y-139059149D01*
X88743347Y-139059149D01*
X88743348Y-139059150D01*
X88743353Y-139059151D01*
X88923771Y-139097499D01*
X89108229Y-139097499D01*
X89288656Y-139059149D01*
X89457167Y-138984123D01*
X89606397Y-138875701D01*
X89729823Y-138738622D01*
X89822052Y-138578877D01*
X89879053Y-138403447D01*
X89898334Y-138219999D01*
X90165666Y-138219999D01*
X90184947Y-138403447D01*
X90184948Y-138403450D01*
X90241945Y-138578870D01*
X90241948Y-138578877D01*
X90334177Y-138738622D01*
X90457603Y-138875701D01*
X90606833Y-138984123D01*
X90775344Y-139059149D01*
X90775347Y-139059149D01*
X90775348Y-139059150D01*
X90775353Y-139059151D01*
X90955771Y-139097499D01*
X91140229Y-139097499D01*
X91320656Y-139059149D01*
X91489167Y-138984123D01*
X91638397Y-138875701D01*
X91761823Y-138738622D01*
X91854052Y-138578877D01*
X91911053Y-138403447D01*
X91930334Y-138219999D01*
X92197666Y-138219999D01*
X92216947Y-138403447D01*
X92216948Y-138403450D01*
X92273945Y-138578870D01*
X92273948Y-138578877D01*
X92366177Y-138738622D01*
X92489603Y-138875701D01*
X92638833Y-138984123D01*
X92807344Y-139059149D01*
X92807347Y-139059149D01*
X92807348Y-139059150D01*
X92807353Y-139059151D01*
X92987771Y-139097499D01*
X93095470Y-139097499D01*
X93162509Y-139117184D01*
X93208264Y-139169988D01*
X93218490Y-139231350D01*
X93218500Y-139231350D01*
X93218500Y-139231411D01*
X93218873Y-139233650D01*
X93218500Y-139237438D01*
X93218500Y-140762558D01*
X93225898Y-140799749D01*
X93254077Y-140841922D01*
X93296250Y-140870101D01*
X93296252Y-140870102D01*
X93324205Y-140875662D01*
X93333441Y-140877500D01*
X93333442Y-140877500D01*
X94858559Y-140877500D01*
X94865957Y-140876028D01*
X94895748Y-140870102D01*
X94937922Y-140841922D01*
X94966102Y-140799748D01*
X94973500Y-140762558D01*
X94973500Y-139237442D01*
X94973188Y-139235876D01*
X94971662Y-139228205D01*
X94966102Y-139200252D01*
X94952738Y-139180251D01*
X94937922Y-139158077D01*
X94895749Y-139129898D01*
X94858559Y-139122500D01*
X94858558Y-139122500D01*
X93712340Y-139122500D01*
X93645301Y-139102815D01*
X93599546Y-139050011D01*
X93589602Y-138980853D01*
X93618627Y-138917297D01*
X93639451Y-138898184D01*
X93670397Y-138875701D01*
X93793823Y-138738622D01*
X93886052Y-138578877D01*
X93943053Y-138403447D01*
X93962334Y-138219999D01*
X93943053Y-138036551D01*
X93886052Y-137861121D01*
X93793823Y-137701376D01*
X93670397Y-137564297D01*
X93521167Y-137455875D01*
X93352656Y-137380849D01*
X93352655Y-137380848D01*
X93352651Y-137380847D01*
X93172229Y-137342499D01*
X92987771Y-137342499D01*
X92807348Y-137380847D01*
X92760085Y-137401890D01*
X92683752Y-137435876D01*
X92638829Y-137455877D01*
X92489601Y-137564298D01*
X92366176Y-137701377D01*
X92273948Y-137861120D01*
X92273945Y-137861127D01*
X92216948Y-138036547D01*
X92216947Y-138036551D01*
X92197666Y-138219999D01*
X91930334Y-138219999D01*
X91911053Y-138036551D01*
X91854052Y-137861121D01*
X91761823Y-137701376D01*
X91638397Y-137564297D01*
X91489167Y-137455875D01*
X91320656Y-137380849D01*
X91320655Y-137380848D01*
X91320651Y-137380847D01*
X91140229Y-137342499D01*
X90955771Y-137342499D01*
X90775348Y-137380847D01*
X90728085Y-137401890D01*
X90651752Y-137435876D01*
X90606829Y-137455877D01*
X90457601Y-137564298D01*
X90334176Y-137701377D01*
X90241948Y-137861120D01*
X90241945Y-137861127D01*
X90184948Y-138036547D01*
X90184947Y-138036551D01*
X90165666Y-138219999D01*
X89898334Y-138219999D01*
X89879053Y-138036551D01*
X89822052Y-137861121D01*
X89729823Y-137701376D01*
X89606397Y-137564297D01*
X89457167Y-137455875D01*
X89288656Y-137380849D01*
X89288655Y-137380848D01*
X89288651Y-137380847D01*
X89108229Y-137342499D01*
X88923771Y-137342499D01*
X88743348Y-137380847D01*
X88696085Y-137401890D01*
X88619752Y-137435876D01*
X88574829Y-137455877D01*
X88425601Y-137564298D01*
X88302176Y-137701377D01*
X88209948Y-137861120D01*
X88209945Y-137861127D01*
X88152948Y-138036547D01*
X88152947Y-138036551D01*
X88133666Y-138219999D01*
X87866335Y-138219999D01*
X87847054Y-138036552D01*
X87790053Y-137861122D01*
X87697824Y-137701377D01*
X87574398Y-137564298D01*
X87425168Y-137455876D01*
X87256657Y-137380850D01*
X87256656Y-137380849D01*
X87256652Y-137380848D01*
X87076230Y-137342500D01*
X86891772Y-137342500D01*
X86711349Y-137380848D01*
X86711345Y-137380850D01*
X86542837Y-137455875D01*
X86542830Y-137455878D01*
X86393602Y-137564299D01*
X86270177Y-137701378D01*
X86177949Y-137861121D01*
X86177946Y-137861128D01*
X86120949Y-138036548D01*
X86120948Y-138036552D01*
X86101667Y-138220000D01*
X80500500Y-138220000D01*
X80500500Y-133400000D01*
X82793666Y-133400000D01*
X82812947Y-133583448D01*
X82812948Y-133583451D01*
X82869945Y-133758871D01*
X82869948Y-133758878D01*
X82962177Y-133918623D01*
X83085603Y-134055702D01*
X83234833Y-134164124D01*
X83403344Y-134239150D01*
X83403347Y-134239150D01*
X83403348Y-134239151D01*
X83432183Y-134245279D01*
X83583771Y-134277500D01*
X83768229Y-134277500D01*
X83948656Y-134239150D01*
X84117167Y-134164124D01*
X84266397Y-134055702D01*
X84389823Y-133918623D01*
X84482052Y-133758878D01*
X84539053Y-133583448D01*
X84558334Y-133400000D01*
X85083666Y-133400000D01*
X85102947Y-133583448D01*
X85102948Y-133583451D01*
X85159945Y-133758871D01*
X85159948Y-133758878D01*
X85252177Y-133918623D01*
X85375603Y-134055702D01*
X85524833Y-134164124D01*
X85693344Y-134239150D01*
X85693347Y-134239150D01*
X85693348Y-134239151D01*
X85722183Y-134245279D01*
X85873771Y-134277500D01*
X86058229Y-134277500D01*
X86238656Y-134239150D01*
X86407167Y-134164124D01*
X86556397Y-134055702D01*
X86679823Y-133918623D01*
X86772052Y-133758878D01*
X86829053Y-133583448D01*
X86848334Y-133400000D01*
X94223666Y-133400000D01*
X94242947Y-133583448D01*
X94242948Y-133583451D01*
X94299945Y-133758871D01*
X94299948Y-133758878D01*
X94392177Y-133918623D01*
X94515603Y-134055702D01*
X94664833Y-134164124D01*
X94833344Y-134239150D01*
X94833347Y-134239150D01*
X94833348Y-134239151D01*
X94862183Y-134245279D01*
X95013771Y-134277500D01*
X95198229Y-134277500D01*
X95378656Y-134239150D01*
X95547167Y-134164124D01*
X95696397Y-134055702D01*
X95819823Y-133918623D01*
X95912052Y-133758878D01*
X95969053Y-133583448D01*
X95988334Y-133400000D01*
X95969053Y-133216552D01*
X95912052Y-133041122D01*
X95819823Y-132881377D01*
X95696397Y-132744298D01*
X95547167Y-132635876D01*
X95378656Y-132560850D01*
X95378655Y-132560849D01*
X95378651Y-132560848D01*
X95198229Y-132522500D01*
X95013771Y-132522500D01*
X94833348Y-132560848D01*
X94833344Y-132560850D01*
X94709752Y-132615877D01*
X94664829Y-132635878D01*
X94515601Y-132744299D01*
X94392176Y-132881378D01*
X94299948Y-133041121D01*
X94299945Y-133041128D01*
X94249446Y-133196549D01*
X94242947Y-133216552D01*
X94223666Y-133400000D01*
X86848334Y-133400000D01*
X86829053Y-133216552D01*
X86772052Y-133041122D01*
X86679823Y-132881377D01*
X86556397Y-132744298D01*
X86407167Y-132635876D01*
X86238656Y-132560850D01*
X86238655Y-132560849D01*
X86238651Y-132560848D01*
X86058229Y-132522500D01*
X85873771Y-132522500D01*
X85693348Y-132560848D01*
X85693344Y-132560850D01*
X85569752Y-132615877D01*
X85524829Y-132635878D01*
X85375601Y-132744299D01*
X85252176Y-132881378D01*
X85159948Y-133041121D01*
X85159945Y-133041128D01*
X85109446Y-133196549D01*
X85102947Y-133216552D01*
X85083666Y-133400000D01*
X84558334Y-133400000D01*
X84539053Y-133216552D01*
X84482052Y-133041122D01*
X84389823Y-132881377D01*
X84266397Y-132744298D01*
X84117167Y-132635876D01*
X83948656Y-132560850D01*
X83948655Y-132560849D01*
X83948651Y-132560848D01*
X83768229Y-132522500D01*
X83583771Y-132522500D01*
X83403348Y-132560848D01*
X83403344Y-132560850D01*
X83279752Y-132615877D01*
X83234829Y-132635878D01*
X83085601Y-132744299D01*
X82962176Y-132881378D01*
X82869948Y-133041121D01*
X82869945Y-133041128D01*
X82819446Y-133196549D01*
X82812947Y-133216552D01*
X82793666Y-133400000D01*
X80500500Y-133400000D01*
X80500500Y-130832500D01*
X83847110Y-130832500D01*
X83866568Y-130967837D01*
X83866570Y-130967845D01*
X83923367Y-131092214D01*
X83923372Y-131092221D01*
X84012909Y-131195553D01*
X84012913Y-131195557D01*
X84073479Y-131234479D01*
X84127939Y-131269478D01*
X84187467Y-131286957D01*
X84259132Y-131308000D01*
X84259133Y-131308000D01*
X84395867Y-131308000D01*
X84527061Y-131269478D01*
X84642089Y-131195555D01*
X84731630Y-131092218D01*
X84788431Y-130967842D01*
X84807890Y-130832500D01*
X84788431Y-130697158D01*
X84787067Y-130692513D01*
X84787065Y-130622643D01*
X84818373Y-130569881D01*
X84821949Y-130566306D01*
X84883277Y-130532830D01*
X84909618Y-130530000D01*
X85426708Y-130530000D01*
X85426710Y-130530000D01*
X85426711Y-130530000D01*
X85508225Y-130508159D01*
X85581308Y-130465964D01*
X85591273Y-130455999D01*
X88912465Y-130455999D01*
X88929185Y-130583000D01*
X88930526Y-130593180D01*
X88930527Y-130593185D01*
X88983474Y-130721014D01*
X88983475Y-130721016D01*
X88983476Y-130721017D01*
X89067709Y-130830790D01*
X89177482Y-130915023D01*
X89305317Y-130967973D01*
X89428202Y-130984151D01*
X89442499Y-130986034D01*
X89442500Y-130986034D01*
X89442501Y-130986034D01*
X89455447Y-130984329D01*
X89579683Y-130967973D01*
X89707518Y-130915023D01*
X89817291Y-130830790D01*
X89901524Y-130721017D01*
X89926985Y-130659548D01*
X89970825Y-130605144D01*
X90037119Y-130583079D01*
X90041546Y-130583000D01*
X90341516Y-130583000D01*
X90408555Y-130602685D01*
X90454310Y-130655489D01*
X90456077Y-130659548D01*
X90502814Y-130772384D01*
X90502815Y-130772386D01*
X90502816Y-130772387D01*
X90587049Y-130882160D01*
X90696822Y-130966393D01*
X90696823Y-130966393D01*
X90696824Y-130966394D01*
X90739433Y-130984043D01*
X90824657Y-131019343D01*
X90947542Y-131035521D01*
X90961839Y-131037404D01*
X90961840Y-131037404D01*
X90961841Y-131037404D01*
X90974787Y-131035699D01*
X91099023Y-131019343D01*
X91226858Y-130966393D01*
X91336631Y-130882160D01*
X91420864Y-130772387D01*
X91473814Y-130644552D01*
X91491875Y-130507369D01*
X91487042Y-130470662D01*
X91497807Y-130401629D01*
X91544186Y-130349372D01*
X91562516Y-130339922D01*
X91639518Y-130308028D01*
X91749291Y-130223795D01*
X91833524Y-130114022D01*
X91886474Y-129986187D01*
X91904535Y-129849004D01*
X91886474Y-129711821D01*
X91836313Y-129590721D01*
X91833525Y-129583989D01*
X91833524Y-129583988D01*
X91833524Y-129583987D01*
X91749291Y-129474213D01*
X91749289Y-129474212D01*
X91749289Y-129474211D01*
X91639515Y-129389978D01*
X91511686Y-129337031D01*
X91511684Y-129337030D01*
X91511683Y-129337030D01*
X91420227Y-129324989D01*
X91374501Y-129318969D01*
X91374499Y-129318969D01*
X91305908Y-129327999D01*
X91237317Y-129337030D01*
X91237316Y-129337030D01*
X91237313Y-129337031D01*
X91109485Y-129389978D01*
X90999707Y-129474214D01*
X90969573Y-129513487D01*
X90913145Y-129554689D01*
X90871197Y-129562000D01*
X90085944Y-129562000D01*
X90018905Y-129542315D01*
X89973150Y-129489511D01*
X89971383Y-129485452D01*
X89942221Y-129415048D01*
X89942220Y-129415047D01*
X89942220Y-129415046D01*
X89857987Y-129305272D01*
X89857985Y-129305271D01*
X89857985Y-129305270D01*
X89748211Y-129221037D01*
X89620382Y-129168090D01*
X89620380Y-129168089D01*
X89620379Y-129168089D01*
X89528923Y-129156048D01*
X89483197Y-129150028D01*
X89483195Y-129150028D01*
X89414604Y-129159058D01*
X89346013Y-129168089D01*
X89346012Y-129168089D01*
X89346009Y-129168090D01*
X89218181Y-129221037D01*
X89108405Y-129305272D01*
X89024170Y-129415048D01*
X88971223Y-129542876D01*
X88971222Y-129542881D01*
X88955302Y-129663804D01*
X88953161Y-129680063D01*
X88969442Y-129803728D01*
X88971222Y-129817244D01*
X88971223Y-129817249D01*
X89024170Y-129945078D01*
X89024171Y-129945080D01*
X89024172Y-129945081D01*
X89040244Y-129966027D01*
X89065439Y-130031194D01*
X89051401Y-130099639D01*
X89040245Y-130116999D01*
X88983476Y-130190981D01*
X88983474Y-130190983D01*
X88930527Y-130318812D01*
X88930526Y-130318815D01*
X88930526Y-130318816D01*
X88912465Y-130455999D01*
X85591273Y-130455999D01*
X85640980Y-130406292D01*
X85640980Y-130406290D01*
X85651184Y-130396087D01*
X85651188Y-130396082D01*
X86066082Y-129981188D01*
X86066087Y-129981184D01*
X86076290Y-129970980D01*
X86076292Y-129970980D01*
X86135964Y-129911308D01*
X86178159Y-129838225D01*
X86200000Y-129756711D01*
X86200000Y-128809702D01*
X86219685Y-128742663D01*
X86236319Y-128722021D01*
X86315734Y-128642606D01*
X86399905Y-128558435D01*
X86461227Y-128524951D01*
X86530919Y-128529935D01*
X86586852Y-128571807D01*
X86602146Y-128598665D01*
X86613474Y-128626015D01*
X86613475Y-128626017D01*
X86613476Y-128626018D01*
X86697709Y-128735791D01*
X86807482Y-128820024D01*
X86935317Y-128872974D01*
X87058202Y-128889152D01*
X87072499Y-128891035D01*
X87072500Y-128891035D01*
X87072501Y-128891035D01*
X87085447Y-128889330D01*
X87209683Y-128872974D01*
X87337518Y-128820024D01*
X87447291Y-128735791D01*
X87531524Y-128626018D01*
X87584474Y-128498183D01*
X87602535Y-128361000D01*
X87584474Y-128223817D01*
X87531524Y-128095983D01*
X87487947Y-128039192D01*
X87462754Y-127974026D01*
X87476792Y-127905581D01*
X87487942Y-127888229D01*
X87517942Y-127849135D01*
X87570892Y-127721300D01*
X87588953Y-127584117D01*
X87570892Y-127446934D01*
X87517942Y-127319100D01*
X87433709Y-127209326D01*
X87433707Y-127209325D01*
X87433707Y-127209324D01*
X87323933Y-127125091D01*
X87196104Y-127072144D01*
X87196102Y-127072143D01*
X87196101Y-127072143D01*
X87104645Y-127060102D01*
X87058919Y-127054082D01*
X87058917Y-127054082D01*
X86990326Y-127063112D01*
X86921735Y-127072143D01*
X86921734Y-127072143D01*
X86921731Y-127072144D01*
X86793903Y-127125091D01*
X86684127Y-127209326D01*
X86599892Y-127319102D01*
X86555842Y-127425452D01*
X86512002Y-127479856D01*
X86445708Y-127501921D01*
X86441281Y-127502000D01*
X86213376Y-127502000D01*
X86213360Y-127501999D01*
X86205764Y-127501999D01*
X86121375Y-127501999D01*
X86121373Y-127501999D01*
X86039861Y-127523839D01*
X86016372Y-127537402D01*
X86016371Y-127537401D01*
X85966783Y-127566031D01*
X85966774Y-127566038D01*
X85256038Y-128276774D01*
X85256036Y-128276777D01*
X85213841Y-128349859D01*
X85192000Y-128431372D01*
X85192000Y-129378383D01*
X85172315Y-129445422D01*
X85155681Y-129466064D01*
X85136064Y-129485681D01*
X85074741Y-129519166D01*
X85048383Y-129522000D01*
X84928732Y-129522000D01*
X84861693Y-129502315D01*
X84815938Y-129449511D01*
X84805994Y-129380354D01*
X84815390Y-129315000D01*
X84807550Y-129260470D01*
X84795931Y-129179658D01*
X84775591Y-129135120D01*
X84739132Y-129055285D01*
X84739127Y-129055278D01*
X84649590Y-128951946D01*
X84649586Y-128951942D01*
X84534559Y-128878021D01*
X84403368Y-128839500D01*
X84403367Y-128839500D01*
X84266633Y-128839500D01*
X84266632Y-128839500D01*
X84135440Y-128878021D01*
X84020413Y-128951942D01*
X84020409Y-128951946D01*
X83930872Y-129055278D01*
X83930867Y-129055285D01*
X83874070Y-129179654D01*
X83874068Y-129179662D01*
X83854610Y-129315000D01*
X83874068Y-129450337D01*
X83874070Y-129450345D01*
X83930867Y-129574714D01*
X83930872Y-129574721D01*
X84020409Y-129678053D01*
X84020411Y-129678055D01*
X84091087Y-129723475D01*
X84105428Y-129732691D01*
X84126070Y-129749326D01*
X84145273Y-129768529D01*
X84145279Y-129768534D01*
X84341563Y-129964818D01*
X84375048Y-130026141D01*
X84370064Y-130095833D01*
X84341563Y-130140180D01*
X84071038Y-130410705D01*
X84066447Y-130418657D01*
X84026106Y-130460964D01*
X84012914Y-130469442D01*
X84012909Y-130469446D01*
X83923370Y-130572782D01*
X83923367Y-130572785D01*
X83866570Y-130697154D01*
X83866568Y-130697162D01*
X83847110Y-130832500D01*
X80500500Y-130832500D01*
X80500500Y-121474999D01*
X104119464Y-121474999D01*
X104119464Y-121475000D01*
X104139564Y-121691918D01*
X104139564Y-121691920D01*
X104139565Y-121691923D01*
X104199183Y-121901459D01*
X104296288Y-122096472D01*
X104427573Y-122270322D01*
X104588568Y-122417088D01*
X104588575Y-122417092D01*
X104588576Y-122417093D01*
X104773786Y-122531770D01*
X104773792Y-122531773D01*
X104796664Y-122540633D01*
X104976931Y-122610470D01*
X105191074Y-122650500D01*
X105191076Y-122650500D01*
X105408924Y-122650500D01*
X105408926Y-122650500D01*
X105623069Y-122610470D01*
X105826210Y-122531772D01*
X106009723Y-122418145D01*
X106077083Y-122399591D01*
X106140277Y-122418146D01*
X106323787Y-122531770D01*
X106323793Y-122531773D01*
X106346665Y-122540633D01*
X106526932Y-122610470D01*
X106741075Y-122650500D01*
X106741077Y-122650500D01*
X106958925Y-122650500D01*
X106958927Y-122650500D01*
X107173070Y-122610470D01*
X107376211Y-122531772D01*
X107561433Y-122417088D01*
X107722428Y-122270322D01*
X107853713Y-122096472D01*
X107950818Y-121901459D01*
X108010436Y-121691923D01*
X108030537Y-121475000D01*
X108010436Y-121258077D01*
X107950818Y-121048541D01*
X107853713Y-120853528D01*
X107823390Y-120813374D01*
X107798698Y-120748013D01*
X107813263Y-120679678D01*
X107834659Y-120650970D01*
X109715977Y-118769655D01*
X109830942Y-118597598D01*
X109910130Y-118406419D01*
X109950501Y-118203465D01*
X109950501Y-118169371D01*
X109970186Y-118102332D01*
X110022990Y-118056577D01*
X110056016Y-118046756D01*
X110290615Y-118011396D01*
X110541323Y-117934063D01*
X110777704Y-117820228D01*
X110994479Y-117672433D01*
X111186805Y-117493981D01*
X111309404Y-117340246D01*
X111366590Y-117300108D01*
X111436402Y-117297258D01*
X111475240Y-117314459D01*
X111511769Y-117338867D01*
X111511770Y-117338868D01*
X111570247Y-117350499D01*
X111570250Y-117350500D01*
X111570252Y-117350500D01*
X113309750Y-117350500D01*
X113309751Y-117350499D01*
X113324568Y-117347552D01*
X113368229Y-117338868D01*
X113368229Y-117338867D01*
X113368231Y-117338867D01*
X113434552Y-117294552D01*
X113478867Y-117228231D01*
X113478867Y-117228229D01*
X113478868Y-117228229D01*
X113490499Y-117169752D01*
X113490500Y-117169750D01*
X113490500Y-115600000D01*
X116304659Y-115600000D01*
X116323975Y-115796129D01*
X116325647Y-115801640D01*
X116356149Y-115902193D01*
X116381188Y-115984733D01*
X116474086Y-116158532D01*
X116474090Y-116158539D01*
X116599116Y-116310883D01*
X116751460Y-116435909D01*
X116751467Y-116435913D01*
X116925266Y-116528811D01*
X116925269Y-116528811D01*
X116925273Y-116528814D01*
X117113868Y-116586024D01*
X117310000Y-116605341D01*
X117506132Y-116586024D01*
X117694727Y-116528814D01*
X117737533Y-116505934D01*
X117868532Y-116435913D01*
X117868538Y-116435910D01*
X118020883Y-116310883D01*
X118145910Y-116158538D01*
X118238814Y-115984727D01*
X118296024Y-115796132D01*
X118315341Y-115600000D01*
X118296024Y-115403868D01*
X118238814Y-115215273D01*
X118238811Y-115215269D01*
X118238811Y-115215266D01*
X118145913Y-115041467D01*
X118145909Y-115041460D01*
X118020883Y-114889116D01*
X117888226Y-114780247D01*
X118849500Y-114780247D01*
X118849500Y-116419752D01*
X118861131Y-116478229D01*
X118861132Y-116478230D01*
X118905447Y-116544552D01*
X118971769Y-116588867D01*
X118971770Y-116588868D01*
X119030247Y-116600499D01*
X119030250Y-116600500D01*
X119030252Y-116600500D01*
X120669750Y-116600500D01*
X120669751Y-116600499D01*
X120684568Y-116597552D01*
X120728229Y-116588868D01*
X120728229Y-116588867D01*
X120728231Y-116588867D01*
X120794552Y-116544552D01*
X120838867Y-116478231D01*
X120838867Y-116478229D01*
X120838868Y-116478229D01*
X120850499Y-116419752D01*
X120850500Y-116419750D01*
X120850500Y-114780249D01*
X120850499Y-114780247D01*
X120838868Y-114721770D01*
X120838867Y-114721769D01*
X120794552Y-114655447D01*
X120728230Y-114611132D01*
X120728229Y-114611131D01*
X120669752Y-114599500D01*
X120669748Y-114599500D01*
X119030252Y-114599500D01*
X119030247Y-114599500D01*
X118971770Y-114611131D01*
X118971769Y-114611132D01*
X118905447Y-114655447D01*
X118861132Y-114721769D01*
X118861131Y-114721770D01*
X118849500Y-114780247D01*
X117888226Y-114780247D01*
X117868539Y-114764090D01*
X117868532Y-114764086D01*
X117694733Y-114671188D01*
X117694727Y-114671186D01*
X117506132Y-114613976D01*
X117506129Y-114613975D01*
X117310000Y-114594659D01*
X117113870Y-114613975D01*
X116925266Y-114671188D01*
X116751467Y-114764086D01*
X116751460Y-114764090D01*
X116599116Y-114889116D01*
X116474090Y-115041460D01*
X116474086Y-115041467D01*
X116381188Y-115215266D01*
X116323975Y-115403870D01*
X116304659Y-115600000D01*
X113490500Y-115600000D01*
X113490500Y-115430249D01*
X113490499Y-115430247D01*
X113478868Y-115371770D01*
X113478867Y-115371769D01*
X113434552Y-115305447D01*
X113368230Y-115261132D01*
X113368229Y-115261131D01*
X113309752Y-115249500D01*
X113309748Y-115249500D01*
X111570252Y-115249500D01*
X111570247Y-115249500D01*
X111511770Y-115261131D01*
X111511770Y-115261132D01*
X111475239Y-115285541D01*
X111408561Y-115306418D01*
X111341181Y-115287933D01*
X111309402Y-115259751D01*
X111273926Y-115215266D01*
X111186805Y-115106019D01*
X111186804Y-115106018D01*
X111186801Y-115106014D01*
X110994479Y-114927567D01*
X110938082Y-114889116D01*
X110777704Y-114779772D01*
X110777700Y-114779770D01*
X110777697Y-114779768D01*
X110777696Y-114779767D01*
X110541325Y-114665938D01*
X110541327Y-114665938D01*
X110290623Y-114588606D01*
X110290619Y-114588605D01*
X110290615Y-114588604D01*
X110165823Y-114569794D01*
X110031187Y-114549500D01*
X110031182Y-114549500D01*
X109768818Y-114549500D01*
X109768812Y-114549500D01*
X109607247Y-114573853D01*
X109509385Y-114588604D01*
X109509382Y-114588605D01*
X109509376Y-114588606D01*
X109258673Y-114665938D01*
X109022303Y-114779767D01*
X109022302Y-114779768D01*
X109022296Y-114779771D01*
X109022296Y-114779772D01*
X109021592Y-114780252D01*
X108805516Y-114927570D01*
X108714339Y-115012169D01*
X108651807Y-115043336D01*
X108582350Y-115035749D01*
X108545660Y-115012169D01*
X108454480Y-114927567D01*
X108237705Y-114779772D01*
X108237701Y-114779770D01*
X108237698Y-114779768D01*
X108237697Y-114779767D01*
X108001326Y-114665938D01*
X108001328Y-114665938D01*
X107750624Y-114588606D01*
X107750620Y-114588605D01*
X107750616Y-114588604D01*
X107625824Y-114569794D01*
X107491188Y-114549500D01*
X107491183Y-114549500D01*
X107228819Y-114549500D01*
X107228813Y-114549500D01*
X107067248Y-114573853D01*
X106969386Y-114588604D01*
X106969383Y-114588605D01*
X106969377Y-114588606D01*
X106718674Y-114665938D01*
X106482304Y-114779767D01*
X106482303Y-114779768D01*
X106482297Y-114779771D01*
X106482297Y-114779772D01*
X106481593Y-114780252D01*
X106265521Y-114927567D01*
X106073199Y-115106014D01*
X105909615Y-115311143D01*
X105778433Y-115538356D01*
X105682583Y-115782578D01*
X105682577Y-115782597D01*
X105624198Y-116038374D01*
X105624197Y-116038379D01*
X105604593Y-116299995D01*
X105604593Y-116300004D01*
X105624197Y-116561620D01*
X105624198Y-116561625D01*
X105682577Y-116817402D01*
X105682579Y-116817411D01*
X105682581Y-116817416D01*
X105778433Y-117061643D01*
X105909615Y-117288857D01*
X106041737Y-117454533D01*
X106073199Y-117493985D01*
X106254754Y-117662441D01*
X106265522Y-117672433D01*
X106482297Y-117820228D01*
X106570067Y-117862495D01*
X106621924Y-117909316D01*
X106640237Y-117976743D01*
X106619190Y-118043367D01*
X106603944Y-118061895D01*
X105896186Y-118769654D01*
X105230347Y-119435493D01*
X105230345Y-119435495D01*
X105157184Y-119508656D01*
X105084023Y-119581816D01*
X104969058Y-119753875D01*
X104889870Y-119945051D01*
X104889868Y-119945059D01*
X104849500Y-120148002D01*
X104849500Y-120303956D01*
X104829815Y-120370995D01*
X104778717Y-120415271D01*
X104778918Y-120415675D01*
X104777351Y-120416454D01*
X104777011Y-120416750D01*
X104775362Y-120417445D01*
X104773786Y-120418230D01*
X104588576Y-120532906D01*
X104588566Y-120532913D01*
X104427574Y-120679676D01*
X104296288Y-120853527D01*
X104199184Y-121048537D01*
X104139564Y-121258081D01*
X104119464Y-121474999D01*
X80500500Y-121474999D01*
X80500500Y-116300000D01*
X94939418Y-116300000D01*
X94959700Y-116505932D01*
X94976593Y-116561620D01*
X95019769Y-116703954D01*
X95117316Y-116886450D01*
X95117318Y-116886452D01*
X95248590Y-117046410D01*
X95345210Y-117125702D01*
X95408551Y-117177685D01*
X95591047Y-117275232D01*
X95789067Y-117335300D01*
X95789066Y-117335300D01*
X95807530Y-117337118D01*
X95995001Y-117355583D01*
X96200935Y-117335300D01*
X96398955Y-117275232D01*
X96581451Y-117177685D01*
X96741411Y-117046410D01*
X96872686Y-116886450D01*
X96970233Y-116703954D01*
X97030301Y-116505934D01*
X97050584Y-116300000D01*
X97479417Y-116300000D01*
X97499699Y-116505932D01*
X97516592Y-116561620D01*
X97559768Y-116703954D01*
X97657315Y-116886450D01*
X97657317Y-116886452D01*
X97788589Y-117046410D01*
X97885209Y-117125702D01*
X97948550Y-117177685D01*
X98131046Y-117275232D01*
X98329066Y-117335300D01*
X98329065Y-117335300D01*
X98347529Y-117337118D01*
X98535000Y-117355583D01*
X98740934Y-117335300D01*
X98938954Y-117275232D01*
X99121450Y-117177685D01*
X99281410Y-117046410D01*
X99412685Y-116886450D01*
X99510232Y-116703954D01*
X99570300Y-116505934D01*
X99590583Y-116300000D01*
X99570300Y-116094066D01*
X99510232Y-115896046D01*
X99412685Y-115713550D01*
X99360702Y-115650209D01*
X99281410Y-115553589D01*
X99131121Y-115430252D01*
X99131115Y-115430247D01*
X100024500Y-115430247D01*
X100024500Y-117169752D01*
X100036131Y-117228229D01*
X100036132Y-117228230D01*
X100080447Y-117294552D01*
X100146769Y-117338867D01*
X100146770Y-117338868D01*
X100205247Y-117350499D01*
X100205250Y-117350500D01*
X100205252Y-117350500D01*
X101944750Y-117350500D01*
X101944751Y-117350499D01*
X101959568Y-117347552D01*
X102003229Y-117338868D01*
X102003229Y-117338867D01*
X102003231Y-117338867D01*
X102069552Y-117294552D01*
X102113867Y-117228231D01*
X102113867Y-117228229D01*
X102113868Y-117228229D01*
X102125499Y-117169752D01*
X102125500Y-117169750D01*
X102125500Y-115430249D01*
X102125499Y-115430247D01*
X102113868Y-115371770D01*
X102113867Y-115371769D01*
X102069552Y-115305447D01*
X102003230Y-115261132D01*
X102003229Y-115261131D01*
X101944752Y-115249500D01*
X101944748Y-115249500D01*
X100205252Y-115249500D01*
X100205247Y-115249500D01*
X100146770Y-115261131D01*
X100146769Y-115261132D01*
X100080447Y-115305447D01*
X100036132Y-115371769D01*
X100036131Y-115371770D01*
X100024500Y-115430247D01*
X99131115Y-115430247D01*
X99121450Y-115422315D01*
X98938954Y-115324768D01*
X98740934Y-115264700D01*
X98740932Y-115264699D01*
X98740934Y-115264699D01*
X98535000Y-115244417D01*
X98329067Y-115264699D01*
X98175962Y-115311143D01*
X98131930Y-115324500D01*
X98131043Y-115324769D01*
X98043114Y-115371769D01*
X97948550Y-115422315D01*
X97948548Y-115422316D01*
X97948547Y-115422317D01*
X97788589Y-115553589D01*
X97657317Y-115713547D01*
X97559769Y-115896043D01*
X97499699Y-116094067D01*
X97479417Y-116300000D01*
X97050584Y-116300000D01*
X97030301Y-116094066D01*
X96970233Y-115896046D01*
X96872686Y-115713550D01*
X96820703Y-115650209D01*
X96741411Y-115553589D01*
X96591122Y-115430252D01*
X96581451Y-115422315D01*
X96398955Y-115324768D01*
X96200935Y-115264700D01*
X96200933Y-115264699D01*
X96200935Y-115264699D01*
X95995001Y-115244417D01*
X95789068Y-115264699D01*
X95635963Y-115311143D01*
X95591931Y-115324500D01*
X95591044Y-115324769D01*
X95503115Y-115371769D01*
X95408551Y-115422315D01*
X95408549Y-115422316D01*
X95408548Y-115422317D01*
X95248590Y-115553589D01*
X95117318Y-115713547D01*
X95019770Y-115896043D01*
X94959700Y-116094067D01*
X94939418Y-116300000D01*
X80500500Y-116300000D01*
X80500500Y-113868610D01*
X81995500Y-113868610D01*
X81995500Y-114131389D01*
X82022176Y-114334005D01*
X82029798Y-114391898D01*
X82097806Y-114645708D01*
X82097807Y-114645711D01*
X82097809Y-114645717D01*
X82198359Y-114888466D01*
X82198364Y-114888477D01*
X82220935Y-114927570D01*
X82329743Y-115116030D01*
X82329745Y-115116033D01*
X82329746Y-115116034D01*
X82489701Y-115324493D01*
X82489707Y-115324500D01*
X82675499Y-115510292D01*
X82675506Y-115510298D01*
X82731926Y-115553590D01*
X82883970Y-115670257D01*
X83030223Y-115754696D01*
X83111522Y-115801635D01*
X83111527Y-115801637D01*
X83111530Y-115801639D01*
X83354292Y-115902194D01*
X83608102Y-115970202D01*
X83868618Y-116004500D01*
X83868625Y-116004500D01*
X84131375Y-116004500D01*
X84131382Y-116004500D01*
X84391898Y-115970202D01*
X84645708Y-115902194D01*
X84888470Y-115801639D01*
X85116030Y-115670257D01*
X85324495Y-115510297D01*
X85510297Y-115324495D01*
X85670257Y-115116030D01*
X85801639Y-114888470D01*
X85902194Y-114645708D01*
X85970202Y-114391898D01*
X86004500Y-114131382D01*
X86004500Y-113868618D01*
X85970202Y-113608102D01*
X85902194Y-113354292D01*
X85801639Y-113111530D01*
X85801637Y-113111527D01*
X85801635Y-113111522D01*
X85754696Y-113030223D01*
X85670257Y-112883970D01*
X85510297Y-112675505D01*
X85510292Y-112675499D01*
X85324500Y-112489707D01*
X85324493Y-112489701D01*
X85116034Y-112329746D01*
X85116033Y-112329745D01*
X85116030Y-112329743D01*
X85025303Y-112277362D01*
X84888477Y-112198364D01*
X84888466Y-112198359D01*
X84645717Y-112097809D01*
X84645711Y-112097807D01*
X84645708Y-112097806D01*
X84391898Y-112029798D01*
X84334005Y-112022176D01*
X84131389Y-111995500D01*
X84131382Y-111995500D01*
X83868618Y-111995500D01*
X83868610Y-111995500D01*
X83637048Y-112025987D01*
X83608102Y-112029798D01*
X83354292Y-112097806D01*
X83354290Y-112097806D01*
X83354282Y-112097809D01*
X83111533Y-112198359D01*
X83111522Y-112198364D01*
X82883965Y-112329746D01*
X82675506Y-112489701D01*
X82675499Y-112489707D01*
X82489707Y-112675499D01*
X82489701Y-112675506D01*
X82329746Y-112883965D01*
X82198364Y-113111522D01*
X82198359Y-113111533D01*
X82097809Y-113354282D01*
X82097806Y-113354293D01*
X82029798Y-113608103D01*
X81995500Y-113868610D01*
X80500500Y-113868610D01*
X80500500Y-109208107D01*
X107595500Y-109208107D01*
X107595500Y-109478184D01*
X107625736Y-109746542D01*
X107685832Y-110009845D01*
X107685836Y-110009857D01*
X107775028Y-110264751D01*
X107775034Y-110264765D01*
X107892207Y-110508078D01*
X107892209Y-110508081D01*
X108035894Y-110736754D01*
X108204278Y-110947901D01*
X108395245Y-111138868D01*
X108606392Y-111307252D01*
X108835065Y-111450937D01*
X109078388Y-111568115D01*
X109078394Y-111568117D01*
X109333288Y-111657309D01*
X109333300Y-111657313D01*
X109596597Y-111717408D01*
X109596600Y-111717408D01*
X109596603Y-111717409D01*
X109596602Y-111717409D01*
X109730781Y-111732527D01*
X109864962Y-111747645D01*
X109864963Y-111747646D01*
X109864966Y-111747646D01*
X110135037Y-111747646D01*
X110135037Y-111747645D01*
X110328848Y-111725808D01*
X110403396Y-111717409D01*
X110403397Y-111717408D01*
X110403403Y-111717408D01*
X110666700Y-111657313D01*
X110921612Y-111568115D01*
X111164935Y-111450937D01*
X111393608Y-111307252D01*
X111604755Y-111138868D01*
X111795722Y-110947901D01*
X111964106Y-110736754D01*
X112107791Y-110508081D01*
X112224969Y-110264758D01*
X112314167Y-110009846D01*
X112374262Y-109746549D01*
X112404500Y-109478180D01*
X112404500Y-109208112D01*
X112374262Y-108939743D01*
X112314167Y-108676446D01*
X112224969Y-108421534D01*
X112107791Y-108178211D01*
X111964106Y-107949538D01*
X111795722Y-107738391D01*
X111604755Y-107547424D01*
X111393608Y-107379040D01*
X111164935Y-107235355D01*
X111164932Y-107235353D01*
X110921619Y-107118180D01*
X110921605Y-107118174D01*
X110666711Y-107028982D01*
X110666699Y-107028978D01*
X110403396Y-106968882D01*
X110403397Y-106968882D01*
X110135038Y-106938646D01*
X110135034Y-106938646D01*
X109864966Y-106938646D01*
X109864961Y-106938646D01*
X109596603Y-106968882D01*
X109333300Y-107028978D01*
X109333288Y-107028982D01*
X109078394Y-107118174D01*
X109078380Y-107118180D01*
X108835067Y-107235353D01*
X108606393Y-107379039D01*
X108395245Y-107547423D01*
X108204277Y-107738391D01*
X108035893Y-107949539D01*
X107892207Y-108178213D01*
X107775034Y-108421526D01*
X107775028Y-108421540D01*
X107685836Y-108676434D01*
X107685832Y-108676446D01*
X107625736Y-108939749D01*
X107595500Y-109208107D01*
X80500500Y-109208107D01*
X80500500Y-92237544D01*
X90624937Y-92237544D01*
X90624937Y-92507621D01*
X90655173Y-92775979D01*
X90715269Y-93039282D01*
X90715273Y-93039294D01*
X90804465Y-93294188D01*
X90804471Y-93294202D01*
X90921644Y-93537515D01*
X90921646Y-93537518D01*
X91065331Y-93766191D01*
X91233715Y-93977338D01*
X91424682Y-94168305D01*
X91635829Y-94336689D01*
X91864502Y-94480374D01*
X92107825Y-94597552D01*
X92107831Y-94597554D01*
X92362725Y-94686746D01*
X92362737Y-94686750D01*
X92626034Y-94746845D01*
X92626037Y-94746845D01*
X92626040Y-94746846D01*
X92626039Y-94746846D01*
X92760218Y-94761964D01*
X92894399Y-94777082D01*
X92894400Y-94777083D01*
X92894403Y-94777083D01*
X93164474Y-94777083D01*
X93164474Y-94777082D01*
X93358285Y-94755245D01*
X93432833Y-94746846D01*
X93432834Y-94746845D01*
X93432840Y-94746845D01*
X93696137Y-94686750D01*
X93951049Y-94597552D01*
X94194372Y-94480374D01*
X94423045Y-94336689D01*
X94634192Y-94168305D01*
X94825159Y-93977338D01*
X94993543Y-93766191D01*
X95137228Y-93537518D01*
X95254406Y-93294195D01*
X95343604Y-93039283D01*
X95403699Y-92775986D01*
X95433937Y-92507617D01*
X95433937Y-92372580D01*
X95934083Y-92372580D01*
X95934083Y-92372585D01*
X95951837Y-93039294D01*
X95954019Y-93121202D01*
X95967866Y-93294202D01*
X96013769Y-93867701D01*
X96113164Y-94609952D01*
X96113166Y-94609964D01*
X96251927Y-95345882D01*
X96429651Y-96073350D01*
X96429651Y-96073352D01*
X96645843Y-96790333D01*
X96645855Y-96790369D01*
X96899903Y-97494835D01*
X97191086Y-98184790D01*
X97518571Y-98858257D01*
X97881458Y-99513379D01*
X98278668Y-100148210D01*
X98278668Y-100148211D01*
X98709134Y-100761050D01*
X98709145Y-100761064D01*
X99171580Y-101350074D01*
X99664722Y-101913655D01*
X100187171Y-102450202D01*
X100737438Y-102958185D01*
X100737440Y-102958187D01*
X101313939Y-103436143D01*
X101313981Y-103436176D01*
X101915077Y-103882755D01*
X101915088Y-103882762D01*
X102539144Y-104296745D01*
X103184348Y-104676928D01*
X103848872Y-105022233D01*
X103848882Y-105022238D01*
X104161502Y-105164093D01*
X104530831Y-105331681D01*
X105228294Y-105604395D01*
X105228310Y-105604400D01*
X105228320Y-105604404D01*
X105939257Y-105839594D01*
X105939268Y-105839597D01*
X105939283Y-105839602D01*
X106661782Y-106036635D01*
X107393744Y-106194936D01*
X108133094Y-106314056D01*
X108877735Y-106393658D01*
X109625558Y-106433515D01*
X109625562Y-106433515D01*
X110374438Y-106433515D01*
X110374442Y-106433515D01*
X111122265Y-106393658D01*
X111866906Y-106314056D01*
X112606256Y-106194936D01*
X113338218Y-106036635D01*
X114060717Y-105839602D01*
X114060736Y-105839595D01*
X114060742Y-105839594D01*
X114771679Y-105604404D01*
X114771680Y-105604403D01*
X114771706Y-105604395D01*
X115469169Y-105331681D01*
X116151128Y-105022233D01*
X116815652Y-104676928D01*
X117460856Y-104296745D01*
X118084912Y-103882762D01*
X118084916Y-103882758D01*
X118084922Y-103882755D01*
X118686018Y-103436176D01*
X118686023Y-103436171D01*
X118686050Y-103436152D01*
X119262566Y-102958181D01*
X119812827Y-102450204D01*
X120335272Y-101913661D01*
X120828421Y-101350073D01*
X121290875Y-100761037D01*
X121721324Y-100148223D01*
X122118548Y-99513368D01*
X122481421Y-98858272D01*
X122808913Y-98184791D01*
X123100097Y-97494835D01*
X123354148Y-96790360D01*
X123570345Y-96073362D01*
X123570345Y-96073361D01*
X123570348Y-96073352D01*
X123570348Y-96073350D01*
X123606289Y-95926236D01*
X123748075Y-95345873D01*
X123886835Y-94609957D01*
X123986231Y-93867698D01*
X124045981Y-93121202D01*
X124065917Y-92372583D01*
X124062321Y-92237544D01*
X124566063Y-92237544D01*
X124566063Y-92507621D01*
X124596299Y-92775979D01*
X124656395Y-93039282D01*
X124656399Y-93039294D01*
X124745591Y-93294188D01*
X124745597Y-93294202D01*
X124862770Y-93537515D01*
X124862772Y-93537518D01*
X125006457Y-93766191D01*
X125174841Y-93977338D01*
X125365808Y-94168305D01*
X125576955Y-94336689D01*
X125805628Y-94480374D01*
X126048951Y-94597552D01*
X126048957Y-94597554D01*
X126303851Y-94686746D01*
X126303863Y-94686750D01*
X126567160Y-94746845D01*
X126567163Y-94746845D01*
X126567166Y-94746846D01*
X126567165Y-94746846D01*
X126701344Y-94761964D01*
X126835525Y-94777082D01*
X126835526Y-94777083D01*
X126835529Y-94777083D01*
X127105600Y-94777083D01*
X127105600Y-94777082D01*
X127299411Y-94755245D01*
X127373959Y-94746846D01*
X127373960Y-94746845D01*
X127373966Y-94746845D01*
X127637263Y-94686750D01*
X127892175Y-94597552D01*
X128135498Y-94480374D01*
X128364171Y-94336689D01*
X128575318Y-94168305D01*
X128766285Y-93977338D01*
X128934669Y-93766191D01*
X129078354Y-93537518D01*
X129195532Y-93294195D01*
X129284730Y-93039283D01*
X129344825Y-92775986D01*
X129375063Y-92507617D01*
X129375063Y-92237549D01*
X129344825Y-91969180D01*
X129284730Y-91705883D01*
X129256071Y-91623982D01*
X129195534Y-91450977D01*
X129195532Y-91450971D01*
X129078354Y-91207648D01*
X128934669Y-90978975D01*
X128766285Y-90767828D01*
X128575318Y-90576861D01*
X128364171Y-90408477D01*
X128135498Y-90264792D01*
X128135495Y-90264790D01*
X127892182Y-90147617D01*
X127892168Y-90147611D01*
X127637274Y-90058419D01*
X127637262Y-90058415D01*
X127373959Y-89998319D01*
X127373960Y-89998319D01*
X127105601Y-89968083D01*
X127105597Y-89968083D01*
X126835529Y-89968083D01*
X126835524Y-89968083D01*
X126567166Y-89998319D01*
X126303863Y-90058415D01*
X126303851Y-90058419D01*
X126048957Y-90147611D01*
X126048943Y-90147617D01*
X125805630Y-90264790D01*
X125576956Y-90408476D01*
X125365808Y-90576860D01*
X125174840Y-90767828D01*
X125006456Y-90978976D01*
X124862770Y-91207650D01*
X124745597Y-91450963D01*
X124745591Y-91450977D01*
X124656399Y-91705871D01*
X124656395Y-91705883D01*
X124596299Y-91969186D01*
X124566063Y-92237544D01*
X124062321Y-92237544D01*
X124045981Y-91623964D01*
X123986231Y-90877468D01*
X123886835Y-90135209D01*
X123748075Y-89399293D01*
X123570348Y-88671815D01*
X123570348Y-88671813D01*
X123354156Y-87954832D01*
X123354154Y-87954826D01*
X123354148Y-87954806D01*
X123100097Y-87250331D01*
X122808913Y-86560375D01*
X122481421Y-85886894D01*
X122118548Y-85231798D01*
X122118544Y-85231793D01*
X122118541Y-85231786D01*
X121919936Y-84914370D01*
X121721324Y-84596943D01*
X121290875Y-83984129D01*
X121290873Y-83984126D01*
X121290865Y-83984115D01*
X121290854Y-83984101D01*
X120828419Y-83395091D01*
X120335277Y-82831510D01*
X119812828Y-82294963D01*
X119262561Y-81786980D01*
X119262559Y-81786978D01*
X118686060Y-81309022D01*
X118686018Y-81308989D01*
X118084922Y-80862410D01*
X117460855Y-80448420D01*
X116940510Y-80141810D01*
X116815652Y-80068238D01*
X116271507Y-79785485D01*
X116151117Y-79722927D01*
X115469169Y-79413485D01*
X114771706Y-79140771D01*
X114771700Y-79140769D01*
X114771695Y-79140767D01*
X114771679Y-79140761D01*
X114060742Y-78905571D01*
X114060706Y-78905561D01*
X113338245Y-78708538D01*
X113338207Y-78708528D01*
X112606271Y-78550233D01*
X112606261Y-78550231D01*
X112606256Y-78550230D01*
X112606251Y-78550229D01*
X112606224Y-78550224D01*
X111866927Y-78431113D01*
X111866916Y-78431111D01*
X111122259Y-78351507D01*
X111122261Y-78351507D01*
X110374450Y-78311651D01*
X110374442Y-78311651D01*
X109625558Y-78311651D01*
X109625549Y-78311651D01*
X108877739Y-78351507D01*
X108133083Y-78431111D01*
X108133072Y-78431113D01*
X107393775Y-78550224D01*
X107393728Y-78550233D01*
X106661792Y-78708528D01*
X106661754Y-78708538D01*
X105939293Y-78905561D01*
X105939257Y-78905571D01*
X105228320Y-79140761D01*
X105228304Y-79140767D01*
X104530830Y-79413485D01*
X103848882Y-79722927D01*
X103508291Y-79899908D01*
X103184348Y-80068238D01*
X103184337Y-80068244D01*
X103184336Y-80068245D01*
X102539144Y-80448420D01*
X101915077Y-80862410D01*
X101313981Y-81308989D01*
X101313939Y-81309022D01*
X100737440Y-81786978D01*
X100737438Y-81786980D01*
X100187171Y-82294963D01*
X99664722Y-82831510D01*
X99171580Y-83395091D01*
X98709145Y-83984101D01*
X98709134Y-83984115D01*
X98278668Y-84596954D01*
X98278668Y-84596955D01*
X97881458Y-85231786D01*
X97518571Y-85886908D01*
X97191086Y-86560375D01*
X96899903Y-87250330D01*
X96645855Y-87954796D01*
X96645843Y-87954832D01*
X96429651Y-88671813D01*
X96429651Y-88671815D01*
X96251927Y-89399283D01*
X96113166Y-90135201D01*
X96113164Y-90135213D01*
X96013769Y-90877464D01*
X96013769Y-90877468D01*
X95967866Y-91450971D01*
X95954019Y-91623967D01*
X95954018Y-91623982D01*
X95934083Y-92372580D01*
X95433937Y-92372580D01*
X95433937Y-92237549D01*
X95403699Y-91969180D01*
X95343604Y-91705883D01*
X95314945Y-91623982D01*
X95254408Y-91450977D01*
X95254406Y-91450971D01*
X95137228Y-91207648D01*
X94993543Y-90978975D01*
X94825159Y-90767828D01*
X94634192Y-90576861D01*
X94423045Y-90408477D01*
X94194372Y-90264792D01*
X94194369Y-90264790D01*
X93951056Y-90147617D01*
X93951042Y-90147611D01*
X93696148Y-90058419D01*
X93696136Y-90058415D01*
X93432833Y-89998319D01*
X93432834Y-89998319D01*
X93164475Y-89968083D01*
X93164471Y-89968083D01*
X92894403Y-89968083D01*
X92894398Y-89968083D01*
X92626040Y-89998319D01*
X92362737Y-90058415D01*
X92362725Y-90058419D01*
X92107831Y-90147611D01*
X92107817Y-90147617D01*
X91864504Y-90264790D01*
X91635830Y-90408476D01*
X91424682Y-90576860D01*
X91233714Y-90767828D01*
X91065330Y-90978976D01*
X90921644Y-91207650D01*
X90804471Y-91450963D01*
X90804465Y-91450977D01*
X90715273Y-91705871D01*
X90715269Y-91705883D01*
X90655173Y-91969186D01*
X90624937Y-92237544D01*
X80500500Y-92237544D01*
X80500500Y-75266981D01*
X107595500Y-75266981D01*
X107595500Y-75537058D01*
X107625736Y-75805416D01*
X107685832Y-76068719D01*
X107685836Y-76068731D01*
X107775028Y-76323625D01*
X107775034Y-76323639D01*
X107892207Y-76566952D01*
X107892209Y-76566955D01*
X108035894Y-76795628D01*
X108204278Y-77006775D01*
X108395245Y-77197742D01*
X108606392Y-77366126D01*
X108835065Y-77509811D01*
X109078388Y-77626989D01*
X109078394Y-77626991D01*
X109333288Y-77716183D01*
X109333300Y-77716187D01*
X109596597Y-77776282D01*
X109596600Y-77776282D01*
X109596603Y-77776283D01*
X109596602Y-77776283D01*
X109730781Y-77791401D01*
X109864962Y-77806519D01*
X109864963Y-77806520D01*
X109864966Y-77806520D01*
X110135037Y-77806520D01*
X110135037Y-77806519D01*
X110328848Y-77784682D01*
X110403396Y-77776283D01*
X110403397Y-77776282D01*
X110403403Y-77776282D01*
X110666700Y-77716187D01*
X110921612Y-77626989D01*
X111164935Y-77509811D01*
X111393608Y-77366126D01*
X111604755Y-77197742D01*
X111795722Y-77006775D01*
X111964106Y-76795628D01*
X112107791Y-76566955D01*
X112224969Y-76323632D01*
X112314167Y-76068720D01*
X112374262Y-75805423D01*
X112404500Y-75537054D01*
X112404500Y-75266986D01*
X112374262Y-74998617D01*
X112314167Y-74735320D01*
X112224969Y-74480408D01*
X112107791Y-74237085D01*
X111964106Y-74008412D01*
X111795722Y-73797265D01*
X111604755Y-73606298D01*
X111393608Y-73437914D01*
X111164935Y-73294229D01*
X111164932Y-73294227D01*
X110921619Y-73177054D01*
X110921605Y-73177048D01*
X110666711Y-73087856D01*
X110666699Y-73087852D01*
X110403396Y-73027756D01*
X110403397Y-73027756D01*
X110135038Y-72997520D01*
X110135034Y-72997520D01*
X109864966Y-72997520D01*
X109864961Y-72997520D01*
X109596603Y-73027756D01*
X109333300Y-73087852D01*
X109333288Y-73087856D01*
X109078394Y-73177048D01*
X109078380Y-73177054D01*
X108835067Y-73294227D01*
X108606393Y-73437913D01*
X108395245Y-73606297D01*
X108204277Y-73797265D01*
X108035893Y-74008413D01*
X107892207Y-74237087D01*
X107775034Y-74480400D01*
X107775028Y-74480414D01*
X107685836Y-74735308D01*
X107685832Y-74735320D01*
X107625736Y-74998623D01*
X107595500Y-75266981D01*
X80500500Y-75266981D01*
X80500500Y-53868610D01*
X81995500Y-53868610D01*
X81995500Y-54131389D01*
X82022176Y-54334005D01*
X82029798Y-54391898D01*
X82097806Y-54645708D01*
X82097807Y-54645711D01*
X82097809Y-54645717D01*
X82198359Y-54888466D01*
X82198364Y-54888477D01*
X82277362Y-55025303D01*
X82329743Y-55116030D01*
X82329745Y-55116033D01*
X82329746Y-55116034D01*
X82489701Y-55324493D01*
X82489707Y-55324500D01*
X82675499Y-55510292D01*
X82675505Y-55510297D01*
X82883970Y-55670257D01*
X83030223Y-55754696D01*
X83111522Y-55801635D01*
X83111527Y-55801637D01*
X83111530Y-55801639D01*
X83354292Y-55902194D01*
X83608102Y-55970202D01*
X83868618Y-56004500D01*
X83868625Y-56004500D01*
X84131375Y-56004500D01*
X84131382Y-56004500D01*
X84391898Y-55970202D01*
X84645708Y-55902194D01*
X84888470Y-55801639D01*
X85116030Y-55670257D01*
X85324495Y-55510297D01*
X85510297Y-55324495D01*
X85670257Y-55116030D01*
X85801639Y-54888470D01*
X85902194Y-54645708D01*
X85970202Y-54391898D01*
X86004500Y-54131382D01*
X86004500Y-53868618D01*
X85970202Y-53608102D01*
X85902194Y-53354292D01*
X85801639Y-53111530D01*
X85801637Y-53111527D01*
X85801635Y-53111522D01*
X85754696Y-53030223D01*
X85670257Y-52883970D01*
X85510297Y-52675505D01*
X85510292Y-52675499D01*
X85324500Y-52489707D01*
X85324493Y-52489701D01*
X85116034Y-52329746D01*
X85116033Y-52329745D01*
X85116030Y-52329743D01*
X85025303Y-52277362D01*
X84888477Y-52198364D01*
X84888466Y-52198359D01*
X84645717Y-52097809D01*
X84645711Y-52097807D01*
X84645708Y-52097806D01*
X84391898Y-52029798D01*
X84334005Y-52022176D01*
X84131389Y-51995500D01*
X84131382Y-51995500D01*
X83868618Y-51995500D01*
X83868610Y-51995500D01*
X83637048Y-52025987D01*
X83608102Y-52029798D01*
X83354292Y-52097806D01*
X83354290Y-52097806D01*
X83354282Y-52097809D01*
X83111533Y-52198359D01*
X83111522Y-52198364D01*
X82883965Y-52329746D01*
X82675506Y-52489701D01*
X82675499Y-52489707D01*
X82489707Y-52675499D01*
X82489701Y-52675506D01*
X82329746Y-52883965D01*
X82198364Y-53111522D01*
X82198359Y-53111533D01*
X82097809Y-53354282D01*
X82097806Y-53354293D01*
X82029798Y-53608103D01*
X81995500Y-53868610D01*
X80500500Y-53868610D01*
X80500500Y-50624500D01*
X80520185Y-50557461D01*
X80572989Y-50511706D01*
X80624500Y-50500500D01*
X109670500Y-50500500D01*
X109737539Y-50520185D01*
G37*
%TD.AperFunction*%
%TD*%
%TA.AperFunction,Conductor*%
%TO.N,VCC*%
G36*
X139442539Y-50520185D02*
G01*
X139488294Y-50572989D01*
X139499500Y-50624500D01*
X139499500Y-136876000D01*
X139479815Y-136943039D01*
X139427011Y-136988794D01*
X139375500Y-137000000D01*
X130624000Y-137000000D01*
X130556961Y-136980315D01*
X130511206Y-136927511D01*
X130500000Y-136876000D01*
X130500000Y-113868610D01*
X133995500Y-113868610D01*
X133995500Y-114131389D01*
X134022176Y-114334005D01*
X134029798Y-114391898D01*
X134097806Y-114645708D01*
X134097807Y-114645711D01*
X134097809Y-114645717D01*
X134198359Y-114888466D01*
X134198364Y-114888477D01*
X134277362Y-115025303D01*
X134329743Y-115116030D01*
X134329745Y-115116033D01*
X134329746Y-115116034D01*
X134489701Y-115324493D01*
X134489707Y-115324500D01*
X134675499Y-115510292D01*
X134675506Y-115510298D01*
X134792409Y-115600000D01*
X134883970Y-115670257D01*
X135030223Y-115754696D01*
X135111522Y-115801635D01*
X135111527Y-115801637D01*
X135111530Y-115801639D01*
X135354292Y-115902194D01*
X135608102Y-115970202D01*
X135868618Y-116004500D01*
X135868625Y-116004500D01*
X136131375Y-116004500D01*
X136131382Y-116004500D01*
X136391898Y-115970202D01*
X136645708Y-115902194D01*
X136888470Y-115801639D01*
X137116030Y-115670257D01*
X137324495Y-115510297D01*
X137510297Y-115324495D01*
X137670257Y-115116030D01*
X137801639Y-114888470D01*
X137902194Y-114645708D01*
X137970202Y-114391898D01*
X138004500Y-114131382D01*
X138004500Y-113868618D01*
X137970202Y-113608102D01*
X137902194Y-113354292D01*
X137801639Y-113111530D01*
X137801637Y-113111527D01*
X137801635Y-113111522D01*
X137754696Y-113030223D01*
X137670257Y-112883970D01*
X137510297Y-112675505D01*
X137510292Y-112675499D01*
X137324500Y-112489707D01*
X137324493Y-112489701D01*
X137116034Y-112329746D01*
X137116033Y-112329745D01*
X137116030Y-112329743D01*
X137025303Y-112277362D01*
X136888477Y-112198364D01*
X136888466Y-112198359D01*
X136645717Y-112097809D01*
X136645711Y-112097807D01*
X136645708Y-112097806D01*
X136391898Y-112029798D01*
X136334005Y-112022176D01*
X136131389Y-111995500D01*
X136131382Y-111995500D01*
X135868618Y-111995500D01*
X135868610Y-111995500D01*
X135637048Y-112025987D01*
X135608102Y-112029798D01*
X135354292Y-112097806D01*
X135354290Y-112097806D01*
X135354282Y-112097809D01*
X135111533Y-112198359D01*
X135111522Y-112198364D01*
X134883965Y-112329746D01*
X134675506Y-112489701D01*
X134675499Y-112489707D01*
X134489707Y-112675499D01*
X134489701Y-112675506D01*
X134329746Y-112883965D01*
X134198364Y-113111522D01*
X134198359Y-113111533D01*
X134097809Y-113354282D01*
X134097806Y-113354293D01*
X134029798Y-113608103D01*
X133995500Y-113868610D01*
X130500000Y-113868610D01*
X130500000Y-64000000D01*
X110124000Y-64000000D01*
X110056961Y-63980315D01*
X110011206Y-63927511D01*
X110000000Y-63876000D01*
X110000000Y-53868610D01*
X133995500Y-53868610D01*
X133995500Y-54131389D01*
X134022176Y-54334005D01*
X134029798Y-54391898D01*
X134097806Y-54645708D01*
X134097807Y-54645711D01*
X134097809Y-54645717D01*
X134198359Y-54888466D01*
X134198364Y-54888477D01*
X134277362Y-55025303D01*
X134329743Y-55116030D01*
X134329745Y-55116033D01*
X134329746Y-55116034D01*
X134489701Y-55324493D01*
X134489707Y-55324500D01*
X134675499Y-55510292D01*
X134675505Y-55510297D01*
X134883970Y-55670257D01*
X135030223Y-55754696D01*
X135111522Y-55801635D01*
X135111527Y-55801637D01*
X135111530Y-55801639D01*
X135354292Y-55902194D01*
X135608102Y-55970202D01*
X135868618Y-56004500D01*
X135868625Y-56004500D01*
X136131375Y-56004500D01*
X136131382Y-56004500D01*
X136391898Y-55970202D01*
X136645708Y-55902194D01*
X136888470Y-55801639D01*
X137116030Y-55670257D01*
X137324495Y-55510297D01*
X137510297Y-55324495D01*
X137670257Y-55116030D01*
X137801639Y-54888470D01*
X137902194Y-54645708D01*
X137970202Y-54391898D01*
X138004500Y-54131382D01*
X138004500Y-53868618D01*
X137970202Y-53608102D01*
X137902194Y-53354292D01*
X137801639Y-53111530D01*
X137801637Y-53111527D01*
X137801635Y-53111522D01*
X137754696Y-53030223D01*
X137670257Y-52883970D01*
X137510297Y-52675505D01*
X137510292Y-52675499D01*
X137324500Y-52489707D01*
X137324493Y-52489701D01*
X137116034Y-52329746D01*
X137116033Y-52329745D01*
X137116030Y-52329743D01*
X137025303Y-52277362D01*
X136888477Y-52198364D01*
X136888466Y-52198359D01*
X136645717Y-52097809D01*
X136645711Y-52097807D01*
X136645708Y-52097806D01*
X136391898Y-52029798D01*
X136334005Y-52022176D01*
X136131389Y-51995500D01*
X136131382Y-51995500D01*
X135868618Y-51995500D01*
X135868610Y-51995500D01*
X135637048Y-52025987D01*
X135608102Y-52029798D01*
X135354292Y-52097806D01*
X135354290Y-52097806D01*
X135354282Y-52097809D01*
X135111533Y-52198359D01*
X135111522Y-52198364D01*
X134883965Y-52329746D01*
X134675506Y-52489701D01*
X134675499Y-52489707D01*
X134489707Y-52675499D01*
X134489701Y-52675506D01*
X134329746Y-52883965D01*
X134198364Y-53111522D01*
X134198359Y-53111533D01*
X134097809Y-53354282D01*
X134097806Y-53354293D01*
X134029798Y-53608103D01*
X133995500Y-53868610D01*
X110000000Y-53868610D01*
X110000000Y-50624500D01*
X110019685Y-50557461D01*
X110072489Y-50511706D01*
X110124000Y-50500500D01*
X139375500Y-50500500D01*
X139442539Y-50520185D01*
G37*
%TD.AperFunction*%
%TD*%
M02*
