M48
; DRILL file {KiCad 9.0.3-9.0.3-0~ubuntu24.04.1} date 2025-09-09T21:38:25+0200
; FORMAT={-:-/ absolute / inch / decimal}
; #@! TF.CreationDate,2025-09-09T21:38:25+02:00
; #@! TF.GenerationSoftware,Kicad,Pcbnew,9.0.3-9.0.3-0~ubuntu24.04.1
; #@! TF.FileFunction,Plated,1,2,PTH
FMAT,2
INCH
; #@! TA.AperFunction,Plated,PTH,ViaDrill
T1C0.0118
; #@! TA.AperFunction,Plated,PTH,ViaDrill
T2C0.0138
; #@! TA.AperFunction,Plated,PTH,ComponentDrill
T3C0.0236
; #@! TA.AperFunction,Plated,PTH,ComponentDrill
T4C0.0315
; #@! TA.AperFunction,Plated,PTH,ComponentDrill
T5C0.0350
; #@! TA.AperFunction,Plated,PTH,ComponentDrill
T6C0.0374
; #@! TA.AperFunction,Plated,PTH,ComponentDrill
T7C0.0394
; #@! TA.AperFunction,Plated,PTH,ComponentDrill
T8C0.0618
; #@! TA.AperFunction,Plated,PTH,ComponentDrill
T9C0.1063
; #@! TA.AperFunction,Plated,PTH,ComponentDrill
T10C0.1575
%
G90
G05
T1
X3.2486Y-1.8305
X3.2486Y-1.9305
X3.2486Y-2.0305
X3.2486Y-2.2305
X3.2486Y-2.3305
X3.2486Y-2.4305
X3.2486Y-2.5305
X3.2486Y-2.6305
X3.2486Y-2.7305
X3.2486Y-2.8305
X3.2486Y-2.9305
X3.2486Y-3.0305
X3.2486Y-3.1305
X3.2486Y-3.2305
X3.2486Y-3.3305
X3.2486Y-3.4305
X3.2486Y-3.5305
X3.2486Y-3.6305
X3.2486Y-3.7305
X3.2486Y-3.8305
X3.2486Y-3.9305
X3.2486Y-4.0305
X3.2486Y-4.1305
X3.2486Y-4.2305
X3.2486Y-4.3305
X3.2486Y-4.6305
X3.2486Y-4.7305
X3.2486Y-4.8305
X3.2486Y-4.9305
X3.2486Y-5.0305
X3.2486Y-5.7305
X3.3486Y-1.8305
X3.3486Y-1.9305
X3.3486Y-2.0305
X3.3486Y-2.2305
X3.3486Y-2.3305
X3.3486Y-2.4305
X3.3486Y-2.5305
X3.3486Y-2.6305
X3.3486Y-2.7305
X3.3486Y-2.8305
X3.3486Y-2.9305
X3.3486Y-3.0305
X3.3486Y-3.1305
X3.3486Y-3.2305
X3.3486Y-3.3305
X3.3486Y-3.4305
X3.3486Y-3.5305
X3.3486Y-3.6305
X3.3486Y-3.7305
X3.3486Y-3.8305
X3.3486Y-3.9305
X3.3486Y-4.0305
X3.3486Y-4.1305
X3.3486Y-4.2305
X3.3486Y-4.3305
X3.3486Y-4.6305
X3.3486Y-5.3305
X3.3486Y-5.7305
X3.4486Y-1.8305
X3.4486Y-1.9305
X3.4486Y-2.0305
X3.4486Y-2.1305
X3.4486Y-2.2305
X3.4486Y-2.3305
X3.4486Y-2.4305
X3.4486Y-2.5305
X3.4486Y-2.6305
X3.4486Y-2.7305
X3.4486Y-2.8305
X3.4486Y-2.9305
X3.4486Y-3.0305
X3.4486Y-3.1305
X3.4486Y-3.2305
X3.4486Y-3.3305
X3.4486Y-3.4305
X3.4486Y-3.5305
X3.4486Y-3.6305
X3.4486Y-3.7305
X3.4486Y-3.8305
X3.4486Y-3.9305
X3.4486Y-4.0305
X3.4486Y-4.1305
X3.4486Y-4.2305
X3.4486Y-4.3305
X3.4486Y-4.4305
X3.4486Y-4.5305
X3.4486Y-4.6305
X3.4486Y-4.7305
X3.4486Y-4.8305
X3.4486Y-5.2305
X3.4486Y-5.3305
X3.4486Y-5.6305
X3.4486Y-5.7305
X3.5354Y-5.0748
X3.5472Y-5.1587
X3.5486Y-1.8305
X3.5486Y-1.9305
X3.5486Y-2.0305
X3.5486Y-2.1305
X3.5486Y-2.2305
X3.5486Y-2.3305
X3.5486Y-2.4305
X3.5486Y-2.5305
X3.5486Y-2.6305
X3.5486Y-2.7305
X3.5486Y-2.8305
X3.5486Y-2.9305
X3.5486Y-3.0305
X3.5486Y-3.1305
X3.5486Y-3.2305
X3.5486Y-3.3305
X3.5486Y-3.4305
X3.5486Y-3.5305
X3.5486Y-3.6305
X3.5486Y-3.7305
X3.5486Y-3.8305
X3.5486Y-3.9305
X3.5486Y-4.0305
X3.5486Y-4.1305
X3.5486Y-4.2305
X3.5486Y-4.3305
X3.5486Y-4.4305
X3.5486Y-4.6305
X3.5486Y-5.2305
X3.6083Y-5.156
X3.6299Y-4.9882
X3.6339Y-5.1024
X3.6486Y-1.8305
X3.6486Y-1.9305
X3.6486Y-2.0305
X3.6486Y-2.1305
X3.6486Y-2.2305
X3.6486Y-2.3305
X3.6486Y-2.4305
X3.6486Y-2.5305
X3.6486Y-2.6305
X3.6486Y-2.7305
X3.6486Y-2.8305
X3.6486Y-2.9305
X3.6486Y-3.0305
X3.6486Y-3.1305
X3.6486Y-3.2305
X3.6486Y-3.3305
X3.6486Y-3.4305
X3.6486Y-3.8305
X3.6486Y-3.9305
X3.6486Y-4.0305
X3.6486Y-4.1305
X3.6486Y-4.2305
X3.6486Y-4.3305
X3.6486Y-4.4305
X3.6486Y-4.6305
X3.6486Y-5.2305
X3.6575Y-4.8622
X3.6614Y-4.9252
X3.7008Y-5.2
X3.7115Y-4.8906
X3.7486Y-1.8305
X3.7486Y-1.9305
X3.7486Y-2.0305
X3.7486Y-2.1305
X3.7486Y-2.2305
X3.7486Y-2.3305
X3.7486Y-2.4305
X3.7486Y-2.5305
X3.7486Y-2.6305
X3.7486Y-2.7305
X3.7486Y-2.8305
X3.7486Y-2.9305
X3.7486Y-3.0305
X3.7486Y-3.1305
X3.7486Y-3.2305
X3.7486Y-3.3305
X3.7486Y-3.4305
X3.7486Y-3.5305
X3.7486Y-3.7305
X3.7486Y-3.8305
X3.7486Y-3.9305
X3.7486Y-4.0305
X3.7486Y-4.1305
X3.7486Y-4.2305
X3.7486Y-4.3305
X3.7486Y-4.4305
X3.7486Y-4.6305
X3.7486Y-5.1305
X3.7486Y-5.4305
X3.8486Y-1.8305
X3.8486Y-1.9305
X3.8486Y-2.0305
X3.8486Y-2.3305
X3.8486Y-2.4305
X3.8486Y-2.5305
X3.8486Y-2.6305
X3.8486Y-2.7305
X3.8486Y-2.8305
X3.8486Y-2.9305
X3.8486Y-3.0305
X3.8486Y-3.1305
X3.8486Y-3.2305
X3.8486Y-4.0305
X3.8486Y-4.1305
X3.8486Y-4.2305
X3.8486Y-4.3305
X3.8486Y-4.4305
X3.8486Y-4.9305
X3.8486Y-5.0305
X3.8486Y-5.1305
X3.9027Y-4.9109
X3.9486Y-1.8305
X3.9486Y-1.9305
X3.9486Y-2.4305
X3.9486Y-2.5305
X3.9486Y-2.6305
X3.9486Y-2.7305
X3.9486Y-2.8305
X3.9486Y-2.9305
X3.9486Y-3.0305
X3.9486Y-3.1305
X3.9486Y-4.1305
X3.9486Y-4.2305
X3.9486Y-4.3305
X3.9486Y-4.4305
X3.9486Y-4.7305
X3.9486Y-5.5305
X3.9486Y-5.6305
X3.9694Y-4.8237
X3.9803Y-5.198
X4.0486Y-1.8305
X4.0486Y-1.9305
X4.0486Y-2.4305
X4.0486Y-2.5305
X4.0486Y-2.6305
X4.0486Y-2.7305
X4.0486Y-2.8305
X4.0486Y-2.9305
X4.0486Y-3.0305
X4.0486Y-3.1305
X4.0486Y-4.2305
X4.0486Y-4.3305
X4.0486Y-4.5305
X4.0486Y-4.6305
X4.0486Y-4.7305
X4.0486Y-4.8305
X4.0486Y-4.9305
X4.0486Y-5.0305
X4.0486Y-5.1305
X4.1486Y-1.8305
X4.1486Y-1.9305
X4.1486Y-2.0305
X4.1486Y-2.3305
X4.1486Y-2.4305
X4.1486Y-2.5305
X4.1486Y-2.6305
X4.1486Y-2.7305
X4.1486Y-2.8305
X4.1486Y-2.9305
X4.1486Y-3.0305
X4.1486Y-4.2305
X4.1486Y-4.3305
X4.1486Y-5.4305
X4.1486Y-5.5305
X4.2043Y-5.0079
X4.2486Y-1.8305
X4.2486Y-1.9305
X4.2486Y-2.0305
X4.2486Y-2.1305
X4.2486Y-2.2305
X4.2486Y-2.3305
X4.2486Y-2.4305
X4.2486Y-2.5305
X4.2486Y-2.6305
X4.2486Y-2.7305
X4.2486Y-2.8305
X4.2486Y-4.2305
X4.2486Y-4.3305
X4.3486Y-1.8305
X4.3486Y-1.9305
X4.3486Y-2.6305
X4.3486Y-2.7305
X4.3486Y-2.8305
X4.3486Y-4.2305
X4.3486Y-4.3305
X4.3486Y-5.3305
X4.4486Y-1.8305
X4.4486Y-1.9305
X4.4486Y-2.6305
X4.4486Y-2.7305
X4.4486Y-2.8305
X4.4486Y-2.9305
X4.4486Y-3.0305
X4.4486Y-4.2305
X4.4486Y-4.3305
X4.4486Y-4.6305
X4.4486Y-5.2305
X4.4486Y-5.3305
X4.5486Y-1.8305
X4.5486Y-1.9305
X4.5486Y-2.6305
X4.5486Y-2.7305
X4.5486Y-2.8305
X4.5486Y-2.9305
X4.5486Y-3.0305
X4.5486Y-4.2305
X4.5486Y-4.3305
X4.5486Y-4.4305
X4.5486Y-4.5305
X4.5486Y-4.6305
X4.5486Y-4.8305
X4.5486Y-4.9305
X4.5486Y-5.3305
X4.5486Y-5.4305
X4.6486Y-1.8305
X4.6486Y-1.9305
X4.6486Y-2.6305
X4.6486Y-2.7305
X4.6486Y-2.8305
X4.6486Y-2.9305
X4.6486Y-3.0305
X4.6486Y-3.1305
X4.6486Y-4.1305
X4.6486Y-4.2305
X4.6486Y-4.3305
X4.6486Y-4.4305
X4.6486Y-4.5305
X4.6486Y-5.3305
X4.7486Y-1.8305
X4.7486Y-1.9305
X4.7486Y-2.6305
X4.7486Y-2.7305
X4.7486Y-2.8305
X4.7486Y-2.9305
X4.7486Y-3.0305
X4.7486Y-3.1305
X4.7486Y-3.2305
X4.7486Y-4.1305
X4.7486Y-4.2305
X4.7486Y-4.3305
X4.7486Y-4.4305
X4.7486Y-4.7305
X4.8486Y-1.8305
X4.8486Y-1.9305
X4.8486Y-2.6305
X4.8486Y-2.7305
X4.8486Y-2.8305
X4.8486Y-2.9305
X4.8486Y-3.0305
X4.8486Y-3.1305
X4.8486Y-3.2305
X4.8486Y-3.3305
X4.8486Y-3.9305
X4.8486Y-4.0305
X4.8486Y-4.1305
X4.8486Y-4.2305
X4.8486Y-4.3305
X4.8486Y-4.4305
X4.8486Y-4.6305
X4.8486Y-4.7305
X4.8486Y-4.9305
X4.8486Y-5.0305
X4.9486Y-1.8305
X4.9486Y-1.9305
X4.9486Y-5.3305
X4.9486Y-5.4305
X4.9486Y-5.5305
X4.9486Y-5.6305
X4.9486Y-5.7305
X5.0486Y-1.8305
X5.0486Y-1.9305
X5.0486Y-5.3305
X5.0486Y-5.4305
X5.0486Y-5.5305
X5.0486Y-5.6305
X5.0486Y-5.7305
X5.1486Y-1.8305
X5.1486Y-1.9305
X5.1486Y-5.3305
X5.1486Y-5.4305
X5.1486Y-5.5305
X5.1486Y-5.6305
X5.1486Y-5.7305
X5.2486Y-1.8305
X5.2486Y-1.9305
X5.2486Y-5.3305
X5.2486Y-5.4305
X5.2486Y-5.5305
X5.2486Y-5.6305
X5.2486Y-5.7305
X5.3486Y-1.8305
X5.3486Y-1.9305
X5.3486Y-5.3305
X5.3486Y-5.4305
X5.3486Y-5.5305
X5.3486Y-5.6305
X5.3486Y-5.7305
X5.4486Y-1.8305
X5.4486Y-1.9305
X5.4486Y-5.3305
X5.4486Y-5.5305
X5.4486Y-5.6305
X5.4486Y-5.7305
T2
X3.5214Y-5.1361
X3.523Y-5.1055
X3.5812Y-5.1381
X3.5974Y-5.1122
X3.8985Y-5.267
X3.8985Y-5.3733
X3.9598Y-5.2662
X3.9606Y-5.3733
X4.1457Y-4.7825
X4.2067Y-4.7825
X4.2583Y-5.8057
X4.2871Y-5.7722
X4.3268Y-5.0512
X4.378Y-5.6443
X4.4362Y-5.725
X4.4657Y-5.6906
X4.4744Y-4.8477
X4.622Y-5.0443
X4.6626Y-5.1272
T3
X3.8976Y-2.1654
X3.9322Y-2.0818
X3.9322Y-2.2489
X4.0157Y-2.0472
X4.0157Y-2.2835
X4.0993Y-2.0818
X4.0993Y-2.2489
X4.1339Y-2.1654
X4.5276Y-2.1654
X4.5622Y-2.0818
X4.5622Y-2.2489
X4.6457Y-2.0472
X4.6457Y-2.2835
X4.7292Y-2.0818
X4.7292Y-2.2489
X4.7638Y-2.1654
T4
X4.7075Y-4.5504
X4.7075Y-4.8504
X4.8075Y-4.5504
X4.8075Y-4.8504
T5
X3.2943Y-5.252
X3.3845Y-5.252
X3.4246Y-5.4417
X3.4646Y-5.5118
X3.5046Y-5.4417
X3.5446Y-5.5118
X3.5846Y-5.4417
X3.6246Y-5.5118
X3.6646Y-5.4417
X3.7046Y-5.5118
X3.7443Y-5.252
X3.8345Y-5.252
X4.0679Y-5.2512
X4.158Y-5.2512
X4.1981Y-5.4409
X4.2381Y-5.511
X4.2781Y-5.4409
X4.3181Y-5.511
X4.3581Y-5.4409
X4.3981Y-5.511
X4.4381Y-5.4409
X4.4781Y-5.511
X4.5179Y-5.2512
X4.608Y-5.2512
T6
X3.5724Y-4.537
X3.6709Y-4.537
X3.7693Y-4.537
X3.8677Y-4.537
X3.9661Y-4.537
X4.1992Y-4.5372
X4.2976Y-4.5372
X4.3961Y-4.5372
X4.4945Y-4.5372
T7
X4.1366Y-5.0724
X4.235Y-5.0724
T8
X3.2443Y-5.4768
X3.8845Y-5.4768
X4.0179Y-5.476
X4.658Y-5.476
T9
X5.0295Y-5.1941
X5.313Y-5.1941
T10
X4.0157Y-2.1654
X4.6457Y-2.1654
T3
G00X4.9055Y-5.452
M15
G01X4.9055Y-5.4087
M16
G05
G00X5.437Y-5.452
M15
G01X5.437Y-5.4087
M16
G05
M30
