%TF.GenerationSoftware,KiCad,Pcbnew,8.0.7-8.0.7-0~ubuntu22.04.1*%
%TF.CreationDate,2024-12-07T17:50:11+01:00*%
%TF.ProjectId,vesc_mms_board,76657363-5f6d-46d7-935f-626f6172642e,rev?*%
%TF.SameCoordinates,Original*%
%TF.FileFunction,Legend,Bot*%
%TF.FilePolarity,Positive*%
%FSLAX46Y46*%
G04 Gerber Fmt 4.6, Leading zero omitted, Abs format (unit mm)*
G04 Created by KiCad (PCBNEW 8.0.7-8.0.7-0~ubuntu22.04.1) date 2024-12-07 17:50:11*
%MOMM*%
%LPD*%
G01*
G04 APERTURE LIST*
G04 Aperture macros list*
%AMRoundRect*
0 Rectangle with rounded corners*
0 $1 Rounding radius*
0 $2 $3 $4 $5 $6 $7 $8 $9 X,Y pos of 4 corners*
0 Add a 4 corners polygon primitive as box body*
4,1,4,$2,$3,$4,$5,$6,$7,$8,$9,$2,$3,0*
0 Add four circle primitives for the rounded corners*
1,1,$1+$1,$2,$3*
1,1,$1+$1,$4,$5*
1,1,$1+$1,$6,$7*
1,1,$1+$1,$8,$9*
0 Add four rect primitives between the rounded corners*
20,1,$1+$1,$2,$3,$4,$5,0*
20,1,$1+$1,$4,$5,$6,$7,0*
20,1,$1+$1,$6,$7,$8,$9,0*
20,1,$1+$1,$8,$9,$2,$3,0*%
G04 Aperture macros list end*
%ADD10C,0.100000*%
%ADD11C,0.200000*%
%ADD12C,0.000000*%
%ADD13C,4.300000*%
%ADD14R,1.600000X1.600000*%
%ADD15O,1.600000X1.600000*%
%ADD16C,3.500000*%
%ADD17C,0.900000*%
%ADD18C,8.000000*%
%ADD19R,1.700000X1.700000*%
%ADD20O,1.700000X1.700000*%
%ADD21R,0.900000X2.000000*%
%ADD22RoundRect,1.025000X1.025000X1.025000X-1.025000X1.025000X-1.025000X-1.025000X1.025000X-1.025000X0*%
%ADD23C,4.100000*%
%ADD24C,3.250000*%
%ADD25R,1.500000X1.500000*%
%ADD26C,1.500000*%
%ADD27C,2.300000*%
G04 APERTURE END LIST*
D10*
G36*
X92090703Y-140991114D02*
G01*
X92249083Y-141086142D01*
X92341389Y-141178448D01*
X92436415Y-141336824D01*
X92465786Y-141424935D01*
X92465786Y-141539705D01*
X92407349Y-141656579D01*
X92280084Y-141783844D01*
X91643687Y-141147447D01*
X91770954Y-141020180D01*
X91887827Y-140961746D01*
X92002597Y-140961746D01*
X92090703Y-140991114D01*
G37*
G36*
X92911990Y-141450495D02*
G01*
X90798526Y-143563959D01*
X89863573Y-142629006D01*
X89964589Y-142527990D01*
X90209778Y-142527990D01*
X90209778Y-142662677D01*
X90211341Y-142670538D01*
X90212344Y-142678489D01*
X90246016Y-142779503D01*
X90248727Y-142784259D01*
X90250575Y-142789417D01*
X90351590Y-142957775D01*
X90355704Y-142962310D01*
X90359110Y-142967407D01*
X90460125Y-143068421D01*
X90465217Y-143071823D01*
X90469756Y-143075941D01*
X90638115Y-143176956D01*
X90643271Y-143178803D01*
X90648028Y-143181515D01*
X90749043Y-143215187D01*
X90756993Y-143216189D01*
X90764855Y-143217753D01*
X90899542Y-143217753D01*
X90901998Y-143217264D01*
X90903086Y-143217627D01*
X90910811Y-143215511D01*
X90918676Y-143213947D01*
X90919487Y-143213135D01*
X90921903Y-143212474D01*
X91056589Y-143145132D01*
X91062916Y-143140221D01*
X91069585Y-143135765D01*
X91170599Y-143034750D01*
X91171990Y-143032667D01*
X91173017Y-143032154D01*
X91176987Y-143025189D01*
X91181438Y-143018528D01*
X91181437Y-143017381D01*
X91182678Y-143015206D01*
X91216350Y-142914191D01*
X91218790Y-142894835D01*
X91201676Y-142860607D01*
X91165372Y-142848505D01*
X91131143Y-142865619D01*
X91121482Y-142882568D01*
X91091542Y-142972384D01*
X91004609Y-143059318D01*
X90887739Y-143117753D01*
X90772968Y-143117753D01*
X90684856Y-143088382D01*
X90526483Y-142993357D01*
X90434171Y-142901046D01*
X90339148Y-142742672D01*
X90309778Y-142654562D01*
X90309778Y-142539793D01*
X90368214Y-142422921D01*
X90424084Y-142367051D01*
X90540956Y-142308616D01*
X90575786Y-142308616D01*
X90761488Y-142494318D01*
X90662156Y-142593650D01*
X90651317Y-142609871D01*
X90651317Y-142648139D01*
X90678377Y-142675199D01*
X90716645Y-142675199D01*
X90732866Y-142664360D01*
X90867553Y-142529673D01*
X90878392Y-142513452D01*
X90878392Y-142475184D01*
X90867553Y-142458963D01*
X90631851Y-142223261D01*
X90615630Y-142212422D01*
X90596496Y-142208616D01*
X90529152Y-142208616D01*
X90526695Y-142209104D01*
X90525607Y-142208742D01*
X90517879Y-142210858D01*
X90510018Y-142212422D01*
X90509206Y-142213233D01*
X90506791Y-142213895D01*
X90372104Y-142281238D01*
X90365778Y-142286147D01*
X90359109Y-142290604D01*
X90291766Y-142357948D01*
X90287312Y-142364613D01*
X90282401Y-142370942D01*
X90215057Y-142505629D01*
X90214395Y-142508044D01*
X90213584Y-142508856D01*
X90212020Y-142516717D01*
X90209904Y-142524445D01*
X90210266Y-142525533D01*
X90209778Y-142527990D01*
X89964589Y-142527990D01*
X90623487Y-141869092D01*
X90786004Y-141869092D01*
X90786004Y-141907360D01*
X90796843Y-141923581D01*
X91503949Y-142630688D01*
X91520170Y-142641527D01*
X91527039Y-142641527D01*
X91533000Y-142644933D01*
X91545488Y-142641527D01*
X91558439Y-142641527D01*
X91563295Y-142636670D01*
X91569919Y-142634864D01*
X91576342Y-142623623D01*
X91585499Y-142614467D01*
X91585499Y-142607600D01*
X91588906Y-142601638D01*
X91587543Y-142582177D01*
X91334036Y-141652652D01*
X91908010Y-142226627D01*
X91924231Y-142237466D01*
X91962500Y-142237466D01*
X91989560Y-142210406D01*
X91989560Y-142172137D01*
X91978721Y-142155916D01*
X91271614Y-141448810D01*
X91255393Y-141437971D01*
X91248526Y-141437971D01*
X91242564Y-141434564D01*
X91230072Y-141437971D01*
X91217125Y-141437971D01*
X91212269Y-141442826D01*
X91205645Y-141444633D01*
X91199220Y-141455875D01*
X91190065Y-141465031D01*
X91190065Y-141471897D01*
X91186658Y-141477860D01*
X91188021Y-141497321D01*
X91441527Y-142426844D01*
X90867553Y-141852871D01*
X90851332Y-141842032D01*
X90813064Y-141842032D01*
X90786004Y-141869092D01*
X90623487Y-141869092D01*
X91364265Y-141128314D01*
X91526783Y-141128314D01*
X91526783Y-141166582D01*
X91537622Y-141182803D01*
X92244728Y-141889910D01*
X92260949Y-141900749D01*
X92260950Y-141900749D01*
X92299218Y-141900749D01*
X92315439Y-141889910D01*
X92483798Y-141721551D01*
X92488251Y-141714885D01*
X92493163Y-141708557D01*
X92560507Y-141573870D01*
X92561168Y-141571454D01*
X92561980Y-141570643D01*
X92563543Y-141562781D01*
X92565660Y-141555054D01*
X92565297Y-141553965D01*
X92565786Y-141551509D01*
X92565786Y-141416822D01*
X92564222Y-141408960D01*
X92563220Y-141401010D01*
X92529548Y-141299995D01*
X92526834Y-141295234D01*
X92524988Y-141290082D01*
X92423974Y-141121723D01*
X92419854Y-141117182D01*
X92416454Y-141112093D01*
X92315439Y-141011078D01*
X92310349Y-141007677D01*
X92305809Y-141003558D01*
X92137450Y-140902542D01*
X92132292Y-140900694D01*
X92127536Y-140897983D01*
X92026521Y-140864312D01*
X92018573Y-140863310D01*
X92010710Y-140861746D01*
X91876023Y-140861746D01*
X91873566Y-140862234D01*
X91872478Y-140861872D01*
X91864750Y-140863988D01*
X91856889Y-140865552D01*
X91856077Y-140866363D01*
X91853662Y-140867025D01*
X91718975Y-140934368D01*
X91712646Y-140939279D01*
X91705980Y-140943734D01*
X91537622Y-141112093D01*
X91526783Y-141128314D01*
X91364265Y-141128314D01*
X91977037Y-140515542D01*
X92911990Y-141450495D01*
G37*
G36*
X95456643Y-141665842D02*
G01*
X93278526Y-143843960D01*
X92343573Y-142909007D01*
X92444589Y-142807991D01*
X92689778Y-142807991D01*
X92689778Y-142942678D01*
X92691341Y-142950539D01*
X92692344Y-142958490D01*
X92726016Y-143059504D01*
X92728727Y-143064260D01*
X92730575Y-143069418D01*
X92831590Y-143237776D01*
X92835704Y-143242311D01*
X92839110Y-143247408D01*
X92940125Y-143348422D01*
X92945217Y-143351824D01*
X92949756Y-143355942D01*
X93118115Y-143456957D01*
X93123271Y-143458804D01*
X93128028Y-143461516D01*
X93229043Y-143495188D01*
X93236993Y-143496190D01*
X93244855Y-143497754D01*
X93379542Y-143497754D01*
X93381998Y-143497265D01*
X93383086Y-143497628D01*
X93390811Y-143495512D01*
X93398676Y-143493948D01*
X93399487Y-143493136D01*
X93401903Y-143492475D01*
X93536589Y-143425133D01*
X93542916Y-143420222D01*
X93549585Y-143415766D01*
X93616928Y-143348422D01*
X93621381Y-143341756D01*
X93626293Y-143335428D01*
X93693637Y-143200741D01*
X93694298Y-143198325D01*
X93695110Y-143197514D01*
X93696673Y-143189652D01*
X93698790Y-143181925D01*
X93698427Y-143180836D01*
X93698916Y-143178380D01*
X93698916Y-143111037D01*
X93695110Y-143091903D01*
X93668050Y-143064843D01*
X93629782Y-143064843D01*
X93602722Y-143091903D01*
X93598916Y-143111037D01*
X93598916Y-143166576D01*
X93540479Y-143283448D01*
X93484609Y-143339319D01*
X93367739Y-143397754D01*
X93252968Y-143397754D01*
X93164856Y-143368383D01*
X93006483Y-143273358D01*
X92914171Y-143181047D01*
X92819148Y-143022673D01*
X92789778Y-142934563D01*
X92789778Y-142819794D01*
X92848214Y-142702922D01*
X92904084Y-142647052D01*
X93020956Y-142588617D01*
X93076496Y-142588617D01*
X93095630Y-142584811D01*
X93122690Y-142557751D01*
X93122690Y-142519483D01*
X93095630Y-142492423D01*
X93076496Y-142488617D01*
X93009152Y-142488617D01*
X93006695Y-142489105D01*
X93005607Y-142488743D01*
X92997879Y-142490859D01*
X92990018Y-142492423D01*
X92989206Y-142493234D01*
X92986791Y-142493896D01*
X92852104Y-142561239D01*
X92845778Y-142566148D01*
X92839109Y-142570605D01*
X92771766Y-142637949D01*
X92767312Y-142644614D01*
X92762401Y-142650943D01*
X92695057Y-142785630D01*
X92694395Y-142788045D01*
X92693584Y-142788857D01*
X92692020Y-142796718D01*
X92689904Y-142804446D01*
X92690266Y-142805534D01*
X92689778Y-142807991D01*
X92444589Y-142807991D01*
X93069815Y-142182765D01*
X93232332Y-142182765D01*
X93232332Y-142221033D01*
X93259392Y-142248093D01*
X93297660Y-142248093D01*
X93313881Y-142237254D01*
X93480556Y-142070578D01*
X94035538Y-142625560D01*
X94029111Y-142624275D01*
X94024161Y-142624269D01*
X94019305Y-142623304D01*
X93884618Y-142623304D01*
X93876754Y-142624868D01*
X93868807Y-142625870D01*
X93767792Y-142659541D01*
X93750843Y-142669202D01*
X93733729Y-142703430D01*
X93745830Y-142739735D01*
X93780058Y-142756849D01*
X93799414Y-142754409D01*
X93892731Y-142723304D01*
X94014354Y-142723304D01*
X94177858Y-142756004D01*
X94197367Y-142756024D01*
X94201650Y-142753169D01*
X94206799Y-142753169D01*
X94217096Y-142742871D01*
X94229209Y-142734797D01*
X94230218Y-142729749D01*
X94233858Y-142726110D01*
X94233858Y-142711548D01*
X94236713Y-142697272D01*
X94233858Y-142692989D01*
X94233858Y-142687841D01*
X94223020Y-142671620D01*
X93551267Y-141999869D01*
X93717943Y-141833194D01*
X93728782Y-141816973D01*
X93728782Y-141778704D01*
X93701722Y-141751644D01*
X93663454Y-141751644D01*
X93647233Y-141762483D01*
X93243171Y-142166544D01*
X93232332Y-142182765D01*
X93069815Y-142182765D01*
X93507548Y-141745032D01*
X94208813Y-141745032D01*
X94208813Y-141783300D01*
X94235873Y-141810360D01*
X94274141Y-141810360D01*
X94290362Y-141799521D01*
X94829111Y-141260773D01*
X94839949Y-141244552D01*
X94839949Y-141206283D01*
X94812890Y-141179224D01*
X94774621Y-141179224D01*
X94758400Y-141190062D01*
X94219652Y-141728811D01*
X94208813Y-141745032D01*
X93507548Y-141745032D01*
X94521691Y-140730889D01*
X95456643Y-141665842D01*
G37*
G36*
X91587214Y-135135269D02*
G01*
X89608615Y-137113868D01*
X88673663Y-136178916D01*
X88692708Y-136159871D01*
X88855226Y-136159871D01*
X88855226Y-136198139D01*
X88882286Y-136225199D01*
X88920554Y-136225199D01*
X88936775Y-136214360D01*
X89103450Y-136047684D01*
X89658431Y-136602666D01*
X89652004Y-136601381D01*
X89647054Y-136601375D01*
X89642198Y-136600410D01*
X89507511Y-136600410D01*
X89499647Y-136601974D01*
X89491700Y-136602976D01*
X89390685Y-136636647D01*
X89373736Y-136646308D01*
X89356622Y-136680536D01*
X89368723Y-136716841D01*
X89402951Y-136733955D01*
X89422307Y-136731515D01*
X89515624Y-136700410D01*
X89637247Y-136700410D01*
X89800751Y-136733110D01*
X89820260Y-136733130D01*
X89824543Y-136730275D01*
X89829691Y-136730275D01*
X89839986Y-136719979D01*
X89852102Y-136711903D01*
X89853111Y-136706854D01*
X89856751Y-136703215D01*
X89856751Y-136688654D01*
X89859606Y-136674378D01*
X89856751Y-136670095D01*
X89856751Y-136664946D01*
X89845912Y-136648725D01*
X89174160Y-135976974D01*
X89340837Y-135810299D01*
X89351675Y-135794078D01*
X89351675Y-135755809D01*
X89324616Y-135728750D01*
X89286347Y-135728750D01*
X89270126Y-135739588D01*
X88866065Y-136143650D01*
X88855226Y-136159871D01*
X88692708Y-136159871D01*
X89332471Y-135520108D01*
X89494989Y-135520108D01*
X89494989Y-135558376D01*
X89522049Y-135585436D01*
X89541183Y-135589242D01*
X90337502Y-135589242D01*
X90454375Y-135647678D01*
X90507634Y-135700937D01*
X90535007Y-135783056D01*
X90535007Y-135834174D01*
X90507634Y-135916293D01*
X90355968Y-136067959D01*
X90273848Y-136095333D01*
X90214618Y-136095333D01*
X90195484Y-136099139D01*
X90168424Y-136126199D01*
X90168424Y-136164467D01*
X90195484Y-136191527D01*
X90214618Y-136195333D01*
X90281962Y-136195333D01*
X90289823Y-136193769D01*
X90297774Y-136192767D01*
X90398788Y-136159095D01*
X90400963Y-136157855D01*
X90402111Y-136157855D01*
X90408771Y-136153404D01*
X90415737Y-136149434D01*
X90416250Y-136148406D01*
X90418332Y-136147016D01*
X90586691Y-135978658D01*
X90588081Y-135976576D01*
X90589109Y-135976063D01*
X90593079Y-135969097D01*
X90597530Y-135962437D01*
X90597530Y-135961289D01*
X90598770Y-135959114D01*
X90632441Y-135858098D01*
X90633442Y-135850150D01*
X90635007Y-135842287D01*
X90635007Y-135774944D01*
X90633442Y-135767080D01*
X90632441Y-135759133D01*
X90598770Y-135658118D01*
X90597530Y-135655942D01*
X90597530Y-135654795D01*
X90593079Y-135648134D01*
X90589109Y-135641169D01*
X90588081Y-135640655D01*
X90586691Y-135638574D01*
X90519347Y-135571230D01*
X90512685Y-135566778D01*
X90506352Y-135561863D01*
X90371666Y-135494521D01*
X90369250Y-135493859D01*
X90368439Y-135493048D01*
X90360574Y-135491483D01*
X90352849Y-135489368D01*
X90351761Y-135489730D01*
X90349305Y-135489242D01*
X89661893Y-135489242D01*
X90014271Y-135136864D01*
X90025110Y-135120643D01*
X90025110Y-135082375D01*
X89998050Y-135055315D01*
X89959782Y-135055315D01*
X89943561Y-135066154D01*
X89505828Y-135503887D01*
X89494989Y-135520108D01*
X89332471Y-135520108D01*
X90192348Y-134660231D01*
X90366775Y-134660231D01*
X90367956Y-134663776D01*
X90366775Y-134667321D01*
X90371928Y-134686137D01*
X90843332Y-135628945D01*
X90855293Y-135644357D01*
X90891597Y-135656459D01*
X90925825Y-135639345D01*
X90937927Y-135603040D01*
X90932774Y-135584224D01*
X90528451Y-134775578D01*
X91337098Y-135179902D01*
X91355914Y-135185055D01*
X91392218Y-135172954D01*
X91409332Y-135138726D01*
X91397231Y-135102421D01*
X91381819Y-135090460D01*
X90439010Y-134619055D01*
X90420194Y-134613902D01*
X90416649Y-134615083D01*
X90413104Y-134613902D01*
X90398926Y-134620990D01*
X90383889Y-134626003D01*
X90382218Y-134629345D01*
X90378876Y-134631016D01*
X90373863Y-134646053D01*
X90366775Y-134660231D01*
X90192348Y-134660231D01*
X90652262Y-134200317D01*
X91587214Y-135135269D01*
G37*
G36*
X96426643Y-135035841D02*
G01*
X94248526Y-137213959D01*
X93313573Y-136279006D01*
X93414589Y-136177990D01*
X93659778Y-136177990D01*
X93659778Y-136312677D01*
X93661341Y-136320538D01*
X93662344Y-136328489D01*
X93696016Y-136429503D01*
X93698727Y-136434259D01*
X93700575Y-136439417D01*
X93801590Y-136607775D01*
X93805704Y-136612310D01*
X93809110Y-136617407D01*
X93910125Y-136718421D01*
X93915217Y-136721823D01*
X93919756Y-136725941D01*
X94088115Y-136826956D01*
X94093271Y-136828803D01*
X94098028Y-136831515D01*
X94199043Y-136865187D01*
X94206993Y-136866189D01*
X94214855Y-136867753D01*
X94349542Y-136867753D01*
X94351998Y-136867264D01*
X94353086Y-136867627D01*
X94360811Y-136865511D01*
X94368676Y-136863947D01*
X94369487Y-136863135D01*
X94371903Y-136862474D01*
X94506589Y-136795132D01*
X94512916Y-136790221D01*
X94519585Y-136785765D01*
X94586928Y-136718421D01*
X94591381Y-136711755D01*
X94596293Y-136705427D01*
X94663637Y-136570740D01*
X94664298Y-136568324D01*
X94665110Y-136567513D01*
X94666673Y-136559651D01*
X94668790Y-136551924D01*
X94668427Y-136550835D01*
X94668916Y-136548379D01*
X94668916Y-136481036D01*
X94665110Y-136461902D01*
X94638050Y-136434842D01*
X94599782Y-136434842D01*
X94572722Y-136461902D01*
X94568916Y-136481036D01*
X94568916Y-136536575D01*
X94510479Y-136653447D01*
X94454609Y-136709318D01*
X94337739Y-136767753D01*
X94222968Y-136767753D01*
X94134856Y-136738382D01*
X93976483Y-136643357D01*
X93884171Y-136551046D01*
X93789148Y-136392672D01*
X93759778Y-136304562D01*
X93759778Y-136189793D01*
X93818214Y-136072921D01*
X93874084Y-136017051D01*
X93990956Y-135958616D01*
X94046496Y-135958616D01*
X94065630Y-135954810D01*
X94092690Y-135927750D01*
X94092690Y-135889482D01*
X94065630Y-135862422D01*
X94046496Y-135858616D01*
X93979152Y-135858616D01*
X93976695Y-135859104D01*
X93975607Y-135858742D01*
X93967879Y-135860858D01*
X93960018Y-135862422D01*
X93959206Y-135863233D01*
X93956791Y-135863895D01*
X93822104Y-135931238D01*
X93815778Y-135936147D01*
X93809109Y-135940604D01*
X93741766Y-136007948D01*
X93737312Y-136014613D01*
X93732401Y-136020942D01*
X93665057Y-136155629D01*
X93664395Y-136158044D01*
X93663584Y-136158856D01*
X93662020Y-136166717D01*
X93659904Y-136174445D01*
X93660266Y-136175533D01*
X93659778Y-136177990D01*
X93414589Y-136177990D01*
X94039815Y-135552764D01*
X94202332Y-135552764D01*
X94202332Y-135591032D01*
X94229392Y-135618092D01*
X94267660Y-135618092D01*
X94283881Y-135607253D01*
X94450556Y-135440577D01*
X95005538Y-135995559D01*
X94999111Y-135994274D01*
X94994161Y-135994268D01*
X94989305Y-135993303D01*
X94854618Y-135993303D01*
X94846754Y-135994867D01*
X94838807Y-135995869D01*
X94737792Y-136029540D01*
X94720843Y-136039201D01*
X94703729Y-136073429D01*
X94715830Y-136109734D01*
X94750058Y-136126848D01*
X94769414Y-136124408D01*
X94862731Y-136093303D01*
X94984354Y-136093303D01*
X95147858Y-136126003D01*
X95167367Y-136126023D01*
X95171650Y-136123168D01*
X95176799Y-136123168D01*
X95187096Y-136112870D01*
X95199209Y-136104796D01*
X95200218Y-136099748D01*
X95203858Y-136096109D01*
X95203858Y-136081547D01*
X95206713Y-136067271D01*
X95203858Y-136062988D01*
X95203858Y-136057840D01*
X95193020Y-136041619D01*
X94521267Y-135369868D01*
X94687943Y-135203193D01*
X94698782Y-135186972D01*
X94698782Y-135148703D01*
X94671722Y-135121643D01*
X94633454Y-135121643D01*
X94617233Y-135132482D01*
X94213171Y-135536543D01*
X94202332Y-135552764D01*
X94039815Y-135552764D01*
X95016296Y-134576283D01*
X95178813Y-134576283D01*
X95178813Y-134614551D01*
X95189652Y-134630772D01*
X95423670Y-134864791D01*
X95189652Y-135098810D01*
X95178813Y-135115031D01*
X95178813Y-135153299D01*
X95205873Y-135180359D01*
X95244141Y-135180359D01*
X95260362Y-135169520D01*
X95494380Y-134935501D01*
X95728400Y-135169521D01*
X95744621Y-135180359D01*
X95782890Y-135180359D01*
X95809949Y-135153300D01*
X95809949Y-135115031D01*
X95799111Y-135098810D01*
X95565091Y-134864791D01*
X95799111Y-134630772D01*
X95809949Y-134614551D01*
X95809949Y-134576282D01*
X95782890Y-134549223D01*
X95744621Y-134549223D01*
X95728400Y-134560061D01*
X95494380Y-134794080D01*
X95260362Y-134560062D01*
X95244141Y-134549223D01*
X95205873Y-134549223D01*
X95178813Y-134576283D01*
X95016296Y-134576283D01*
X95491691Y-134100888D01*
X96426643Y-135035841D01*
G37*
G36*
X94126643Y-134935841D02*
G01*
X91948526Y-137113959D01*
X91013573Y-136179006D01*
X91114589Y-136077990D01*
X91359778Y-136077990D01*
X91359778Y-136212677D01*
X91361341Y-136220538D01*
X91362344Y-136228489D01*
X91396016Y-136329503D01*
X91398727Y-136334259D01*
X91400575Y-136339417D01*
X91501590Y-136507775D01*
X91505704Y-136512310D01*
X91509110Y-136517407D01*
X91610125Y-136618421D01*
X91615217Y-136621823D01*
X91619756Y-136625941D01*
X91788115Y-136726956D01*
X91793271Y-136728803D01*
X91798028Y-136731515D01*
X91899043Y-136765187D01*
X91906993Y-136766189D01*
X91914855Y-136767753D01*
X92049542Y-136767753D01*
X92051998Y-136767264D01*
X92053086Y-136767627D01*
X92060811Y-136765511D01*
X92068676Y-136763947D01*
X92069487Y-136763135D01*
X92071903Y-136762474D01*
X92206589Y-136695132D01*
X92212916Y-136690221D01*
X92219585Y-136685765D01*
X92286928Y-136618421D01*
X92291381Y-136611755D01*
X92296293Y-136605427D01*
X92363637Y-136470740D01*
X92364298Y-136468324D01*
X92365110Y-136467513D01*
X92366673Y-136459651D01*
X92368790Y-136451924D01*
X92368427Y-136450835D01*
X92368916Y-136448379D01*
X92368916Y-136381036D01*
X92365110Y-136361902D01*
X92338050Y-136334842D01*
X92299782Y-136334842D01*
X92272722Y-136361902D01*
X92268916Y-136381036D01*
X92268916Y-136436575D01*
X92210479Y-136553447D01*
X92154609Y-136609318D01*
X92037739Y-136667753D01*
X91922968Y-136667753D01*
X91834856Y-136638382D01*
X91676483Y-136543357D01*
X91584171Y-136451046D01*
X91489148Y-136292672D01*
X91459778Y-136204562D01*
X91459778Y-136089793D01*
X91518214Y-135972921D01*
X91574084Y-135917051D01*
X91690956Y-135858616D01*
X91746496Y-135858616D01*
X91765630Y-135854810D01*
X91792690Y-135827750D01*
X91792690Y-135789482D01*
X91765630Y-135762422D01*
X91746496Y-135758616D01*
X91679152Y-135758616D01*
X91676695Y-135759104D01*
X91675607Y-135758742D01*
X91667879Y-135760858D01*
X91660018Y-135762422D01*
X91659206Y-135763233D01*
X91656791Y-135763895D01*
X91522104Y-135831238D01*
X91515778Y-135836147D01*
X91509109Y-135840604D01*
X91441766Y-135907948D01*
X91437312Y-135914613D01*
X91432401Y-135920942D01*
X91365057Y-136055629D01*
X91364395Y-136058044D01*
X91363584Y-136058856D01*
X91362020Y-136066717D01*
X91359904Y-136074445D01*
X91360266Y-136075533D01*
X91359778Y-136077990D01*
X91114589Y-136077990D01*
X91706143Y-135486436D01*
X91868661Y-135486436D01*
X91868661Y-135524704D01*
X91895721Y-135551764D01*
X91914855Y-135555570D01*
X92711174Y-135555570D01*
X92828044Y-135614004D01*
X92881305Y-135667266D01*
X92908679Y-135749385D01*
X92908679Y-135800502D01*
X92881305Y-135882622D01*
X92729640Y-136034288D01*
X92647520Y-136061661D01*
X92588290Y-136061661D01*
X92569156Y-136065467D01*
X92542096Y-136092527D01*
X92542096Y-136130795D01*
X92569156Y-136157855D01*
X92588290Y-136161661D01*
X92655633Y-136161661D01*
X92663496Y-136160096D01*
X92671444Y-136159095D01*
X92772460Y-136125424D01*
X92774635Y-136124184D01*
X92775783Y-136124184D01*
X92782443Y-136119733D01*
X92789409Y-136115763D01*
X92789922Y-136114735D01*
X92792004Y-136113345D01*
X92960363Y-135944986D01*
X92961754Y-135942903D01*
X92962780Y-135942391D01*
X92966749Y-135935427D01*
X92971201Y-135928765D01*
X92971201Y-135927618D01*
X92972441Y-135925443D01*
X93006113Y-135824428D01*
X93007115Y-135816477D01*
X93008679Y-135808616D01*
X93008679Y-135741272D01*
X93007115Y-135733410D01*
X93006113Y-135725460D01*
X92972441Y-135624445D01*
X92971201Y-135622269D01*
X92971201Y-135621123D01*
X92966749Y-135614460D01*
X92962780Y-135607497D01*
X92961754Y-135606984D01*
X92960363Y-135604902D01*
X92893020Y-135537558D01*
X92886351Y-135533101D01*
X92880024Y-135528191D01*
X92745338Y-135460849D01*
X92742922Y-135460187D01*
X92742111Y-135459376D01*
X92734246Y-135457811D01*
X92726521Y-135455696D01*
X92725433Y-135456058D01*
X92722977Y-135455570D01*
X92035565Y-135455570D01*
X92387943Y-135103192D01*
X92398782Y-135086971D01*
X92398782Y-135048703D01*
X92371722Y-135021643D01*
X92333454Y-135021643D01*
X92317233Y-135032482D01*
X91879500Y-135470215D01*
X91868661Y-135486436D01*
X91706143Y-135486436D01*
X92177548Y-135015031D01*
X92878813Y-135015031D01*
X92878813Y-135053299D01*
X92905873Y-135080359D01*
X92944141Y-135080359D01*
X92960362Y-135069520D01*
X93499111Y-134530772D01*
X93509949Y-134514551D01*
X93509949Y-134476282D01*
X93482890Y-134449223D01*
X93444621Y-134449223D01*
X93428400Y-134460061D01*
X92889652Y-134998810D01*
X92878813Y-135015031D01*
X92177548Y-135015031D01*
X93191691Y-134000888D01*
X94126643Y-134935841D01*
G37*
G36*
X86782819Y-141609001D02*
G01*
X86941195Y-141704025D01*
X87033503Y-141796333D01*
X87128531Y-141954712D01*
X87157901Y-142042820D01*
X87157901Y-142157590D01*
X87099465Y-142274462D01*
X86972198Y-142401729D01*
X86335801Y-141765333D01*
X86463068Y-141638066D01*
X86579941Y-141579631D01*
X86694710Y-141579631D01*
X86782819Y-141609001D01*
G37*
G36*
X88443208Y-141229276D02*
G01*
X86972198Y-142700285D01*
X86037246Y-141765333D01*
X86056380Y-141746199D01*
X86218897Y-141746199D01*
X86218897Y-141784467D01*
X86229736Y-141800688D01*
X86936842Y-142507795D01*
X86953063Y-142518634D01*
X86953064Y-142518634D01*
X86991332Y-142518634D01*
X87007553Y-142507795D01*
X87175913Y-142339436D01*
X87180366Y-142332770D01*
X87185278Y-142326442D01*
X87252622Y-142191755D01*
X87253283Y-142189339D01*
X87254095Y-142188528D01*
X87255658Y-142180666D01*
X87257775Y-142172939D01*
X87257412Y-142171850D01*
X87257901Y-142169394D01*
X87257901Y-142034707D01*
X87256337Y-142026845D01*
X87255335Y-142018895D01*
X87221663Y-141917880D01*
X87218951Y-141913122D01*
X87217104Y-141907967D01*
X87116088Y-141739608D01*
X87111968Y-141735067D01*
X87108568Y-141729978D01*
X87007553Y-141628963D01*
X87002459Y-141625559D01*
X86997922Y-141621443D01*
X86829564Y-141520428D01*
X86824406Y-141518580D01*
X86819650Y-141515869D01*
X86718636Y-141482197D01*
X86710685Y-141481194D01*
X86702824Y-141479631D01*
X86568137Y-141479631D01*
X86565680Y-141480119D01*
X86564592Y-141479757D01*
X86556864Y-141481873D01*
X86549003Y-141483437D01*
X86548191Y-141484248D01*
X86545776Y-141484910D01*
X86411089Y-141552253D01*
X86404763Y-141557162D01*
X86398095Y-141561618D01*
X86229736Y-141729978D01*
X86218897Y-141746199D01*
X86056380Y-141746199D01*
X86494113Y-141308466D01*
X87195378Y-141308466D01*
X87195378Y-141346734D01*
X87222438Y-141373794D01*
X87260706Y-141373794D01*
X87276927Y-141362955D01*
X87815676Y-140824207D01*
X87826514Y-140807986D01*
X87826514Y-140769717D01*
X87799455Y-140742658D01*
X87761186Y-140742658D01*
X87744965Y-140753496D01*
X87206217Y-141292245D01*
X87195378Y-141308466D01*
X86494113Y-141308466D01*
X87508256Y-140294323D01*
X88443208Y-141229276D01*
G37*
G36*
X90616643Y-141275841D02*
G01*
X88438526Y-143453959D01*
X87503573Y-142519006D01*
X87604589Y-142417990D01*
X87849778Y-142417990D01*
X87849778Y-142552677D01*
X87851341Y-142560538D01*
X87852344Y-142568489D01*
X87886016Y-142669503D01*
X87888727Y-142674259D01*
X87890575Y-142679417D01*
X87991590Y-142847775D01*
X87995704Y-142852310D01*
X87999110Y-142857407D01*
X88100125Y-142958421D01*
X88105217Y-142961823D01*
X88109756Y-142965941D01*
X88278115Y-143066956D01*
X88283271Y-143068803D01*
X88288028Y-143071515D01*
X88389043Y-143105187D01*
X88396993Y-143106189D01*
X88404855Y-143107753D01*
X88539542Y-143107753D01*
X88541998Y-143107264D01*
X88543086Y-143107627D01*
X88550811Y-143105511D01*
X88558676Y-143103947D01*
X88559487Y-143103135D01*
X88561903Y-143102474D01*
X88696589Y-143035132D01*
X88702916Y-143030221D01*
X88709585Y-143025765D01*
X88776928Y-142958421D01*
X88781381Y-142951755D01*
X88786293Y-142945427D01*
X88853637Y-142810740D01*
X88854298Y-142808324D01*
X88855110Y-142807513D01*
X88856673Y-142799651D01*
X88858790Y-142791924D01*
X88858427Y-142790835D01*
X88858916Y-142788379D01*
X88858916Y-142721036D01*
X88855110Y-142701902D01*
X88828050Y-142674842D01*
X88789782Y-142674842D01*
X88762722Y-142701902D01*
X88758916Y-142721036D01*
X88758916Y-142776575D01*
X88700479Y-142893447D01*
X88644609Y-142949318D01*
X88527739Y-143007753D01*
X88412968Y-143007753D01*
X88324856Y-142978382D01*
X88166483Y-142883357D01*
X88074171Y-142791046D01*
X87979148Y-142632672D01*
X87949778Y-142544562D01*
X87949778Y-142429793D01*
X88008214Y-142312921D01*
X88064084Y-142257051D01*
X88180956Y-142198616D01*
X88236496Y-142198616D01*
X88255630Y-142194810D01*
X88282690Y-142167750D01*
X88282690Y-142129482D01*
X88255630Y-142102422D01*
X88236496Y-142098616D01*
X88169152Y-142098616D01*
X88166695Y-142099104D01*
X88165607Y-142098742D01*
X88157879Y-142100858D01*
X88150018Y-142102422D01*
X88149206Y-142103233D01*
X88146791Y-142103895D01*
X88012104Y-142171238D01*
X88005778Y-142176147D01*
X87999109Y-142180604D01*
X87931766Y-142247948D01*
X87927312Y-142254613D01*
X87922401Y-142260942D01*
X87855057Y-142395629D01*
X87854395Y-142398044D01*
X87853584Y-142398856D01*
X87852020Y-142406717D01*
X87849904Y-142414445D01*
X87850266Y-142415533D01*
X87849778Y-142417990D01*
X87604589Y-142417990D01*
X88196143Y-141826436D01*
X88358661Y-141826436D01*
X88358661Y-141864704D01*
X88385721Y-141891764D01*
X88404855Y-141895570D01*
X89201174Y-141895570D01*
X89318044Y-141954004D01*
X89371305Y-142007266D01*
X89398679Y-142089385D01*
X89398679Y-142140502D01*
X89371305Y-142222622D01*
X89219640Y-142374288D01*
X89137520Y-142401661D01*
X89078290Y-142401661D01*
X89059156Y-142405467D01*
X89032096Y-142432527D01*
X89032096Y-142470795D01*
X89059156Y-142497855D01*
X89078290Y-142501661D01*
X89145633Y-142501661D01*
X89153496Y-142500096D01*
X89161444Y-142499095D01*
X89262460Y-142465424D01*
X89264635Y-142464184D01*
X89265783Y-142464184D01*
X89272443Y-142459733D01*
X89279409Y-142455763D01*
X89279922Y-142454735D01*
X89282004Y-142453345D01*
X89450363Y-142284986D01*
X89451754Y-142282903D01*
X89452780Y-142282391D01*
X89456749Y-142275427D01*
X89461201Y-142268765D01*
X89461201Y-142267618D01*
X89462441Y-142265443D01*
X89496113Y-142164428D01*
X89497115Y-142156477D01*
X89498679Y-142148616D01*
X89498679Y-142081272D01*
X89497115Y-142073410D01*
X89496113Y-142065460D01*
X89462441Y-141964445D01*
X89461201Y-141962269D01*
X89461201Y-141961123D01*
X89456749Y-141954460D01*
X89452780Y-141947497D01*
X89451754Y-141946984D01*
X89450363Y-141944902D01*
X89383020Y-141877558D01*
X89376351Y-141873101D01*
X89370024Y-141868191D01*
X89235338Y-141800849D01*
X89232922Y-141800187D01*
X89232111Y-141799376D01*
X89224246Y-141797811D01*
X89216521Y-141795696D01*
X89215433Y-141796058D01*
X89212977Y-141795570D01*
X88525565Y-141795570D01*
X88877943Y-141443192D01*
X88888782Y-141426971D01*
X88888782Y-141388703D01*
X88861722Y-141361643D01*
X88823454Y-141361643D01*
X88807233Y-141372482D01*
X88369500Y-141810215D01*
X88358661Y-141826436D01*
X88196143Y-141826436D01*
X89206296Y-140816283D01*
X89368813Y-140816283D01*
X89368813Y-140854551D01*
X89379652Y-140870772D01*
X89613670Y-141104791D01*
X89379652Y-141338810D01*
X89368813Y-141355031D01*
X89368813Y-141393299D01*
X89395873Y-141420359D01*
X89434141Y-141420359D01*
X89450362Y-141409520D01*
X89684380Y-141175501D01*
X89918400Y-141409521D01*
X89934621Y-141420359D01*
X89972890Y-141420359D01*
X89999949Y-141393300D01*
X89999949Y-141355031D01*
X89989111Y-141338810D01*
X89755091Y-141104791D01*
X89989111Y-140870772D01*
X89999949Y-140854551D01*
X89999949Y-140816282D01*
X89972890Y-140789223D01*
X89934621Y-140789223D01*
X89918400Y-140800061D01*
X89684380Y-141034080D01*
X89450362Y-140800062D01*
X89434141Y-140789223D01*
X89395873Y-140789223D01*
X89368813Y-140816283D01*
X89206296Y-140816283D01*
X89681691Y-140340888D01*
X90616643Y-141275841D01*
G37*
G36*
X87252819Y-135869001D02*
G01*
X87411195Y-135964025D01*
X87503503Y-136056333D01*
X87598531Y-136214712D01*
X87627901Y-136302820D01*
X87627901Y-136417590D01*
X87569465Y-136534462D01*
X87442198Y-136661729D01*
X86805801Y-136025333D01*
X86933068Y-135898066D01*
X87049941Y-135839631D01*
X87164710Y-135839631D01*
X87252819Y-135869001D01*
G37*
G36*
X88913208Y-135489276D02*
G01*
X87442198Y-136960285D01*
X86507246Y-136025333D01*
X86526380Y-136006199D01*
X86688897Y-136006199D01*
X86688897Y-136044467D01*
X86699736Y-136060688D01*
X87406842Y-136767795D01*
X87423063Y-136778634D01*
X87423064Y-136778634D01*
X87461332Y-136778634D01*
X87477553Y-136767795D01*
X87645913Y-136599436D01*
X87650366Y-136592770D01*
X87655278Y-136586442D01*
X87722622Y-136451755D01*
X87723283Y-136449339D01*
X87724095Y-136448528D01*
X87725658Y-136440666D01*
X87727775Y-136432939D01*
X87727412Y-136431850D01*
X87727901Y-136429394D01*
X87727901Y-136294707D01*
X87726337Y-136286845D01*
X87725335Y-136278895D01*
X87691663Y-136177880D01*
X87688951Y-136173122D01*
X87687104Y-136167967D01*
X87586088Y-135999608D01*
X87581968Y-135995067D01*
X87578568Y-135989978D01*
X87477553Y-135888963D01*
X87472459Y-135885559D01*
X87467922Y-135881443D01*
X87299564Y-135780428D01*
X87294406Y-135778580D01*
X87289650Y-135775869D01*
X87188636Y-135742197D01*
X87180685Y-135741194D01*
X87172824Y-135739631D01*
X87038137Y-135739631D01*
X87035680Y-135740119D01*
X87034592Y-135739757D01*
X87026864Y-135741873D01*
X87019003Y-135743437D01*
X87018191Y-135744248D01*
X87015776Y-135744910D01*
X86881089Y-135812253D01*
X86874763Y-135817162D01*
X86868095Y-135821618D01*
X86699736Y-135989978D01*
X86688897Y-136006199D01*
X86526380Y-136006199D01*
X87502861Y-135029718D01*
X87665378Y-135029718D01*
X87665378Y-135067986D01*
X87676217Y-135084207D01*
X87910235Y-135318226D01*
X87676217Y-135552245D01*
X87665378Y-135568466D01*
X87665378Y-135606734D01*
X87692438Y-135633794D01*
X87730706Y-135633794D01*
X87746927Y-135622955D01*
X87980945Y-135388936D01*
X88214965Y-135622956D01*
X88231186Y-135633794D01*
X88269455Y-135633794D01*
X88296514Y-135606735D01*
X88296514Y-135568466D01*
X88285676Y-135552245D01*
X88051656Y-135318226D01*
X88285676Y-135084207D01*
X88296514Y-135067986D01*
X88296514Y-135029717D01*
X88269455Y-135002658D01*
X88231186Y-135002658D01*
X88214965Y-135013496D01*
X87980945Y-135247515D01*
X87746927Y-135013497D01*
X87730706Y-135002658D01*
X87692438Y-135002658D01*
X87665378Y-135029718D01*
X87502861Y-135029718D01*
X87978256Y-134554323D01*
X88913208Y-135489276D01*
G37*
G36*
X106432819Y-141729003D02*
G01*
X106591195Y-141824027D01*
X106683503Y-141916335D01*
X106778531Y-142074714D01*
X106807901Y-142162822D01*
X106807901Y-142277592D01*
X106749465Y-142394464D01*
X106622198Y-142521731D01*
X105985801Y-141885335D01*
X106113068Y-141758068D01*
X106229941Y-141699633D01*
X106344710Y-141699633D01*
X106432819Y-141729003D01*
G37*
G36*
X108093208Y-141349278D02*
G01*
X106622198Y-142820287D01*
X105687246Y-141885335D01*
X105706380Y-141866201D01*
X105868897Y-141866201D01*
X105868897Y-141904469D01*
X105879736Y-141920690D01*
X106586842Y-142627797D01*
X106603063Y-142638636D01*
X106603064Y-142638636D01*
X106641332Y-142638636D01*
X106657553Y-142627797D01*
X106825913Y-142459438D01*
X106830366Y-142452772D01*
X106835278Y-142446444D01*
X106902622Y-142311757D01*
X106903283Y-142309341D01*
X106904095Y-142308530D01*
X106905658Y-142300668D01*
X106907775Y-142292941D01*
X106907412Y-142291852D01*
X106907901Y-142289396D01*
X106907901Y-142154709D01*
X106906337Y-142146847D01*
X106905335Y-142138897D01*
X106871663Y-142037882D01*
X106868951Y-142033124D01*
X106867104Y-142027969D01*
X106766088Y-141859610D01*
X106761968Y-141855069D01*
X106758568Y-141849980D01*
X106657553Y-141748965D01*
X106652459Y-141745561D01*
X106647922Y-141741445D01*
X106479564Y-141640430D01*
X106474406Y-141638582D01*
X106469650Y-141635871D01*
X106368636Y-141602199D01*
X106360685Y-141601196D01*
X106352824Y-141599633D01*
X106218137Y-141599633D01*
X106215680Y-141600121D01*
X106214592Y-141599759D01*
X106206864Y-141601875D01*
X106199003Y-141603439D01*
X106198191Y-141604250D01*
X106195776Y-141604912D01*
X106061089Y-141672255D01*
X106054763Y-141677164D01*
X106048095Y-141681620D01*
X105879736Y-141849980D01*
X105868897Y-141866201D01*
X105706380Y-141866201D01*
X106682861Y-140889720D01*
X106845378Y-140889720D01*
X106845378Y-140927988D01*
X106856217Y-140944209D01*
X107090235Y-141178228D01*
X106856217Y-141412247D01*
X106845378Y-141428468D01*
X106845378Y-141466736D01*
X106872438Y-141493796D01*
X106910706Y-141493796D01*
X106926927Y-141482957D01*
X107160945Y-141248938D01*
X107394965Y-141482958D01*
X107411186Y-141493796D01*
X107449455Y-141493796D01*
X107476514Y-141466737D01*
X107476514Y-141428468D01*
X107465676Y-141412247D01*
X107231656Y-141178228D01*
X107465676Y-140944209D01*
X107476514Y-140927988D01*
X107476514Y-140889719D01*
X107449455Y-140862660D01*
X107411186Y-140862660D01*
X107394965Y-140873498D01*
X107160945Y-141107517D01*
X106926927Y-140873499D01*
X106910706Y-140862660D01*
X106872438Y-140862660D01*
X106845378Y-140889720D01*
X106682861Y-140889720D01*
X107158256Y-140414325D01*
X108093208Y-141349278D01*
G37*
G36*
X110847214Y-135015269D02*
G01*
X108868615Y-136993868D01*
X107933663Y-136058916D01*
X107952708Y-136039871D01*
X108115226Y-136039871D01*
X108115226Y-136078139D01*
X108142286Y-136105199D01*
X108180554Y-136105199D01*
X108196775Y-136094360D01*
X108363450Y-135927684D01*
X108918431Y-136482666D01*
X108912004Y-136481381D01*
X108907054Y-136481375D01*
X108902198Y-136480410D01*
X108767511Y-136480410D01*
X108759647Y-136481974D01*
X108751700Y-136482976D01*
X108650685Y-136516647D01*
X108633736Y-136526308D01*
X108616622Y-136560536D01*
X108628723Y-136596841D01*
X108662951Y-136613955D01*
X108682307Y-136611515D01*
X108775624Y-136580410D01*
X108897247Y-136580410D01*
X109060751Y-136613110D01*
X109080260Y-136613130D01*
X109084543Y-136610275D01*
X109089691Y-136610275D01*
X109099986Y-136599979D01*
X109112102Y-136591903D01*
X109113111Y-136586854D01*
X109116751Y-136583215D01*
X109116751Y-136568654D01*
X109119606Y-136554378D01*
X109116751Y-136550095D01*
X109116751Y-136544946D01*
X109105912Y-136528725D01*
X108434160Y-135856974D01*
X108600837Y-135690299D01*
X108611675Y-135674078D01*
X108611675Y-135635809D01*
X108584616Y-135608750D01*
X108546347Y-135608750D01*
X108530126Y-135619588D01*
X108126065Y-136023650D01*
X108115226Y-136039871D01*
X107952708Y-136039871D01*
X108592471Y-135400108D01*
X108754989Y-135400108D01*
X108754989Y-135438376D01*
X108782049Y-135465436D01*
X108801183Y-135469242D01*
X109597502Y-135469242D01*
X109714375Y-135527678D01*
X109767634Y-135580937D01*
X109795007Y-135663056D01*
X109795007Y-135714174D01*
X109767634Y-135796293D01*
X109615968Y-135947959D01*
X109533848Y-135975333D01*
X109474618Y-135975333D01*
X109455484Y-135979139D01*
X109428424Y-136006199D01*
X109428424Y-136044467D01*
X109455484Y-136071527D01*
X109474618Y-136075333D01*
X109541962Y-136075333D01*
X109549823Y-136073769D01*
X109557774Y-136072767D01*
X109658788Y-136039095D01*
X109660963Y-136037855D01*
X109662111Y-136037855D01*
X109668771Y-136033404D01*
X109675737Y-136029434D01*
X109676250Y-136028406D01*
X109678332Y-136027016D01*
X109846691Y-135858658D01*
X109848081Y-135856576D01*
X109849109Y-135856063D01*
X109853079Y-135849097D01*
X109857530Y-135842437D01*
X109857530Y-135841289D01*
X109858770Y-135839114D01*
X109892441Y-135738098D01*
X109893442Y-135730150D01*
X109895007Y-135722287D01*
X109895007Y-135654944D01*
X109893442Y-135647080D01*
X109892441Y-135639133D01*
X109858770Y-135538118D01*
X109857530Y-135535942D01*
X109857530Y-135534795D01*
X109853079Y-135528134D01*
X109849109Y-135521169D01*
X109848081Y-135520655D01*
X109846691Y-135518574D01*
X109779347Y-135451230D01*
X109772685Y-135446778D01*
X109766352Y-135441863D01*
X109631666Y-135374521D01*
X109629250Y-135373859D01*
X109628439Y-135373048D01*
X109620574Y-135371483D01*
X109612849Y-135369368D01*
X109611761Y-135369730D01*
X109609305Y-135369242D01*
X108921893Y-135369242D01*
X109274271Y-135016864D01*
X109285110Y-135000643D01*
X109285110Y-134962375D01*
X109258050Y-134935315D01*
X109219782Y-134935315D01*
X109203561Y-134946154D01*
X108765828Y-135383887D01*
X108754989Y-135400108D01*
X108592471Y-135400108D01*
X109452348Y-134540231D01*
X109626775Y-134540231D01*
X109627956Y-134543776D01*
X109626775Y-134547321D01*
X109631928Y-134566137D01*
X110103332Y-135508945D01*
X110115293Y-135524357D01*
X110151597Y-135536459D01*
X110185825Y-135519345D01*
X110197927Y-135483040D01*
X110192774Y-135464224D01*
X109788451Y-134655578D01*
X110597098Y-135059902D01*
X110615914Y-135065055D01*
X110652218Y-135052954D01*
X110669332Y-135018726D01*
X110657231Y-134982421D01*
X110641819Y-134970460D01*
X109699010Y-134499055D01*
X109680194Y-134493902D01*
X109676649Y-134495083D01*
X109673104Y-134493902D01*
X109658926Y-134500990D01*
X109643889Y-134506003D01*
X109642218Y-134509345D01*
X109638876Y-134511016D01*
X109633863Y-134526053D01*
X109626775Y-134540231D01*
X109452348Y-134540231D01*
X109912262Y-134080317D01*
X110847214Y-135015269D01*
G37*
G36*
X114956643Y-141465842D02*
G01*
X112778526Y-143643960D01*
X111843573Y-142709007D01*
X111944589Y-142607991D01*
X112189778Y-142607991D01*
X112189778Y-142742678D01*
X112191341Y-142750539D01*
X112192344Y-142758490D01*
X112226016Y-142859504D01*
X112228727Y-142864260D01*
X112230575Y-142869418D01*
X112331590Y-143037776D01*
X112335704Y-143042311D01*
X112339110Y-143047408D01*
X112440125Y-143148422D01*
X112445217Y-143151824D01*
X112449756Y-143155942D01*
X112618115Y-143256957D01*
X112623271Y-143258804D01*
X112628028Y-143261516D01*
X112729043Y-143295188D01*
X112736993Y-143296190D01*
X112744855Y-143297754D01*
X112879542Y-143297754D01*
X112881998Y-143297265D01*
X112883086Y-143297628D01*
X112890811Y-143295512D01*
X112898676Y-143293948D01*
X112899487Y-143293136D01*
X112901903Y-143292475D01*
X113036589Y-143225133D01*
X113042916Y-143220222D01*
X113049585Y-143215766D01*
X113116928Y-143148422D01*
X113121381Y-143141756D01*
X113126293Y-143135428D01*
X113193637Y-143000741D01*
X113194298Y-142998325D01*
X113195110Y-142997514D01*
X113196673Y-142989652D01*
X113198790Y-142981925D01*
X113198427Y-142980836D01*
X113198916Y-142978380D01*
X113198916Y-142911037D01*
X113195110Y-142891903D01*
X113168050Y-142864843D01*
X113129782Y-142864843D01*
X113102722Y-142891903D01*
X113098916Y-142911037D01*
X113098916Y-142966576D01*
X113040479Y-143083448D01*
X112984609Y-143139319D01*
X112867739Y-143197754D01*
X112752968Y-143197754D01*
X112664856Y-143168383D01*
X112506483Y-143073358D01*
X112414171Y-142981047D01*
X112319148Y-142822673D01*
X112289778Y-142734563D01*
X112289778Y-142619794D01*
X112348214Y-142502922D01*
X112404084Y-142447052D01*
X112520956Y-142388617D01*
X112576496Y-142388617D01*
X112595630Y-142384811D01*
X112622690Y-142357751D01*
X112622690Y-142319483D01*
X112595630Y-142292423D01*
X112576496Y-142288617D01*
X112509152Y-142288617D01*
X112506695Y-142289105D01*
X112505607Y-142288743D01*
X112497879Y-142290859D01*
X112490018Y-142292423D01*
X112489206Y-142293234D01*
X112486791Y-142293896D01*
X112352104Y-142361239D01*
X112345778Y-142366148D01*
X112339109Y-142370605D01*
X112271766Y-142437949D01*
X112267312Y-142444614D01*
X112262401Y-142450943D01*
X112195057Y-142585630D01*
X112194395Y-142588045D01*
X112193584Y-142588857D01*
X112192020Y-142596718D01*
X112189904Y-142604446D01*
X112190266Y-142605534D01*
X112189778Y-142607991D01*
X111944589Y-142607991D01*
X112569815Y-141982765D01*
X112732332Y-141982765D01*
X112732332Y-142021033D01*
X112759392Y-142048093D01*
X112797660Y-142048093D01*
X112813881Y-142037254D01*
X112980556Y-141870578D01*
X113535538Y-142425560D01*
X113529111Y-142424275D01*
X113524161Y-142424269D01*
X113519305Y-142423304D01*
X113384618Y-142423304D01*
X113376754Y-142424868D01*
X113368807Y-142425870D01*
X113267792Y-142459541D01*
X113250843Y-142469202D01*
X113233729Y-142503430D01*
X113245830Y-142539735D01*
X113280058Y-142556849D01*
X113299414Y-142554409D01*
X113392731Y-142523304D01*
X113514354Y-142523304D01*
X113677858Y-142556004D01*
X113697367Y-142556024D01*
X113701650Y-142553169D01*
X113706799Y-142553169D01*
X113717096Y-142542871D01*
X113729209Y-142534797D01*
X113730218Y-142529749D01*
X113733858Y-142526110D01*
X113733858Y-142511548D01*
X113736713Y-142497272D01*
X113733858Y-142492989D01*
X113733858Y-142487841D01*
X113723020Y-142471620D01*
X113051267Y-141799869D01*
X113217943Y-141633194D01*
X113228782Y-141616973D01*
X113228782Y-141578704D01*
X113201722Y-141551644D01*
X113163454Y-141551644D01*
X113147233Y-141562483D01*
X112743171Y-141966544D01*
X112732332Y-141982765D01*
X112569815Y-141982765D01*
X113007548Y-141545032D01*
X113708813Y-141545032D01*
X113708813Y-141583300D01*
X113735873Y-141610360D01*
X113774141Y-141610360D01*
X113790362Y-141599521D01*
X114329111Y-141060773D01*
X114339949Y-141044552D01*
X114339949Y-141006283D01*
X114312890Y-140979224D01*
X114274621Y-140979224D01*
X114258400Y-140990062D01*
X113719652Y-141528811D01*
X113708813Y-141545032D01*
X113007548Y-141545032D01*
X114021691Y-140530889D01*
X114956643Y-141465842D01*
G37*
G36*
X111880703Y-140891115D02*
G01*
X112039083Y-140986143D01*
X112131389Y-141078449D01*
X112226415Y-141236825D01*
X112255786Y-141324936D01*
X112255786Y-141439706D01*
X112197349Y-141556580D01*
X112070084Y-141683845D01*
X111433687Y-141047448D01*
X111560954Y-140920181D01*
X111677827Y-140861747D01*
X111792597Y-140861747D01*
X111880703Y-140891115D01*
G37*
G36*
X112701990Y-141350496D02*
G01*
X110588526Y-143463960D01*
X109653573Y-142529007D01*
X109754589Y-142427991D01*
X109999778Y-142427991D01*
X109999778Y-142562678D01*
X110001341Y-142570539D01*
X110002344Y-142578490D01*
X110036016Y-142679504D01*
X110038727Y-142684260D01*
X110040575Y-142689418D01*
X110141590Y-142857776D01*
X110145704Y-142862311D01*
X110149110Y-142867408D01*
X110250125Y-142968422D01*
X110255217Y-142971824D01*
X110259756Y-142975942D01*
X110428115Y-143076957D01*
X110433271Y-143078804D01*
X110438028Y-143081516D01*
X110539043Y-143115188D01*
X110546993Y-143116190D01*
X110554855Y-143117754D01*
X110689542Y-143117754D01*
X110691998Y-143117265D01*
X110693086Y-143117628D01*
X110700811Y-143115512D01*
X110708676Y-143113948D01*
X110709487Y-143113136D01*
X110711903Y-143112475D01*
X110846589Y-143045133D01*
X110852916Y-143040222D01*
X110859585Y-143035766D01*
X110960599Y-142934751D01*
X110961990Y-142932668D01*
X110963017Y-142932155D01*
X110966987Y-142925190D01*
X110971438Y-142918529D01*
X110971437Y-142917382D01*
X110972678Y-142915207D01*
X111006350Y-142814192D01*
X111008790Y-142794836D01*
X110991676Y-142760608D01*
X110955372Y-142748506D01*
X110921143Y-142765620D01*
X110911482Y-142782569D01*
X110881542Y-142872385D01*
X110794609Y-142959319D01*
X110677739Y-143017754D01*
X110562968Y-143017754D01*
X110474856Y-142988383D01*
X110316483Y-142893358D01*
X110224171Y-142801047D01*
X110129148Y-142642673D01*
X110099778Y-142554563D01*
X110099778Y-142439794D01*
X110158214Y-142322922D01*
X110214084Y-142267052D01*
X110330956Y-142208617D01*
X110365786Y-142208617D01*
X110551488Y-142394319D01*
X110452156Y-142493651D01*
X110441317Y-142509872D01*
X110441317Y-142548140D01*
X110468377Y-142575200D01*
X110506645Y-142575200D01*
X110522866Y-142564361D01*
X110657553Y-142429674D01*
X110668392Y-142413453D01*
X110668392Y-142375185D01*
X110657553Y-142358964D01*
X110421851Y-142123262D01*
X110405630Y-142112423D01*
X110386496Y-142108617D01*
X110319152Y-142108617D01*
X110316695Y-142109105D01*
X110315607Y-142108743D01*
X110307879Y-142110859D01*
X110300018Y-142112423D01*
X110299206Y-142113234D01*
X110296791Y-142113896D01*
X110162104Y-142181239D01*
X110155778Y-142186148D01*
X110149109Y-142190605D01*
X110081766Y-142257949D01*
X110077312Y-142264614D01*
X110072401Y-142270943D01*
X110005057Y-142405630D01*
X110004395Y-142408045D01*
X110003584Y-142408857D01*
X110002020Y-142416718D01*
X109999904Y-142424446D01*
X110000266Y-142425534D01*
X109999778Y-142427991D01*
X109754589Y-142427991D01*
X110413487Y-141769093D01*
X110576004Y-141769093D01*
X110576004Y-141807361D01*
X110586843Y-141823582D01*
X111293949Y-142530689D01*
X111310170Y-142541528D01*
X111317039Y-142541528D01*
X111323000Y-142544934D01*
X111335488Y-142541528D01*
X111348439Y-142541528D01*
X111353295Y-142536671D01*
X111359919Y-142534865D01*
X111366342Y-142523624D01*
X111375499Y-142514468D01*
X111375499Y-142507601D01*
X111378906Y-142501639D01*
X111377543Y-142482178D01*
X111124036Y-141552653D01*
X111698010Y-142126628D01*
X111714231Y-142137467D01*
X111752500Y-142137467D01*
X111779560Y-142110407D01*
X111779560Y-142072138D01*
X111768721Y-142055917D01*
X111061614Y-141348811D01*
X111045393Y-141337972D01*
X111038526Y-141337972D01*
X111032564Y-141334565D01*
X111020072Y-141337972D01*
X111007125Y-141337972D01*
X111002269Y-141342827D01*
X110995645Y-141344634D01*
X110989220Y-141355876D01*
X110980065Y-141365032D01*
X110980065Y-141371898D01*
X110976658Y-141377861D01*
X110978021Y-141397322D01*
X111231527Y-142326845D01*
X110657553Y-141752872D01*
X110641332Y-141742033D01*
X110603064Y-141742033D01*
X110576004Y-141769093D01*
X110413487Y-141769093D01*
X111154265Y-141028315D01*
X111316783Y-141028315D01*
X111316783Y-141066583D01*
X111327622Y-141082804D01*
X112034728Y-141789911D01*
X112050949Y-141800750D01*
X112050950Y-141800750D01*
X112089218Y-141800750D01*
X112105439Y-141789911D01*
X112273798Y-141621552D01*
X112278251Y-141614886D01*
X112283163Y-141608558D01*
X112350507Y-141473871D01*
X112351168Y-141471455D01*
X112351980Y-141470644D01*
X112353543Y-141462782D01*
X112355660Y-141455055D01*
X112355297Y-141453966D01*
X112355786Y-141451510D01*
X112355786Y-141316823D01*
X112354222Y-141308961D01*
X112353220Y-141301011D01*
X112319548Y-141199996D01*
X112316834Y-141195235D01*
X112314988Y-141190083D01*
X112213974Y-141021724D01*
X112209854Y-141017183D01*
X112206454Y-141012094D01*
X112105439Y-140911079D01*
X112100349Y-140907678D01*
X112095809Y-140903559D01*
X111927450Y-140802543D01*
X111922292Y-140800695D01*
X111917536Y-140797984D01*
X111816521Y-140764313D01*
X111808573Y-140763311D01*
X111800710Y-140761747D01*
X111666023Y-140761747D01*
X111663566Y-140762235D01*
X111662478Y-140761873D01*
X111654750Y-140763989D01*
X111646889Y-140765553D01*
X111646077Y-140766364D01*
X111643662Y-140767026D01*
X111508975Y-140834369D01*
X111502646Y-140839280D01*
X111495980Y-140843735D01*
X111327622Y-141012094D01*
X111316783Y-141028315D01*
X111154265Y-141028315D01*
X111767037Y-140415543D01*
X112701990Y-141350496D01*
G37*
G36*
X106302819Y-135879002D02*
G01*
X106461195Y-135974026D01*
X106553503Y-136066334D01*
X106648531Y-136224713D01*
X106677901Y-136312821D01*
X106677901Y-136427591D01*
X106619465Y-136544463D01*
X106492198Y-136671730D01*
X105855801Y-136035334D01*
X105983068Y-135908067D01*
X106099941Y-135849632D01*
X106214710Y-135849632D01*
X106302819Y-135879002D01*
G37*
G36*
X107963208Y-135499277D02*
G01*
X106492198Y-136970286D01*
X105557246Y-136035334D01*
X105576380Y-136016200D01*
X105738897Y-136016200D01*
X105738897Y-136054468D01*
X105749736Y-136070689D01*
X106456842Y-136777796D01*
X106473063Y-136788635D01*
X106473064Y-136788635D01*
X106511332Y-136788635D01*
X106527553Y-136777796D01*
X106695913Y-136609437D01*
X106700366Y-136602771D01*
X106705278Y-136596443D01*
X106772622Y-136461756D01*
X106773283Y-136459340D01*
X106774095Y-136458529D01*
X106775658Y-136450667D01*
X106777775Y-136442940D01*
X106777412Y-136441851D01*
X106777901Y-136439395D01*
X106777901Y-136304708D01*
X106776337Y-136296846D01*
X106775335Y-136288896D01*
X106741663Y-136187881D01*
X106738951Y-136183123D01*
X106737104Y-136177968D01*
X106636088Y-136009609D01*
X106631968Y-136005068D01*
X106628568Y-135999979D01*
X106527553Y-135898964D01*
X106522459Y-135895560D01*
X106517922Y-135891444D01*
X106349564Y-135790429D01*
X106344406Y-135788581D01*
X106339650Y-135785870D01*
X106238636Y-135752198D01*
X106230685Y-135751195D01*
X106222824Y-135749632D01*
X106088137Y-135749632D01*
X106085680Y-135750120D01*
X106084592Y-135749758D01*
X106076864Y-135751874D01*
X106069003Y-135753438D01*
X106068191Y-135754249D01*
X106065776Y-135754911D01*
X105931089Y-135822254D01*
X105924763Y-135827163D01*
X105918095Y-135831619D01*
X105749736Y-135999979D01*
X105738897Y-136016200D01*
X105576380Y-136016200D01*
X106014113Y-135578467D01*
X106715378Y-135578467D01*
X106715378Y-135616735D01*
X106742438Y-135643795D01*
X106780706Y-135643795D01*
X106796927Y-135632956D01*
X107335676Y-135094208D01*
X107346514Y-135077987D01*
X107346514Y-135039718D01*
X107319455Y-135012659D01*
X107281186Y-135012659D01*
X107264965Y-135023497D01*
X106726217Y-135562246D01*
X106715378Y-135578467D01*
X106014113Y-135578467D01*
X107028256Y-134564324D01*
X107963208Y-135499277D01*
G37*
G36*
X115706643Y-135245842D02*
G01*
X113528526Y-137423960D01*
X112593573Y-136489007D01*
X112694589Y-136387991D01*
X112939778Y-136387991D01*
X112939778Y-136522678D01*
X112941341Y-136530539D01*
X112942344Y-136538490D01*
X112976016Y-136639504D01*
X112978727Y-136644260D01*
X112980575Y-136649418D01*
X113081590Y-136817776D01*
X113085704Y-136822311D01*
X113089110Y-136827408D01*
X113190125Y-136928422D01*
X113195217Y-136931824D01*
X113199756Y-136935942D01*
X113368115Y-137036957D01*
X113373271Y-137038804D01*
X113378028Y-137041516D01*
X113479043Y-137075188D01*
X113486993Y-137076190D01*
X113494855Y-137077754D01*
X113629542Y-137077754D01*
X113631998Y-137077265D01*
X113633086Y-137077628D01*
X113640811Y-137075512D01*
X113648676Y-137073948D01*
X113649487Y-137073136D01*
X113651903Y-137072475D01*
X113786589Y-137005133D01*
X113792916Y-137000222D01*
X113799585Y-136995766D01*
X113866928Y-136928422D01*
X113871381Y-136921756D01*
X113876293Y-136915428D01*
X113943637Y-136780741D01*
X113944298Y-136778325D01*
X113945110Y-136777514D01*
X113946673Y-136769652D01*
X113948790Y-136761925D01*
X113948427Y-136760836D01*
X113948916Y-136758380D01*
X113948916Y-136691037D01*
X113945110Y-136671903D01*
X113918050Y-136644843D01*
X113879782Y-136644843D01*
X113852722Y-136671903D01*
X113848916Y-136691037D01*
X113848916Y-136746576D01*
X113790479Y-136863448D01*
X113734609Y-136919319D01*
X113617739Y-136977754D01*
X113502968Y-136977754D01*
X113414856Y-136948383D01*
X113256483Y-136853358D01*
X113164171Y-136761047D01*
X113069148Y-136602673D01*
X113039778Y-136514563D01*
X113039778Y-136399794D01*
X113098214Y-136282922D01*
X113154084Y-136227052D01*
X113270956Y-136168617D01*
X113326496Y-136168617D01*
X113345630Y-136164811D01*
X113372690Y-136137751D01*
X113372690Y-136099483D01*
X113345630Y-136072423D01*
X113326496Y-136068617D01*
X113259152Y-136068617D01*
X113256695Y-136069105D01*
X113255607Y-136068743D01*
X113247879Y-136070859D01*
X113240018Y-136072423D01*
X113239206Y-136073234D01*
X113236791Y-136073896D01*
X113102104Y-136141239D01*
X113095778Y-136146148D01*
X113089109Y-136150605D01*
X113021766Y-136217949D01*
X113017312Y-136224614D01*
X113012401Y-136230943D01*
X112945057Y-136365630D01*
X112944395Y-136368045D01*
X112943584Y-136368857D01*
X112942020Y-136376718D01*
X112939904Y-136384446D01*
X112940266Y-136385534D01*
X112939778Y-136387991D01*
X112694589Y-136387991D01*
X113319815Y-135762765D01*
X113482332Y-135762765D01*
X113482332Y-135801033D01*
X113509392Y-135828093D01*
X113547660Y-135828093D01*
X113563881Y-135817254D01*
X113730556Y-135650578D01*
X114285538Y-136205560D01*
X114279111Y-136204275D01*
X114274161Y-136204269D01*
X114269305Y-136203304D01*
X114134618Y-136203304D01*
X114126754Y-136204868D01*
X114118807Y-136205870D01*
X114017792Y-136239541D01*
X114000843Y-136249202D01*
X113983729Y-136283430D01*
X113995830Y-136319735D01*
X114030058Y-136336849D01*
X114049414Y-136334409D01*
X114142731Y-136303304D01*
X114264354Y-136303304D01*
X114427858Y-136336004D01*
X114447367Y-136336024D01*
X114451650Y-136333169D01*
X114456799Y-136333169D01*
X114467096Y-136322871D01*
X114479209Y-136314797D01*
X114480218Y-136309749D01*
X114483858Y-136306110D01*
X114483858Y-136291548D01*
X114486713Y-136277272D01*
X114483858Y-136272989D01*
X114483858Y-136267841D01*
X114473020Y-136251620D01*
X113801267Y-135579869D01*
X113967943Y-135413194D01*
X113978782Y-135396973D01*
X113978782Y-135358704D01*
X113951722Y-135331644D01*
X113913454Y-135331644D01*
X113897233Y-135342483D01*
X113493171Y-135746544D01*
X113482332Y-135762765D01*
X113319815Y-135762765D01*
X114296296Y-134786284D01*
X114458813Y-134786284D01*
X114458813Y-134824552D01*
X114469652Y-134840773D01*
X114703670Y-135074792D01*
X114469652Y-135308811D01*
X114458813Y-135325032D01*
X114458813Y-135363300D01*
X114485873Y-135390360D01*
X114524141Y-135390360D01*
X114540362Y-135379521D01*
X114774380Y-135145502D01*
X115008400Y-135379522D01*
X115024621Y-135390360D01*
X115062890Y-135390360D01*
X115089949Y-135363301D01*
X115089949Y-135325032D01*
X115079111Y-135308811D01*
X114845091Y-135074792D01*
X115079111Y-134840773D01*
X115089949Y-134824552D01*
X115089949Y-134786283D01*
X115062890Y-134759224D01*
X115024621Y-134759224D01*
X115008400Y-134770062D01*
X114774380Y-135004081D01*
X114540362Y-134770063D01*
X114524141Y-134759224D01*
X114485873Y-134759224D01*
X114458813Y-134786284D01*
X114296296Y-134786284D01*
X114771691Y-134310889D01*
X115706643Y-135245842D01*
G37*
G36*
X110426643Y-141445842D02*
G01*
X108248526Y-143623960D01*
X107313573Y-142689007D01*
X107414589Y-142587991D01*
X107659778Y-142587991D01*
X107659778Y-142722678D01*
X107661341Y-142730539D01*
X107662344Y-142738490D01*
X107696016Y-142839504D01*
X107698727Y-142844260D01*
X107700575Y-142849418D01*
X107801590Y-143017776D01*
X107805704Y-143022311D01*
X107809110Y-143027408D01*
X107910125Y-143128422D01*
X107915217Y-143131824D01*
X107919756Y-143135942D01*
X108088115Y-143236957D01*
X108093271Y-143238804D01*
X108098028Y-143241516D01*
X108199043Y-143275188D01*
X108206993Y-143276190D01*
X108214855Y-143277754D01*
X108349542Y-143277754D01*
X108351998Y-143277265D01*
X108353086Y-143277628D01*
X108360811Y-143275512D01*
X108368676Y-143273948D01*
X108369487Y-143273136D01*
X108371903Y-143272475D01*
X108506589Y-143205133D01*
X108512916Y-143200222D01*
X108519585Y-143195766D01*
X108586928Y-143128422D01*
X108591381Y-143121756D01*
X108596293Y-143115428D01*
X108663637Y-142980741D01*
X108664298Y-142978325D01*
X108665110Y-142977514D01*
X108666673Y-142969652D01*
X108668790Y-142961925D01*
X108668427Y-142960836D01*
X108668916Y-142958380D01*
X108668916Y-142891037D01*
X108665110Y-142871903D01*
X108638050Y-142844843D01*
X108599782Y-142844843D01*
X108572722Y-142871903D01*
X108568916Y-142891037D01*
X108568916Y-142946576D01*
X108510479Y-143063448D01*
X108454609Y-143119319D01*
X108337739Y-143177754D01*
X108222968Y-143177754D01*
X108134856Y-143148383D01*
X107976483Y-143053358D01*
X107884171Y-142961047D01*
X107789148Y-142802673D01*
X107759778Y-142714563D01*
X107759778Y-142599794D01*
X107818214Y-142482922D01*
X107874084Y-142427052D01*
X107990956Y-142368617D01*
X108046496Y-142368617D01*
X108065630Y-142364811D01*
X108092690Y-142337751D01*
X108092690Y-142299483D01*
X108065630Y-142272423D01*
X108046496Y-142268617D01*
X107979152Y-142268617D01*
X107976695Y-142269105D01*
X107975607Y-142268743D01*
X107967879Y-142270859D01*
X107960018Y-142272423D01*
X107959206Y-142273234D01*
X107956791Y-142273896D01*
X107822104Y-142341239D01*
X107815778Y-142346148D01*
X107809109Y-142350605D01*
X107741766Y-142417949D01*
X107737312Y-142424614D01*
X107732401Y-142430943D01*
X107665057Y-142565630D01*
X107664395Y-142568045D01*
X107663584Y-142568857D01*
X107662020Y-142576718D01*
X107659904Y-142584446D01*
X107660266Y-142585534D01*
X107659778Y-142587991D01*
X107414589Y-142587991D01*
X108006143Y-141996437D01*
X108168661Y-141996437D01*
X108168661Y-142034705D01*
X108195721Y-142061765D01*
X108214855Y-142065571D01*
X109011174Y-142065571D01*
X109128044Y-142124005D01*
X109181305Y-142177267D01*
X109208679Y-142259386D01*
X109208679Y-142310503D01*
X109181305Y-142392623D01*
X109029640Y-142544289D01*
X108947520Y-142571662D01*
X108888290Y-142571662D01*
X108869156Y-142575468D01*
X108842096Y-142602528D01*
X108842096Y-142640796D01*
X108869156Y-142667856D01*
X108888290Y-142671662D01*
X108955633Y-142671662D01*
X108963496Y-142670097D01*
X108971444Y-142669096D01*
X109072460Y-142635425D01*
X109074635Y-142634185D01*
X109075783Y-142634185D01*
X109082443Y-142629734D01*
X109089409Y-142625764D01*
X109089922Y-142624736D01*
X109092004Y-142623346D01*
X109260363Y-142454987D01*
X109261754Y-142452904D01*
X109262780Y-142452392D01*
X109266749Y-142445428D01*
X109271201Y-142438766D01*
X109271201Y-142437619D01*
X109272441Y-142435444D01*
X109306113Y-142334429D01*
X109307115Y-142326478D01*
X109308679Y-142318617D01*
X109308679Y-142251273D01*
X109307115Y-142243411D01*
X109306113Y-142235461D01*
X109272441Y-142134446D01*
X109271201Y-142132270D01*
X109271201Y-142131124D01*
X109266749Y-142124461D01*
X109262780Y-142117498D01*
X109261754Y-142116985D01*
X109260363Y-142114903D01*
X109193020Y-142047559D01*
X109186351Y-142043102D01*
X109180024Y-142038192D01*
X109045338Y-141970850D01*
X109042922Y-141970188D01*
X109042111Y-141969377D01*
X109034246Y-141967812D01*
X109026521Y-141965697D01*
X109025433Y-141966059D01*
X109022977Y-141965571D01*
X108335565Y-141965571D01*
X108687943Y-141613193D01*
X108698782Y-141596972D01*
X108698782Y-141558704D01*
X108671722Y-141531644D01*
X108633454Y-141531644D01*
X108617233Y-141542483D01*
X108179500Y-141980216D01*
X108168661Y-141996437D01*
X108006143Y-141996437D01*
X109016296Y-140986284D01*
X109178813Y-140986284D01*
X109178813Y-141024552D01*
X109189652Y-141040773D01*
X109423670Y-141274792D01*
X109189652Y-141508811D01*
X109178813Y-141525032D01*
X109178813Y-141563300D01*
X109205873Y-141590360D01*
X109244141Y-141590360D01*
X109260362Y-141579521D01*
X109494380Y-141345502D01*
X109728400Y-141579522D01*
X109744621Y-141590360D01*
X109782890Y-141590360D01*
X109809949Y-141563301D01*
X109809949Y-141525032D01*
X109799111Y-141508811D01*
X109565091Y-141274792D01*
X109799111Y-141040773D01*
X109809949Y-141024552D01*
X109809949Y-140986283D01*
X109782890Y-140959224D01*
X109744621Y-140959224D01*
X109728400Y-140970062D01*
X109494380Y-141204081D01*
X109260362Y-140970063D01*
X109244141Y-140959224D01*
X109205873Y-140959224D01*
X109178813Y-140986284D01*
X109016296Y-140986284D01*
X109491691Y-140510889D01*
X110426643Y-141445842D01*
G37*
G36*
X113386643Y-134965842D02*
G01*
X111208526Y-137143960D01*
X110273573Y-136209007D01*
X110374589Y-136107991D01*
X110619778Y-136107991D01*
X110619778Y-136242678D01*
X110621341Y-136250539D01*
X110622344Y-136258490D01*
X110656016Y-136359504D01*
X110658727Y-136364260D01*
X110660575Y-136369418D01*
X110761590Y-136537776D01*
X110765704Y-136542311D01*
X110769110Y-136547408D01*
X110870125Y-136648422D01*
X110875217Y-136651824D01*
X110879756Y-136655942D01*
X111048115Y-136756957D01*
X111053271Y-136758804D01*
X111058028Y-136761516D01*
X111159043Y-136795188D01*
X111166993Y-136796190D01*
X111174855Y-136797754D01*
X111309542Y-136797754D01*
X111311998Y-136797265D01*
X111313086Y-136797628D01*
X111320811Y-136795512D01*
X111328676Y-136793948D01*
X111329487Y-136793136D01*
X111331903Y-136792475D01*
X111466589Y-136725133D01*
X111472916Y-136720222D01*
X111479585Y-136715766D01*
X111546928Y-136648422D01*
X111551381Y-136641756D01*
X111556293Y-136635428D01*
X111623637Y-136500741D01*
X111624298Y-136498325D01*
X111625110Y-136497514D01*
X111626673Y-136489652D01*
X111628790Y-136481925D01*
X111628427Y-136480836D01*
X111628916Y-136478380D01*
X111628916Y-136411037D01*
X111625110Y-136391903D01*
X111598050Y-136364843D01*
X111559782Y-136364843D01*
X111532722Y-136391903D01*
X111528916Y-136411037D01*
X111528916Y-136466576D01*
X111470479Y-136583448D01*
X111414609Y-136639319D01*
X111297739Y-136697754D01*
X111182968Y-136697754D01*
X111094856Y-136668383D01*
X110936483Y-136573358D01*
X110844171Y-136481047D01*
X110749148Y-136322673D01*
X110719778Y-136234563D01*
X110719778Y-136119794D01*
X110778214Y-136002922D01*
X110834084Y-135947052D01*
X110950956Y-135888617D01*
X111006496Y-135888617D01*
X111025630Y-135884811D01*
X111052690Y-135857751D01*
X111052690Y-135819483D01*
X111025630Y-135792423D01*
X111006496Y-135788617D01*
X110939152Y-135788617D01*
X110936695Y-135789105D01*
X110935607Y-135788743D01*
X110927879Y-135790859D01*
X110920018Y-135792423D01*
X110919206Y-135793234D01*
X110916791Y-135793896D01*
X110782104Y-135861239D01*
X110775778Y-135866148D01*
X110769109Y-135870605D01*
X110701766Y-135937949D01*
X110697312Y-135944614D01*
X110692401Y-135950943D01*
X110625057Y-136085630D01*
X110624395Y-136088045D01*
X110623584Y-136088857D01*
X110622020Y-136096718D01*
X110619904Y-136104446D01*
X110620266Y-136105534D01*
X110619778Y-136107991D01*
X110374589Y-136107991D01*
X110966143Y-135516437D01*
X111128661Y-135516437D01*
X111128661Y-135554705D01*
X111155721Y-135581765D01*
X111174855Y-135585571D01*
X111971174Y-135585571D01*
X112088044Y-135644005D01*
X112141305Y-135697267D01*
X112168679Y-135779386D01*
X112168679Y-135830503D01*
X112141305Y-135912623D01*
X111989640Y-136064289D01*
X111907520Y-136091662D01*
X111848290Y-136091662D01*
X111829156Y-136095468D01*
X111802096Y-136122528D01*
X111802096Y-136160796D01*
X111829156Y-136187856D01*
X111848290Y-136191662D01*
X111915633Y-136191662D01*
X111923496Y-136190097D01*
X111931444Y-136189096D01*
X112032460Y-136155425D01*
X112034635Y-136154185D01*
X112035783Y-136154185D01*
X112042443Y-136149734D01*
X112049409Y-136145764D01*
X112049922Y-136144736D01*
X112052004Y-136143346D01*
X112220363Y-135974987D01*
X112221754Y-135972904D01*
X112222780Y-135972392D01*
X112226749Y-135965428D01*
X112231201Y-135958766D01*
X112231201Y-135957619D01*
X112232441Y-135955444D01*
X112266113Y-135854429D01*
X112267115Y-135846478D01*
X112268679Y-135838617D01*
X112268679Y-135771273D01*
X112267115Y-135763411D01*
X112266113Y-135755461D01*
X112232441Y-135654446D01*
X112231201Y-135652270D01*
X112231201Y-135651124D01*
X112226749Y-135644461D01*
X112222780Y-135637498D01*
X112221754Y-135636985D01*
X112220363Y-135634903D01*
X112153020Y-135567559D01*
X112146351Y-135563102D01*
X112140024Y-135558192D01*
X112005338Y-135490850D01*
X112002922Y-135490188D01*
X112002111Y-135489377D01*
X111994246Y-135487812D01*
X111986521Y-135485697D01*
X111985433Y-135486059D01*
X111982977Y-135485571D01*
X111295565Y-135485571D01*
X111647943Y-135133193D01*
X111658782Y-135116972D01*
X111658782Y-135078704D01*
X111631722Y-135051644D01*
X111593454Y-135051644D01*
X111577233Y-135062483D01*
X111139500Y-135500216D01*
X111128661Y-135516437D01*
X110966143Y-135516437D01*
X111437548Y-135045032D01*
X112138813Y-135045032D01*
X112138813Y-135083300D01*
X112165873Y-135110360D01*
X112204141Y-135110360D01*
X112220362Y-135099521D01*
X112759111Y-134560773D01*
X112769949Y-134544552D01*
X112769949Y-134506283D01*
X112742890Y-134479224D01*
X112704621Y-134479224D01*
X112688400Y-134490062D01*
X112149652Y-135028811D01*
X112138813Y-135045032D01*
X111437548Y-135045032D01*
X112451691Y-134030889D01*
X113386643Y-134965842D01*
G37*
D11*
G36*
X125726477Y-146359642D02*
G01*
X125774955Y-146408119D01*
X125834220Y-146526647D01*
X125899999Y-146789765D01*
X125899999Y-147122291D01*
X125834220Y-147385408D01*
X125774955Y-147503937D01*
X125726478Y-147552413D01*
X125619249Y-147606028D01*
X125523606Y-147606028D01*
X125416377Y-147552414D01*
X125367901Y-147503937D01*
X125308635Y-147385407D01*
X125242856Y-147122289D01*
X125242856Y-146789767D01*
X125308635Y-146526648D01*
X125367900Y-146408120D01*
X125416376Y-146359643D01*
X125523606Y-146306028D01*
X125619249Y-146306028D01*
X125726477Y-146359642D01*
G37*
G36*
X121440765Y-144444728D02*
G01*
X121489242Y-144493204D01*
X121542856Y-144600432D01*
X121542856Y-144981791D01*
X121489242Y-145089018D01*
X121440762Y-145137498D01*
X121333535Y-145191112D01*
X121095035Y-145191112D01*
X121028571Y-145157880D01*
X121028571Y-144424344D01*
X121095035Y-144391112D01*
X121333534Y-144391112D01*
X121440765Y-144444728D01*
G37*
G36*
X130440765Y-144444728D02*
G01*
X130489242Y-144493204D01*
X130542856Y-144600432D01*
X130542856Y-144981791D01*
X130489242Y-145089018D01*
X130440762Y-145137498D01*
X130333535Y-145191112D01*
X130095035Y-145191112D01*
X130028571Y-145157880D01*
X130028571Y-144424344D01*
X130095035Y-144391112D01*
X130333534Y-144391112D01*
X130440765Y-144444728D01*
G37*
G36*
X125330730Y-144816133D02*
G01*
X125334313Y-144816387D01*
X125337634Y-144817763D01*
X125357143Y-144819684D01*
X125690679Y-144819684D01*
X125782607Y-144865647D01*
X125828571Y-144957575D01*
X125828571Y-145053219D01*
X125782607Y-145145148D01*
X125690679Y-145191112D01*
X125380750Y-145191112D01*
X125314286Y-145157880D01*
X125314286Y-144809840D01*
X125330730Y-144816133D01*
G37*
G36*
X129139749Y-144437077D02*
G01*
X129185713Y-144529004D01*
X129185713Y-144669131D01*
X128671428Y-144566274D01*
X128671428Y-144529004D01*
X128717391Y-144437076D01*
X128809320Y-144391112D01*
X129047820Y-144391112D01*
X129139749Y-144437077D01*
G37*
G36*
X131402158Y-144816133D02*
G01*
X131405741Y-144816387D01*
X131409062Y-144817763D01*
X131428571Y-144819684D01*
X131762107Y-144819684D01*
X131854035Y-144865647D01*
X131899999Y-144957575D01*
X131899999Y-145053219D01*
X131854035Y-145145148D01*
X131762107Y-145191112D01*
X131452178Y-145191112D01*
X131385714Y-145157880D01*
X131385714Y-144809840D01*
X131402158Y-144816133D01*
G37*
G36*
X134797908Y-144444728D02*
G01*
X134846385Y-144493204D01*
X134899999Y-144600432D01*
X134899999Y-144981791D01*
X134846385Y-145089018D01*
X134797905Y-145137498D01*
X134690678Y-145191112D01*
X134523606Y-145191112D01*
X134416377Y-145137498D01*
X134367901Y-145089021D01*
X134314285Y-144981789D01*
X134314285Y-144600434D01*
X134367900Y-144493204D01*
X134416376Y-144444727D01*
X134523606Y-144391112D01*
X134690677Y-144391112D01*
X134797908Y-144444728D01*
G37*
G36*
X136694452Y-147972695D02*
G01*
X120661904Y-147972695D01*
X120661904Y-146218535D01*
X123615070Y-146218535D01*
X123619417Y-146237651D01*
X124119417Y-147737651D01*
X124127408Y-147755551D01*
X124132091Y-147760950D01*
X124135286Y-147767340D01*
X124144758Y-147775555D01*
X124152974Y-147785028D01*
X124159363Y-147788222D01*
X124164762Y-147792905D01*
X124176658Y-147796870D01*
X124187872Y-147802477D01*
X124194999Y-147802983D01*
X124201778Y-147805243D01*
X124214285Y-147804354D01*
X124226792Y-147805243D01*
X124233570Y-147802983D01*
X124240698Y-147802477D01*
X124251910Y-147796870D01*
X124263808Y-147792905D01*
X124269207Y-147788221D01*
X124275597Y-147785027D01*
X124283812Y-147775555D01*
X124293284Y-147767340D01*
X124296478Y-147760950D01*
X124301162Y-147755551D01*
X124309153Y-147737651D01*
X124629218Y-146777457D01*
X125042856Y-146777457D01*
X125042856Y-147134600D01*
X125043191Y-147138002D01*
X125042974Y-147139461D01*
X125044053Y-147146758D01*
X125044777Y-147154109D01*
X125045341Y-147155472D01*
X125045842Y-147158854D01*
X125117271Y-147444567D01*
X125117784Y-147446004D01*
X125117836Y-147446727D01*
X125120947Y-147454857D01*
X125123866Y-147463028D01*
X125124295Y-147463607D01*
X125124842Y-147465036D01*
X125196271Y-147607892D01*
X125201554Y-147616286D01*
X125202566Y-147618728D01*
X125204820Y-147621475D01*
X125206714Y-147624483D01*
X125208710Y-147626214D01*
X125215003Y-147633881D01*
X125286431Y-147705310D01*
X125294100Y-147711605D01*
X125295831Y-147713600D01*
X125298836Y-147715491D01*
X125301584Y-147717747D01*
X125304025Y-147718758D01*
X125312421Y-147724043D01*
X125455278Y-147795471D01*
X125473587Y-147802477D01*
X125477169Y-147802731D01*
X125480490Y-147804107D01*
X125499999Y-147806028D01*
X125642856Y-147806028D01*
X125662365Y-147804107D01*
X125665685Y-147802731D01*
X125669268Y-147802477D01*
X125687577Y-147795471D01*
X125830435Y-147724043D01*
X125838831Y-147718757D01*
X125841272Y-147717747D01*
X125844017Y-147715493D01*
X125847026Y-147713600D01*
X125848758Y-147711602D01*
X125856425Y-147705310D01*
X125927853Y-147633881D01*
X125934145Y-147626214D01*
X125936142Y-147624483D01*
X125938035Y-147621474D01*
X125940290Y-147618728D01*
X125941300Y-147616287D01*
X125946585Y-147607893D01*
X126018014Y-147465036D01*
X126018560Y-147463607D01*
X126018990Y-147463028D01*
X126021908Y-147454857D01*
X126025020Y-147446727D01*
X126025071Y-147446004D01*
X126025585Y-147444567D01*
X126097013Y-147158854D01*
X126097513Y-147155472D01*
X126098078Y-147154109D01*
X126098801Y-147146758D01*
X126099881Y-147139461D01*
X126099663Y-147138002D01*
X126099999Y-147134600D01*
X126099999Y-147063171D01*
X126471427Y-147063171D01*
X126471427Y-147420314D01*
X126473348Y-147439823D01*
X126474723Y-147443143D01*
X126474978Y-147446727D01*
X126481984Y-147465036D01*
X126553413Y-147607892D01*
X126558699Y-147616290D01*
X126559709Y-147618728D01*
X126561960Y-147621471D01*
X126563856Y-147624483D01*
X126565853Y-147626215D01*
X126572145Y-147633882D01*
X126643574Y-147705311D01*
X126651244Y-147711605D01*
X126652974Y-147713600D01*
X126655981Y-147715493D01*
X126658728Y-147717747D01*
X126661167Y-147718757D01*
X126669564Y-147724043D01*
X126812421Y-147795471D01*
X126830730Y-147802477D01*
X126834312Y-147802731D01*
X126837633Y-147804107D01*
X126857142Y-147806028D01*
X127214285Y-147806028D01*
X127233794Y-147804107D01*
X127237114Y-147802731D01*
X127240698Y-147802477D01*
X127259006Y-147795471D01*
X127401863Y-147724043D01*
X127410259Y-147718757D01*
X127412700Y-147717747D01*
X127415445Y-147715493D01*
X127418454Y-147713600D01*
X127420186Y-147711602D01*
X127427853Y-147705310D01*
X127499281Y-147633881D01*
X127511718Y-147618728D01*
X127526649Y-147582679D01*
X127526648Y-147543661D01*
X127511717Y-147507613D01*
X127484127Y-147480023D01*
X127448078Y-147465092D01*
X127409060Y-147465093D01*
X127373012Y-147480024D01*
X127357859Y-147492461D01*
X127297906Y-147552414D01*
X127190678Y-147606028D01*
X126880749Y-147606028D01*
X126773521Y-147552414D01*
X126725041Y-147503934D01*
X126671427Y-147396705D01*
X126671427Y-147115091D01*
X127973349Y-147115091D01*
X127973349Y-147154109D01*
X127988281Y-147190157D01*
X128015871Y-147217747D01*
X128051919Y-147232679D01*
X128071428Y-147234600D01*
X129214285Y-147234600D01*
X129233794Y-147232679D01*
X129269842Y-147217747D01*
X129297432Y-147190157D01*
X129312364Y-147154109D01*
X129312364Y-147115091D01*
X129297432Y-147079043D01*
X129269842Y-147051453D01*
X129233794Y-147036521D01*
X129214285Y-147034600D01*
X128071428Y-147034600D01*
X128051919Y-147036521D01*
X128015871Y-147051453D01*
X127988281Y-147079043D01*
X127973349Y-147115091D01*
X126671427Y-147115091D01*
X126671427Y-147086779D01*
X126725041Y-146979550D01*
X126773521Y-146931070D01*
X126880749Y-146877457D01*
X127190678Y-146877457D01*
X127297906Y-146931070D01*
X127357859Y-146991024D01*
X127373012Y-147003461D01*
X127377666Y-147005389D01*
X127381562Y-147008576D01*
X127395553Y-147012797D01*
X127409060Y-147018392D01*
X127414095Y-147018392D01*
X127418917Y-147019847D01*
X127433462Y-147018392D01*
X127448078Y-147018393D01*
X127452730Y-147016465D01*
X127457741Y-147015965D01*
X127470618Y-147009057D01*
X127484127Y-147003462D01*
X127487689Y-146999899D01*
X127492125Y-146997520D01*
X127501374Y-146986214D01*
X127511717Y-146975872D01*
X127513645Y-146971215D01*
X127516832Y-146967321D01*
X127521052Y-146953332D01*
X127526648Y-146939824D01*
X127526648Y-146934788D01*
X127528103Y-146929967D01*
X127528074Y-146910363D01*
X127486212Y-146491742D01*
X129757141Y-146491742D01*
X129757141Y-146634600D01*
X129758113Y-146644473D01*
X129757926Y-146647108D01*
X129758713Y-146650571D01*
X129759062Y-146654109D01*
X129760073Y-146656550D01*
X129762273Y-146666223D01*
X129833702Y-146880508D01*
X129841693Y-146898408D01*
X129844048Y-146901123D01*
X129845423Y-146904442D01*
X129857859Y-146919596D01*
X130544292Y-147606028D01*
X129857141Y-147606028D01*
X129837632Y-147607949D01*
X129801584Y-147622881D01*
X129773994Y-147650471D01*
X129759062Y-147686519D01*
X129759062Y-147725537D01*
X129773994Y-147761585D01*
X129801584Y-147789175D01*
X129837632Y-147804107D01*
X129857141Y-147806028D01*
X130785713Y-147806028D01*
X130805222Y-147804107D01*
X130841270Y-147789175D01*
X130868860Y-147761585D01*
X130883792Y-147725537D01*
X130883792Y-147686519D01*
X131187633Y-147686519D01*
X131187633Y-147725537D01*
X131202565Y-147761585D01*
X131230155Y-147789175D01*
X131266203Y-147804107D01*
X131285712Y-147806028D01*
X132142855Y-147806028D01*
X132162364Y-147804107D01*
X132198412Y-147789175D01*
X132226002Y-147761585D01*
X132240934Y-147725537D01*
X132240934Y-147686519D01*
X132226002Y-147650471D01*
X132198412Y-147622881D01*
X132162364Y-147607949D01*
X132142855Y-147606028D01*
X131814284Y-147606028D01*
X131814284Y-146518878D01*
X131929287Y-146633881D01*
X131936953Y-146640173D01*
X131938686Y-146642171D01*
X131941695Y-146644065D01*
X131944440Y-146646318D01*
X131946878Y-146647328D01*
X131955276Y-146652614D01*
X132098133Y-146724043D01*
X132116442Y-146731049D01*
X132155362Y-146733815D01*
X132192378Y-146721476D01*
X132221854Y-146695912D01*
X132239304Y-146661013D01*
X132242070Y-146622093D01*
X132229731Y-146585077D01*
X132204167Y-146555600D01*
X132187576Y-146545157D01*
X132059232Y-146480984D01*
X131934852Y-146356603D01*
X131797489Y-146150558D01*
X131797444Y-146150503D01*
X131797431Y-146150471D01*
X131797357Y-146150397D01*
X131785069Y-146135391D01*
X131776840Y-146129880D01*
X131769841Y-146122881D01*
X131760789Y-146119131D01*
X131752649Y-146113680D01*
X131742941Y-146111738D01*
X131733793Y-146107949D01*
X131723994Y-146107949D01*
X131714389Y-146106028D01*
X131704678Y-146107949D01*
X131694775Y-146107949D01*
X131685722Y-146111698D01*
X131676112Y-146113600D01*
X131667873Y-146119092D01*
X131658727Y-146122881D01*
X131651800Y-146129807D01*
X131643647Y-146135243D01*
X131638136Y-146143471D01*
X131631137Y-146150471D01*
X131627387Y-146159522D01*
X131621936Y-146167663D01*
X131619994Y-146177370D01*
X131616205Y-146186519D01*
X131614304Y-146205821D01*
X131614284Y-146205923D01*
X131614290Y-146205957D01*
X131614284Y-146206028D01*
X131614284Y-147606028D01*
X131285712Y-147606028D01*
X131266203Y-147607949D01*
X131230155Y-147622881D01*
X131202565Y-147650471D01*
X131187633Y-147686519D01*
X130883792Y-147686519D01*
X130872650Y-147659620D01*
X130868860Y-147650470D01*
X130856423Y-147635317D01*
X130015972Y-146794865D01*
X129957141Y-146618372D01*
X129957141Y-146515350D01*
X130010756Y-146408119D01*
X130059232Y-146359643D01*
X130166463Y-146306028D01*
X130476391Y-146306028D01*
X130583620Y-146359643D01*
X130643573Y-146419595D01*
X130658726Y-146432032D01*
X130694775Y-146446963D01*
X130733793Y-146446963D01*
X130769841Y-146432032D01*
X130797431Y-146404442D01*
X130812362Y-146368394D01*
X130812362Y-146329376D01*
X130797431Y-146293327D01*
X130784994Y-146278174D01*
X130713567Y-146206746D01*
X130705900Y-146200454D01*
X130704168Y-146198457D01*
X130701156Y-146196561D01*
X130698413Y-146194310D01*
X130695975Y-146193300D01*
X130687577Y-146188014D01*
X130544721Y-146116585D01*
X130526412Y-146109579D01*
X130522828Y-146109324D01*
X130519508Y-146107949D01*
X130499999Y-146106028D01*
X130142856Y-146106028D01*
X130123347Y-146107949D01*
X130120026Y-146109324D01*
X130116443Y-146109579D01*
X130098134Y-146116585D01*
X129955277Y-146188014D01*
X129946882Y-146193298D01*
X129944442Y-146194309D01*
X129941695Y-146196563D01*
X129938687Y-146198457D01*
X129936955Y-146200453D01*
X129929289Y-146206746D01*
X129857860Y-146278174D01*
X129851567Y-146285840D01*
X129849570Y-146287573D01*
X129847676Y-146290581D01*
X129845423Y-146293327D01*
X129844412Y-146295767D01*
X129839127Y-146304164D01*
X129767698Y-146447020D01*
X129760692Y-146465329D01*
X129760437Y-146468912D01*
X129759062Y-146472233D01*
X129757141Y-146491742D01*
X127486212Y-146491742D01*
X127456646Y-146196078D01*
X127455221Y-146188969D01*
X127455221Y-146186519D01*
X127454269Y-146184221D01*
X127452793Y-146176857D01*
X127445883Y-146163976D01*
X127440289Y-146150471D01*
X127436728Y-146146910D01*
X127434348Y-146142473D01*
X127423035Y-146133217D01*
X127412699Y-146122881D01*
X127408046Y-146120953D01*
X127404150Y-146117766D01*
X127390160Y-146113545D01*
X127376651Y-146107949D01*
X127369173Y-146107212D01*
X127366795Y-146106495D01*
X127364358Y-146106738D01*
X127357142Y-146106028D01*
X126642856Y-146106028D01*
X126623347Y-146107949D01*
X126587299Y-146122881D01*
X126559709Y-146150471D01*
X126544777Y-146186519D01*
X126544777Y-146225537D01*
X126559709Y-146261585D01*
X126587299Y-146289175D01*
X126623347Y-146304107D01*
X126642856Y-146306028D01*
X127266643Y-146306028D01*
X127307253Y-146712137D01*
X127259006Y-146688014D01*
X127240698Y-146681008D01*
X127237114Y-146680753D01*
X127233794Y-146679378D01*
X127214285Y-146677457D01*
X126857142Y-146677457D01*
X126837633Y-146679378D01*
X126834312Y-146680753D01*
X126830730Y-146681008D01*
X126812421Y-146688014D01*
X126669564Y-146759442D01*
X126661167Y-146764727D01*
X126658728Y-146765738D01*
X126655981Y-146767991D01*
X126652974Y-146769885D01*
X126651244Y-146771879D01*
X126643574Y-146778174D01*
X126572145Y-146849603D01*
X126565853Y-146857269D01*
X126563856Y-146859002D01*
X126561960Y-146862013D01*
X126559709Y-146864757D01*
X126558699Y-146867194D01*
X126553413Y-146875593D01*
X126481984Y-147018449D01*
X126474978Y-147036758D01*
X126474723Y-147040341D01*
X126473348Y-147043662D01*
X126471427Y-147063171D01*
X126099999Y-147063171D01*
X126099999Y-146777457D01*
X126099663Y-146774054D01*
X126099881Y-146772596D01*
X126098801Y-146765299D01*
X126098078Y-146757948D01*
X126097512Y-146756583D01*
X126097013Y-146753204D01*
X126025585Y-146467489D01*
X126025071Y-146466051D01*
X126025020Y-146465329D01*
X126021908Y-146457198D01*
X126018990Y-146449028D01*
X126018560Y-146448448D01*
X126018014Y-146447020D01*
X125946585Y-146304163D01*
X125941299Y-146295765D01*
X125940289Y-146293327D01*
X125938036Y-146290582D01*
X125936142Y-146287573D01*
X125934144Y-146285840D01*
X125927852Y-146278174D01*
X125856425Y-146206746D01*
X125848758Y-146200454D01*
X125847026Y-146198457D01*
X125844014Y-146196561D01*
X125841271Y-146194310D01*
X125838833Y-146193300D01*
X125830435Y-146188014D01*
X125687577Y-146116585D01*
X125669269Y-146109579D01*
X125665685Y-146109324D01*
X125662365Y-146107949D01*
X125642856Y-146106028D01*
X125499999Y-146106028D01*
X125480490Y-146107949D01*
X125477169Y-146109324D01*
X125473586Y-146109579D01*
X125455277Y-146116585D01*
X125312420Y-146188014D01*
X125304022Y-146193299D01*
X125301584Y-146194310D01*
X125298839Y-146196562D01*
X125295830Y-146198457D01*
X125294097Y-146200454D01*
X125286431Y-146206747D01*
X125215003Y-146278174D01*
X125208711Y-146285840D01*
X125206714Y-146287573D01*
X125204818Y-146290584D01*
X125202567Y-146293328D01*
X125201557Y-146295765D01*
X125196271Y-146304164D01*
X125124842Y-146447020D01*
X125124295Y-146448448D01*
X125123866Y-146449028D01*
X125120947Y-146457198D01*
X125117836Y-146465329D01*
X125117784Y-146466051D01*
X125117271Y-146467489D01*
X125045842Y-146753203D01*
X125045341Y-146756584D01*
X125044777Y-146757948D01*
X125044053Y-146765298D01*
X125042974Y-146772596D01*
X125043191Y-146774054D01*
X125042856Y-146777457D01*
X124629218Y-146777457D01*
X124809153Y-146237651D01*
X124813500Y-146218535D01*
X124810734Y-146179615D01*
X124793284Y-146144716D01*
X124763808Y-146119151D01*
X124726792Y-146106813D01*
X124687872Y-146109579D01*
X124652974Y-146127028D01*
X124627408Y-146156505D01*
X124619417Y-146174405D01*
X124214285Y-147389801D01*
X123809153Y-146174405D01*
X123801162Y-146156505D01*
X123775597Y-146127029D01*
X123740698Y-146109579D01*
X123701778Y-146106813D01*
X123664762Y-146119151D01*
X123635286Y-146144716D01*
X123617836Y-146179615D01*
X123615070Y-146218535D01*
X120661904Y-146218535D01*
X120661904Y-144291112D01*
X120828571Y-144291112D01*
X120828571Y-145505398D01*
X120830492Y-145524907D01*
X120831867Y-145528227D01*
X120832122Y-145531811D01*
X120839128Y-145550119D01*
X120910556Y-145692976D01*
X120915842Y-145701374D01*
X120916852Y-145703812D01*
X120919103Y-145706555D01*
X120920999Y-145709567D01*
X120922996Y-145711299D01*
X120929288Y-145718966D01*
X121000717Y-145790395D01*
X121008387Y-145796689D01*
X121010117Y-145798684D01*
X121013124Y-145800577D01*
X121015871Y-145802831D01*
X121018310Y-145803841D01*
X121026707Y-145809127D01*
X121169564Y-145880555D01*
X121187873Y-145887561D01*
X121191455Y-145887815D01*
X121194776Y-145889191D01*
X121214285Y-145891112D01*
X121428571Y-145891112D01*
X121448080Y-145889191D01*
X121451400Y-145887815D01*
X121454984Y-145887561D01*
X121473292Y-145880555D01*
X121616149Y-145809127D01*
X121632740Y-145798684D01*
X121658304Y-145769207D01*
X121670643Y-145732191D01*
X121667878Y-145693271D01*
X121650428Y-145658372D01*
X121620952Y-145632808D01*
X121583936Y-145620469D01*
X121545016Y-145623235D01*
X121526707Y-145630241D01*
X121404964Y-145691112D01*
X121237892Y-145691112D01*
X121130664Y-145637498D01*
X121082184Y-145589018D01*
X121028571Y-145481791D01*
X121028571Y-145381268D01*
X121045016Y-145387561D01*
X121048598Y-145387815D01*
X121051919Y-145389191D01*
X121071428Y-145391112D01*
X121357142Y-145391112D01*
X121376651Y-145389191D01*
X121379971Y-145387815D01*
X121383555Y-145387561D01*
X121401863Y-145380555D01*
X121544720Y-145309127D01*
X121553118Y-145303840D01*
X121555556Y-145302831D01*
X121558299Y-145300579D01*
X121561311Y-145298684D01*
X121563043Y-145296686D01*
X121570710Y-145290395D01*
X121642139Y-145218966D01*
X121648433Y-145211295D01*
X121650428Y-145209566D01*
X121652321Y-145206558D01*
X121654575Y-145203812D01*
X121655585Y-145201372D01*
X121660871Y-145192976D01*
X121732299Y-145050119D01*
X121739305Y-145031810D01*
X121739559Y-145028227D01*
X121740935Y-145024907D01*
X121742856Y-145005398D01*
X121742856Y-144576826D01*
X121740935Y-144557317D01*
X121739559Y-144553996D01*
X121739305Y-144550414D01*
X121732299Y-144532105D01*
X121718946Y-144505398D01*
X122185714Y-144505398D01*
X122185714Y-145291112D01*
X122187635Y-145310621D01*
X122202567Y-145346669D01*
X122230157Y-145374259D01*
X122266205Y-145389191D01*
X122305223Y-145389191D01*
X122341271Y-145374259D01*
X122368861Y-145346669D01*
X122383793Y-145310621D01*
X122385714Y-145291112D01*
X122385714Y-144529004D01*
X122431677Y-144437076D01*
X122523606Y-144391112D01*
X122690677Y-144391112D01*
X122797908Y-144444728D01*
X122828571Y-144475390D01*
X122828571Y-145291112D01*
X122830492Y-145310621D01*
X122845424Y-145346669D01*
X122873014Y-145374259D01*
X122909062Y-145389191D01*
X122948080Y-145389191D01*
X122984128Y-145374259D01*
X123011718Y-145346669D01*
X123026650Y-145310621D01*
X123028571Y-145291112D01*
X123028571Y-144291112D01*
X123542857Y-144291112D01*
X123542857Y-145291112D01*
X123544778Y-145310621D01*
X123559710Y-145346669D01*
X123587300Y-145374259D01*
X123623348Y-145389191D01*
X123662366Y-145389191D01*
X123698414Y-145374259D01*
X123726004Y-145346669D01*
X123740936Y-145310621D01*
X123742857Y-145291112D01*
X123742857Y-144291112D01*
X123740936Y-144271603D01*
X124044778Y-144271603D01*
X124044778Y-144310621D01*
X124059710Y-144346669D01*
X124087300Y-144374259D01*
X124123348Y-144389191D01*
X124142857Y-144391112D01*
X124400000Y-144391112D01*
X124400000Y-145053219D01*
X124354035Y-145145148D01*
X124262107Y-145191112D01*
X124142857Y-145191112D01*
X124123348Y-145193033D01*
X124087300Y-145207965D01*
X124059710Y-145235555D01*
X124044778Y-145271603D01*
X124044778Y-145310621D01*
X124059710Y-145346669D01*
X124087300Y-145374259D01*
X124123348Y-145389191D01*
X124142857Y-145391112D01*
X124285714Y-145391112D01*
X124305223Y-145389191D01*
X124308543Y-145387815D01*
X124312127Y-145387561D01*
X124330435Y-145380555D01*
X124473292Y-145309127D01*
X124476555Y-145307072D01*
X124478094Y-145306560D01*
X124480009Y-145304898D01*
X124489883Y-145298684D01*
X124498098Y-145289211D01*
X124507571Y-145280996D01*
X124513785Y-145271122D01*
X124515447Y-145269207D01*
X124515959Y-145267668D01*
X124518014Y-145264405D01*
X124589443Y-145121547D01*
X124596449Y-145103239D01*
X124596703Y-145099655D01*
X124598079Y-145096335D01*
X124600000Y-145076826D01*
X124600000Y-144505398D01*
X125114286Y-144505398D01*
X125114286Y-145291112D01*
X125116207Y-145310621D01*
X125131139Y-145346669D01*
X125158729Y-145374259D01*
X125194777Y-145389191D01*
X125233795Y-145389191D01*
X125269843Y-145374259D01*
X125279838Y-145364263D01*
X125312422Y-145380555D01*
X125330731Y-145387561D01*
X125334313Y-145387815D01*
X125337634Y-145389191D01*
X125357143Y-145391112D01*
X125714286Y-145391112D01*
X125733795Y-145389191D01*
X125737115Y-145387815D01*
X125740699Y-145387561D01*
X125759007Y-145380555D01*
X125901864Y-145309127D01*
X125905126Y-145307073D01*
X125906667Y-145306560D01*
X125908584Y-145304896D01*
X125918455Y-145298684D01*
X125926671Y-145289209D01*
X125936143Y-145280995D01*
X125942356Y-145271123D01*
X125944019Y-145269207D01*
X125944532Y-145267668D01*
X125946586Y-145264405D01*
X126018014Y-145121547D01*
X126025021Y-145103238D01*
X126025275Y-145099652D01*
X126026650Y-145096335D01*
X126028571Y-145076826D01*
X126028571Y-144933969D01*
X126026650Y-144914460D01*
X126025274Y-144911139D01*
X126025020Y-144907557D01*
X126018014Y-144889248D01*
X125946586Y-144746391D01*
X125944532Y-144743127D01*
X125944019Y-144741589D01*
X125942356Y-144739672D01*
X125936143Y-144729801D01*
X125926672Y-144721587D01*
X125918455Y-144712112D01*
X125908581Y-144705897D01*
X125906666Y-144704236D01*
X125905127Y-144703723D01*
X125901864Y-144701669D01*
X125759007Y-144630241D01*
X125740699Y-144623235D01*
X125737115Y-144622980D01*
X125733795Y-144621605D01*
X125714286Y-144619684D01*
X125380750Y-144619684D01*
X125314286Y-144586451D01*
X125314286Y-144529004D01*
X125360249Y-144437076D01*
X125452178Y-144391112D01*
X125690678Y-144391112D01*
X125812421Y-144451984D01*
X125830730Y-144458990D01*
X125869650Y-144461756D01*
X125906666Y-144449417D01*
X125936142Y-144423853D01*
X125953592Y-144388954D01*
X125956358Y-144350034D01*
X125944019Y-144313018D01*
X125918455Y-144283541D01*
X125901864Y-144273098D01*
X125898874Y-144271603D01*
X126259063Y-144271603D01*
X126259063Y-144310621D01*
X126273995Y-144346669D01*
X126301585Y-144374259D01*
X126337633Y-144389191D01*
X126357142Y-144391112D01*
X126476392Y-144391112D01*
X126583620Y-144444726D01*
X126632098Y-144493203D01*
X126685714Y-144600433D01*
X126685714Y-145291112D01*
X126687635Y-145310621D01*
X126702567Y-145346669D01*
X126730157Y-145374259D01*
X126766205Y-145389191D01*
X126805223Y-145389191D01*
X126841271Y-145374259D01*
X126868861Y-145346669D01*
X126883793Y-145310621D01*
X126885714Y-145291112D01*
X126885714Y-144505398D01*
X128471428Y-144505398D01*
X128471428Y-144648255D01*
X128473349Y-144667764D01*
X128477098Y-144676816D01*
X128479000Y-144686427D01*
X128484491Y-144694663D01*
X128488281Y-144703812D01*
X128495207Y-144710738D01*
X128500643Y-144718892D01*
X128508871Y-144724402D01*
X128515871Y-144731402D01*
X128524922Y-144735151D01*
X128533063Y-144740603D01*
X128551816Y-144746313D01*
X128551917Y-144746333D01*
X128551919Y-144746334D01*
X128551921Y-144746334D01*
X129185713Y-144873092D01*
X129185713Y-145053219D01*
X129139749Y-145145148D01*
X129047821Y-145191112D01*
X128809320Y-145191112D01*
X128687577Y-145130241D01*
X128669269Y-145123235D01*
X128630348Y-145120469D01*
X128593333Y-145132808D01*
X128563856Y-145158373D01*
X128546407Y-145193271D01*
X128543641Y-145232192D01*
X128555980Y-145269207D01*
X128581545Y-145298684D01*
X128598135Y-145309127D01*
X128740992Y-145380555D01*
X128759301Y-145387561D01*
X128762883Y-145387815D01*
X128766204Y-145389191D01*
X128785713Y-145391112D01*
X129071428Y-145391112D01*
X129090937Y-145389191D01*
X129094257Y-145387815D01*
X129097841Y-145387561D01*
X129116149Y-145380555D01*
X129259006Y-145309127D01*
X129262268Y-145307073D01*
X129263809Y-145306560D01*
X129265726Y-145304896D01*
X129275597Y-145298684D01*
X129283813Y-145289209D01*
X129293285Y-145280995D01*
X129299498Y-145271123D01*
X129301161Y-145269207D01*
X129301674Y-145267668D01*
X129303728Y-145264405D01*
X129375156Y-145121547D01*
X129382163Y-145103238D01*
X129382417Y-145099652D01*
X129383792Y-145096335D01*
X129385713Y-145076826D01*
X129385713Y-144791222D01*
X129385714Y-144791217D01*
X129385713Y-144791211D01*
X129385713Y-144505398D01*
X129383792Y-144485889D01*
X129382416Y-144482568D01*
X129382162Y-144478986D01*
X129375156Y-144460677D01*
X129303728Y-144317820D01*
X129301674Y-144314556D01*
X129301161Y-144313018D01*
X129299498Y-144311101D01*
X129293285Y-144301230D01*
X129283814Y-144293016D01*
X129282163Y-144291112D01*
X129828571Y-144291112D01*
X129828571Y-145505398D01*
X129830492Y-145524907D01*
X129831867Y-145528227D01*
X129832122Y-145531811D01*
X129839128Y-145550119D01*
X129910556Y-145692976D01*
X129915842Y-145701374D01*
X129916852Y-145703812D01*
X129919103Y-145706555D01*
X129920999Y-145709567D01*
X129922996Y-145711299D01*
X129929288Y-145718966D01*
X130000717Y-145790395D01*
X130008387Y-145796689D01*
X130010117Y-145798684D01*
X130013124Y-145800577D01*
X130015871Y-145802831D01*
X130018310Y-145803841D01*
X130026707Y-145809127D01*
X130169564Y-145880555D01*
X130187873Y-145887561D01*
X130191455Y-145887815D01*
X130194776Y-145889191D01*
X130214285Y-145891112D01*
X130428571Y-145891112D01*
X130448080Y-145889191D01*
X130451400Y-145887815D01*
X130454984Y-145887561D01*
X130473292Y-145880555D01*
X130616149Y-145809127D01*
X130632740Y-145798684D01*
X130658304Y-145769207D01*
X130670643Y-145732191D01*
X130667878Y-145693271D01*
X130650428Y-145658372D01*
X130620952Y-145632808D01*
X130583936Y-145620469D01*
X130545016Y-145623235D01*
X130526707Y-145630241D01*
X130404964Y-145691112D01*
X130237892Y-145691112D01*
X130130664Y-145637498D01*
X130082184Y-145589018D01*
X130028571Y-145481791D01*
X130028571Y-145381268D01*
X130045016Y-145387561D01*
X130048598Y-145387815D01*
X130051919Y-145389191D01*
X130071428Y-145391112D01*
X130357142Y-145391112D01*
X130376651Y-145389191D01*
X130379971Y-145387815D01*
X130383555Y-145387561D01*
X130401863Y-145380555D01*
X130544720Y-145309127D01*
X130553118Y-145303840D01*
X130555556Y-145302831D01*
X130558299Y-145300579D01*
X130561311Y-145298684D01*
X130563043Y-145296686D01*
X130570710Y-145290395D01*
X130642139Y-145218966D01*
X130648433Y-145211295D01*
X130650428Y-145209566D01*
X130652321Y-145206558D01*
X130654575Y-145203812D01*
X130655585Y-145201372D01*
X130660871Y-145192976D01*
X130732299Y-145050119D01*
X130739305Y-145031810D01*
X130739559Y-145028227D01*
X130740935Y-145024907D01*
X130742856Y-145005398D01*
X130742856Y-144576826D01*
X130740935Y-144557317D01*
X130739559Y-144553996D01*
X130739305Y-144550414D01*
X130732299Y-144532105D01*
X130718946Y-144505398D01*
X131185714Y-144505398D01*
X131185714Y-145291112D01*
X131187635Y-145310621D01*
X131202567Y-145346669D01*
X131230157Y-145374259D01*
X131266205Y-145389191D01*
X131305223Y-145389191D01*
X131341271Y-145374259D01*
X131351266Y-145364263D01*
X131383850Y-145380555D01*
X131402159Y-145387561D01*
X131405741Y-145387815D01*
X131409062Y-145389191D01*
X131428571Y-145391112D01*
X131785714Y-145391112D01*
X131805223Y-145389191D01*
X131808543Y-145387815D01*
X131812127Y-145387561D01*
X131830435Y-145380555D01*
X131973292Y-145309127D01*
X131976554Y-145307073D01*
X131978095Y-145306560D01*
X131980012Y-145304896D01*
X131989883Y-145298684D01*
X131998099Y-145289209D01*
X132007571Y-145280995D01*
X132013784Y-145271123D01*
X132015447Y-145269207D01*
X132015960Y-145267668D01*
X132018014Y-145264405D01*
X132089442Y-145121547D01*
X132096449Y-145103238D01*
X132096703Y-145099652D01*
X132098078Y-145096335D01*
X132099999Y-145076826D01*
X132099999Y-144933969D01*
X132098078Y-144914460D01*
X132096702Y-144911139D01*
X132096448Y-144907557D01*
X132089442Y-144889248D01*
X132018014Y-144746391D01*
X132015960Y-144743127D01*
X132015447Y-144741589D01*
X132013784Y-144739672D01*
X132007571Y-144729801D01*
X131998100Y-144721587D01*
X131989883Y-144712112D01*
X131980009Y-144705897D01*
X131978094Y-144704236D01*
X131976555Y-144703723D01*
X131973292Y-144701669D01*
X131830435Y-144630241D01*
X131812127Y-144623235D01*
X131808543Y-144622980D01*
X131805223Y-144621605D01*
X131785714Y-144619684D01*
X131452178Y-144619684D01*
X131385714Y-144586451D01*
X131385714Y-144529004D01*
X131431677Y-144437076D01*
X131523606Y-144391112D01*
X131762106Y-144391112D01*
X131883849Y-144451984D01*
X131902158Y-144458990D01*
X131941078Y-144461756D01*
X131978094Y-144449417D01*
X132007570Y-144423853D01*
X132025020Y-144388954D01*
X132027786Y-144350034D01*
X132015447Y-144313018D01*
X131989883Y-144283541D01*
X131973292Y-144273098D01*
X131970302Y-144271603D01*
X132330492Y-144271603D01*
X132330492Y-144310621D01*
X132345424Y-144346669D01*
X132373014Y-144374259D01*
X132409062Y-144389191D01*
X132428571Y-144391112D01*
X132685714Y-144391112D01*
X132685714Y-145053219D01*
X132639749Y-145145148D01*
X132547821Y-145191112D01*
X132428571Y-145191112D01*
X132409062Y-145193033D01*
X132373014Y-145207965D01*
X132345424Y-145235555D01*
X132330492Y-145271603D01*
X132330492Y-145310621D01*
X132345424Y-145346669D01*
X132373014Y-145374259D01*
X132409062Y-145389191D01*
X132428571Y-145391112D01*
X132571428Y-145391112D01*
X132590937Y-145389191D01*
X132594257Y-145387815D01*
X132597841Y-145387561D01*
X132616149Y-145380555D01*
X132759006Y-145309127D01*
X132762269Y-145307072D01*
X132763808Y-145306560D01*
X132765723Y-145304898D01*
X132775597Y-145298684D01*
X132783812Y-145289211D01*
X132793285Y-145280996D01*
X132794790Y-145278604D01*
X133257927Y-145278604D01*
X133260693Y-145317525D01*
X133278142Y-145352423D01*
X133307619Y-145377988D01*
X133344634Y-145390327D01*
X133383555Y-145387561D01*
X133401863Y-145380555D01*
X133544720Y-145309127D01*
X133547983Y-145307072D01*
X133549522Y-145306560D01*
X133551437Y-145304898D01*
X133561311Y-145298684D01*
X133569526Y-145289211D01*
X133578999Y-145280996D01*
X133585213Y-145271122D01*
X133586875Y-145269207D01*
X133587387Y-145267668D01*
X133589442Y-145264405D01*
X133660871Y-145121547D01*
X133667877Y-145103239D01*
X133668131Y-145099655D01*
X133669507Y-145096335D01*
X133671428Y-145076826D01*
X133671428Y-144576826D01*
X134114285Y-144576826D01*
X134114285Y-145005398D01*
X134116206Y-145024907D01*
X134117581Y-145028227D01*
X134117836Y-145031811D01*
X134124842Y-145050120D01*
X134196271Y-145192976D01*
X134201554Y-145201370D01*
X134202566Y-145203812D01*
X134204820Y-145206559D01*
X134206714Y-145209567D01*
X134208710Y-145211298D01*
X134215003Y-145218965D01*
X134286431Y-145290394D01*
X134294100Y-145296689D01*
X134295831Y-145298684D01*
X134298836Y-145300575D01*
X134301584Y-145302831D01*
X134304025Y-145303842D01*
X134312421Y-145309127D01*
X134455278Y-145380555D01*
X134473587Y-145387561D01*
X134477169Y-145387815D01*
X134480490Y-145389191D01*
X134499999Y-145391112D01*
X134714285Y-145391112D01*
X134733794Y-145389191D01*
X134737114Y-145387815D01*
X134740698Y-145387561D01*
X134759006Y-145380555D01*
X134901863Y-145309127D01*
X134910261Y-145303840D01*
X134912699Y-145302831D01*
X134915442Y-145300579D01*
X134918454Y-145298684D01*
X134920186Y-145296686D01*
X134927853Y-145290395D01*
X134999282Y-145218966D01*
X135005576Y-145211295D01*
X135007571Y-145209566D01*
X135009464Y-145206558D01*
X135011718Y-145203812D01*
X135012728Y-145201372D01*
X135018014Y-145192976D01*
X135089442Y-145050119D01*
X135096448Y-145031810D01*
X135096702Y-145028227D01*
X135098078Y-145024907D01*
X135099999Y-145005398D01*
X135099999Y-144576826D01*
X135098078Y-144557317D01*
X135096702Y-144553996D01*
X135096448Y-144550414D01*
X135089442Y-144532105D01*
X135018014Y-144389248D01*
X135012729Y-144380852D01*
X135011718Y-144378411D01*
X135009462Y-144375663D01*
X135007571Y-144372658D01*
X135005576Y-144370927D01*
X134999281Y-144363258D01*
X134927852Y-144291830D01*
X134920185Y-144285537D01*
X134918454Y-144283541D01*
X134915446Y-144281647D01*
X134912699Y-144279393D01*
X134910257Y-144278381D01*
X134901863Y-144273098D01*
X134759007Y-144201669D01*
X134740698Y-144194663D01*
X134737114Y-144194408D01*
X134733794Y-144193033D01*
X134714285Y-144191112D01*
X134499999Y-144191112D01*
X134480490Y-144193033D01*
X134477169Y-144194408D01*
X134473586Y-144194663D01*
X134455277Y-144201669D01*
X134312420Y-144273098D01*
X134304022Y-144278383D01*
X134301584Y-144279394D01*
X134298839Y-144281646D01*
X134295830Y-144283541D01*
X134294097Y-144285538D01*
X134286431Y-144291831D01*
X134215003Y-144363258D01*
X134208711Y-144370924D01*
X134206714Y-144372657D01*
X134204818Y-144375668D01*
X134202567Y-144378412D01*
X134201557Y-144380849D01*
X134196271Y-144389248D01*
X134124842Y-144532104D01*
X134117836Y-144550413D01*
X134117581Y-144553996D01*
X134116206Y-144557317D01*
X134114285Y-144576826D01*
X133671428Y-144576826D01*
X133671428Y-143803619D01*
X135329355Y-143803619D01*
X135333702Y-143822735D01*
X135833702Y-145322735D01*
X135841693Y-145340635D01*
X135846376Y-145346034D01*
X135849571Y-145352424D01*
X135859043Y-145360639D01*
X135867259Y-145370112D01*
X135873648Y-145373306D01*
X135879047Y-145377989D01*
X135890943Y-145381954D01*
X135902157Y-145387561D01*
X135909284Y-145388067D01*
X135916063Y-145390327D01*
X135928570Y-145389438D01*
X135941077Y-145390327D01*
X135947855Y-145388067D01*
X135954983Y-145387561D01*
X135966195Y-145381954D01*
X135978093Y-145377989D01*
X135983492Y-145373305D01*
X135989882Y-145370111D01*
X135998097Y-145360639D01*
X136007569Y-145352424D01*
X136010763Y-145346034D01*
X136015447Y-145340635D01*
X136023438Y-145322735D01*
X136523438Y-143822735D01*
X136527785Y-143803619D01*
X136525019Y-143764699D01*
X136507569Y-143729800D01*
X136478093Y-143704235D01*
X136441077Y-143691897D01*
X136402157Y-143694663D01*
X136367259Y-143712112D01*
X136341693Y-143741589D01*
X136333702Y-143759489D01*
X135928570Y-144974885D01*
X135523438Y-143759489D01*
X135515447Y-143741589D01*
X135489882Y-143712113D01*
X135454983Y-143694663D01*
X135416063Y-143691897D01*
X135379047Y-143704235D01*
X135349571Y-143729800D01*
X135332121Y-143764699D01*
X135329355Y-143803619D01*
X133671428Y-143803619D01*
X133671428Y-143791112D01*
X133669507Y-143771603D01*
X133654575Y-143735555D01*
X133626985Y-143707965D01*
X133590937Y-143693033D01*
X133551919Y-143693033D01*
X133515871Y-143707965D01*
X133488281Y-143735555D01*
X133473349Y-143771603D01*
X133471428Y-143791112D01*
X133471428Y-145053219D01*
X133425463Y-145145148D01*
X133312421Y-145201669D01*
X133295831Y-145212112D01*
X133270266Y-145241589D01*
X133257927Y-145278604D01*
X132794790Y-145278604D01*
X132799499Y-145271122D01*
X132801161Y-145269207D01*
X132801673Y-145267668D01*
X132803728Y-145264405D01*
X132875157Y-145121547D01*
X132882163Y-145103239D01*
X132882417Y-145099655D01*
X132883793Y-145096335D01*
X132885714Y-145076826D01*
X132885714Y-144391112D01*
X132999999Y-144391112D01*
X133019508Y-144389191D01*
X133055556Y-144374259D01*
X133083146Y-144346669D01*
X133098078Y-144310621D01*
X133098078Y-144271603D01*
X133083146Y-144235555D01*
X133055556Y-144207965D01*
X133019508Y-144193033D01*
X132999999Y-144191112D01*
X132885714Y-144191112D01*
X132885714Y-143791112D01*
X132883793Y-143771603D01*
X132868861Y-143735555D01*
X132841271Y-143707965D01*
X132805223Y-143693033D01*
X132766205Y-143693033D01*
X132730157Y-143707965D01*
X132702567Y-143735555D01*
X132687635Y-143771603D01*
X132685714Y-143791112D01*
X132685714Y-144191112D01*
X132428571Y-144191112D01*
X132409062Y-144193033D01*
X132373014Y-144207965D01*
X132345424Y-144235555D01*
X132330492Y-144271603D01*
X131970302Y-144271603D01*
X131830436Y-144201669D01*
X131812127Y-144194663D01*
X131808543Y-144194408D01*
X131805223Y-144193033D01*
X131785714Y-144191112D01*
X131499999Y-144191112D01*
X131480490Y-144193033D01*
X131477169Y-144194408D01*
X131473586Y-144194663D01*
X131455277Y-144201669D01*
X131312420Y-144273098D01*
X131309155Y-144275152D01*
X131307619Y-144275665D01*
X131305704Y-144277324D01*
X131295830Y-144283541D01*
X131287614Y-144293013D01*
X131278142Y-144301229D01*
X131271927Y-144311102D01*
X131270266Y-144313018D01*
X131269753Y-144314556D01*
X131267699Y-144317820D01*
X131196271Y-144460677D01*
X131189265Y-144478985D01*
X131189010Y-144482568D01*
X131187635Y-144485889D01*
X131185714Y-144505398D01*
X130718946Y-144505398D01*
X130660871Y-144389248D01*
X130655586Y-144380852D01*
X130654575Y-144378411D01*
X130652319Y-144375663D01*
X130650428Y-144372658D01*
X130648433Y-144370927D01*
X130642138Y-144363258D01*
X130570709Y-144291830D01*
X130563042Y-144285537D01*
X130561311Y-144283541D01*
X130558303Y-144281647D01*
X130555556Y-144279393D01*
X130553114Y-144278381D01*
X130544720Y-144273098D01*
X130401864Y-144201669D01*
X130383555Y-144194663D01*
X130379971Y-144194408D01*
X130376651Y-144193033D01*
X130357142Y-144191112D01*
X130071428Y-144191112D01*
X130051919Y-144193033D01*
X130048598Y-144194408D01*
X130045015Y-144194663D01*
X130026706Y-144201669D01*
X129994123Y-144217960D01*
X129984128Y-144207965D01*
X129948080Y-144193033D01*
X129909062Y-144193033D01*
X129873014Y-144207965D01*
X129845424Y-144235555D01*
X129830492Y-144271603D01*
X129828571Y-144291112D01*
X129282163Y-144291112D01*
X129275597Y-144283541D01*
X129265723Y-144277326D01*
X129263808Y-144275665D01*
X129262269Y-144275152D01*
X129259006Y-144273098D01*
X129116150Y-144201669D01*
X129097841Y-144194663D01*
X129094257Y-144194408D01*
X129090937Y-144193033D01*
X129071428Y-144191112D01*
X128785713Y-144191112D01*
X128766204Y-144193033D01*
X128762883Y-144194408D01*
X128759300Y-144194663D01*
X128740991Y-144201669D01*
X128598134Y-144273098D01*
X128594869Y-144275152D01*
X128593333Y-144275665D01*
X128591418Y-144277324D01*
X128581544Y-144283541D01*
X128573328Y-144293013D01*
X128563856Y-144301229D01*
X128557641Y-144311102D01*
X128555980Y-144313018D01*
X128555467Y-144314556D01*
X128553413Y-144317820D01*
X128481985Y-144460677D01*
X128474979Y-144478985D01*
X128474724Y-144482568D01*
X128473349Y-144485889D01*
X128471428Y-144505398D01*
X126885714Y-144505398D01*
X126885714Y-144291112D01*
X126883793Y-144271603D01*
X126868861Y-144235555D01*
X126841271Y-144207965D01*
X126805223Y-144193033D01*
X126766205Y-144193033D01*
X126730157Y-144207965D01*
X126702567Y-144235555D01*
X126687635Y-144271603D01*
X126687492Y-144273055D01*
X126544720Y-144201669D01*
X126526412Y-144194663D01*
X126522828Y-144194408D01*
X126519508Y-144193033D01*
X126499999Y-144191112D01*
X126357142Y-144191112D01*
X126337633Y-144193033D01*
X126301585Y-144207965D01*
X126273995Y-144235555D01*
X126259063Y-144271603D01*
X125898874Y-144271603D01*
X125759008Y-144201669D01*
X125740699Y-144194663D01*
X125737115Y-144194408D01*
X125733795Y-144193033D01*
X125714286Y-144191112D01*
X125428571Y-144191112D01*
X125409062Y-144193033D01*
X125405741Y-144194408D01*
X125402158Y-144194663D01*
X125383849Y-144201669D01*
X125240992Y-144273098D01*
X125237727Y-144275152D01*
X125236191Y-144275665D01*
X125234276Y-144277324D01*
X125224402Y-144283541D01*
X125216186Y-144293013D01*
X125206714Y-144301229D01*
X125200499Y-144311102D01*
X125198838Y-144313018D01*
X125198325Y-144314556D01*
X125196271Y-144317820D01*
X125124843Y-144460677D01*
X125117837Y-144478985D01*
X125117582Y-144482568D01*
X125116207Y-144485889D01*
X125114286Y-144505398D01*
X124600000Y-144505398D01*
X124600000Y-144391112D01*
X124714285Y-144391112D01*
X124733794Y-144389191D01*
X124769842Y-144374259D01*
X124797432Y-144346669D01*
X124812364Y-144310621D01*
X124812364Y-144271603D01*
X124797432Y-144235555D01*
X124769842Y-144207965D01*
X124733794Y-144193033D01*
X124714285Y-144191112D01*
X124600000Y-144191112D01*
X124600000Y-143791112D01*
X124598079Y-143771603D01*
X124583147Y-143735555D01*
X124555557Y-143707965D01*
X124519509Y-143693033D01*
X124480491Y-143693033D01*
X124444443Y-143707965D01*
X124416853Y-143735555D01*
X124401921Y-143771603D01*
X124400000Y-143791112D01*
X124400000Y-144191112D01*
X124142857Y-144191112D01*
X124123348Y-144193033D01*
X124087300Y-144207965D01*
X124059710Y-144235555D01*
X124044778Y-144271603D01*
X123740936Y-144271603D01*
X123726004Y-144235555D01*
X123698414Y-144207965D01*
X123662366Y-144193033D01*
X123623348Y-144193033D01*
X123587300Y-144207965D01*
X123559710Y-144235555D01*
X123544778Y-144271603D01*
X123542857Y-144291112D01*
X123028571Y-144291112D01*
X123026650Y-144271603D01*
X123011718Y-144235555D01*
X122984128Y-144207965D01*
X122948080Y-144193033D01*
X122909062Y-144193033D01*
X122873014Y-144207965D01*
X122845424Y-144235555D01*
X122842224Y-144243278D01*
X122759007Y-144201669D01*
X122740698Y-144194663D01*
X122737114Y-144194408D01*
X122733794Y-144193033D01*
X122714285Y-144191112D01*
X122499999Y-144191112D01*
X122480490Y-144193033D01*
X122477169Y-144194408D01*
X122473586Y-144194663D01*
X122455277Y-144201669D01*
X122312420Y-144273098D01*
X122309155Y-144275152D01*
X122307619Y-144275665D01*
X122305704Y-144277324D01*
X122295830Y-144283541D01*
X122287614Y-144293013D01*
X122278142Y-144301229D01*
X122271927Y-144311102D01*
X122270266Y-144313018D01*
X122269753Y-144314556D01*
X122267699Y-144317820D01*
X122196271Y-144460677D01*
X122189265Y-144478985D01*
X122189010Y-144482568D01*
X122187635Y-144485889D01*
X122185714Y-144505398D01*
X121718946Y-144505398D01*
X121660871Y-144389248D01*
X121655586Y-144380852D01*
X121654575Y-144378411D01*
X121652319Y-144375663D01*
X121650428Y-144372658D01*
X121648433Y-144370927D01*
X121642138Y-144363258D01*
X121570709Y-144291830D01*
X121563042Y-144285537D01*
X121561311Y-144283541D01*
X121558303Y-144281647D01*
X121555556Y-144279393D01*
X121553114Y-144278381D01*
X121544720Y-144273098D01*
X121401864Y-144201669D01*
X121383555Y-144194663D01*
X121379971Y-144194408D01*
X121376651Y-144193033D01*
X121357142Y-144191112D01*
X121071428Y-144191112D01*
X121051919Y-144193033D01*
X121048598Y-144194408D01*
X121045015Y-144194663D01*
X121026706Y-144201669D01*
X120994123Y-144217960D01*
X120984128Y-144207965D01*
X120948080Y-144193033D01*
X120909062Y-144193033D01*
X120873014Y-144207965D01*
X120845424Y-144235555D01*
X120830492Y-144271603D01*
X120828571Y-144291112D01*
X120661904Y-144291112D01*
X120661904Y-143843032D01*
X123473349Y-143843032D01*
X123473349Y-143882050D01*
X123482096Y-143903167D01*
X123488281Y-143918099D01*
X123500718Y-143933252D01*
X123572147Y-144004680D01*
X123587300Y-144017117D01*
X123612790Y-144027674D01*
X123623348Y-144032048D01*
X123623349Y-144032048D01*
X123662366Y-144032048D01*
X123683483Y-144023300D01*
X123698415Y-144017116D01*
X123698419Y-144017111D01*
X123713568Y-144004680D01*
X123784995Y-143933252D01*
X123797432Y-143918099D01*
X123812363Y-143882050D01*
X123812363Y-143863258D01*
X123812364Y-143843033D01*
X123797433Y-143806984D01*
X123784996Y-143791831D01*
X123713568Y-143720402D01*
X123698415Y-143707965D01*
X123683483Y-143701780D01*
X123662366Y-143693033D01*
X123623348Y-143693033D01*
X123612790Y-143697406D01*
X123587300Y-143707964D01*
X123587294Y-143707969D01*
X123572146Y-143720401D01*
X123500717Y-143791830D01*
X123488285Y-143806978D01*
X123488280Y-143806984D01*
X123477722Y-143832474D01*
X123473349Y-143843032D01*
X120661904Y-143843032D01*
X120661904Y-143525230D01*
X136694452Y-143525230D01*
X136694452Y-147972695D01*
G37*
D12*
%TO.C,kibuzzard-673147F0*%
G36*
X106550081Y-145904201D02*
G01*
X106601777Y-146104523D01*
X106647011Y-146303231D01*
X106687399Y-146510016D01*
X106296446Y-146510016D01*
X106335218Y-146303231D01*
X106378837Y-146104523D01*
X106430533Y-145904200D01*
X106490307Y-145689338D01*
X106550081Y-145904201D01*
G37*
G36*
X109889338Y-145626333D02*
G01*
X109953958Y-145634410D01*
X109953958Y-146235380D01*
X109866721Y-146235380D01*
X109691438Y-146215590D01*
X109572698Y-146156220D01*
X109482229Y-145931664D01*
X109506462Y-145794346D01*
X109579160Y-145699031D01*
X109691438Y-145643296D01*
X109834410Y-145624717D01*
X109889338Y-145626333D01*
G37*
G36*
X114701939Y-145626333D02*
G01*
X114800485Y-145634410D01*
X114800485Y-146280614D01*
X114638934Y-146280614D01*
X114471729Y-146261632D01*
X114351373Y-146204685D01*
X114278675Y-146101696D01*
X114254443Y-145944588D01*
X114278271Y-145795557D01*
X114349758Y-145697415D01*
X114460824Y-145642892D01*
X114603393Y-145624717D01*
X114701939Y-145626333D01*
G37*
G36*
X117043610Y-144457541D02*
G01*
X117223328Y-144484200D01*
X117399569Y-144528345D01*
X117570634Y-144589554D01*
X117734875Y-144667235D01*
X117890710Y-144760639D01*
X118036642Y-144868869D01*
X118171261Y-144990881D01*
X118293274Y-145125501D01*
X118401504Y-145271433D01*
X118494908Y-145427269D01*
X118572589Y-145591509D01*
X118633797Y-145762575D01*
X118677943Y-145938816D01*
X118704602Y-146118534D01*
X118713516Y-146300000D01*
X118704602Y-146481466D01*
X118677943Y-146661184D01*
X118633797Y-146837425D01*
X118572589Y-147008491D01*
X118494908Y-147172731D01*
X118401504Y-147328567D01*
X118293274Y-147474499D01*
X118171261Y-147609119D01*
X118036642Y-147731131D01*
X117890710Y-147839361D01*
X117734875Y-147932765D01*
X117570634Y-148010446D01*
X117399569Y-148071655D01*
X117223328Y-148115800D01*
X117043610Y-148142459D01*
X116862143Y-148151373D01*
X116861874Y-148151373D01*
X116186591Y-148151372D01*
X114800486Y-148151373D01*
X113007270Y-148151373D01*
X111133278Y-148151373D01*
X108945880Y-148151373D01*
X108706785Y-148151373D01*
X106134895Y-148151373D01*
X104138126Y-148151373D01*
X104137857Y-148151373D01*
X103956390Y-148142459D01*
X103776672Y-148115800D01*
X103600431Y-148071655D01*
X103429366Y-148010446D01*
X103265125Y-147932765D01*
X103109290Y-147839361D01*
X102963358Y-147731131D01*
X102828739Y-147609119D01*
X102706726Y-147474499D01*
X102598496Y-147328567D01*
X102582342Y-147301616D01*
X104138126Y-147301616D01*
X104503231Y-147301615D01*
X104483845Y-145747496D01*
X104729402Y-146594023D01*
X105020194Y-146594023D01*
X105256058Y-145747496D01*
X105239903Y-147301616D01*
X105605007Y-147301616D01*
X105708400Y-147301616D01*
X106134895Y-147301616D01*
X106228595Y-146839580D01*
X106761712Y-146839580D01*
X106852181Y-147301616D01*
X107265751Y-147301616D01*
X107208756Y-147069305D01*
X107183888Y-146972052D01*
X107424071Y-146972052D01*
X107424071Y-147301616D01*
X108706785Y-147301616D01*
X108945880Y-147301616D01*
X109362682Y-147301616D01*
X109443053Y-147111389D01*
X109535541Y-146928433D01*
X109637722Y-146747901D01*
X109747173Y-146564943D01*
X109953958Y-146564943D01*
X109953958Y-147301615D01*
X110351373Y-147301616D01*
X110351373Y-145631180D01*
X110606624Y-145631180D01*
X111133279Y-145631179D01*
X111133278Y-147301616D01*
X111533927Y-147301616D01*
X111533927Y-146755574D01*
X112270598Y-146755574D01*
X112316236Y-147004766D01*
X112453150Y-147190145D01*
X112595854Y-147275408D01*
X112780560Y-147326566D01*
X113007271Y-147343619D01*
X113231018Y-147330291D01*
X113404685Y-147290307D01*
X113627625Y-147191761D01*
X113511309Y-146868660D01*
X113302908Y-146965590D01*
X113168417Y-146999515D01*
X113007270Y-147010824D01*
X112840872Y-146989822D01*
X112735864Y-146931663D01*
X112682553Y-146847658D01*
X112668013Y-146752342D01*
X112703554Y-146642489D01*
X112794023Y-146556866D01*
X112916801Y-146489015D01*
X113052504Y-146432472D01*
X113239903Y-146358158D01*
X113415994Y-146251535D01*
X113546850Y-146091599D01*
X113578149Y-145947819D01*
X113847334Y-145947819D01*
X113870849Y-146164836D01*
X113941393Y-146337695D01*
X114058966Y-146466396D01*
X114219619Y-146555250D01*
X114419404Y-146608562D01*
X114658320Y-146626333D01*
X114800485Y-146626333D01*
X114800486Y-147301616D01*
X115197899Y-147301616D01*
X115197899Y-146577868D01*
X115498384Y-146577868D01*
X115506462Y-146744265D01*
X115530695Y-146894506D01*
X115575121Y-147026171D01*
X115643780Y-147136834D01*
X115737481Y-147225283D01*
X115857027Y-147290307D01*
X116005654Y-147330291D01*
X116186591Y-147343619D01*
X116364701Y-147330291D01*
X116511309Y-147290307D01*
X116719708Y-147136834D01*
X116785945Y-147026171D01*
X116829565Y-146894507D01*
X116853796Y-146744265D01*
X116861874Y-146577868D01*
X116861874Y-145301616D01*
X116461228Y-145301616D01*
X116461228Y-146552019D01*
X116448304Y-146763651D01*
X116404685Y-146900969D01*
X116319063Y-146975283D01*
X116180129Y-146997900D01*
X116041195Y-146975283D01*
X115953958Y-146899354D01*
X115908724Y-146760421D01*
X115895800Y-146548788D01*
X115895800Y-145301616D01*
X115498384Y-145301616D01*
X115498384Y-146577868D01*
X115197899Y-146577868D01*
X115197900Y-145327464D01*
X115067044Y-145304847D01*
X114920032Y-145290307D01*
X114774637Y-145282229D01*
X114648627Y-145278998D01*
X114413481Y-145296410D01*
X114216388Y-145348645D01*
X114057351Y-145435703D01*
X113940675Y-145562251D01*
X113870670Y-145732956D01*
X113847334Y-145947819D01*
X113578149Y-145947819D01*
X113598546Y-145854120D01*
X113552908Y-145603716D01*
X113415994Y-145414701D01*
X113279034Y-145326746D01*
X113111560Y-145273972D01*
X112913570Y-145256381D01*
X112741115Y-145266882D01*
X112592084Y-145298384D01*
X112361066Y-145392084D01*
X112477383Y-145699031D01*
X112656704Y-145621486D01*
X112884491Y-145589176D01*
X113060403Y-145614665D01*
X113165950Y-145691133D01*
X113201131Y-145818578D01*
X113168821Y-145920355D01*
X113086430Y-145997900D01*
X112973344Y-146057674D01*
X112848950Y-146106139D01*
X112653473Y-146185300D01*
X112466074Y-146301616D01*
X112325526Y-146482553D01*
X112284330Y-146604927D01*
X112270598Y-146755574D01*
X111533927Y-146755574D01*
X111533926Y-145631179D01*
X112060582Y-145631179D01*
X112060582Y-145301616D01*
X110606624Y-145301615D01*
X110606624Y-145631180D01*
X110351373Y-145631180D01*
X110351373Y-145330695D01*
X110223748Y-145306462D01*
X110083199Y-145290307D01*
X109947496Y-145282229D01*
X109834410Y-145278998D01*
X109671244Y-145288692D01*
X109524233Y-145317771D01*
X109394992Y-145367044D01*
X109285137Y-145437318D01*
X109131664Y-145642488D01*
X109091680Y-145777787D01*
X109078352Y-145934895D01*
X109096123Y-146101292D01*
X109149435Y-146251535D01*
X109243942Y-146376737D01*
X109385298Y-146468013D01*
X109268982Y-146653796D01*
X109149435Y-146867044D01*
X109037963Y-147089984D01*
X108945880Y-147301616D01*
X108706785Y-147301616D01*
X108706785Y-145301615D01*
X107495153Y-145301616D01*
X107495153Y-145631179D01*
X108309370Y-145631179D01*
X108309370Y-146080291D01*
X107601777Y-146080291D01*
X107601777Y-146409855D01*
X108309370Y-146409855D01*
X108309370Y-146972052D01*
X107424071Y-146972052D01*
X107183888Y-146972052D01*
X107151502Y-146845396D01*
X107093990Y-146629887D01*
X107036220Y-146422779D01*
X106978191Y-146224071D01*
X106906099Y-145984067D01*
X106835218Y-145750323D01*
X106765549Y-145522839D01*
X106697092Y-145301616D01*
X106264136Y-145301616D01*
X106193154Y-145524657D01*
X106122375Y-145754362D01*
X106051797Y-145990731D01*
X105981422Y-146233764D01*
X105925525Y-146434152D01*
X105870275Y-146641131D01*
X105815670Y-146854701D01*
X105761712Y-147074862D01*
X105708400Y-147301616D01*
X105605007Y-147301616D01*
X105594911Y-147051212D01*
X105584006Y-146791115D01*
X105572294Y-146526979D01*
X105559774Y-146264459D01*
X105545638Y-146006785D01*
X105529079Y-145757189D01*
X105510097Y-145520517D01*
X105488691Y-145301615D01*
X105159128Y-145301616D01*
X105102585Y-145476090D01*
X105029887Y-145705493D01*
X104952342Y-145954281D01*
X104878029Y-146186914D01*
X104797255Y-145939742D01*
X104716478Y-145694184D01*
X104645396Y-145472859D01*
X104587237Y-145301616D01*
X104257674Y-145301616D01*
X104235460Y-145560097D01*
X104214055Y-145812116D01*
X104194669Y-146059693D01*
X104178514Y-146304847D01*
X104165186Y-146549596D01*
X104154281Y-146795960D01*
X104145396Y-147045962D01*
X104138126Y-147301616D01*
X102582342Y-147301616D01*
X102505092Y-147172731D01*
X102427411Y-147008491D01*
X102366203Y-146837425D01*
X102322057Y-146661184D01*
X102295398Y-146481466D01*
X102286484Y-146300000D01*
X102295398Y-146118534D01*
X102322057Y-145938816D01*
X102366203Y-145762575D01*
X102427411Y-145591509D01*
X102505092Y-145427269D01*
X102598496Y-145271433D01*
X102706726Y-145125501D01*
X102828739Y-144990881D01*
X102963358Y-144868869D01*
X103109290Y-144760639D01*
X103265125Y-144667235D01*
X103429366Y-144589554D01*
X103600431Y-144528345D01*
X103776672Y-144484200D01*
X103956390Y-144457541D01*
X104137857Y-144448627D01*
X104138126Y-144448627D01*
X116861874Y-144448627D01*
X116862143Y-144448627D01*
X117043610Y-144457541D01*
G37*
%TO.C,kibuzzard-67314807*%
G36*
X85358805Y-145904201D02*
G01*
X85410501Y-146104523D01*
X85455735Y-146303231D01*
X85496123Y-146510016D01*
X85105170Y-146510016D01*
X85143942Y-146303231D01*
X85187562Y-146104523D01*
X85239257Y-145904200D01*
X85299031Y-145689338D01*
X85358805Y-145904201D01*
G37*
G36*
X88698061Y-145626332D02*
G01*
X88762682Y-145634410D01*
X88762682Y-146235380D01*
X88675444Y-146235380D01*
X88500162Y-146215590D01*
X88381422Y-146156220D01*
X88290953Y-145931664D01*
X88315186Y-145794346D01*
X88387884Y-145699031D01*
X88500162Y-145643296D01*
X88643134Y-145624717D01*
X88698061Y-145626332D01*
G37*
G36*
X98397577Y-145626333D02*
G01*
X98455735Y-145634410D01*
X98455735Y-146978514D01*
X98420194Y-146981745D01*
X98384652Y-146981745D01*
X98156866Y-146930048D01*
X98008239Y-146787884D01*
X97927463Y-146573021D01*
X97909289Y-146442569D01*
X97903231Y-146300000D01*
X97922617Y-146047981D01*
X97990468Y-145831502D01*
X98122940Y-145681260D01*
X98339418Y-145624717D01*
X98397577Y-145626333D01*
G37*
G36*
X96769144Y-145657027D02*
G01*
X96864459Y-145807270D01*
X96909693Y-146028595D01*
X96918174Y-146159451D01*
X96921002Y-146300000D01*
X96918174Y-146440953D01*
X96909693Y-146573021D01*
X96864459Y-146794346D01*
X96769144Y-146942973D01*
X96604362Y-146997900D01*
X96441195Y-146942973D01*
X96344265Y-146792730D01*
X96299031Y-146571405D01*
X96290549Y-146440549D01*
X96287722Y-146300000D01*
X96290549Y-146159047D01*
X96299030Y-146026979D01*
X96344265Y-145805654D01*
X96439580Y-145657027D01*
X96604362Y-145602100D01*
X96769144Y-145657027D01*
G37*
G36*
X99034887Y-144457542D02*
G01*
X99214603Y-144484200D01*
X99390846Y-144528346D01*
X99561910Y-144589554D01*
X99726151Y-144667235D01*
X99881987Y-144760638D01*
X100027918Y-144868869D01*
X100162538Y-144990882D01*
X100284550Y-145125501D01*
X100392781Y-145271432D01*
X100486184Y-145427269D01*
X100563865Y-145591509D01*
X100625073Y-145762575D01*
X100669219Y-145938816D01*
X100695878Y-146118534D01*
X100704794Y-146300000D01*
X100695878Y-146481466D01*
X100669219Y-146661184D01*
X100625073Y-146837425D01*
X100563865Y-147008491D01*
X100486184Y-147172731D01*
X100392781Y-147328568D01*
X100284550Y-147474499D01*
X100162538Y-147609118D01*
X100027918Y-147731131D01*
X99881987Y-147839362D01*
X99726151Y-147932765D01*
X99561910Y-148010446D01*
X99390846Y-148071654D01*
X99214603Y-148115800D01*
X99034887Y-148142458D01*
X98853419Y-148151373D01*
X98853150Y-148151373D01*
X98426656Y-148151373D01*
X96601131Y-148151373D01*
X94368498Y-148151373D01*
X93034087Y-148151373D01*
X91815994Y-148151373D01*
X89942003Y-148151373D01*
X87754604Y-148151373D01*
X87515509Y-148151373D01*
X84943619Y-148151373D01*
X82946850Y-148151373D01*
X82946581Y-148151373D01*
X82765113Y-148142458D01*
X82585397Y-148115800D01*
X82409154Y-148071654D01*
X82238090Y-148010446D01*
X82073849Y-147932765D01*
X81918013Y-147839362D01*
X81772082Y-147731131D01*
X81637462Y-147609118D01*
X81515450Y-147474499D01*
X81407219Y-147328568D01*
X81391065Y-147301616D01*
X82946850Y-147301616D01*
X83311954Y-147301616D01*
X83292569Y-145747496D01*
X83538126Y-146594023D01*
X83828918Y-146594023D01*
X84064782Y-145747496D01*
X84048627Y-147301616D01*
X84413731Y-147301616D01*
X84517125Y-147301616D01*
X84943619Y-147301616D01*
X85037318Y-146839580D01*
X85570436Y-146839580D01*
X85660905Y-147301616D01*
X86074475Y-147301616D01*
X86017480Y-147069305D01*
X85992612Y-146972052D01*
X86232795Y-146972052D01*
X86232795Y-147301616D01*
X87515509Y-147301616D01*
X87754604Y-147301616D01*
X88171405Y-147301615D01*
X88251777Y-147111389D01*
X88344265Y-146928433D01*
X88446446Y-146747900D01*
X88555897Y-146564943D01*
X88762682Y-146564943D01*
X88762681Y-147301616D01*
X89160097Y-147301616D01*
X89160097Y-145631179D01*
X89415347Y-145631179D01*
X89942003Y-145631179D01*
X89942003Y-147301616D01*
X90342649Y-147301616D01*
X90342649Y-146755574D01*
X91079322Y-146755574D01*
X91124960Y-147004766D01*
X91261874Y-147190145D01*
X91404577Y-147275408D01*
X91589284Y-147326566D01*
X91815994Y-147343620D01*
X92039742Y-147330291D01*
X92164289Y-147301616D01*
X92714216Y-147301616D01*
X93034087Y-147301616D01*
X93127248Y-147079932D01*
X93225794Y-146858607D01*
X93329725Y-146637641D01*
X93439041Y-146416675D01*
X93553743Y-146195351D01*
X93673829Y-145973667D01*
X93673829Y-147301616D01*
X94032472Y-147301616D01*
X94032472Y-145301616D01*
X93712601Y-145301616D01*
X93622132Y-145449838D01*
X93531664Y-145610178D01*
X93442407Y-145776171D01*
X93355574Y-145941357D01*
X93273183Y-146103716D01*
X93197254Y-146261228D01*
X93129805Y-146406624D01*
X93072859Y-146532633D01*
X93072859Y-145301616D01*
X92714216Y-145301615D01*
X94255412Y-145301615D01*
X94265105Y-145550808D01*
X94274798Y-145807270D01*
X94285299Y-146066559D01*
X94297415Y-146324233D01*
X94311551Y-146579079D01*
X94328110Y-146829887D01*
X94347092Y-147072213D01*
X94368498Y-147301616D01*
X94698061Y-147301616D01*
X94769144Y-147090388D01*
X94840227Y-146863813D01*
X94911309Y-146634814D01*
X94982391Y-146416317D01*
X95055089Y-146628756D01*
X95131018Y-146858966D01*
X95205331Y-147089176D01*
X95273183Y-147301616D01*
X95602746Y-147301616D01*
X95626979Y-147071808D01*
X95647982Y-146828271D01*
X95666155Y-146576252D01*
X95681906Y-146321002D01*
X95682992Y-146300000D01*
X95883846Y-146300000D01*
X95895557Y-146542629D01*
X95930695Y-146753555D01*
X95989258Y-146932775D01*
X96071244Y-147080291D01*
X96213409Y-147226584D01*
X96390038Y-147314360D01*
X96601130Y-147343619D01*
X96817430Y-147314360D01*
X96996751Y-147226584D01*
X97139094Y-147080291D01*
X97220376Y-146932775D01*
X97278433Y-146753554D01*
X97313267Y-146542629D01*
X97324880Y-146300000D01*
X97499354Y-146300000D01*
X97516721Y-146557270D01*
X97568821Y-146773344D01*
X97651616Y-146950646D01*
X97761066Y-147091599D01*
X97895557Y-147197819D01*
X98053473Y-147270921D01*
X98231583Y-147313328D01*
X98426656Y-147327464D01*
X98635057Y-147316155D01*
X98853150Y-147278998D01*
X98853150Y-145327464D01*
X98597900Y-145288691D01*
X98374959Y-145278998D01*
X98186349Y-145293538D01*
X98014701Y-145337157D01*
X97864055Y-145411875D01*
X97738449Y-145519709D01*
X97637884Y-145661066D01*
X97562359Y-145836349D01*
X97515105Y-146048384D01*
X97499354Y-146300000D01*
X97324880Y-146300000D01*
X97312964Y-146057371D01*
X97277221Y-145846446D01*
X97217649Y-145667225D01*
X97134249Y-145519709D01*
X96990648Y-145373416D01*
X96814019Y-145285640D01*
X96604362Y-145256381D01*
X96388243Y-145285640D01*
X96209460Y-145373416D01*
X96068013Y-145519709D01*
X95987439Y-145667225D01*
X95929887Y-145846446D01*
X95895355Y-146057371D01*
X95883846Y-146300000D01*
X95682992Y-146300000D01*
X95695234Y-146063328D01*
X95706139Y-145804039D01*
X95715024Y-145548384D01*
X95722294Y-145301616D01*
X95353958Y-145301616D01*
X95357189Y-145495477D01*
X95360420Y-145695800D01*
X95363651Y-145898950D01*
X95366882Y-146101292D01*
X95370113Y-146300808D01*
X95373344Y-146495477D01*
X95375767Y-146681664D01*
X95376576Y-146855735D01*
X95310340Y-146629564D01*
X95239257Y-146387237D01*
X95176252Y-146167528D01*
X95131019Y-146009208D01*
X94840227Y-146009208D01*
X94801454Y-146161066D01*
X94744911Y-146361389D01*
X94677060Y-146597254D01*
X94604362Y-146855734D01*
X94605170Y-146681664D01*
X94607593Y-146495477D01*
X94610824Y-146301212D01*
X94614055Y-146102907D01*
X94617286Y-145901373D01*
X94620517Y-145697415D01*
X94622940Y-145495880D01*
X94623748Y-145301615D01*
X94255412Y-145301615D01*
X92714216Y-145301615D01*
X92714216Y-147301616D01*
X92164289Y-147301616D01*
X92213409Y-147290307D01*
X92436349Y-147191761D01*
X92320032Y-146868659D01*
X92111632Y-146965590D01*
X91977141Y-146999515D01*
X91815994Y-147010824D01*
X91649596Y-146989822D01*
X91544588Y-146931663D01*
X91491276Y-146847658D01*
X91476738Y-146752342D01*
X91512278Y-146642489D01*
X91602746Y-146556866D01*
X91725525Y-146489015D01*
X91861228Y-146432472D01*
X92048627Y-146358158D01*
X92224716Y-146251535D01*
X92355574Y-146091599D01*
X92407270Y-145854120D01*
X92361632Y-145603716D01*
X92224716Y-145414701D01*
X92087758Y-145326746D01*
X91920284Y-145273972D01*
X91722294Y-145256381D01*
X91549838Y-145266882D01*
X91400808Y-145298384D01*
X91169790Y-145392084D01*
X91286107Y-145699031D01*
X91465428Y-145621486D01*
X91693215Y-145589176D01*
X91869127Y-145614665D01*
X91974672Y-145691133D01*
X92009855Y-145818578D01*
X91977544Y-145920355D01*
X91895152Y-145997900D01*
X91782068Y-146057674D01*
X91657674Y-146106139D01*
X91462197Y-146185299D01*
X91274798Y-146301616D01*
X91134250Y-146482553D01*
X91093053Y-146604927D01*
X91079322Y-146755574D01*
X90342649Y-146755574D01*
X90342649Y-145631179D01*
X90869304Y-145631179D01*
X90869304Y-145301616D01*
X89415347Y-145301616D01*
X89415347Y-145631179D01*
X89160097Y-145631179D01*
X89160097Y-145330695D01*
X89032472Y-145306462D01*
X88891922Y-145290307D01*
X88756220Y-145282229D01*
X88643134Y-145278998D01*
X88479968Y-145288692D01*
X88332956Y-145317771D01*
X88203716Y-145367044D01*
X88093861Y-145437318D01*
X87940388Y-145642488D01*
X87900404Y-145777787D01*
X87887076Y-145934895D01*
X87904847Y-146101292D01*
X87958159Y-146251535D01*
X88052666Y-146376737D01*
X88194023Y-146468013D01*
X88077706Y-146653796D01*
X87958158Y-146867044D01*
X87846687Y-147089984D01*
X87754604Y-147301616D01*
X87515509Y-147301616D01*
X87515509Y-145301615D01*
X86303877Y-145301616D01*
X86303877Y-145631179D01*
X87118094Y-145631180D01*
X87118094Y-146080291D01*
X86410501Y-146080291D01*
X86410501Y-146409855D01*
X87118094Y-146409855D01*
X87118094Y-146972052D01*
X86232795Y-146972052D01*
X85992612Y-146972052D01*
X85960226Y-146845396D01*
X85902714Y-146629887D01*
X85844943Y-146422779D01*
X85786914Y-146224071D01*
X85714822Y-145984067D01*
X85643942Y-145750323D01*
X85574273Y-145522839D01*
X85505816Y-145301616D01*
X85072859Y-145301616D01*
X85001878Y-145524657D01*
X84931099Y-145754362D01*
X84860521Y-145990731D01*
X84790145Y-146233764D01*
X84734249Y-146434152D01*
X84678998Y-146641131D01*
X84624394Y-146854701D01*
X84570435Y-147074863D01*
X84517125Y-147301616D01*
X84413731Y-147301616D01*
X84403635Y-147051212D01*
X84392730Y-146791115D01*
X84381018Y-146526979D01*
X84368498Y-146264459D01*
X84354362Y-146006785D01*
X84337803Y-145757189D01*
X84318821Y-145520517D01*
X84297414Y-145301616D01*
X83967851Y-145301615D01*
X83911309Y-145476090D01*
X83838611Y-145705493D01*
X83761066Y-145954281D01*
X83686753Y-146186914D01*
X83605977Y-145939742D01*
X83525202Y-145694184D01*
X83454120Y-145472859D01*
X83395961Y-145301616D01*
X83066397Y-145301616D01*
X83044184Y-145560097D01*
X83022780Y-145812116D01*
X83003393Y-146059693D01*
X82987237Y-146304847D01*
X82973910Y-146549596D01*
X82963005Y-146795960D01*
X82954119Y-147045961D01*
X82946850Y-147301616D01*
X81391065Y-147301616D01*
X81313816Y-147172731D01*
X81236135Y-147008491D01*
X81174927Y-146837425D01*
X81130781Y-146661184D01*
X81104122Y-146481466D01*
X81095206Y-146300000D01*
X81104122Y-146118534D01*
X81130781Y-145938816D01*
X81174927Y-145762575D01*
X81236135Y-145591509D01*
X81313816Y-145427269D01*
X81407219Y-145271432D01*
X81515450Y-145125501D01*
X81637462Y-144990882D01*
X81772082Y-144868869D01*
X81918013Y-144760638D01*
X82073849Y-144667235D01*
X82238090Y-144589554D01*
X82409154Y-144528346D01*
X82585397Y-144484200D01*
X82765113Y-144457542D01*
X82946581Y-144448627D01*
X82946850Y-144448627D01*
X98853150Y-144448627D01*
X98853419Y-144448627D01*
X99034887Y-144457542D01*
G37*
%TD*%
%LPC*%
D13*
%TO.C,H7*%
X93029437Y-92372583D03*
%TD*%
%TO.C,H4*%
X126970563Y-92372583D03*
%TD*%
%TO.C,H2*%
X110000000Y-75402020D03*
%TD*%
%TO.C,H1*%
X110000000Y-109343146D03*
%TD*%
D14*
%TO.C,SW1*%
X85940000Y-122580000D03*
D15*
X83400000Y-122580000D03*
X83400000Y-130200000D03*
X85940000Y-130200000D03*
%TD*%
D16*
%TO.C,H6*%
X84000000Y-54000000D03*
%TD*%
D17*
%TO.C,H9*%
X115000000Y-55000000D03*
X115878680Y-52878680D03*
X115878680Y-57121320D03*
X118000000Y-52000000D03*
D18*
X118000000Y-55000000D03*
D17*
X118000000Y-58000000D03*
X120121320Y-52878680D03*
X120121320Y-57121320D03*
X121000000Y-55000000D03*
%TD*%
D16*
%TO.C,H8*%
X136000000Y-114000000D03*
%TD*%
D19*
%TO.C,J4*%
X99579999Y-118600000D03*
D20*
X97039999Y-118600000D03*
X94500000Y-118600000D03*
X91959999Y-118600000D03*
X89419999Y-118600000D03*
%TD*%
D21*
%TO.C,J5*%
X135350000Y-137350000D03*
X121850000Y-137350000D03*
D22*
X132200000Y-131350000D03*
D23*
X125000000Y-131350000D03*
%TD*%
D20*
%TO.C,J7*%
X119820000Y-118600000D03*
X117279999Y-118600000D03*
X114740000Y-118600000D03*
D19*
X112200000Y-118600000D03*
%TD*%
%TO.C,J6*%
X127340000Y-118500000D03*
D20*
X124800000Y-118500000D03*
%TD*%
D17*
%TO.C,H10*%
X99000000Y-55000000D03*
X99878680Y-52878680D03*
X99878680Y-57121320D03*
X102000000Y-52000000D03*
D18*
X102000000Y-55000000D03*
D17*
X102000000Y-58000000D03*
X104121320Y-52878680D03*
X104121320Y-57121320D03*
X105000000Y-55000000D03*
%TD*%
D24*
%TO.C,J1*%
X116838000Y-142220001D03*
X104138000Y-142220001D03*
D25*
X114048000Y-139680001D03*
D26*
X113032000Y-137900000D03*
X112016000Y-139680001D03*
X111000000Y-137900000D03*
X109984000Y-139680001D03*
X108968000Y-137900000D03*
X107952000Y-139680001D03*
X106936001Y-137900001D03*
X117348000Y-133080001D03*
X115058000Y-133080001D03*
X105918000Y-133080001D03*
X103628000Y-133080001D03*
D27*
X118618000Y-138790001D03*
X102358000Y-138790001D03*
%TD*%
D24*
%TO.C,J2*%
X97190000Y-142240000D03*
X84490000Y-142240000D03*
D25*
X94400000Y-139700000D03*
D26*
X93384000Y-137919999D03*
X92368000Y-139700000D03*
X91352000Y-137919999D03*
X90336000Y-139700000D03*
X89320000Y-137919999D03*
X88304000Y-139700000D03*
X87288001Y-137920000D03*
X97700000Y-133100000D03*
X95410000Y-133100000D03*
X86270000Y-133100000D03*
X83980000Y-133100000D03*
D27*
X98970000Y-138810000D03*
X82710000Y-138810000D03*
%TD*%
D16*
%TO.C,H3*%
X136000000Y-54000000D03*
%TD*%
%TO.C,H5*%
X84000000Y-114000000D03*
%TD*%
G36*
X132193039Y-50019685D02*
G01*
X132238794Y-50072489D01*
X132250000Y-50124000D01*
X132250000Y-57750000D01*
X139876000Y-57750000D01*
X139943039Y-57769685D01*
X139988794Y-57822489D01*
X140000000Y-57874000D01*
X140000000Y-110126000D01*
X139980315Y-110193039D01*
X139927511Y-110238794D01*
X139876000Y-110250000D01*
X132250000Y-110250000D01*
X132250000Y-117750000D01*
X139876000Y-117750000D01*
X139943039Y-117769685D01*
X139988794Y-117822489D01*
X140000000Y-117874000D01*
X140000000Y-128576000D01*
X139980315Y-128643039D01*
X139927511Y-128688794D01*
X139876000Y-128700000D01*
X129373026Y-128700000D01*
X129305987Y-128680315D01*
X129260232Y-128627511D01*
X129249030Y-128576978D01*
X129244290Y-127976000D01*
X130148000Y-127976000D01*
X131150000Y-127976000D01*
X131748000Y-127976000D01*
X132750000Y-127976000D01*
X133348000Y-127976000D01*
X134350000Y-127976000D01*
X134948000Y-127976000D01*
X135950000Y-127976000D01*
X136548000Y-127976000D01*
X137550000Y-127976000D01*
X138148000Y-127976000D01*
X139150000Y-127976000D01*
X139150000Y-127048000D01*
X138148000Y-127048000D01*
X138148000Y-127976000D01*
X137550000Y-127976000D01*
X137550000Y-127048000D01*
X136548000Y-127048000D01*
X136548000Y-127976000D01*
X135950000Y-127976000D01*
X135950000Y-127048000D01*
X134948000Y-127048000D01*
X134948000Y-127976000D01*
X134350000Y-127976000D01*
X134350000Y-127048000D01*
X133348000Y-127048000D01*
X133348000Y-127976000D01*
X132750000Y-127976000D01*
X132750000Y-127048000D01*
X131748000Y-127048000D01*
X131748000Y-127976000D01*
X131150000Y-127976000D01*
X131150000Y-127048000D01*
X130148000Y-127048000D01*
X130148000Y-127976000D01*
X129244290Y-127976000D01*
X129232255Y-126450000D01*
X130148000Y-126450000D01*
X131150000Y-126450000D01*
X131748000Y-126450000D01*
X132750000Y-126450000D01*
X133348000Y-126450000D01*
X134350000Y-126450000D01*
X134948000Y-126450000D01*
X135950000Y-126450000D01*
X136548000Y-126450000D01*
X137550000Y-126450000D01*
X138148000Y-126450000D01*
X139150000Y-126450000D01*
X139150000Y-125448000D01*
X138148000Y-125448000D01*
X138148000Y-126450000D01*
X137550000Y-126450000D01*
X137550000Y-125448000D01*
X136548000Y-125448000D01*
X136548000Y-126450000D01*
X135950000Y-126450000D01*
X135950000Y-125448000D01*
X134948000Y-125448000D01*
X134948000Y-126450000D01*
X134350000Y-126450000D01*
X134350000Y-125448000D01*
X133348000Y-125448000D01*
X133348000Y-126450000D01*
X132750000Y-126450000D01*
X132750000Y-125448000D01*
X131748000Y-125448000D01*
X131748000Y-126450000D01*
X131150000Y-126450000D01*
X131150000Y-125448000D01*
X130148000Y-125448000D01*
X130148000Y-126450000D01*
X129232255Y-126450000D01*
X129219637Y-124850000D01*
X130148000Y-124850000D01*
X131150000Y-124850000D01*
X131748000Y-124850000D01*
X132750000Y-124850000D01*
X133348000Y-124850000D01*
X134350000Y-124850000D01*
X134948000Y-124850000D01*
X135950000Y-124850000D01*
X136548000Y-124850000D01*
X137550000Y-124850000D01*
X138148000Y-124850000D01*
X139150000Y-124850000D01*
X139150000Y-123848000D01*
X138148000Y-123848000D01*
X138148000Y-124850000D01*
X137550000Y-124850000D01*
X137550000Y-123848000D01*
X136548000Y-123848000D01*
X136548000Y-124850000D01*
X135950000Y-124850000D01*
X135950000Y-123848000D01*
X134948000Y-123848000D01*
X134948000Y-124850000D01*
X134350000Y-124850000D01*
X134350000Y-123848000D01*
X133348000Y-123848000D01*
X133348000Y-124850000D01*
X132750000Y-124850000D01*
X132750000Y-123848000D01*
X131748000Y-123848000D01*
X131748000Y-124850000D01*
X131150000Y-124850000D01*
X131150000Y-123848000D01*
X130148000Y-123848000D01*
X130148000Y-124850000D01*
X129219637Y-124850000D01*
X129207018Y-123250000D01*
X130148000Y-123250000D01*
X131150000Y-123250000D01*
X131748000Y-123250000D01*
X132750000Y-123250000D01*
X133348000Y-123250000D01*
X134350000Y-123250000D01*
X134948000Y-123250000D01*
X135950000Y-123250000D01*
X136548000Y-123250000D01*
X137550000Y-123250000D01*
X138148000Y-123250000D01*
X139150000Y-123250000D01*
X139150000Y-122248000D01*
X138148000Y-122248000D01*
X138148000Y-123250000D01*
X137550000Y-123250000D01*
X137550000Y-122248000D01*
X136548000Y-122248000D01*
X136548000Y-123250000D01*
X135950000Y-123250000D01*
X135950000Y-122248000D01*
X134948000Y-122248000D01*
X134948000Y-123250000D01*
X134350000Y-123250000D01*
X134350000Y-122248000D01*
X133348000Y-122248000D01*
X133348000Y-123250000D01*
X132750000Y-123250000D01*
X132750000Y-122248000D01*
X131748000Y-122248000D01*
X131748000Y-123250000D01*
X131150000Y-123250000D01*
X131150000Y-122248000D01*
X130148000Y-122248000D01*
X130148000Y-123250000D01*
X129207018Y-123250000D01*
X129194400Y-121650000D01*
X130148000Y-121650000D01*
X131150000Y-121650000D01*
X131748000Y-121650000D01*
X132750000Y-121650000D01*
X133348000Y-121650000D01*
X134350000Y-121650000D01*
X134948000Y-121650000D01*
X135950000Y-121650000D01*
X136548000Y-121650000D01*
X137550000Y-121650000D01*
X138148000Y-121650000D01*
X139150000Y-121650000D01*
X139150000Y-120648000D01*
X138148000Y-120648000D01*
X138148000Y-121650000D01*
X137550000Y-121650000D01*
X137550000Y-120648000D01*
X136548000Y-120648000D01*
X136548000Y-121650000D01*
X135950000Y-121650000D01*
X135950000Y-120648000D01*
X134948000Y-120648000D01*
X134948000Y-121650000D01*
X134350000Y-121650000D01*
X134350000Y-120648000D01*
X133348000Y-120648000D01*
X133348000Y-121650000D01*
X132750000Y-121650000D01*
X132750000Y-120648000D01*
X131748000Y-120648000D01*
X131748000Y-121650000D01*
X131150000Y-121650000D01*
X131150000Y-120648000D01*
X130148000Y-120648000D01*
X130148000Y-121650000D01*
X129194400Y-121650000D01*
X129181781Y-120050000D01*
X130148000Y-120050000D01*
X131150000Y-120050000D01*
X131748000Y-120050000D01*
X132750000Y-120050000D01*
X133348000Y-120050000D01*
X134350000Y-120050000D01*
X134948000Y-120050000D01*
X135950000Y-120050000D01*
X136548000Y-120050000D01*
X137550000Y-120050000D01*
X138148000Y-120050000D01*
X139150000Y-120050000D01*
X139150000Y-119048000D01*
X138148000Y-119048000D01*
X138148000Y-120050000D01*
X137550000Y-120050000D01*
X137550000Y-119048000D01*
X136548000Y-119048000D01*
X136548000Y-120050000D01*
X135950000Y-120050000D01*
X135950000Y-119048000D01*
X134948000Y-119048000D01*
X134948000Y-120050000D01*
X134350000Y-120050000D01*
X134350000Y-119048000D01*
X133348000Y-119048000D01*
X133348000Y-120050000D01*
X132750000Y-120050000D01*
X132750000Y-119048000D01*
X131748000Y-119048000D01*
X131748000Y-120050000D01*
X131150000Y-120050000D01*
X131150000Y-119048000D01*
X130148000Y-119048000D01*
X130148000Y-120050000D01*
X129181781Y-120050000D01*
X129169163Y-118450000D01*
X130148000Y-118450000D01*
X131150000Y-118450000D01*
X131150000Y-117448000D01*
X130148000Y-117448000D01*
X130148000Y-118450000D01*
X129169163Y-118450000D01*
X129156544Y-116850000D01*
X130148000Y-116850000D01*
X131150000Y-116850000D01*
X131150000Y-115848000D01*
X130148000Y-115848000D01*
X130148000Y-116850000D01*
X129156544Y-116850000D01*
X129143926Y-115250000D01*
X130148000Y-115250000D01*
X131150000Y-115250000D01*
X131150000Y-114248000D01*
X130148000Y-114248000D01*
X130148000Y-115250000D01*
X129143926Y-115250000D01*
X129131307Y-113650000D01*
X130148000Y-113650000D01*
X131150000Y-113650000D01*
X131150000Y-112648000D01*
X130148000Y-112648000D01*
X130148000Y-113650000D01*
X129131307Y-113650000D01*
X129118689Y-112050000D01*
X130148000Y-112050000D01*
X131150000Y-112050000D01*
X131150000Y-111048000D01*
X130148000Y-111048000D01*
X130148000Y-112050000D01*
X129118689Y-112050000D01*
X129106071Y-110450000D01*
X130148000Y-110450000D01*
X131150000Y-110450000D01*
X131150000Y-109728110D01*
X131748000Y-109728110D01*
X131913791Y-109562319D01*
X131975114Y-109528834D01*
X132001472Y-109526000D01*
X132750000Y-109526000D01*
X132750000Y-109448000D01*
X131748000Y-109448000D01*
X131748000Y-109728110D01*
X131150000Y-109728110D01*
X131150000Y-109448000D01*
X130148000Y-109448000D01*
X130148000Y-110450000D01*
X129106071Y-110450000D01*
X129093453Y-108850000D01*
X130148000Y-108850000D01*
X131150000Y-108850000D01*
X131748000Y-108850000D01*
X132750000Y-108850000D01*
X133348000Y-108850000D01*
X134350000Y-108850000D01*
X134948000Y-108850000D01*
X135950000Y-108850000D01*
X136548000Y-108850000D01*
X137550000Y-108850000D01*
X138148000Y-108850000D01*
X139150000Y-108850000D01*
X139150000Y-107848000D01*
X138148000Y-107848000D01*
X138148000Y-108850000D01*
X137550000Y-108850000D01*
X137550000Y-107848000D01*
X136548000Y-107848000D01*
X136548000Y-108850000D01*
X135950000Y-108850000D01*
X135950000Y-107848000D01*
X134948000Y-107848000D01*
X134948000Y-108850000D01*
X134350000Y-108850000D01*
X134350000Y-107848000D01*
X133348000Y-107848000D01*
X133348000Y-108850000D01*
X132750000Y-108850000D01*
X132750000Y-107848000D01*
X131748000Y-107848000D01*
X131748000Y-108850000D01*
X131150000Y-108850000D01*
X131150000Y-107848000D01*
X130148000Y-107848000D01*
X130148000Y-108850000D01*
X129093453Y-108850000D01*
X129080835Y-107250000D01*
X130148000Y-107250000D01*
X131150000Y-107250000D01*
X131748000Y-107250000D01*
X132750000Y-107250000D01*
X133348000Y-107250000D01*
X134350000Y-107250000D01*
X134948000Y-107250000D01*
X135950000Y-107250000D01*
X136548000Y-107250000D01*
X137550000Y-107250000D01*
X138148000Y-107250000D01*
X139150000Y-107250000D01*
X139150000Y-106248000D01*
X138148000Y-106248000D01*
X138148000Y-107250000D01*
X137550000Y-107250000D01*
X137550000Y-106248000D01*
X136548000Y-106248000D01*
X136548000Y-107250000D01*
X135950000Y-107250000D01*
X135950000Y-106248000D01*
X134948000Y-106248000D01*
X134948000Y-107250000D01*
X134350000Y-107250000D01*
X134350000Y-106248000D01*
X133348000Y-106248000D01*
X133348000Y-107250000D01*
X132750000Y-107250000D01*
X132750000Y-106248000D01*
X131748000Y-106248000D01*
X131748000Y-107250000D01*
X131150000Y-107250000D01*
X131150000Y-106248000D01*
X130148000Y-106248000D01*
X130148000Y-107250000D01*
X129080835Y-107250000D01*
X129068217Y-105650000D01*
X130148000Y-105650000D01*
X131150000Y-105650000D01*
X131748000Y-105650000D01*
X132750000Y-105650000D01*
X133348000Y-105650000D01*
X134350000Y-105650000D01*
X134948000Y-105650000D01*
X135950000Y-105650000D01*
X136548000Y-105650000D01*
X137550000Y-105650000D01*
X138148000Y-105650000D01*
X139150000Y-105650000D01*
X139150000Y-104648000D01*
X138148000Y-104648000D01*
X138148000Y-105650000D01*
X137550000Y-105650000D01*
X137550000Y-104648000D01*
X136548000Y-104648000D01*
X136548000Y-105650000D01*
X135950000Y-105650000D01*
X135950000Y-104648000D01*
X134948000Y-104648000D01*
X134948000Y-105650000D01*
X134350000Y-105650000D01*
X134350000Y-104648000D01*
X133348000Y-104648000D01*
X133348000Y-105650000D01*
X132750000Y-105650000D01*
X132750000Y-104648000D01*
X131748000Y-104648000D01*
X131748000Y-105650000D01*
X131150000Y-105650000D01*
X131150000Y-104648000D01*
X130148000Y-104648000D01*
X130148000Y-105650000D01*
X129068217Y-105650000D01*
X129055599Y-104050000D01*
X130148000Y-104050000D01*
X131150000Y-104050000D01*
X131748000Y-104050000D01*
X132750000Y-104050000D01*
X133348000Y-104050000D01*
X134350000Y-104050000D01*
X134948000Y-104050000D01*
X135950000Y-104050000D01*
X136548000Y-104050000D01*
X137550000Y-104050000D01*
X138148000Y-104050000D01*
X139150000Y-104050000D01*
X139150000Y-103048000D01*
X138148000Y-103048000D01*
X138148000Y-104050000D01*
X137550000Y-104050000D01*
X137550000Y-103048000D01*
X136548000Y-103048000D01*
X136548000Y-104050000D01*
X135950000Y-104050000D01*
X135950000Y-103048000D01*
X134948000Y-103048000D01*
X134948000Y-104050000D01*
X134350000Y-104050000D01*
X134350000Y-103048000D01*
X133348000Y-103048000D01*
X133348000Y-104050000D01*
X132750000Y-104050000D01*
X132750000Y-103048000D01*
X131748000Y-103048000D01*
X131748000Y-104050000D01*
X131150000Y-104050000D01*
X131150000Y-103048000D01*
X130148000Y-103048000D01*
X130148000Y-104050000D01*
X129055599Y-104050000D01*
X129042981Y-102450000D01*
X130148000Y-102450000D01*
X131150000Y-102450000D01*
X131748000Y-102450000D01*
X132750000Y-102450000D01*
X133348000Y-102450000D01*
X134350000Y-102450000D01*
X134948000Y-102450000D01*
X135950000Y-102450000D01*
X136548000Y-102450000D01*
X137550000Y-102450000D01*
X138148000Y-102450000D01*
X139150000Y-102450000D01*
X139150000Y-101448000D01*
X138148000Y-101448000D01*
X138148000Y-102450000D01*
X137550000Y-102450000D01*
X137550000Y-101448000D01*
X136548000Y-101448000D01*
X136548000Y-102450000D01*
X135950000Y-102450000D01*
X135950000Y-101448000D01*
X134948000Y-101448000D01*
X134948000Y-102450000D01*
X134350000Y-102450000D01*
X134350000Y-101448000D01*
X133348000Y-101448000D01*
X133348000Y-102450000D01*
X132750000Y-102450000D01*
X132750000Y-101448000D01*
X131748000Y-101448000D01*
X131748000Y-102450000D01*
X131150000Y-102450000D01*
X131150000Y-101448000D01*
X130148000Y-101448000D01*
X130148000Y-102450000D01*
X129042981Y-102450000D01*
X129030363Y-100850000D01*
X130148000Y-100850000D01*
X131150000Y-100850000D01*
X131748000Y-100850000D01*
X132750000Y-100850000D01*
X133348000Y-100850000D01*
X134350000Y-100850000D01*
X134948000Y-100850000D01*
X135950000Y-100850000D01*
X136548000Y-100850000D01*
X137550000Y-100850000D01*
X138148000Y-100850000D01*
X139150000Y-100850000D01*
X139150000Y-99848000D01*
X138148000Y-99848000D01*
X138148000Y-100850000D01*
X137550000Y-100850000D01*
X137550000Y-99848000D01*
X136548000Y-99848000D01*
X136548000Y-100850000D01*
X135950000Y-100850000D01*
X135950000Y-99848000D01*
X134948000Y-99848000D01*
X134948000Y-100850000D01*
X134350000Y-100850000D01*
X134350000Y-99848000D01*
X133348000Y-99848000D01*
X133348000Y-100850000D01*
X132750000Y-100850000D01*
X132750000Y-99848000D01*
X131748000Y-99848000D01*
X131748000Y-100850000D01*
X131150000Y-100850000D01*
X131150000Y-99848000D01*
X130148000Y-99848000D01*
X130148000Y-100850000D01*
X129030363Y-100850000D01*
X129017745Y-99250000D01*
X130148000Y-99250000D01*
X131150000Y-99250000D01*
X131748000Y-99250000D01*
X132750000Y-99250000D01*
X133348000Y-99250000D01*
X134350000Y-99250000D01*
X134948000Y-99250000D01*
X135950000Y-99250000D01*
X136548000Y-99250000D01*
X137550000Y-99250000D01*
X138148000Y-99250000D01*
X139150000Y-99250000D01*
X139150000Y-98248000D01*
X138148000Y-98248000D01*
X138148000Y-99250000D01*
X137550000Y-99250000D01*
X137550000Y-98248000D01*
X136548000Y-98248000D01*
X136548000Y-99250000D01*
X135950000Y-99250000D01*
X135950000Y-98248000D01*
X134948000Y-98248000D01*
X134948000Y-99250000D01*
X134350000Y-99250000D01*
X134350000Y-98248000D01*
X133348000Y-98248000D01*
X133348000Y-99250000D01*
X132750000Y-99250000D01*
X132750000Y-98248000D01*
X131748000Y-98248000D01*
X131748000Y-99250000D01*
X131150000Y-99250000D01*
X131150000Y-98248000D01*
X130148000Y-98248000D01*
X130148000Y-99250000D01*
X129017745Y-99250000D01*
X129005127Y-97650000D01*
X131873890Y-97650000D01*
X132750000Y-97650000D01*
X133348000Y-97650000D01*
X134350000Y-97650000D01*
X134948000Y-97650000D01*
X135950000Y-97650000D01*
X136548000Y-97650000D01*
X137550000Y-97650000D01*
X138148000Y-97650000D01*
X139150000Y-97650000D01*
X139150000Y-96648000D01*
X138148000Y-96648000D01*
X138148000Y-97650000D01*
X137550000Y-97650000D01*
X137550000Y-96648000D01*
X136548000Y-96648000D01*
X136548000Y-97650000D01*
X135950000Y-97650000D01*
X135950000Y-96648000D01*
X134948000Y-96648000D01*
X134948000Y-97650000D01*
X134350000Y-97650000D01*
X134350000Y-96648000D01*
X133348000Y-96648000D01*
X133348000Y-97650000D01*
X132750000Y-97650000D01*
X132750000Y-96648000D01*
X132224000Y-96648000D01*
X132224000Y-97248528D01*
X132204315Y-97315567D01*
X132187681Y-97336209D01*
X131873890Y-97650000D01*
X129005127Y-97650000D01*
X129000986Y-97124978D01*
X129020141Y-97057785D01*
X129072583Y-97011615D01*
X129124982Y-97000000D01*
X131500000Y-97000000D01*
X131500000Y-96050000D01*
X132224000Y-96050000D01*
X132750000Y-96050000D01*
X133348000Y-96050000D01*
X134350000Y-96050000D01*
X134948000Y-96050000D01*
X135950000Y-96050000D01*
X136548000Y-96050000D01*
X137550000Y-96050000D01*
X138148000Y-96050000D01*
X139150000Y-96050000D01*
X139150000Y-95048000D01*
X138148000Y-95048000D01*
X138148000Y-96050000D01*
X137550000Y-96050000D01*
X137550000Y-95048000D01*
X136548000Y-95048000D01*
X136548000Y-96050000D01*
X135950000Y-96050000D01*
X135950000Y-95048000D01*
X134948000Y-95048000D01*
X134948000Y-96050000D01*
X134350000Y-96050000D01*
X134350000Y-95048000D01*
X133348000Y-95048000D01*
X133348000Y-96050000D01*
X132750000Y-96050000D01*
X132750000Y-95048000D01*
X132224000Y-95048000D01*
X132224000Y-96050000D01*
X131500000Y-96050000D01*
X131500000Y-94450000D01*
X132224000Y-94450000D01*
X132750000Y-94450000D01*
X133348000Y-94450000D01*
X134350000Y-94450000D01*
X134948000Y-94450000D01*
X135950000Y-94450000D01*
X136548000Y-94450000D01*
X137550000Y-94450000D01*
X138148000Y-94450000D01*
X139150000Y-94450000D01*
X139150000Y-93448000D01*
X138148000Y-93448000D01*
X138148000Y-94450000D01*
X137550000Y-94450000D01*
X137550000Y-93448000D01*
X136548000Y-93448000D01*
X136548000Y-94450000D01*
X135950000Y-94450000D01*
X135950000Y-93448000D01*
X134948000Y-93448000D01*
X134948000Y-94450000D01*
X134350000Y-94450000D01*
X134350000Y-93448000D01*
X133348000Y-93448000D01*
X133348000Y-94450000D01*
X132750000Y-94450000D01*
X132750000Y-93448000D01*
X132224000Y-93448000D01*
X132224000Y-94450000D01*
X131500000Y-94450000D01*
X131500000Y-92850000D01*
X132224000Y-92850000D01*
X132750000Y-92850000D01*
X133348000Y-92850000D01*
X134350000Y-92850000D01*
X134948000Y-92850000D01*
X135950000Y-92850000D01*
X136548000Y-92850000D01*
X137550000Y-92850000D01*
X138148000Y-92850000D01*
X139150000Y-92850000D01*
X139150000Y-91848000D01*
X138148000Y-91848000D01*
X138148000Y-92850000D01*
X137550000Y-92850000D01*
X137550000Y-91848000D01*
X136548000Y-91848000D01*
X136548000Y-92850000D01*
X135950000Y-92850000D01*
X135950000Y-91848000D01*
X134948000Y-91848000D01*
X134948000Y-92850000D01*
X134350000Y-92850000D01*
X134350000Y-91848000D01*
X133348000Y-91848000D01*
X133348000Y-92850000D01*
X132750000Y-92850000D01*
X132750000Y-91848000D01*
X132224000Y-91848000D01*
X132224000Y-92850000D01*
X131500000Y-92850000D01*
X131500000Y-91250000D01*
X132224000Y-91250000D01*
X132750000Y-91250000D01*
X133348000Y-91250000D01*
X134350000Y-91250000D01*
X134948000Y-91250000D01*
X135950000Y-91250000D01*
X136548000Y-91250000D01*
X137550000Y-91250000D01*
X138148000Y-91250000D01*
X139150000Y-91250000D01*
X139150000Y-90248000D01*
X138148000Y-90248000D01*
X138148000Y-91250000D01*
X137550000Y-91250000D01*
X137550000Y-90248000D01*
X136548000Y-90248000D01*
X136548000Y-91250000D01*
X135950000Y-91250000D01*
X135950000Y-90248000D01*
X134948000Y-90248000D01*
X134948000Y-91250000D01*
X134350000Y-91250000D01*
X134350000Y-90248000D01*
X133348000Y-90248000D01*
X133348000Y-91250000D01*
X132750000Y-91250000D01*
X132750000Y-90248000D01*
X132224000Y-90248000D01*
X132224000Y-91250000D01*
X131500000Y-91250000D01*
X131500000Y-89650000D01*
X132224000Y-89650000D01*
X132750000Y-89650000D01*
X133348000Y-89650000D01*
X134350000Y-89650000D01*
X134948000Y-89650000D01*
X135950000Y-89650000D01*
X136548000Y-89650000D01*
X137550000Y-89650000D01*
X138148000Y-89650000D01*
X139150000Y-89650000D01*
X139150000Y-88648000D01*
X138148000Y-88648000D01*
X138148000Y-89650000D01*
X137550000Y-89650000D01*
X137550000Y-88648000D01*
X136548000Y-88648000D01*
X136548000Y-89650000D01*
X135950000Y-89650000D01*
X135950000Y-88648000D01*
X134948000Y-88648000D01*
X134948000Y-89650000D01*
X134350000Y-89650000D01*
X134350000Y-88648000D01*
X133348000Y-88648000D01*
X133348000Y-89650000D01*
X132750000Y-89650000D01*
X132750000Y-88648000D01*
X132224000Y-88648000D01*
X132224000Y-89650000D01*
X131500000Y-89650000D01*
X131500000Y-87750000D01*
X129125312Y-87750000D01*
X129058273Y-87730315D01*
X129012518Y-87677511D01*
X129001319Y-87624695D01*
X129007390Y-87048000D01*
X131818440Y-87048000D01*
X131836209Y-87062319D01*
X132187681Y-87413791D01*
X132221166Y-87475114D01*
X132224000Y-87501472D01*
X132224000Y-88050000D01*
X132750000Y-88050000D01*
X133348000Y-88050000D01*
X134350000Y-88050000D01*
X134948000Y-88050000D01*
X135950000Y-88050000D01*
X136548000Y-88050000D01*
X137550000Y-88050000D01*
X138148000Y-88050000D01*
X139150000Y-88050000D01*
X139150000Y-87048000D01*
X138148000Y-87048000D01*
X138148000Y-88050000D01*
X137550000Y-88050000D01*
X137550000Y-87048000D01*
X136548000Y-87048000D01*
X136548000Y-88050000D01*
X135950000Y-88050000D01*
X135950000Y-87048000D01*
X134948000Y-87048000D01*
X134948000Y-88050000D01*
X134350000Y-88050000D01*
X134350000Y-87048000D01*
X133348000Y-87048000D01*
X133348000Y-88050000D01*
X132750000Y-88050000D01*
X132750000Y-87048000D01*
X131818440Y-87048000D01*
X129007390Y-87048000D01*
X129013685Y-86450000D01*
X130148000Y-86450000D01*
X131150000Y-86450000D01*
X131748000Y-86450000D01*
X132750000Y-86450000D01*
X133348000Y-86450000D01*
X134350000Y-86450000D01*
X134948000Y-86450000D01*
X135950000Y-86450000D01*
X136548000Y-86450000D01*
X137550000Y-86450000D01*
X138148000Y-86450000D01*
X139150000Y-86450000D01*
X139150000Y-85448000D01*
X138148000Y-85448000D01*
X138148000Y-86450000D01*
X137550000Y-86450000D01*
X137550000Y-85448000D01*
X136548000Y-85448000D01*
X136548000Y-86450000D01*
X135950000Y-86450000D01*
X135950000Y-85448000D01*
X134948000Y-85448000D01*
X134948000Y-86450000D01*
X134350000Y-86450000D01*
X134350000Y-85448000D01*
X133348000Y-85448000D01*
X133348000Y-86450000D01*
X132750000Y-86450000D01*
X132750000Y-85448000D01*
X131748000Y-85448000D01*
X131748000Y-86450000D01*
X131150000Y-86450000D01*
X131150000Y-85448000D01*
X130148000Y-85448000D01*
X130148000Y-86450000D01*
X129013685Y-86450000D01*
X129030527Y-84850000D01*
X130148000Y-84850000D01*
X131150000Y-84850000D01*
X131748000Y-84850000D01*
X132750000Y-84850000D01*
X133348000Y-84850000D01*
X134350000Y-84850000D01*
X134948000Y-84850000D01*
X135950000Y-84850000D01*
X136548000Y-84850000D01*
X137550000Y-84850000D01*
X138148000Y-84850000D01*
X139150000Y-84850000D01*
X139150000Y-83848000D01*
X138148000Y-83848000D01*
X138148000Y-84850000D01*
X137550000Y-84850000D01*
X137550000Y-83848000D01*
X136548000Y-83848000D01*
X136548000Y-84850000D01*
X135950000Y-84850000D01*
X135950000Y-83848000D01*
X134948000Y-83848000D01*
X134948000Y-84850000D01*
X134350000Y-84850000D01*
X134350000Y-83848000D01*
X133348000Y-83848000D01*
X133348000Y-84850000D01*
X132750000Y-84850000D01*
X132750000Y-83848000D01*
X131748000Y-83848000D01*
X131748000Y-84850000D01*
X131150000Y-84850000D01*
X131150000Y-83848000D01*
X130148000Y-83848000D01*
X130148000Y-84850000D01*
X129030527Y-84850000D01*
X129047370Y-83250000D01*
X130148000Y-83250000D01*
X131150000Y-83250000D01*
X131748000Y-83250000D01*
X132750000Y-83250000D01*
X133348000Y-83250000D01*
X134350000Y-83250000D01*
X134948000Y-83250000D01*
X135950000Y-83250000D01*
X136548000Y-83250000D01*
X137550000Y-83250000D01*
X138148000Y-83250000D01*
X139150000Y-83250000D01*
X139150000Y-82248000D01*
X138148000Y-82248000D01*
X138148000Y-83250000D01*
X137550000Y-83250000D01*
X137550000Y-82248000D01*
X136548000Y-82248000D01*
X136548000Y-83250000D01*
X135950000Y-83250000D01*
X135950000Y-82248000D01*
X134948000Y-82248000D01*
X134948000Y-83250000D01*
X134350000Y-83250000D01*
X134350000Y-82248000D01*
X133348000Y-82248000D01*
X133348000Y-83250000D01*
X132750000Y-83250000D01*
X132750000Y-82248000D01*
X131748000Y-82248000D01*
X131748000Y-83250000D01*
X131150000Y-83250000D01*
X131150000Y-82248000D01*
X130148000Y-82248000D01*
X130148000Y-83250000D01*
X129047370Y-83250000D01*
X129064212Y-81650000D01*
X130148000Y-81650000D01*
X131150000Y-81650000D01*
X131748000Y-81650000D01*
X132750000Y-81650000D01*
X133348000Y-81650000D01*
X134350000Y-81650000D01*
X134948000Y-81650000D01*
X135950000Y-81650000D01*
X136548000Y-81650000D01*
X137550000Y-81650000D01*
X138148000Y-81650000D01*
X139150000Y-81650000D01*
X139150000Y-80648000D01*
X138148000Y-80648000D01*
X138148000Y-81650000D01*
X137550000Y-81650000D01*
X137550000Y-80648000D01*
X136548000Y-80648000D01*
X136548000Y-81650000D01*
X135950000Y-81650000D01*
X135950000Y-80648000D01*
X134948000Y-80648000D01*
X134948000Y-81650000D01*
X134350000Y-81650000D01*
X134350000Y-80648000D01*
X133348000Y-80648000D01*
X133348000Y-81650000D01*
X132750000Y-81650000D01*
X132750000Y-80648000D01*
X131748000Y-80648000D01*
X131748000Y-81650000D01*
X131150000Y-81650000D01*
X131150000Y-80648000D01*
X130148000Y-80648000D01*
X130148000Y-81650000D01*
X129064212Y-81650000D01*
X129081054Y-80050000D01*
X130148000Y-80050000D01*
X131150000Y-80050000D01*
X131748000Y-80050000D01*
X132750000Y-80050000D01*
X133348000Y-80050000D01*
X134350000Y-80050000D01*
X134948000Y-80050000D01*
X135950000Y-80050000D01*
X136548000Y-80050000D01*
X137550000Y-80050000D01*
X138148000Y-80050000D01*
X139150000Y-80050000D01*
X139150000Y-79048000D01*
X138148000Y-79048000D01*
X138148000Y-80050000D01*
X137550000Y-80050000D01*
X137550000Y-79048000D01*
X136548000Y-79048000D01*
X136548000Y-80050000D01*
X135950000Y-80050000D01*
X135950000Y-79048000D01*
X134948000Y-79048000D01*
X134948000Y-80050000D01*
X134350000Y-80050000D01*
X134350000Y-79048000D01*
X133348000Y-79048000D01*
X133348000Y-80050000D01*
X132750000Y-80050000D01*
X132750000Y-79048000D01*
X131748000Y-79048000D01*
X131748000Y-80050000D01*
X131150000Y-80050000D01*
X131150000Y-79048000D01*
X130148000Y-79048000D01*
X130148000Y-80050000D01*
X129081054Y-80050000D01*
X129097896Y-78450000D01*
X130148000Y-78450000D01*
X131150000Y-78450000D01*
X131748000Y-78450000D01*
X132750000Y-78450000D01*
X133348000Y-78450000D01*
X134350000Y-78450000D01*
X134948000Y-78450000D01*
X135950000Y-78450000D01*
X136548000Y-78450000D01*
X137550000Y-78450000D01*
X138148000Y-78450000D01*
X139150000Y-78450000D01*
X139150000Y-77448000D01*
X138148000Y-77448000D01*
X138148000Y-78450000D01*
X137550000Y-78450000D01*
X137550000Y-77448000D01*
X136548000Y-77448000D01*
X136548000Y-78450000D01*
X135950000Y-78450000D01*
X135950000Y-77448000D01*
X134948000Y-77448000D01*
X134948000Y-78450000D01*
X134350000Y-78450000D01*
X134350000Y-77448000D01*
X133348000Y-77448000D01*
X133348000Y-78450000D01*
X132750000Y-78450000D01*
X132750000Y-77448000D01*
X131748000Y-77448000D01*
X131748000Y-78450000D01*
X131150000Y-78450000D01*
X131150000Y-77448000D01*
X130148000Y-77448000D01*
X130148000Y-78450000D01*
X129097896Y-78450000D01*
X129114738Y-76850000D01*
X130148000Y-76850000D01*
X131150000Y-76850000D01*
X131748000Y-76850000D01*
X132750000Y-76850000D01*
X133348000Y-76850000D01*
X134350000Y-76850000D01*
X134948000Y-76850000D01*
X135950000Y-76850000D01*
X136548000Y-76850000D01*
X137550000Y-76850000D01*
X138148000Y-76850000D01*
X139150000Y-76850000D01*
X139150000Y-75848000D01*
X138148000Y-75848000D01*
X138148000Y-76850000D01*
X137550000Y-76850000D01*
X137550000Y-75848000D01*
X136548000Y-75848000D01*
X136548000Y-76850000D01*
X135950000Y-76850000D01*
X135950000Y-75848000D01*
X134948000Y-75848000D01*
X134948000Y-76850000D01*
X134350000Y-76850000D01*
X134350000Y-75848000D01*
X133348000Y-75848000D01*
X133348000Y-76850000D01*
X132750000Y-76850000D01*
X132750000Y-75848000D01*
X131748000Y-75848000D01*
X131748000Y-76850000D01*
X131150000Y-76850000D01*
X131150000Y-75848000D01*
X130148000Y-75848000D01*
X130148000Y-76850000D01*
X129114738Y-76850000D01*
X129131580Y-75250000D01*
X130148000Y-75250000D01*
X131150000Y-75250000D01*
X131748000Y-75250000D01*
X132750000Y-75250000D01*
X133348000Y-75250000D01*
X134350000Y-75250000D01*
X134948000Y-75250000D01*
X135950000Y-75250000D01*
X136548000Y-75250000D01*
X137550000Y-75250000D01*
X138148000Y-75250000D01*
X139150000Y-75250000D01*
X139150000Y-74248000D01*
X138148000Y-74248000D01*
X138148000Y-75250000D01*
X137550000Y-75250000D01*
X137550000Y-74248000D01*
X136548000Y-74248000D01*
X136548000Y-75250000D01*
X135950000Y-75250000D01*
X135950000Y-74248000D01*
X134948000Y-74248000D01*
X134948000Y-75250000D01*
X134350000Y-75250000D01*
X134350000Y-74248000D01*
X133348000Y-74248000D01*
X133348000Y-75250000D01*
X132750000Y-75250000D01*
X132750000Y-74248000D01*
X131748000Y-74248000D01*
X131748000Y-75250000D01*
X131150000Y-75250000D01*
X131150000Y-74248000D01*
X130148000Y-74248000D01*
X130148000Y-75250000D01*
X129131580Y-75250000D01*
X129148422Y-73650000D01*
X130148000Y-73650000D01*
X131150000Y-73650000D01*
X131748000Y-73650000D01*
X132750000Y-73650000D01*
X133348000Y-73650000D01*
X134350000Y-73650000D01*
X134948000Y-73650000D01*
X135950000Y-73650000D01*
X136548000Y-73650000D01*
X137550000Y-73650000D01*
X138148000Y-73650000D01*
X139150000Y-73650000D01*
X139150000Y-72648000D01*
X138148000Y-72648000D01*
X138148000Y-73650000D01*
X137550000Y-73650000D01*
X137550000Y-72648000D01*
X136548000Y-72648000D01*
X136548000Y-73650000D01*
X135950000Y-73650000D01*
X135950000Y-72648000D01*
X134948000Y-72648000D01*
X134948000Y-73650000D01*
X134350000Y-73650000D01*
X134350000Y-72648000D01*
X133348000Y-72648000D01*
X133348000Y-73650000D01*
X132750000Y-73650000D01*
X132750000Y-72648000D01*
X131748000Y-72648000D01*
X131748000Y-73650000D01*
X131150000Y-73650000D01*
X131150000Y-72648000D01*
X130148000Y-72648000D01*
X130148000Y-73650000D01*
X129148422Y-73650000D01*
X129165264Y-72050000D01*
X130148000Y-72050000D01*
X131150000Y-72050000D01*
X131748000Y-72050000D01*
X132750000Y-72050000D01*
X133348000Y-72050000D01*
X134350000Y-72050000D01*
X134948000Y-72050000D01*
X135950000Y-72050000D01*
X136548000Y-72050000D01*
X137550000Y-72050000D01*
X138148000Y-72050000D01*
X139150000Y-72050000D01*
X139150000Y-71048000D01*
X138148000Y-71048000D01*
X138148000Y-72050000D01*
X137550000Y-72050000D01*
X137550000Y-71048000D01*
X136548000Y-71048000D01*
X136548000Y-72050000D01*
X135950000Y-72050000D01*
X135950000Y-71048000D01*
X134948000Y-71048000D01*
X134948000Y-72050000D01*
X134350000Y-72050000D01*
X134350000Y-71048000D01*
X133348000Y-71048000D01*
X133348000Y-72050000D01*
X132750000Y-72050000D01*
X132750000Y-71048000D01*
X131748000Y-71048000D01*
X131748000Y-72050000D01*
X131150000Y-72050000D01*
X131150000Y-71048000D01*
X130148000Y-71048000D01*
X130148000Y-72050000D01*
X129165264Y-72050000D01*
X129182106Y-70450000D01*
X130148000Y-70450000D01*
X131150000Y-70450000D01*
X131748000Y-70450000D01*
X132750000Y-70450000D01*
X133348000Y-70450000D01*
X134350000Y-70450000D01*
X134948000Y-70450000D01*
X135950000Y-70450000D01*
X136548000Y-70450000D01*
X137550000Y-70450000D01*
X138148000Y-70450000D01*
X139150000Y-70450000D01*
X139150000Y-69448000D01*
X138148000Y-69448000D01*
X138148000Y-70450000D01*
X137550000Y-70450000D01*
X137550000Y-69448000D01*
X136548000Y-69448000D01*
X136548000Y-70450000D01*
X135950000Y-70450000D01*
X135950000Y-69448000D01*
X134948000Y-69448000D01*
X134948000Y-70450000D01*
X134350000Y-70450000D01*
X134350000Y-69448000D01*
X133348000Y-69448000D01*
X133348000Y-70450000D01*
X132750000Y-70450000D01*
X132750000Y-69448000D01*
X131748000Y-69448000D01*
X131748000Y-70450000D01*
X131150000Y-70450000D01*
X131150000Y-69448000D01*
X130148000Y-69448000D01*
X130148000Y-70450000D01*
X129182106Y-70450000D01*
X129198948Y-68850000D01*
X130148000Y-68850000D01*
X131150000Y-68850000D01*
X131748000Y-68850000D01*
X132750000Y-68850000D01*
X133348000Y-68850000D01*
X134350000Y-68850000D01*
X134948000Y-68850000D01*
X135950000Y-68850000D01*
X136548000Y-68850000D01*
X137550000Y-68850000D01*
X138148000Y-68850000D01*
X139150000Y-68850000D01*
X139150000Y-67848000D01*
X138148000Y-67848000D01*
X138148000Y-68850000D01*
X137550000Y-68850000D01*
X137550000Y-67848000D01*
X136548000Y-67848000D01*
X136548000Y-68850000D01*
X135950000Y-68850000D01*
X135950000Y-67848000D01*
X134948000Y-67848000D01*
X134948000Y-68850000D01*
X134350000Y-68850000D01*
X134350000Y-67848000D01*
X133348000Y-67848000D01*
X133348000Y-68850000D01*
X132750000Y-68850000D01*
X132750000Y-67848000D01*
X131748000Y-67848000D01*
X131748000Y-68850000D01*
X131150000Y-68850000D01*
X131150000Y-67848000D01*
X130148000Y-67848000D01*
X130148000Y-68850000D01*
X129198948Y-68850000D01*
X129215790Y-67250000D01*
X130148000Y-67250000D01*
X131150000Y-67250000D01*
X131748000Y-67250000D01*
X132750000Y-67250000D01*
X133348000Y-67250000D01*
X134350000Y-67250000D01*
X134948000Y-67250000D01*
X135950000Y-67250000D01*
X136548000Y-67250000D01*
X137550000Y-67250000D01*
X138148000Y-67250000D01*
X139150000Y-67250000D01*
X139150000Y-66248000D01*
X138148000Y-66248000D01*
X138148000Y-67250000D01*
X137550000Y-67250000D01*
X137550000Y-66248000D01*
X136548000Y-66248000D01*
X136548000Y-67250000D01*
X135950000Y-67250000D01*
X135950000Y-66248000D01*
X134948000Y-66248000D01*
X134948000Y-67250000D01*
X134350000Y-67250000D01*
X134350000Y-66248000D01*
X133348000Y-66248000D01*
X133348000Y-67250000D01*
X132750000Y-67250000D01*
X132750000Y-66248000D01*
X131748000Y-66248000D01*
X131748000Y-67250000D01*
X131150000Y-67250000D01*
X131150000Y-66248000D01*
X130148000Y-66248000D01*
X130148000Y-67250000D01*
X129215790Y-67250000D01*
X129232632Y-65650000D01*
X130148000Y-65650000D01*
X131150000Y-65650000D01*
X131748000Y-65650000D01*
X132750000Y-65650000D01*
X133348000Y-65650000D01*
X134350000Y-65650000D01*
X134948000Y-65650000D01*
X135950000Y-65650000D01*
X136548000Y-65650000D01*
X137550000Y-65650000D01*
X138148000Y-65650000D01*
X139150000Y-65650000D01*
X139150000Y-64648000D01*
X138148000Y-64648000D01*
X138148000Y-65650000D01*
X137550000Y-65650000D01*
X137550000Y-64648000D01*
X136548000Y-64648000D01*
X136548000Y-65650000D01*
X135950000Y-65650000D01*
X135950000Y-64648000D01*
X134948000Y-64648000D01*
X134948000Y-65650000D01*
X134350000Y-65650000D01*
X134350000Y-64648000D01*
X133348000Y-64648000D01*
X133348000Y-65650000D01*
X132750000Y-65650000D01*
X132750000Y-64648000D01*
X131748000Y-64648000D01*
X131748000Y-65650000D01*
X131150000Y-65650000D01*
X131150000Y-64648000D01*
X130148000Y-64648000D01*
X130148000Y-65650000D01*
X129232632Y-65650000D01*
X129249474Y-64050000D01*
X130148000Y-64050000D01*
X131150000Y-64050000D01*
X131748000Y-64050000D01*
X132750000Y-64050000D01*
X133348000Y-64050000D01*
X134350000Y-64050000D01*
X134948000Y-64050000D01*
X135950000Y-64050000D01*
X136548000Y-64050000D01*
X137550000Y-64050000D01*
X138148000Y-64050000D01*
X139150000Y-64050000D01*
X139150000Y-63048000D01*
X138148000Y-63048000D01*
X138148000Y-64050000D01*
X137550000Y-64050000D01*
X137550000Y-63048000D01*
X136548000Y-63048000D01*
X136548000Y-64050000D01*
X135950000Y-64050000D01*
X135950000Y-63048000D01*
X134948000Y-63048000D01*
X134948000Y-64050000D01*
X134350000Y-64050000D01*
X134350000Y-63048000D01*
X133348000Y-63048000D01*
X133348000Y-64050000D01*
X132750000Y-64050000D01*
X132750000Y-63048000D01*
X131748000Y-63048000D01*
X131748000Y-64050000D01*
X131150000Y-64050000D01*
X131150000Y-63048000D01*
X130148000Y-63048000D01*
X130148000Y-64050000D01*
X129249474Y-64050000D01*
X129250000Y-64000000D01*
X123624000Y-64000000D01*
X123556961Y-63980315D01*
X123511206Y-63927511D01*
X123500000Y-63876000D01*
X123500000Y-63276000D01*
X125348000Y-63276000D01*
X126350000Y-63276000D01*
X126948000Y-63276000D01*
X127950000Y-63276000D01*
X128548000Y-63276000D01*
X129500380Y-63276000D01*
X129550000Y-63290570D01*
X129550000Y-63048000D01*
X128548000Y-63048000D01*
X128548000Y-63276000D01*
X127950000Y-63276000D01*
X127950000Y-63048000D01*
X126948000Y-63048000D01*
X126948000Y-63276000D01*
X126350000Y-63276000D01*
X126350000Y-63048000D01*
X125348000Y-63048000D01*
X125348000Y-63276000D01*
X123500000Y-63276000D01*
X123500000Y-62450000D01*
X124224000Y-62450000D01*
X124750000Y-62450000D01*
X125348000Y-62450000D01*
X126350000Y-62450000D01*
X126948000Y-62450000D01*
X127950000Y-62450000D01*
X128548000Y-62450000D01*
X129550000Y-62450000D01*
X130148000Y-62450000D01*
X131150000Y-62450000D01*
X131748000Y-62450000D01*
X132750000Y-62450000D01*
X133348000Y-62450000D01*
X134350000Y-62450000D01*
X134948000Y-62450000D01*
X135950000Y-62450000D01*
X136548000Y-62450000D01*
X137550000Y-62450000D01*
X138148000Y-62450000D01*
X139150000Y-62450000D01*
X139150000Y-61448000D01*
X138148000Y-61448000D01*
X138148000Y-62450000D01*
X137550000Y-62450000D01*
X137550000Y-61448000D01*
X136548000Y-61448000D01*
X136548000Y-62450000D01*
X135950000Y-62450000D01*
X135950000Y-61448000D01*
X134948000Y-61448000D01*
X134948000Y-62450000D01*
X134350000Y-62450000D01*
X134350000Y-61448000D01*
X133348000Y-61448000D01*
X133348000Y-62450000D01*
X132750000Y-62450000D01*
X132750000Y-61448000D01*
X131748000Y-61448000D01*
X131748000Y-62450000D01*
X131150000Y-62450000D01*
X131150000Y-61448000D01*
X130148000Y-61448000D01*
X130148000Y-62450000D01*
X129550000Y-62450000D01*
X129550000Y-61448000D01*
X128548000Y-61448000D01*
X128548000Y-62450000D01*
X127950000Y-62450000D01*
X127950000Y-61448000D01*
X126948000Y-61448000D01*
X126948000Y-62450000D01*
X126350000Y-62450000D01*
X126350000Y-61448000D01*
X125348000Y-61448000D01*
X125348000Y-62450000D01*
X124750000Y-62450000D01*
X124750000Y-61448000D01*
X124224000Y-61448000D01*
X124224000Y-62450000D01*
X123500000Y-62450000D01*
X123500000Y-60850000D01*
X124224000Y-60850000D01*
X124750000Y-60850000D01*
X125348000Y-60850000D01*
X126350000Y-60850000D01*
X126948000Y-60850000D01*
X127950000Y-60850000D01*
X128548000Y-60850000D01*
X129550000Y-60850000D01*
X130148000Y-60850000D01*
X131150000Y-60850000D01*
X131748000Y-60850000D01*
X132750000Y-60850000D01*
X133348000Y-60850000D01*
X134350000Y-60850000D01*
X134948000Y-60850000D01*
X135950000Y-60850000D01*
X136548000Y-60850000D01*
X137550000Y-60850000D01*
X138148000Y-60850000D01*
X139150000Y-60850000D01*
X139150000Y-59848000D01*
X138148000Y-59848000D01*
X138148000Y-60850000D01*
X137550000Y-60850000D01*
X137550000Y-59848000D01*
X136548000Y-59848000D01*
X136548000Y-60850000D01*
X135950000Y-60850000D01*
X135950000Y-59848000D01*
X134948000Y-59848000D01*
X134948000Y-60850000D01*
X134350000Y-60850000D01*
X134350000Y-59848000D01*
X133348000Y-59848000D01*
X133348000Y-60850000D01*
X132750000Y-60850000D01*
X132750000Y-59848000D01*
X131748000Y-59848000D01*
X131748000Y-60850000D01*
X131150000Y-60850000D01*
X131150000Y-59848000D01*
X130148000Y-59848000D01*
X130148000Y-60850000D01*
X129550000Y-60850000D01*
X129550000Y-59848000D01*
X128548000Y-59848000D01*
X128548000Y-60850000D01*
X127950000Y-60850000D01*
X127950000Y-59848000D01*
X126948000Y-59848000D01*
X126948000Y-60850000D01*
X126350000Y-60850000D01*
X126350000Y-59848000D01*
X125348000Y-59848000D01*
X125348000Y-60850000D01*
X124750000Y-60850000D01*
X124750000Y-59848000D01*
X124224000Y-59848000D01*
X124224000Y-60850000D01*
X123500000Y-60850000D01*
X123500000Y-59250000D01*
X124224000Y-59250000D01*
X124750000Y-59250000D01*
X125348000Y-59250000D01*
X126350000Y-59250000D01*
X126948000Y-59250000D01*
X127950000Y-59250000D01*
X128548000Y-59250000D01*
X129550000Y-59250000D01*
X130148000Y-59250000D01*
X131150000Y-59250000D01*
X131748000Y-59250000D01*
X132750000Y-59250000D01*
X133348000Y-59250000D01*
X134350000Y-59250000D01*
X134948000Y-59250000D01*
X135950000Y-59250000D01*
X136548000Y-59250000D01*
X137550000Y-59250000D01*
X138148000Y-59250000D01*
X139150000Y-59250000D01*
X139150000Y-58474000D01*
X138148000Y-58474000D01*
X138148000Y-59250000D01*
X137550000Y-59250000D01*
X137550000Y-58474000D01*
X136548000Y-58474000D01*
X136548000Y-59250000D01*
X135950000Y-59250000D01*
X135950000Y-58474000D01*
X134948000Y-58474000D01*
X134948000Y-59250000D01*
X134350000Y-59250000D01*
X134350000Y-58474000D01*
X133348000Y-58474000D01*
X133348000Y-59250000D01*
X132750000Y-59250000D01*
X132750000Y-58474000D01*
X132001472Y-58474000D01*
X131934433Y-58454315D01*
X131913791Y-58437681D01*
X131748000Y-58271890D01*
X131748000Y-59250000D01*
X131150000Y-59250000D01*
X131150000Y-58248000D01*
X130148000Y-58248000D01*
X130148000Y-59250000D01*
X129550000Y-59250000D01*
X129550000Y-58248000D01*
X128548000Y-58248000D01*
X128548000Y-59250000D01*
X127950000Y-59250000D01*
X127950000Y-58248000D01*
X126948000Y-58248000D01*
X126948000Y-59250000D01*
X126350000Y-59250000D01*
X126350000Y-58248000D01*
X125348000Y-58248000D01*
X125348000Y-59250000D01*
X124750000Y-59250000D01*
X124750000Y-58248000D01*
X124224000Y-58248000D01*
X124224000Y-59250000D01*
X123500000Y-59250000D01*
X123500000Y-57650000D01*
X124224000Y-57650000D01*
X124750000Y-57650000D01*
X125348000Y-57650000D01*
X126350000Y-57650000D01*
X126948000Y-57650000D01*
X127950000Y-57650000D01*
X128548000Y-57650000D01*
X129550000Y-57650000D01*
X130148000Y-57650000D01*
X131150000Y-57650000D01*
X131150000Y-56648000D01*
X130148000Y-56648000D01*
X130148000Y-57650000D01*
X129550000Y-57650000D01*
X129550000Y-56648000D01*
X128548000Y-56648000D01*
X128548000Y-57650000D01*
X127950000Y-57650000D01*
X127950000Y-56648000D01*
X126948000Y-56648000D01*
X126948000Y-57650000D01*
X126350000Y-57650000D01*
X126350000Y-56648000D01*
X125348000Y-56648000D01*
X125348000Y-57650000D01*
X124750000Y-57650000D01*
X124750000Y-56648000D01*
X124224000Y-56648000D01*
X124224000Y-57650000D01*
X123500000Y-57650000D01*
X123500000Y-56050000D01*
X124224000Y-56050000D01*
X124750000Y-56050000D01*
X125348000Y-56050000D01*
X126350000Y-56050000D01*
X126948000Y-56050000D01*
X127950000Y-56050000D01*
X128548000Y-56050000D01*
X129550000Y-56050000D01*
X130148000Y-56050000D01*
X131150000Y-56050000D01*
X131150000Y-55048000D01*
X130148000Y-55048000D01*
X130148000Y-56050000D01*
X129550000Y-56050000D01*
X129550000Y-55048000D01*
X128548000Y-55048000D01*
X128548000Y-56050000D01*
X127950000Y-56050000D01*
X127950000Y-55048000D01*
X126948000Y-55048000D01*
X126948000Y-56050000D01*
X126350000Y-56050000D01*
X126350000Y-55048000D01*
X125348000Y-55048000D01*
X125348000Y-56050000D01*
X124750000Y-56050000D01*
X124750000Y-55048000D01*
X124224000Y-55048000D01*
X124224000Y-56050000D01*
X123500000Y-56050000D01*
X123500000Y-54450000D01*
X124224000Y-54450000D01*
X124750000Y-54450000D01*
X125348000Y-54450000D01*
X126350000Y-54450000D01*
X126948000Y-54450000D01*
X127950000Y-54450000D01*
X128548000Y-54450000D01*
X129550000Y-54450000D01*
X130148000Y-54450000D01*
X131150000Y-54450000D01*
X131150000Y-53448000D01*
X130148000Y-53448000D01*
X130148000Y-54450000D01*
X129550000Y-54450000D01*
X129550000Y-53448000D01*
X128548000Y-53448000D01*
X128548000Y-54450000D01*
X127950000Y-54450000D01*
X127950000Y-53448000D01*
X126948000Y-53448000D01*
X126948000Y-54450000D01*
X126350000Y-54450000D01*
X126350000Y-53448000D01*
X125348000Y-53448000D01*
X125348000Y-54450000D01*
X124750000Y-54450000D01*
X124750000Y-53448000D01*
X124224000Y-53448000D01*
X124224000Y-54450000D01*
X123500000Y-54450000D01*
X123500000Y-52850000D01*
X124224000Y-52850000D01*
X124750000Y-52850000D01*
X125348000Y-52850000D01*
X126350000Y-52850000D01*
X126948000Y-52850000D01*
X127950000Y-52850000D01*
X128548000Y-52850000D01*
X129550000Y-52850000D01*
X130148000Y-52850000D01*
X131150000Y-52850000D01*
X131150000Y-51848000D01*
X130148000Y-51848000D01*
X130148000Y-52850000D01*
X129550000Y-52850000D01*
X129550000Y-51848000D01*
X128548000Y-51848000D01*
X128548000Y-52850000D01*
X127950000Y-52850000D01*
X127950000Y-51848000D01*
X126948000Y-51848000D01*
X126948000Y-52850000D01*
X126350000Y-52850000D01*
X126350000Y-51848000D01*
X125348000Y-51848000D01*
X125348000Y-52850000D01*
X124750000Y-52850000D01*
X124750000Y-51848000D01*
X124224000Y-51848000D01*
X124224000Y-52850000D01*
X123500000Y-52850000D01*
X123500000Y-51250000D01*
X124224000Y-51250000D01*
X124750000Y-51250000D01*
X125348000Y-51250000D01*
X126350000Y-51250000D01*
X126948000Y-51250000D01*
X127950000Y-51250000D01*
X128548000Y-51250000D01*
X129550000Y-51250000D01*
X130148000Y-51250000D01*
X131150000Y-51250000D01*
X131150000Y-50724000D01*
X130148000Y-50724000D01*
X130148000Y-51250000D01*
X129550000Y-51250000D01*
X129550000Y-50724000D01*
X128548000Y-50724000D01*
X128548000Y-51250000D01*
X127950000Y-51250000D01*
X127950000Y-50724000D01*
X126948000Y-50724000D01*
X126948000Y-51250000D01*
X126350000Y-51250000D01*
X126350000Y-50724000D01*
X125348000Y-50724000D01*
X125348000Y-51250000D01*
X124750000Y-51250000D01*
X124750000Y-50724000D01*
X124224000Y-50724000D01*
X124224000Y-51250000D01*
X123500000Y-51250000D01*
X123500000Y-50124000D01*
X123519685Y-50056961D01*
X123572489Y-50011206D01*
X123624000Y-50000000D01*
X132126000Y-50000000D01*
X132193039Y-50019685D01*
G37*
%LPD*%
M02*
