%TF.GenerationSoftware,KiCad,Pcbnew,9.0.3-9.0.3-0~ubuntu24.04.1*%
%TF.CreationDate,2025-09-09T21:57:36+02:00*%
%TF.ProjectId,vesc_mms_board,76657363-5f6d-46d7-935f-626f6172642e,rev?*%
%TF.SameCoordinates,Original*%
%TF.FileFunction,Copper,L2,Bot*%
%TF.FilePolarity,Positive*%
%FSLAX46Y46*%
G04 Gerber Fmt 4.6, Leading zero omitted, Abs format (unit mm)*
G04 Created by KiCad (PCBNEW 9.0.3-9.0.3-0~ubuntu24.04.1) date 2025-09-09 21:57:36*
%MOMM*%
%LPD*%
G01*
G04 APERTURE LIST*
G04 Aperture macros list*
%AMRoundRect*
0 Rectangle with rounded corners*
0 $1 Rounding radius*
0 $2 $3 $4 $5 $6 $7 $8 $9 X,Y pos of 4 corners*
0 Add a 4 corners polygon primitive as box body*
4,1,4,$2,$3,$4,$5,$6,$7,$8,$9,$2,$3,0*
0 Add four circle primitives for the rounded corners*
1,1,$1+$1,$2,$3*
1,1,$1+$1,$4,$5*
1,1,$1+$1,$6,$7*
1,1,$1+$1,$8,$9*
0 Add four rect primitives between the rounded corners*
20,1,$1+$1,$2,$3,$4,$5,0*
20,1,$1+$1,$4,$5,$6,$7,0*
20,1,$1+$1,$6,$7,$8,$9,0*
20,1,$1+$1,$8,$9,$2,$3,0*%
G04 Aperture macros list end*
%TA.AperFunction,ComponentPad*%
%ADD10RoundRect,0.250000X-0.600000X-0.725000X0.600000X-0.725000X0.600000X0.725000X-0.600000X0.725000X0*%
%TD*%
%TA.AperFunction,ComponentPad*%
%ADD11O,1.700000X1.950000*%
%TD*%
%TA.AperFunction,ComponentPad*%
%ADD12R,1.600000X1.600000*%
%TD*%
%TA.AperFunction,ComponentPad*%
%ADD13O,1.600000X1.600000*%
%TD*%
%TA.AperFunction,ComponentPad*%
%ADD14C,0.900000*%
%TD*%
%TA.AperFunction,ComponentPad*%
%ADD15C,8.000000*%
%TD*%
%TA.AperFunction,ComponentPad*%
%ADD16R,0.900000X2.000000*%
%TD*%
%TA.AperFunction,ComponentPad*%
%ADD17RoundRect,1.025000X1.025000X1.025000X-1.025000X1.025000X-1.025000X-1.025000X1.025000X-1.025000X0*%
%TD*%
%TA.AperFunction,ComponentPad*%
%ADD18C,4.100000*%
%TD*%
%TA.AperFunction,ComponentPad*%
%ADD19RoundRect,0.250000X0.600000X0.750000X-0.600000X0.750000X-0.600000X-0.750000X0.600000X-0.750000X0*%
%TD*%
%TA.AperFunction,ComponentPad*%
%ADD20O,1.700000X2.000000*%
%TD*%
%TA.AperFunction,ComponentPad*%
%ADD21R,1.500000X1.500000*%
%TD*%
%TA.AperFunction,ComponentPad*%
%ADD22C,1.500000*%
%TD*%
%TA.AperFunction,ComponentPad*%
%ADD23C,2.300000*%
%TD*%
%TA.AperFunction,ViaPad*%
%ADD24C,0.600000*%
%TD*%
%TA.AperFunction,ViaPad*%
%ADD25C,0.550000*%
%TD*%
%TA.AperFunction,ViaPad*%
%ADD26C,0.650000*%
%TD*%
%TA.AperFunction,Conductor*%
%ADD27C,0.300000*%
%TD*%
%TA.AperFunction,Conductor*%
%ADD28C,0.508000*%
%TD*%
%TA.AperFunction,Conductor*%
%ADD29C,1.500000*%
%TD*%
%TA.AperFunction,Conductor*%
%ADD30C,0.240000*%
%TD*%
%TA.AperFunction,Conductor*%
%ADD31C,0.254000*%
%TD*%
G04 APERTURE END LIST*
D10*
%TO.P,J3,1,Pin_1*%
%TO.N,GND*%
X106660000Y-115245000D03*
D11*
%TO.P,J3,2,Pin_2*%
%TO.N,/CAN/CAN-*%
X109160000Y-115245000D03*
%TO.P,J3,3,Pin_3*%
%TO.N,/CAN/CAN+*%
X111660000Y-115245000D03*
%TO.P,J3,4,Pin_4*%
%TO.N,+5V*%
X114160000Y-115245000D03*
%TD*%
D12*
%TO.P,SW1,1*%
%TO.N,Net-(R2-Pad2)*%
X122110000Y-115580000D03*
D13*
%TO.P,SW1,2*%
%TO.N,Net-(R3-Pad2)*%
X119570000Y-115580000D03*
%TO.P,SW1,3*%
%TO.N,/CAN/CAN2-*%
X119570000Y-123200000D03*
%TO.P,SW1,4*%
%TO.N,/CAN/CAN1+*%
X122110000Y-123200000D03*
%TD*%
D14*
%TO.P,H9,1,1*%
%TO.N,VCC*%
X115000000Y-55000000D03*
X115878680Y-52878680D03*
X115878680Y-57121320D03*
X118000000Y-52000000D03*
D15*
X118000000Y-55000000D03*
D14*
X118000000Y-58000000D03*
X120121320Y-52878680D03*
X120121320Y-57121320D03*
X121000000Y-55000000D03*
%TD*%
D10*
%TO.P,J4,1,Pin_1*%
%TO.N,GND*%
X90740000Y-115240000D03*
D11*
%TO.P,J4,2,Pin_2*%
X93240000Y-115240000D03*
%TO.P,J4,3,Pin_3*%
%TO.N,/USB/USB_VESC_D+*%
X95740000Y-115240000D03*
%TO.P,J4,4,Pin_4*%
%TO.N,/USB/USB_VESC_D-*%
X98240000Y-115240000D03*
%TO.P,J4,5,Pin_5*%
%TO.N,+5V*%
X100740000Y-115240000D03*
%TD*%
D16*
%TO.P,J5,*%
%TO.N,*%
X138100000Y-137930001D03*
X124600000Y-137930001D03*
D17*
%TO.P,J5,1,Pin_1*%
%TO.N,GND*%
X134950000Y-131930001D03*
D18*
%TO.P,J5,2,Pin_2*%
%TO.N,VCC*%
X127750000Y-131930001D03*
%TD*%
D19*
%TO.P,J6,1,Pin_1*%
%TO.N,GND*%
X107130000Y-128800001D03*
D20*
%TO.P,J6,2,Pin_2*%
%TO.N,+12V*%
X104630000Y-128800001D03*
%TD*%
D14*
%TO.P,H10,1,1*%
%TO.N,GND*%
X99000000Y-55000000D03*
X99878680Y-52878680D03*
X99878680Y-57121320D03*
X102000000Y-52000000D03*
D15*
X102000000Y-55000000D03*
D14*
X102000000Y-58000000D03*
X104121320Y-52878680D03*
X104121320Y-57121320D03*
X105000000Y-55000000D03*
%TD*%
D21*
%TO.P,J1,1*%
%TO.N,/CAN/CAN1-*%
X113744000Y-139980001D03*
D22*
%TO.P,J1,2*%
%TO.N,/CAN/CAN1+*%
X112728000Y-138200000D03*
%TO.P,J1,3*%
%TO.N,GND*%
X111712000Y-139980001D03*
%TO.P,J1,4*%
%TO.N,/CAN/CAN2-*%
X110696000Y-138200000D03*
%TO.P,J1,5*%
%TO.N,/CAN/CAN2+*%
X109680000Y-139980001D03*
%TO.P,J1,6*%
%TO.N,+12V*%
X108664000Y-138200000D03*
%TO.P,J1,7*%
%TO.N,USB_UPSTREAM_D-*%
X107648000Y-139980001D03*
%TO.P,J1,8*%
%TO.N,USB_UPSTREAM_D+*%
X106632001Y-138200001D03*
%TO.P,J1,9*%
%TO.N,GND*%
X117044000Y-133380001D03*
%TO.P,J1,10*%
%TO.N,Net-(J1-Pad10)*%
X114754000Y-133380001D03*
%TO.P,J1,11*%
%TO.N,GND*%
X105614000Y-133380001D03*
%TO.P,J1,12*%
%TO.N,Net-(J1-Pad12)*%
X103324000Y-133380001D03*
D23*
%TO.P,J1,SH*%
%TO.N,GND*%
X118314000Y-139090001D03*
X102054000Y-139090001D03*
%TD*%
D21*
%TO.P,J2,1*%
%TO.N,/CAN/CAN1-*%
X94096000Y-140000000D03*
D22*
%TO.P,J2,2*%
%TO.N,/CAN/CAN1+*%
X93080000Y-138219999D03*
%TO.P,J2,3*%
%TO.N,GND*%
X92064000Y-140000000D03*
%TO.P,J2,4*%
%TO.N,/CAN/CAN2-*%
X91048000Y-138219999D03*
%TO.P,J2,5*%
%TO.N,/CAN/CAN2+*%
X90032000Y-140000000D03*
%TO.P,J2,6*%
%TO.N,+12V*%
X89016000Y-138219999D03*
%TO.P,J2,7*%
%TO.N,USB_DOWNSTREAM_D-*%
X88000000Y-140000000D03*
%TO.P,J2,8*%
%TO.N,USB_DOWNSTREAM_D+*%
X86984001Y-138220000D03*
%TO.P,J2,9*%
%TO.N,GND*%
X97396000Y-133400000D03*
%TO.P,J2,10*%
%TO.N,Net-(J2-Pad10)*%
X95106000Y-133400000D03*
%TO.P,J2,11*%
%TO.N,GND*%
X85966000Y-133400000D03*
%TO.P,J2,12*%
%TO.N,Net-(J2-Pad12)*%
X83676000Y-133400000D03*
D23*
%TO.P,J2,SH*%
%TO.N,GND*%
X98666000Y-139110000D03*
X82406000Y-139110000D03*
%TD*%
D24*
%TO.N,GND*%
X103110000Y-122650001D03*
X138395000Y-147060000D03*
X138395000Y-144520000D03*
X138395000Y-141980000D03*
X138395000Y-139440000D03*
X135855000Y-147060000D03*
X135855000Y-144520000D03*
X135855000Y-141980000D03*
X135855000Y-139440000D03*
X135855000Y-136900000D03*
X133315000Y-147060000D03*
X133315000Y-144520000D03*
X133315000Y-141980000D03*
X133315000Y-139440000D03*
X133315000Y-136900000D03*
X130775000Y-147060000D03*
X130775000Y-144520000D03*
X130775000Y-141980000D03*
X130775000Y-139440000D03*
X130775000Y-136900000D03*
X128235000Y-147060000D03*
X128235000Y-144520000D03*
X128235000Y-141980000D03*
X128235000Y-139440000D03*
X128235000Y-136900000D03*
X125695000Y-147060000D03*
X125695000Y-144520000D03*
X125695000Y-141980000D03*
X125695000Y-139440000D03*
X125695000Y-136900000D03*
X123155000Y-126740000D03*
X123155000Y-119120000D03*
X123155000Y-114040000D03*
X123155000Y-111500000D03*
X123155000Y-108960000D03*
X123155000Y-106420000D03*
X123155000Y-103880000D03*
X123155000Y-101340000D03*
X123155000Y-83560000D03*
X123155000Y-81020000D03*
X123155000Y-78480000D03*
X123155000Y-75940000D03*
X123155000Y-73400000D03*
X123155000Y-70860000D03*
X123155000Y-68320000D03*
X123155000Y-65780000D03*
X120615000Y-114040000D03*
X120615000Y-111500000D03*
X120615000Y-108960000D03*
X120615000Y-106420000D03*
X120615000Y-103880000D03*
X120615000Y-81020000D03*
X120615000Y-78480000D03*
X120615000Y-75940000D03*
X120615000Y-73400000D03*
X120615000Y-70860000D03*
X120615000Y-68320000D03*
X120615000Y-65780000D03*
X118075000Y-136900000D03*
X118075000Y-116580000D03*
X118075000Y-114040000D03*
X118075000Y-111500000D03*
X118075000Y-108960000D03*
X118075000Y-106420000D03*
X118075000Y-78480000D03*
X118075000Y-75940000D03*
X118075000Y-73400000D03*
X118075000Y-70860000D03*
X118075000Y-68320000D03*
X118075000Y-65780000D03*
X115535000Y-139440000D03*
X115535000Y-136900000D03*
X115535000Y-131820000D03*
X115535000Y-124200000D03*
X115535000Y-116580000D03*
X115535000Y-114040000D03*
X115535000Y-111500000D03*
X115535000Y-108960000D03*
X115535000Y-106420000D03*
X115535000Y-78480000D03*
X115535000Y-75940000D03*
X115535000Y-73400000D03*
X115535000Y-70860000D03*
X115535000Y-68320000D03*
X115535000Y-65780000D03*
X112995000Y-134360000D03*
X112995000Y-119120000D03*
X112995000Y-111500000D03*
X112995000Y-108960000D03*
X112995000Y-75940000D03*
X112995000Y-73400000D03*
X112995000Y-70860000D03*
X112995000Y-68320000D03*
X112995000Y-65780000D03*
X110455000Y-134360000D03*
X110455000Y-111500000D03*
X110455000Y-108960000D03*
X110455000Y-70860000D03*
X110455000Y-68320000D03*
X110455000Y-65780000D03*
X107915000Y-111500000D03*
X107915000Y-108960000D03*
X107915000Y-70860000D03*
X107915000Y-68320000D03*
X107915000Y-65780000D03*
X107915000Y-63240000D03*
X107915000Y-60700000D03*
X107915000Y-58160000D03*
X107915000Y-55620000D03*
X107915000Y-53080000D03*
X107915000Y-50540000D03*
X105375000Y-131820000D03*
X105375000Y-111500000D03*
X105375000Y-108960000D03*
X105375000Y-106420000D03*
X105375000Y-75940000D03*
X105375000Y-73400000D03*
X105375000Y-70860000D03*
X105375000Y-68320000D03*
X105375000Y-65780000D03*
X105375000Y-63240000D03*
X105375000Y-60700000D03*
X105375000Y-50540000D03*
X102835000Y-129280000D03*
X102835000Y-121660000D03*
X102835000Y-119120000D03*
X102835000Y-116580000D03*
X102835000Y-114040000D03*
X102835000Y-111500000D03*
X102835000Y-108960000D03*
X102835000Y-106420000D03*
X102835000Y-78480000D03*
X102835000Y-75940000D03*
X102835000Y-73400000D03*
X102835000Y-70860000D03*
X102835000Y-68320000D03*
X102835000Y-65780000D03*
X102835000Y-63240000D03*
X102835000Y-60700000D03*
X100295000Y-141980000D03*
X100295000Y-111500000D03*
X100295000Y-108960000D03*
X100295000Y-106420000D03*
X100295000Y-103880000D03*
X100295000Y-81020000D03*
X100295000Y-78480000D03*
X100295000Y-75940000D03*
X100295000Y-73400000D03*
X100295000Y-70860000D03*
X100295000Y-68320000D03*
X100295000Y-65780000D03*
X100295000Y-63240000D03*
X100295000Y-60700000D03*
X100295000Y-50540000D03*
X97755000Y-136900000D03*
X97755000Y-131820000D03*
X97755000Y-129280000D03*
X97755000Y-119120000D03*
X97755000Y-111500000D03*
X97755000Y-108960000D03*
X97755000Y-106420000D03*
X97755000Y-103880000D03*
X97755000Y-101340000D03*
X97755000Y-83560000D03*
X97755000Y-81020000D03*
X97755000Y-78480000D03*
X97755000Y-75940000D03*
X97755000Y-73400000D03*
X97755000Y-70860000D03*
X97755000Y-68320000D03*
X97755000Y-65780000D03*
X97755000Y-63240000D03*
X97755000Y-60700000D03*
X97755000Y-58160000D03*
X97755000Y-53080000D03*
X97755000Y-50540000D03*
X95215000Y-136900000D03*
X95215000Y-129280000D03*
X95215000Y-111500000D03*
X95215000Y-108960000D03*
X95215000Y-106420000D03*
X95215000Y-103880000D03*
X95215000Y-101340000D03*
X95215000Y-98800000D03*
X95215000Y-96260000D03*
X95215000Y-88640000D03*
X95215000Y-86100000D03*
X95215000Y-83560000D03*
X95215000Y-81020000D03*
X95215000Y-78480000D03*
X95215000Y-75940000D03*
X95215000Y-73400000D03*
X95215000Y-70860000D03*
X95215000Y-68320000D03*
X95215000Y-65780000D03*
X95215000Y-63240000D03*
X95215000Y-60700000D03*
X95215000Y-58160000D03*
X95215000Y-55620000D03*
X95215000Y-53080000D03*
X95215000Y-50540000D03*
X92675000Y-136900000D03*
X92675000Y-111500000D03*
X92675000Y-108960000D03*
X92675000Y-106420000D03*
X92675000Y-103880000D03*
X92675000Y-101340000D03*
X92675000Y-98800000D03*
X92675000Y-96260000D03*
X92675000Y-88640000D03*
X92675000Y-86100000D03*
X92675000Y-83560000D03*
X92675000Y-81020000D03*
X92675000Y-78480000D03*
X92675000Y-75940000D03*
X92675000Y-73400000D03*
X92675000Y-70860000D03*
X92675000Y-68320000D03*
X92675000Y-65780000D03*
X92675000Y-63240000D03*
X92675000Y-60700000D03*
X92675000Y-58160000D03*
X92675000Y-55620000D03*
X92675000Y-53080000D03*
X92675000Y-50540000D03*
X90135000Y-111500000D03*
X90135000Y-108960000D03*
X90135000Y-106420000D03*
X90135000Y-103880000D03*
X90135000Y-101340000D03*
X90135000Y-98800000D03*
X90135000Y-96260000D03*
X90135000Y-93720000D03*
X90135000Y-91180000D03*
X90135000Y-88640000D03*
X90135000Y-86100000D03*
X90135000Y-83560000D03*
X90135000Y-81020000D03*
X90135000Y-78480000D03*
X90135000Y-75940000D03*
X90135000Y-73400000D03*
X90135000Y-70860000D03*
X90135000Y-68320000D03*
X90135000Y-65780000D03*
X90135000Y-63240000D03*
X90135000Y-60700000D03*
X90135000Y-58160000D03*
X90135000Y-55620000D03*
X90135000Y-53080000D03*
X87595000Y-147060000D03*
X87595000Y-144520000D03*
X87595000Y-141980000D03*
X87595000Y-136900000D03*
X87595000Y-134360000D03*
X87595000Y-124200000D03*
X87595000Y-121660000D03*
X87595000Y-116580000D03*
X87595000Y-114040000D03*
X87595000Y-111500000D03*
X87595000Y-108960000D03*
X87595000Y-106420000D03*
X87595000Y-103880000D03*
X87595000Y-101340000D03*
X87595000Y-98800000D03*
X87595000Y-96260000D03*
X87595000Y-93720000D03*
X87595000Y-91180000D03*
X87595000Y-88640000D03*
X87595000Y-86100000D03*
X87595000Y-83560000D03*
X87595000Y-81020000D03*
X87595000Y-78480000D03*
X87595000Y-75940000D03*
X87595000Y-73400000D03*
X87595000Y-70860000D03*
X87595000Y-68320000D03*
X87595000Y-65780000D03*
X87595000Y-63240000D03*
X87595000Y-60700000D03*
X87595000Y-58160000D03*
X87595000Y-55620000D03*
X87595000Y-53080000D03*
X87595000Y-50540000D03*
X85055000Y-147060000D03*
X85055000Y-136900000D03*
X85055000Y-126740000D03*
X85055000Y-119120000D03*
X85055000Y-116580000D03*
X85055000Y-111500000D03*
X85055000Y-108960000D03*
X85055000Y-106420000D03*
X85055000Y-103880000D03*
X85055000Y-101340000D03*
X85055000Y-98800000D03*
X85055000Y-96260000D03*
X85055000Y-93720000D03*
X85055000Y-91180000D03*
X85055000Y-88640000D03*
X85055000Y-86100000D03*
X85055000Y-83560000D03*
X85055000Y-81020000D03*
X85055000Y-78480000D03*
X85055000Y-75940000D03*
X85055000Y-73400000D03*
X85055000Y-70860000D03*
X85055000Y-68320000D03*
X85055000Y-65780000D03*
X85055000Y-63240000D03*
X85055000Y-60700000D03*
X85055000Y-58160000D03*
X85055000Y-50540000D03*
X82515000Y-147060000D03*
X82515000Y-144520000D03*
X82515000Y-126740000D03*
X82515000Y-124200000D03*
X82515000Y-121660000D03*
X82515000Y-119120000D03*
X82515000Y-116580000D03*
X82515000Y-111500000D03*
X82515000Y-108960000D03*
X82515000Y-106420000D03*
X82515000Y-103880000D03*
X82515000Y-101340000D03*
X82515000Y-98800000D03*
X82515000Y-96260000D03*
X82515000Y-93720000D03*
X82515000Y-91180000D03*
X82515000Y-88640000D03*
X82515000Y-86100000D03*
X82515000Y-83560000D03*
X82515000Y-81020000D03*
X82515000Y-78480000D03*
X82515000Y-75940000D03*
X82515000Y-73400000D03*
X82515000Y-70860000D03*
X82515000Y-68320000D03*
X82515000Y-65780000D03*
X82515000Y-63240000D03*
X82515000Y-60700000D03*
X82515000Y-58160000D03*
X82515000Y-50540000D03*
X92300000Y-129600000D03*
X100140000Y-122490001D03*
X92900000Y-123500000D03*
X90100000Y-131030001D03*
X89800000Y-128900000D03*
D25*
X99021500Y-136482001D03*
D24*
X92200000Y-126700000D03*
D25*
X111200000Y-143365000D03*
X100579500Y-133761003D03*
X99021500Y-133782001D03*
D24*
X94272500Y-124222500D03*
X98440000Y-124690001D03*
X91649678Y-130962901D03*
X106790000Y-127200000D03*
D25*
X100600000Y-136482001D03*
D24*
X93000000Y-125100000D03*
%TO.N,+12V*%
X101100000Y-132030001D03*
X94000000Y-132080001D03*
D26*
%TO.N,USB_UPSTREAM_D+*%
X89442500Y-130455999D03*
X90961840Y-130507369D03*
%TO.N,USB_UPSTREAM_D-*%
X89483196Y-129680063D03*
X91374500Y-129849004D03*
D25*
%TO.N,/CAN/CAN2-*%
X117400000Y-128125000D03*
X108892000Y-146615000D03*
%TO.N,/CAN/CAN2+*%
X108160000Y-147465000D03*
%TO.N,/CAN/CAN1-*%
X110024999Y-128276370D03*
X113430000Y-144542000D03*
X113650000Y-123130741D03*
%TO.N,/CAN/CAN1+*%
X118480000Y-130120001D03*
X112680000Y-145415000D03*
%TO.N,/CAN/CAN-*%
X105300000Y-121475000D03*
%TO.N,/CAN/CAN+*%
X106850001Y-121475000D03*
D24*
%TO.N,GND*%
X90135000Y-50540000D03*
%TD*%
D27*
%TO.N,/CAN/CAN1+*%
X118480000Y-130120001D02*
X118539103Y-130120001D01*
X118539103Y-130120001D02*
X118725000Y-129934104D01*
X118725000Y-129934104D02*
X118725000Y-126675000D01*
X118725000Y-126675000D02*
X122110000Y-123290000D01*
X122110000Y-123290000D02*
X122110000Y-123200000D01*
D28*
%TO.N,+12V*%
X106041704Y-135111003D02*
X107300000Y-133852707D01*
X107300000Y-133852707D02*
X107300000Y-131470001D01*
X107300000Y-131470001D02*
X104630000Y-128800001D01*
D27*
%TO.N,/CAN/CAN1-*%
X110024999Y-128276370D02*
X110050000Y-128251369D01*
X110050000Y-128251369D02*
X110050000Y-128150000D01*
X110050000Y-128150000D02*
X113650000Y-124550000D01*
X113650000Y-124550000D02*
X113650000Y-123130741D01*
D29*
%TO.N,+12V*%
X103832001Y-135111003D02*
X103812002Y-135131002D01*
X103812002Y-135131002D02*
X95831703Y-135131002D01*
X95831703Y-135131002D02*
X93900000Y-135131002D01*
D28*
%TO.N,GND*%
X107570000Y-128840000D02*
X107820000Y-129090000D01*
X107820000Y-129090000D02*
X107820000Y-129160000D01*
D29*
%TO.N,+12V*%
X106041704Y-135111003D02*
X108664000Y-137733299D01*
X108664000Y-137733299D02*
X108664000Y-138179002D01*
X93900000Y-135131002D02*
X91023339Y-135131002D01*
D28*
X101100000Y-132030001D02*
X101100000Y-133080001D01*
D29*
X103832001Y-135111003D02*
X106041704Y-135111003D01*
D27*
X94000000Y-132080001D02*
X94000000Y-135031002D01*
D28*
X101100000Y-133080001D02*
X103131002Y-135111003D01*
D29*
X89016000Y-137138341D02*
X89016000Y-138199001D01*
X91023339Y-135131002D02*
X89016000Y-137138341D01*
D27*
X94000000Y-135031002D02*
X93900000Y-135131002D01*
D28*
X103131002Y-135111003D02*
X103832001Y-135111003D01*
D30*
%TO.N,USB_UPSTREAM_D+*%
X90716971Y-130262500D02*
X89635999Y-130262500D01*
X89635999Y-130262500D02*
X89442500Y-130455999D01*
X90961840Y-130507369D02*
X90716971Y-130262500D01*
%TO.N,USB_UPSTREAM_D-*%
X91341004Y-129882500D02*
X89685633Y-129882500D01*
X91374500Y-129849004D02*
X91341004Y-129882500D01*
X89685633Y-129882500D02*
X89483196Y-129680063D01*
D27*
%TO.N,/CAN/CAN2-*%
X117310000Y-125640000D02*
X117310000Y-128035000D01*
D31*
X110696000Y-141544000D02*
X110696000Y-138200000D01*
D27*
X117310000Y-128035000D02*
X117400000Y-128125000D01*
D31*
X108744000Y-146467000D02*
X108744000Y-143496000D01*
D27*
X119570000Y-123380000D02*
X117310000Y-125640000D01*
X119570000Y-123200000D02*
X119570000Y-123380000D01*
D31*
X108744000Y-143496000D02*
X110696000Y-141544000D01*
X108892000Y-146615000D02*
X108744000Y-146467000D01*
%TO.N,/CAN/CAN2+*%
X110142000Y-140442001D02*
X109680000Y-139980001D01*
X108160000Y-147465000D02*
X108190000Y-147435000D01*
X108190000Y-147435000D02*
X108190000Y-143266526D01*
X110142000Y-141314526D02*
X110142000Y-140442001D01*
X108190000Y-143266526D02*
X110142000Y-141314526D01*
%TO.N,/CAN/CAN1-*%
X113282000Y-140442001D02*
X113744000Y-139980001D01*
X113282000Y-144394000D02*
X113282000Y-140442001D01*
X113430000Y-144542000D02*
X113282000Y-144394000D01*
%TO.N,/CAN/CAN1+*%
X112728000Y-145367000D02*
X112728000Y-138200000D01*
X112680000Y-145415000D02*
X112728000Y-145367000D01*
D27*
%TO.N,/CAN/CAN-*%
X105775000Y-119530734D02*
X107235734Y-118070000D01*
X109495000Y-115245000D02*
X109160000Y-115245000D01*
X107235734Y-118070000D02*
X109100000Y-118070000D01*
X105775000Y-121000000D02*
X105775000Y-119530734D01*
X110190000Y-116980000D02*
X110190000Y-115940000D01*
X105300000Y-121475000D02*
X105775000Y-121000000D01*
X109100000Y-118070000D02*
X110190000Y-116980000D01*
X110190000Y-115940000D02*
X109495000Y-115245000D01*
%TO.N,/CAN/CAN+*%
X110790000Y-115890000D02*
X111435000Y-115245000D01*
X106375001Y-119779265D02*
X107484266Y-118670000D01*
X111435000Y-115245000D02*
X111660000Y-115245000D01*
X110790000Y-117240000D02*
X110790000Y-115890000D01*
X107484266Y-118670000D02*
X109360000Y-118670000D01*
X106850001Y-121475000D02*
X106375001Y-121000000D01*
X106375001Y-121000000D02*
X106375001Y-119779265D01*
X109360000Y-118670000D02*
X110790000Y-117240000D01*
%TD*%
%TA.AperFunction,Conductor*%
%TO.N,GND*%
G36*
X138934108Y-49230502D02*
G01*
X138993042Y-49230502D01*
X139006922Y-49231282D01*
X139023411Y-49233139D01*
X139097267Y-49241460D01*
X139124332Y-49247638D01*
X139203538Y-49275353D01*
X139228548Y-49287397D01*
X139299605Y-49332045D01*
X139321309Y-49349355D01*
X139321312Y-49349357D01*
X139380644Y-49408689D01*
X139397954Y-49430395D01*
X139442601Y-49501451D01*
X139454646Y-49526463D01*
X139482360Y-49605664D01*
X139488539Y-49632736D01*
X139494610Y-49686618D01*
X139482556Y-49755439D01*
X139435206Y-49806819D01*
X139371390Y-49824501D01*
X110123992Y-49824501D01*
X110080313Y-49829198D01*
X110028825Y-49840398D01*
X110018627Y-49842891D01*
X110018624Y-49842892D01*
X109937916Y-49885900D01*
X109937913Y-49885902D01*
X109885104Y-49931661D01*
X109867160Y-49949243D01*
X109867154Y-49949250D01*
X109822511Y-50029060D01*
X109822509Y-50029065D01*
X109802826Y-50096097D01*
X109794500Y-50154004D01*
X109794500Y-63906008D01*
X109799197Y-63949687D01*
X109810397Y-64001175D01*
X109812890Y-64011373D01*
X109812891Y-64011376D01*
X109855899Y-64092084D01*
X109855901Y-64092087D01*
X109901660Y-64144896D01*
X109919242Y-64162840D01*
X109919246Y-64162844D01*
X109919247Y-64162845D01*
X109919249Y-64162846D01*
X109999059Y-64207489D01*
X109999063Y-64207491D01*
X110066102Y-64227176D01*
X110124000Y-64235501D01*
X124270500Y-64235501D01*
X124337539Y-64255186D01*
X124383294Y-64307990D01*
X124394500Y-64359501D01*
X124394500Y-91210018D01*
X124398760Y-91251647D01*
X124402350Y-91268997D01*
X124408939Y-91300849D01*
X124410805Y-91309024D01*
X124452159Y-91390597D01*
X124496827Y-91444323D01*
X124514049Y-91462633D01*
X124592940Y-91508899D01*
X124592941Y-91508899D01*
X124592944Y-91508901D01*
X124599303Y-91511727D01*
X124598478Y-91513583D01*
X124648228Y-91547011D01*
X124675949Y-91611146D01*
X124669918Y-91667236D01*
X124656398Y-91705875D01*
X124656395Y-91705883D01*
X124596299Y-91969186D01*
X124566063Y-92237544D01*
X124566063Y-92507621D01*
X124596299Y-92775979D01*
X124656395Y-93039282D01*
X124656396Y-93039284D01*
X124669825Y-93077662D01*
X124673386Y-93147441D01*
X124638657Y-93208068D01*
X124611098Y-93228048D01*
X124537916Y-93267045D01*
X124537913Y-93267047D01*
X124485104Y-93312806D01*
X124467160Y-93330388D01*
X124467154Y-93330395D01*
X124422511Y-93410205D01*
X124422509Y-93410210D01*
X124402826Y-93477242D01*
X124394500Y-93535149D01*
X124394500Y-134706008D01*
X124399197Y-134749687D01*
X124410397Y-134801175D01*
X124412890Y-134811373D01*
X124412891Y-134811376D01*
X124455899Y-134892084D01*
X124455901Y-134892087D01*
X124501660Y-134944896D01*
X124519242Y-134962840D01*
X124519246Y-134962844D01*
X124519247Y-134962845D01*
X124519249Y-134962846D01*
X124598516Y-135007185D01*
X124599063Y-135007491D01*
X124666102Y-135027176D01*
X124724000Y-135035501D01*
X124724004Y-135035501D01*
X139375500Y-135035501D01*
X139442539Y-135055186D01*
X139488294Y-135107990D01*
X139499500Y-135159501D01*
X139499500Y-147473038D01*
X139498720Y-147486923D01*
X139488540Y-147577265D01*
X139482362Y-147604334D01*
X139454648Y-147683537D01*
X139442600Y-147708555D01*
X139397957Y-147779604D01*
X139380644Y-147801313D01*
X139321313Y-147860644D01*
X139299604Y-147877957D01*
X139228552Y-147922602D01*
X139203537Y-147934648D01*
X139203535Y-147934649D01*
X139124337Y-147962362D01*
X139097265Y-147968541D01*
X139006911Y-147978721D01*
X138993028Y-147979501D01*
X109399494Y-147979501D01*
X109332455Y-147959816D01*
X109286700Y-147907012D01*
X109276756Y-147837854D01*
X109281563Y-147817184D01*
X109297379Y-147768506D01*
X109336816Y-147710830D01*
X109359010Y-147696341D01*
X109508096Y-147620378D01*
X109657787Y-147511621D01*
X109788621Y-147380787D01*
X109897378Y-147231096D01*
X109981379Y-147066235D01*
X110038555Y-146890264D01*
X110067500Y-146707514D01*
X110067500Y-146522486D01*
X110038555Y-146339736D01*
X110009967Y-146251750D01*
X109981380Y-146163767D01*
X109981379Y-146163764D01*
X109938577Y-146079763D01*
X109897378Y-145998904D01*
X109795181Y-145858242D01*
X109771702Y-145792437D01*
X109771500Y-145785358D01*
X109771500Y-143972966D01*
X109791185Y-143905927D01*
X109807819Y-143885285D01*
X111488819Y-142204286D01*
X111550142Y-142170801D01*
X111619834Y-142175785D01*
X111675767Y-142217657D01*
X111700184Y-142283121D01*
X111700500Y-142291967D01*
X111700500Y-144722995D01*
X111680815Y-144790034D01*
X111676821Y-144795877D01*
X111674622Y-144798902D01*
X111590620Y-144963764D01*
X111590619Y-144963767D01*
X111533445Y-145139734D01*
X111504500Y-145322486D01*
X111504500Y-145507513D01*
X111533445Y-145690265D01*
X111590619Y-145866232D01*
X111590620Y-145866235D01*
X111658219Y-145998903D01*
X111674622Y-146031096D01*
X111783379Y-146180787D01*
X111914213Y-146311621D01*
X112063904Y-146420378D01*
X112144763Y-146461577D01*
X112228764Y-146504379D01*
X112228767Y-146504380D01*
X112284493Y-146522486D01*
X112404736Y-146561555D01*
X112587486Y-146590500D01*
X112587487Y-146590500D01*
X112772513Y-146590500D01*
X112772514Y-146590500D01*
X112955264Y-146561555D01*
X113131235Y-146504379D01*
X113296096Y-146420378D01*
X113445787Y-146311621D01*
X113576621Y-146180787D01*
X113685378Y-146031096D01*
X113769379Y-145866235D01*
X113822763Y-145701933D01*
X113862200Y-145644258D01*
X113884393Y-145629769D01*
X114046096Y-145547378D01*
X114195787Y-145438621D01*
X114326621Y-145307787D01*
X114435378Y-145158096D01*
X114519379Y-144993235D01*
X114576555Y-144817264D01*
X114605500Y-144634514D01*
X114605500Y-144449486D01*
X114576555Y-144266736D01*
X114519379Y-144090765D01*
X114519379Y-144090764D01*
X114459357Y-143972966D01*
X114435378Y-143925904D01*
X114333181Y-143785242D01*
X114309702Y-143719437D01*
X114309500Y-143712358D01*
X114309500Y-142396804D01*
X114654500Y-142396804D01*
X114654500Y-142643197D01*
X114672487Y-142779815D01*
X114686659Y-142887460D01*
X114707922Y-142966814D01*
X114750425Y-143125441D01*
X114844708Y-143353059D01*
X114844712Y-143353069D01*
X114967899Y-143566435D01*
X115117883Y-143761899D01*
X115117889Y-143761906D01*
X115292094Y-143936111D01*
X115292101Y-143936117D01*
X115487565Y-144086101D01*
X115700931Y-144209288D01*
X115700932Y-144209288D01*
X115700935Y-144209290D01*
X115928558Y-144303575D01*
X116166541Y-144367342D01*
X116410811Y-144399501D01*
X116410818Y-144399501D01*
X116657182Y-144399501D01*
X116657189Y-144399501D01*
X116901459Y-144367342D01*
X117139442Y-144303575D01*
X117367065Y-144209290D01*
X117580435Y-144086101D01*
X117775900Y-143936116D01*
X117950115Y-143761901D01*
X118100100Y-143566436D01*
X118223289Y-143353066D01*
X118317574Y-143125443D01*
X118381341Y-142887460D01*
X118413500Y-142643190D01*
X118413500Y-142396812D01*
X118381341Y-142152542D01*
X118317574Y-141914559D01*
X118223289Y-141686936D01*
X118100100Y-141473566D01*
X117950116Y-141278102D01*
X117950110Y-141278095D01*
X117775905Y-141103890D01*
X117775898Y-141103884D01*
X117580434Y-140953900D01*
X117367068Y-140830713D01*
X117367058Y-140830709D01*
X117139440Y-140736426D01*
X116976100Y-140692660D01*
X116901459Y-140672660D01*
X116860636Y-140667285D01*
X116657196Y-140640501D01*
X116657189Y-140640501D01*
X116410811Y-140640501D01*
X116410803Y-140640501D01*
X116178299Y-140671111D01*
X116166541Y-140672660D01*
X116133191Y-140681596D01*
X115928559Y-140736426D01*
X115700941Y-140830709D01*
X115700931Y-140830713D01*
X115487565Y-140953900D01*
X115292101Y-141103884D01*
X115292094Y-141103890D01*
X115117889Y-141278095D01*
X115117883Y-141278102D01*
X114967899Y-141473566D01*
X114844712Y-141686932D01*
X114844708Y-141686942D01*
X114750425Y-141914560D01*
X114686660Y-142152539D01*
X114686658Y-142152550D01*
X114654500Y-142396804D01*
X114309500Y-142396804D01*
X114309500Y-140981501D01*
X114329185Y-140914462D01*
X114381989Y-140868707D01*
X114433500Y-140857501D01*
X114506559Y-140857501D01*
X114513957Y-140856029D01*
X114543748Y-140850103D01*
X114585922Y-140821923D01*
X114614102Y-140779749D01*
X114621500Y-140742559D01*
X114621500Y-140553794D01*
X114641185Y-140486755D01*
X114642399Y-140484902D01*
X114654559Y-140466704D01*
X114732014Y-140279712D01*
X114770461Y-140086430D01*
X114771501Y-140081203D01*
X114771501Y-139878797D01*
X114732015Y-139680295D01*
X114732014Y-139680294D01*
X114732014Y-139680290D01*
X114654559Y-139493297D01*
X114654558Y-139493295D01*
X114642397Y-139475094D01*
X114621520Y-139408416D01*
X114621500Y-139406205D01*
X114621500Y-139217442D01*
X114618502Y-139202371D01*
X114614102Y-139180253D01*
X114607395Y-139170215D01*
X114585922Y-139138078D01*
X114543749Y-139109899D01*
X114506559Y-139102501D01*
X114506558Y-139102501D01*
X114317795Y-139102501D01*
X114250756Y-139082816D01*
X114248935Y-139081624D01*
X114230704Y-139069442D01*
X114230701Y-139069440D01*
X114230700Y-139069440D01*
X114043711Y-138991987D01*
X114043705Y-138991985D01*
X113855308Y-138954509D01*
X113793397Y-138922123D01*
X113758823Y-138861407D01*
X113755500Y-138832892D01*
X113755500Y-138098799D01*
X113755499Y-138098795D01*
X113729894Y-137970069D01*
X113716014Y-137900289D01*
X113638559Y-137713296D01*
X113638558Y-137713295D01*
X113638555Y-137713289D01*
X113526112Y-137545007D01*
X113526109Y-137545003D01*
X113382996Y-137401890D01*
X113382992Y-137401887D01*
X113214710Y-137289444D01*
X113214701Y-137289439D01*
X113027711Y-137211986D01*
X113027703Y-137211984D01*
X112829204Y-137172500D01*
X112829200Y-137172500D01*
X112626800Y-137172500D01*
X112626795Y-137172500D01*
X112428296Y-137211984D01*
X112428288Y-137211986D01*
X112241298Y-137289439D01*
X112241289Y-137289444D01*
X112073007Y-137401887D01*
X112073003Y-137401890D01*
X111929890Y-137545003D01*
X111929887Y-137545007D01*
X111815102Y-137716795D01*
X111761490Y-137761600D01*
X111692165Y-137770307D01*
X111629137Y-137740152D01*
X111608898Y-137716795D01*
X111494112Y-137545007D01*
X111494109Y-137545003D01*
X111350996Y-137401890D01*
X111350992Y-137401887D01*
X111182710Y-137289444D01*
X111182701Y-137289439D01*
X110995711Y-137211986D01*
X110995703Y-137211984D01*
X110797204Y-137172500D01*
X110797200Y-137172500D01*
X110594800Y-137172500D01*
X110594795Y-137172500D01*
X110396296Y-137211984D01*
X110396288Y-137211986D01*
X110209298Y-137289439D01*
X110209289Y-137289444D01*
X110041007Y-137401887D01*
X110041003Y-137401890D01*
X109897890Y-137545003D01*
X109897887Y-137545007D01*
X109831314Y-137644640D01*
X109777701Y-137689445D01*
X109708376Y-137698152D01*
X109645349Y-137667997D01*
X109608630Y-137608554D01*
X109606595Y-137599940D01*
X109589972Y-137516374D01*
X109577973Y-137456048D01*
X109522656Y-137322501D01*
X109506323Y-137283069D01*
X109506322Y-137283067D01*
X109506321Y-137283065D01*
X109402302Y-137127391D01*
X109402299Y-137127387D01*
X109266754Y-136991842D01*
X109185160Y-136910248D01*
X123949500Y-136910248D01*
X123949500Y-138949753D01*
X123961131Y-139008230D01*
X123961132Y-139008231D01*
X124005447Y-139074553D01*
X124071769Y-139118868D01*
X124071770Y-139118869D01*
X124130247Y-139130500D01*
X124130250Y-139130501D01*
X124130252Y-139130501D01*
X125069750Y-139130501D01*
X125069751Y-139130500D01*
X125084568Y-139127553D01*
X125128229Y-139118869D01*
X125128229Y-139118868D01*
X125128231Y-139118868D01*
X125194552Y-139074553D01*
X125238867Y-139008232D01*
X125238867Y-139008230D01*
X125238868Y-139008230D01*
X125249553Y-138954509D01*
X125250500Y-138949749D01*
X125250500Y-136910253D01*
X125250500Y-136910250D01*
X125250499Y-136910248D01*
X137449500Y-136910248D01*
X137449500Y-138949753D01*
X137461131Y-139008230D01*
X137461132Y-139008231D01*
X137505447Y-139074553D01*
X137571769Y-139118868D01*
X137571770Y-139118869D01*
X137630247Y-139130500D01*
X137630250Y-139130501D01*
X137630252Y-139130501D01*
X138569750Y-139130501D01*
X138569751Y-139130500D01*
X138584568Y-139127553D01*
X138628229Y-139118869D01*
X138628229Y-139118868D01*
X138628231Y-139118868D01*
X138694552Y-139074553D01*
X138738867Y-139008232D01*
X138738867Y-139008230D01*
X138738868Y-139008230D01*
X138749553Y-138954509D01*
X138750500Y-138949749D01*
X138750500Y-136910253D01*
X138750500Y-136910250D01*
X138750499Y-136910248D01*
X138738868Y-136851771D01*
X138738867Y-136851770D01*
X138694552Y-136785448D01*
X138628230Y-136741133D01*
X138628229Y-136741132D01*
X138569752Y-136729501D01*
X138569748Y-136729501D01*
X137630252Y-136729501D01*
X137630247Y-136729501D01*
X137571770Y-136741132D01*
X137571769Y-136741133D01*
X137505447Y-136785448D01*
X137461132Y-136851770D01*
X137461131Y-136851771D01*
X137449500Y-136910248D01*
X125250499Y-136910248D01*
X125238868Y-136851771D01*
X125238867Y-136851770D01*
X125194552Y-136785448D01*
X125128230Y-136741133D01*
X125128229Y-136741132D01*
X125069752Y-136729501D01*
X125069748Y-136729501D01*
X124130252Y-136729501D01*
X124130247Y-136729501D01*
X124071770Y-136741132D01*
X124071769Y-136741133D01*
X124005447Y-136785448D01*
X123961132Y-136851770D01*
X123961131Y-136851771D01*
X123949500Y-136910248D01*
X109185160Y-136910248D01*
X107122869Y-134847958D01*
X107089384Y-134786635D01*
X107094368Y-134716943D01*
X107122865Y-134672601D01*
X107568860Y-134226605D01*
X107568865Y-134226602D01*
X107579068Y-134216398D01*
X107579070Y-134216398D01*
X107663691Y-134131777D01*
X107723527Y-134028138D01*
X107754500Y-133912543D01*
X107754500Y-133293570D01*
X113876500Y-133293570D01*
X113876500Y-133466431D01*
X113910219Y-133635950D01*
X113910222Y-133635959D01*
X113976369Y-133795653D01*
X113976370Y-133795656D01*
X114072400Y-133939374D01*
X114072403Y-133939378D01*
X114194622Y-134061597D01*
X114194626Y-134061600D01*
X114338344Y-134157630D01*
X114338346Y-134157630D01*
X114338348Y-134157632D01*
X114498043Y-134223779D01*
X114498045Y-134223779D01*
X114498050Y-134223781D01*
X114667569Y-134257500D01*
X114667572Y-134257501D01*
X114667574Y-134257501D01*
X114840428Y-134257501D01*
X114840429Y-134257500D01*
X114909421Y-134243777D01*
X115009949Y-134223781D01*
X115009952Y-134223779D01*
X115009957Y-134223779D01*
X115169652Y-134157632D01*
X115313374Y-134061600D01*
X115435599Y-133939375D01*
X115531631Y-133795653D01*
X115597778Y-133635958D01*
X115601106Y-133619231D01*
X115627521Y-133486430D01*
X115631500Y-133466427D01*
X115631500Y-133293575D01*
X115631500Y-133293572D01*
X115631499Y-133293570D01*
X115597780Y-133124051D01*
X115597777Y-133124042D01*
X115589336Y-133103663D01*
X115531631Y-132964349D01*
X115531629Y-132964347D01*
X115531629Y-132964345D01*
X115435599Y-132820627D01*
X115435596Y-132820623D01*
X115313377Y-132698404D01*
X115313373Y-132698401D01*
X115169655Y-132602371D01*
X115169652Y-132602370D01*
X115009958Y-132536223D01*
X115009949Y-132536220D01*
X114840429Y-132502501D01*
X114840426Y-132502501D01*
X114667574Y-132502501D01*
X114667571Y-132502501D01*
X114498050Y-132536220D01*
X114498041Y-132536223D01*
X114338347Y-132602370D01*
X114338344Y-132602371D01*
X114194626Y-132698401D01*
X114194622Y-132698404D01*
X114072403Y-132820623D01*
X114072400Y-132820627D01*
X113976370Y-132964345D01*
X113976369Y-132964348D01*
X113910222Y-133124042D01*
X113910219Y-133124051D01*
X113876500Y-133293570D01*
X107754500Y-133293570D01*
X107754500Y-131539839D01*
X107754501Y-131539826D01*
X107754501Y-131410167D01*
X107754501Y-131410165D01*
X107723527Y-131294570D01*
X107707353Y-131266556D01*
X107663691Y-131190931D01*
X107579070Y-131106310D01*
X107579067Y-131106308D01*
X105701770Y-129229011D01*
X105668285Y-129167688D01*
X105667834Y-129117141D01*
X105680500Y-129053466D01*
X105680500Y-128546536D01*
X105640130Y-128343581D01*
X105573969Y-128183856D01*
X108849499Y-128183856D01*
X108849499Y-128368883D01*
X108878444Y-128551635D01*
X108935618Y-128727602D01*
X108935619Y-128727605D01*
X109018766Y-128890788D01*
X109019621Y-128892466D01*
X109128378Y-129042157D01*
X109259212Y-129172991D01*
X109408903Y-129281748D01*
X109445706Y-129300500D01*
X109573763Y-129365749D01*
X109573766Y-129365750D01*
X109661749Y-129394337D01*
X109749735Y-129422925D01*
X109932485Y-129451870D01*
X109932486Y-129451870D01*
X110117512Y-129451870D01*
X110117513Y-129451870D01*
X110300263Y-129422925D01*
X110476234Y-129365749D01*
X110641095Y-129281748D01*
X110790786Y-129172991D01*
X110921620Y-129042157D01*
X111030377Y-128892466D01*
X111114378Y-128727605D01*
X111171554Y-128551634D01*
X111172319Y-128546806D01*
X111202245Y-128483670D01*
X111207094Y-128478535D01*
X111653143Y-128032486D01*
X116224500Y-128032486D01*
X116224500Y-128037589D01*
X116224500Y-128217513D01*
X116253445Y-128400265D01*
X116310619Y-128576232D01*
X116310620Y-128576235D01*
X116387746Y-128727602D01*
X116394622Y-128741096D01*
X116503379Y-128890787D01*
X116634213Y-129021621D01*
X116783904Y-129130378D01*
X116831370Y-129154563D01*
X116948764Y-129214379D01*
X116948767Y-129214380D01*
X117036750Y-129242967D01*
X117124736Y-129271555D01*
X117307486Y-129300500D01*
X117307487Y-129300500D01*
X117379040Y-129300500D01*
X117446079Y-129320185D01*
X117491834Y-129372989D01*
X117501778Y-129442147D01*
X117479360Y-129497383D01*
X117474623Y-129503903D01*
X117390620Y-129668765D01*
X117390619Y-129668768D01*
X117333445Y-129844735D01*
X117304500Y-130027487D01*
X117304500Y-130212514D01*
X117333445Y-130395266D01*
X117390619Y-130571233D01*
X117390620Y-130571236D01*
X117461429Y-130710204D01*
X117474622Y-130736097D01*
X117583379Y-130885788D01*
X117714213Y-131016622D01*
X117863904Y-131125379D01*
X117944763Y-131166578D01*
X118028764Y-131209380D01*
X118028767Y-131209381D01*
X118116750Y-131237968D01*
X118204736Y-131266556D01*
X118387486Y-131295501D01*
X118387487Y-131295501D01*
X118572513Y-131295501D01*
X118572514Y-131295501D01*
X118755264Y-131266556D01*
X118931235Y-131209380D01*
X119096096Y-131125379D01*
X119245787Y-131016622D01*
X119376621Y-130885788D01*
X119485378Y-130736097D01*
X119569379Y-130571236D01*
X119570391Y-130568120D01*
X119585220Y-130537542D01*
X119655941Y-130431702D01*
X119735130Y-130240524D01*
X119775500Y-130037569D01*
X119775500Y-127161492D01*
X119795185Y-127094453D01*
X119811814Y-127073816D01*
X121948811Y-124936818D01*
X122010134Y-124903334D01*
X122036492Y-124900500D01*
X122221450Y-124900500D01*
X122221457Y-124900500D01*
X122442463Y-124871404D01*
X122657781Y-124813710D01*
X122863726Y-124728405D01*
X123056774Y-124616948D01*
X123233624Y-124481247D01*
X123391247Y-124323624D01*
X123526948Y-124146774D01*
X123638405Y-123953726D01*
X123723710Y-123747781D01*
X123781404Y-123532463D01*
X123810500Y-123311457D01*
X123810500Y-123088543D01*
X123781404Y-122867537D01*
X123723710Y-122652219D01*
X123638405Y-122446274D01*
X123526948Y-122253226D01*
X123391247Y-122076376D01*
X123391242Y-122076370D01*
X123233629Y-121918757D01*
X123233622Y-121918751D01*
X123056782Y-121783058D01*
X123056780Y-121783057D01*
X123056774Y-121783052D01*
X122863726Y-121671595D01*
X122863722Y-121671593D01*
X122657790Y-121586293D01*
X122657783Y-121586291D01*
X122657781Y-121586290D01*
X122442463Y-121528596D01*
X122442457Y-121528595D01*
X122442452Y-121528594D01*
X122221466Y-121499501D01*
X122221463Y-121499500D01*
X122221457Y-121499500D01*
X121998543Y-121499500D01*
X121998537Y-121499500D01*
X121998533Y-121499501D01*
X121777547Y-121528594D01*
X121777540Y-121528595D01*
X121777537Y-121528596D01*
X121562219Y-121586290D01*
X121562209Y-121586293D01*
X121356277Y-121671593D01*
X121356273Y-121671595D01*
X121163226Y-121783052D01*
X121163217Y-121783058D01*
X120986377Y-121918751D01*
X120986370Y-121918757D01*
X120927681Y-121977447D01*
X120866358Y-122010932D01*
X120796666Y-122005948D01*
X120752319Y-121977447D01*
X120693629Y-121918757D01*
X120693622Y-121918751D01*
X120516782Y-121783058D01*
X120516780Y-121783057D01*
X120516774Y-121783052D01*
X120323726Y-121671595D01*
X120323722Y-121671593D01*
X120117790Y-121586293D01*
X120117783Y-121586291D01*
X120117781Y-121586290D01*
X119902463Y-121528596D01*
X119902457Y-121528595D01*
X119902452Y-121528594D01*
X119681466Y-121499501D01*
X119681463Y-121499500D01*
X119681457Y-121499500D01*
X119458543Y-121499500D01*
X119458537Y-121499500D01*
X119458533Y-121499501D01*
X119237547Y-121528594D01*
X119237540Y-121528595D01*
X119237537Y-121528596D01*
X119022219Y-121586290D01*
X119022209Y-121586293D01*
X118816277Y-121671593D01*
X118816273Y-121671595D01*
X118623226Y-121783052D01*
X118623217Y-121783058D01*
X118446377Y-121918751D01*
X118446370Y-121918757D01*
X118288757Y-122076370D01*
X118288751Y-122076377D01*
X118153058Y-122253217D01*
X118153052Y-122253226D01*
X118041595Y-122446273D01*
X118041593Y-122446277D01*
X117956293Y-122652209D01*
X117956290Y-122652219D01*
X117901828Y-122855477D01*
X117898597Y-122867534D01*
X117898594Y-122867547D01*
X117869501Y-123088533D01*
X117869500Y-123088549D01*
X117869500Y-123311450D01*
X117869501Y-123311467D01*
X117894489Y-123501270D01*
X117883723Y-123570305D01*
X117859231Y-123605136D01*
X117140746Y-124323622D01*
X116640347Y-124824021D01*
X116640345Y-124824023D01*
X116592966Y-124871402D01*
X116494023Y-124970344D01*
X116379058Y-125142403D01*
X116299870Y-125333579D01*
X116299868Y-125333587D01*
X116259500Y-125536530D01*
X116259500Y-127811460D01*
X116258100Y-127820295D01*
X116257906Y-127831280D01*
X116256380Y-127840701D01*
X116253445Y-127849736D01*
X116224500Y-128032486D01*
X111653143Y-128032486D01*
X114465977Y-125219655D01*
X114580942Y-125047598D01*
X114660130Y-124856420D01*
X114685594Y-124728405D01*
X114700501Y-124653467D01*
X114700501Y-124441425D01*
X114700500Y-124441399D01*
X114700500Y-123688050D01*
X114714016Y-123631754D01*
X114739377Y-123581981D01*
X114739380Y-123581973D01*
X114755466Y-123532465D01*
X114796555Y-123406005D01*
X114825500Y-123223255D01*
X114825500Y-123038227D01*
X114796555Y-122855477D01*
X114739379Y-122679506D01*
X114739379Y-122679505D01*
X114655377Y-122514644D01*
X114546621Y-122364954D01*
X114415787Y-122234120D01*
X114266096Y-122125363D01*
X114101235Y-122041361D01*
X114101232Y-122041360D01*
X113925265Y-121984186D01*
X113833889Y-121969713D01*
X113742514Y-121955241D01*
X113557486Y-121955241D01*
X113496569Y-121964889D01*
X113374734Y-121984186D01*
X113198767Y-122041360D01*
X113198764Y-122041361D01*
X113033903Y-122125363D01*
X112948499Y-122187413D01*
X112884213Y-122234120D01*
X112884211Y-122234122D01*
X112884210Y-122234122D01*
X112753381Y-122364951D01*
X112753381Y-122364952D01*
X112753379Y-122364954D01*
X112720487Y-122410226D01*
X112644622Y-122514644D01*
X112560620Y-122679505D01*
X112560619Y-122679508D01*
X112503445Y-122855475D01*
X112474500Y-123038227D01*
X112474500Y-123223254D01*
X112503445Y-123406006D01*
X112560619Y-123581973D01*
X112560622Y-123581981D01*
X112585984Y-123631754D01*
X112599500Y-123688050D01*
X112599500Y-124063506D01*
X112579815Y-124130545D01*
X112563181Y-124151187D01*
X109493077Y-127221290D01*
X109461694Y-127244092D01*
X109408903Y-127270991D01*
X109312134Y-127341298D01*
X109259212Y-127379749D01*
X109259210Y-127379751D01*
X109259209Y-127379751D01*
X109128380Y-127510580D01*
X109128380Y-127510581D01*
X109128378Y-127510583D01*
X109081671Y-127574869D01*
X109019621Y-127660273D01*
X108935619Y-127825134D01*
X108935618Y-127825137D01*
X108878444Y-128001104D01*
X108849499Y-128183856D01*
X105573969Y-128183856D01*
X105560941Y-128152403D01*
X105445977Y-127980346D01*
X105445975Y-127980343D01*
X105299657Y-127834025D01*
X105213626Y-127776542D01*
X105127598Y-127719060D01*
X104985674Y-127660273D01*
X104936420Y-127639871D01*
X104936412Y-127639869D01*
X104733469Y-127599501D01*
X104733465Y-127599501D01*
X104526535Y-127599501D01*
X104526530Y-127599501D01*
X104323587Y-127639869D01*
X104323579Y-127639871D01*
X104132403Y-127719059D01*
X103960342Y-127834025D01*
X103814024Y-127980343D01*
X103699058Y-128152404D01*
X103619870Y-128343580D01*
X103619868Y-128343588D01*
X103579500Y-128546531D01*
X103579500Y-129053470D01*
X103619868Y-129256413D01*
X103619870Y-129256421D01*
X103688838Y-129422925D01*
X103699059Y-129447599D01*
X103736680Y-129503903D01*
X103814024Y-129619658D01*
X103960342Y-129765976D01*
X103960345Y-129765978D01*
X104132402Y-129880942D01*
X104323580Y-129960131D01*
X104526530Y-130000500D01*
X104526534Y-130000501D01*
X104526535Y-130000501D01*
X104733466Y-130000501D01*
X104733467Y-130000500D01*
X104936420Y-129960131D01*
X105009035Y-129930051D01*
X105078503Y-129922582D01*
X105140983Y-129953856D01*
X105144170Y-129956931D01*
X106809181Y-131621942D01*
X106842666Y-131683265D01*
X106845500Y-131709623D01*
X106845500Y-133613084D01*
X106825815Y-133680123D01*
X106809181Y-133700765D01*
X106360784Y-134149161D01*
X106353818Y-134152964D01*
X106349176Y-134159403D01*
X106323590Y-134169470D01*
X106299461Y-134182646D01*
X106289887Y-134182731D01*
X106284158Y-134184986D01*
X106248915Y-134183098D01*
X106238551Y-134181036D01*
X106221429Y-134177631D01*
X106180401Y-134169470D01*
X106135323Y-134160503D01*
X106135321Y-134160503D01*
X106135320Y-134160503D01*
X104083834Y-134160503D01*
X104016795Y-134140818D01*
X103971040Y-134088014D01*
X103961096Y-134018856D01*
X103990121Y-133955300D01*
X103996153Y-133948822D01*
X104005596Y-133939378D01*
X104005599Y-133939375D01*
X104101631Y-133795653D01*
X104167778Y-133635958D01*
X104171106Y-133619231D01*
X104197521Y-133486430D01*
X104201500Y-133466427D01*
X104201500Y-133293575D01*
X104201500Y-133293572D01*
X104201499Y-133293570D01*
X104167780Y-133124051D01*
X104167777Y-133124042D01*
X104159336Y-133103663D01*
X104101631Y-132964349D01*
X104101629Y-132964347D01*
X104101629Y-132964345D01*
X104005599Y-132820627D01*
X104005596Y-132820623D01*
X103883377Y-132698404D01*
X103883373Y-132698401D01*
X103739655Y-132602371D01*
X103739652Y-132602370D01*
X103579958Y-132536223D01*
X103579949Y-132536220D01*
X103410429Y-132502501D01*
X103410426Y-132502501D01*
X103237574Y-132502501D01*
X103237571Y-132502501D01*
X103068050Y-132536220D01*
X103068041Y-132536223D01*
X102908347Y-132602370D01*
X102908344Y-132602371D01*
X102764626Y-132698401D01*
X102764622Y-132698404D01*
X102642403Y-132820623D01*
X102642400Y-132820627D01*
X102546370Y-132964345D01*
X102546369Y-132964348D01*
X102480222Y-133124042D01*
X102480219Y-133124051D01*
X102446500Y-133293570D01*
X102446500Y-133466429D01*
X102447097Y-133472492D01*
X102444555Y-133472742D01*
X102439293Y-133531255D01*
X102396406Y-133586413D01*
X102330506Y-133609628D01*
X102262516Y-133593530D01*
X102236243Y-133573484D01*
X101590819Y-132928060D01*
X101557334Y-132866737D01*
X101554500Y-132840379D01*
X101554500Y-132276560D01*
X101563941Y-132229103D01*
X101566388Y-132223193D01*
X101566392Y-132223187D01*
X101600500Y-132095893D01*
X101600500Y-131964109D01*
X101566392Y-131836815D01*
X101500500Y-131722687D01*
X101407314Y-131629501D01*
X101320712Y-131579501D01*
X101293187Y-131563609D01*
X101204474Y-131539839D01*
X101165892Y-131529501D01*
X101034108Y-131529501D01*
X100906812Y-131563609D01*
X100792686Y-131629501D01*
X100792683Y-131629503D01*
X100699502Y-131722684D01*
X100699500Y-131722687D01*
X100633608Y-131836813D01*
X100599500Y-131964109D01*
X100599500Y-132095892D01*
X100633608Y-132223187D01*
X100636059Y-132229103D01*
X100645500Y-132276560D01*
X100645500Y-133012552D01*
X100645499Y-133012570D01*
X100645499Y-133020165D01*
X100645499Y-133139837D01*
X100646626Y-133144043D01*
X100669926Y-133231001D01*
X100676472Y-133255430D01*
X100676474Y-133255435D01*
X100736306Y-133359067D01*
X100736311Y-133359073D01*
X100827995Y-133450757D01*
X100828001Y-133450762D01*
X101346060Y-133968821D01*
X101379545Y-134030144D01*
X101374561Y-134099836D01*
X101332689Y-134155769D01*
X101267225Y-134180186D01*
X101258379Y-134180502D01*
X95865834Y-134180502D01*
X95798795Y-134160817D01*
X95753040Y-134108013D01*
X95743096Y-134038855D01*
X95772121Y-133975299D01*
X95778153Y-133968821D01*
X95787596Y-133959377D01*
X95787599Y-133959374D01*
X95883631Y-133815652D01*
X95949778Y-133655957D01*
X95957084Y-133619231D01*
X95983499Y-133486430D01*
X95983500Y-133486428D01*
X95983500Y-133313571D01*
X95983499Y-133313569D01*
X95949780Y-133144050D01*
X95949777Y-133144041D01*
X95941493Y-133124042D01*
X95883631Y-132984348D01*
X95883629Y-132984346D01*
X95883629Y-132984344D01*
X95787599Y-132840626D01*
X95787596Y-132840622D01*
X95665377Y-132718403D01*
X95665373Y-132718400D01*
X95521655Y-132622370D01*
X95521652Y-132622369D01*
X95361958Y-132556222D01*
X95361949Y-132556219D01*
X95192429Y-132522500D01*
X95192426Y-132522500D01*
X95019574Y-132522500D01*
X95019571Y-132522500D01*
X94850050Y-132556219D01*
X94850041Y-132556222D01*
X94690347Y-132622369D01*
X94690344Y-132622370D01*
X94543391Y-132720562D01*
X94533690Y-132723599D01*
X94526011Y-132730254D01*
X94500911Y-132733862D01*
X94476713Y-132741440D01*
X94466913Y-132738751D01*
X94456853Y-132740198D01*
X94433784Y-132729663D01*
X94409333Y-132722955D01*
X94402542Y-132715395D01*
X94393297Y-132711173D01*
X94379587Y-132689841D01*
X94362643Y-132670977D01*
X94360011Y-132659379D01*
X94355523Y-132652395D01*
X94350500Y-132617460D01*
X94350500Y-132488677D01*
X94370185Y-132421638D01*
X94386819Y-132400996D01*
X94400500Y-132387315D01*
X94466392Y-132273187D01*
X94500500Y-132145893D01*
X94500500Y-132014109D01*
X94466392Y-131886815D01*
X94400500Y-131772687D01*
X94307314Y-131679501D01*
X94250250Y-131646555D01*
X94193187Y-131613609D01*
X94129539Y-131596555D01*
X94065892Y-131579501D01*
X93934108Y-131579501D01*
X93806812Y-131613609D01*
X93692686Y-131679501D01*
X93692683Y-131679503D01*
X93599502Y-131772684D01*
X93599500Y-131772687D01*
X93533608Y-131886813D01*
X93499500Y-132014109D01*
X93499500Y-132145892D01*
X93533608Y-132273188D01*
X93535555Y-132276560D01*
X93599500Y-132387315D01*
X93599502Y-132387317D01*
X93613181Y-132400996D01*
X93646666Y-132462319D01*
X93649500Y-132488677D01*
X93649500Y-134056502D01*
X93629815Y-134123541D01*
X93577011Y-134169296D01*
X93525500Y-134180502D01*
X90929717Y-134180502D01*
X90746095Y-134217027D01*
X90746087Y-134217029D01*
X90681511Y-134243778D01*
X90681510Y-134243778D01*
X90573108Y-134288679D01*
X90573105Y-134288680D01*
X90417430Y-134392700D01*
X90417426Y-134392703D01*
X88277700Y-136532429D01*
X88277697Y-136532433D01*
X88173680Y-136688104D01*
X88173675Y-136688113D01*
X88134456Y-136782799D01*
X88102027Y-136861088D01*
X88102024Y-136861097D01*
X88065500Y-137044720D01*
X88065500Y-137914563D01*
X88045815Y-137981602D01*
X87993011Y-138027357D01*
X87923853Y-138037301D01*
X87860297Y-138008276D01*
X87826939Y-137962015D01*
X87801374Y-137900296D01*
X87761632Y-137804348D01*
X87761630Y-137804346D01*
X87761630Y-137804344D01*
X87665600Y-137660626D01*
X87665597Y-137660622D01*
X87543378Y-137538403D01*
X87543374Y-137538400D01*
X87399656Y-137442370D01*
X87399653Y-137442369D01*
X87239959Y-137376222D01*
X87239950Y-137376219D01*
X87070430Y-137342500D01*
X87070427Y-137342500D01*
X86897575Y-137342500D01*
X86897572Y-137342500D01*
X86728051Y-137376219D01*
X86728042Y-137376222D01*
X86568348Y-137442369D01*
X86568345Y-137442370D01*
X86424627Y-137538400D01*
X86424623Y-137538403D01*
X86302404Y-137660622D01*
X86302401Y-137660626D01*
X86206371Y-137804344D01*
X86206370Y-137804347D01*
X86140223Y-137964041D01*
X86140220Y-137964050D01*
X86106501Y-138133569D01*
X86106501Y-138306430D01*
X86140220Y-138475949D01*
X86140223Y-138475958D01*
X86206370Y-138635652D01*
X86206371Y-138635655D01*
X86302401Y-138779373D01*
X86302404Y-138779377D01*
X86424623Y-138901596D01*
X86424627Y-138901599D01*
X86568345Y-138997629D01*
X86568347Y-138997629D01*
X86568349Y-138997631D01*
X86728044Y-139063778D01*
X86728046Y-139063778D01*
X86728051Y-139063780D01*
X86897570Y-139097499D01*
X86897573Y-139097500D01*
X86897575Y-139097500D01*
X87070429Y-139097500D01*
X87070430Y-139097499D01*
X87144248Y-139082816D01*
X87239950Y-139063780D01*
X87239953Y-139063778D01*
X87239958Y-139063778D01*
X87399653Y-138997631D01*
X87543375Y-138901599D01*
X87665600Y-138779374D01*
X87761632Y-138635652D01*
X87827779Y-138475957D01*
X87843256Y-138398145D01*
X87875640Y-138336237D01*
X87936355Y-138301663D01*
X88006125Y-138305402D01*
X88062797Y-138346268D01*
X88086490Y-138398147D01*
X88102025Y-138476246D01*
X88102027Y-138476252D01*
X88173676Y-138649229D01*
X88173681Y-138649238D01*
X88277697Y-138804908D01*
X88277700Y-138804912D01*
X88410088Y-138937300D01*
X88410092Y-138937303D01*
X88472862Y-138979245D01*
X88472864Y-138979246D01*
X88565769Y-139041323D01*
X88738749Y-139112974D01*
X88920871Y-139149200D01*
X88922379Y-139149500D01*
X88922383Y-139149501D01*
X88922384Y-139149501D01*
X89109617Y-139149501D01*
X89109618Y-139149500D01*
X89293251Y-139112974D01*
X89466231Y-139041323D01*
X89621908Y-138937303D01*
X89754302Y-138804909D01*
X89858322Y-138649232D01*
X89929973Y-138476252D01*
X89945509Y-138398142D01*
X89977893Y-138336235D01*
X90038608Y-138301660D01*
X90108378Y-138305399D01*
X90165050Y-138346265D01*
X90188743Y-138398144D01*
X90204220Y-138475949D01*
X90204222Y-138475957D01*
X90270369Y-138635651D01*
X90270370Y-138635654D01*
X90366400Y-138779372D01*
X90366403Y-138779376D01*
X90488622Y-138901595D01*
X90488626Y-138901598D01*
X90632344Y-138997628D01*
X90632346Y-138997628D01*
X90632348Y-138997630D01*
X90792043Y-139063777D01*
X90792045Y-139063777D01*
X90792050Y-139063779D01*
X90961569Y-139097498D01*
X90961572Y-139097499D01*
X90961574Y-139097499D01*
X91134428Y-139097499D01*
X91134429Y-139097498D01*
X91208242Y-139082816D01*
X91303949Y-139063779D01*
X91303952Y-139063777D01*
X91303957Y-139063777D01*
X91463652Y-138997630D01*
X91607374Y-138901598D01*
X91729599Y-138779373D01*
X91825631Y-138635651D01*
X91891778Y-138475956D01*
X91891778Y-138475951D01*
X91891780Y-138475948D01*
X91925499Y-138306429D01*
X91925500Y-138306427D01*
X91925500Y-138133570D01*
X91925499Y-138133568D01*
X92202500Y-138133568D01*
X92202500Y-138306429D01*
X92236219Y-138475948D01*
X92236222Y-138475957D01*
X92302369Y-138635651D01*
X92302370Y-138635654D01*
X92398400Y-138779372D01*
X92398403Y-138779376D01*
X92520622Y-138901595D01*
X92520626Y-138901598D01*
X92664344Y-138997628D01*
X92664346Y-138997628D01*
X92664348Y-138997630D01*
X92824043Y-139063777D01*
X92824045Y-139063777D01*
X92824050Y-139063779D01*
X92993569Y-139097498D01*
X92993572Y-139097499D01*
X93095470Y-139097499D01*
X93162509Y-139117184D01*
X93208264Y-139169988D01*
X93218490Y-139231350D01*
X93218500Y-139231350D01*
X93218500Y-139231411D01*
X93218873Y-139233650D01*
X93218500Y-139237438D01*
X93218500Y-140762558D01*
X93225898Y-140799749D01*
X93254077Y-140841922D01*
X93296250Y-140870101D01*
X93296252Y-140870102D01*
X93324205Y-140875662D01*
X93333441Y-140877500D01*
X93333442Y-140877500D01*
X94858559Y-140877500D01*
X94865957Y-140876028D01*
X94895748Y-140870102D01*
X94937922Y-140841922D01*
X94966102Y-140799748D01*
X94973500Y-140762558D01*
X94973500Y-139237442D01*
X94966102Y-139200252D01*
X94965492Y-139199339D01*
X94937922Y-139158077D01*
X94895749Y-139129898D01*
X94858559Y-139122500D01*
X94858558Y-139122500D01*
X93716761Y-139122500D01*
X93649722Y-139102815D01*
X93603967Y-139050011D01*
X93594023Y-138980853D01*
X93623048Y-138917297D01*
X93638100Y-138902644D01*
X93639371Y-138901599D01*
X93639374Y-138901598D01*
X93761599Y-138779373D01*
X93857631Y-138635651D01*
X93923778Y-138475956D01*
X93923778Y-138475951D01*
X93923780Y-138475948D01*
X93957499Y-138306429D01*
X93957500Y-138306427D01*
X93957500Y-138133570D01*
X93957499Y-138133568D01*
X93923780Y-137964049D01*
X93923777Y-137964041D01*
X93857631Y-137804347D01*
X93857629Y-137804344D01*
X93857629Y-137804343D01*
X93761599Y-137660625D01*
X93761596Y-137660621D01*
X93639377Y-137538402D01*
X93639373Y-137538399D01*
X93495655Y-137442369D01*
X93495652Y-137442368D01*
X93335958Y-137376221D01*
X93335949Y-137376218D01*
X93166429Y-137342499D01*
X93166426Y-137342499D01*
X92993574Y-137342499D01*
X92993571Y-137342499D01*
X92824050Y-137376218D01*
X92824041Y-137376221D01*
X92664347Y-137442368D01*
X92664344Y-137442369D01*
X92520626Y-137538399D01*
X92520622Y-137538402D01*
X92398403Y-137660621D01*
X92398400Y-137660625D01*
X92302370Y-137804343D01*
X92302369Y-137804346D01*
X92236222Y-137964040D01*
X92236219Y-137964049D01*
X92202500Y-138133568D01*
X91925499Y-138133568D01*
X91891780Y-137964049D01*
X91891777Y-137964041D01*
X91825631Y-137804347D01*
X91825629Y-137804344D01*
X91825629Y-137804343D01*
X91729599Y-137660625D01*
X91729596Y-137660621D01*
X91607377Y-137538402D01*
X91607373Y-137538399D01*
X91463655Y-137442369D01*
X91463652Y-137442368D01*
X91303958Y-137376221D01*
X91303949Y-137376218D01*
X91134429Y-137342499D01*
X91134426Y-137342499D01*
X90961574Y-137342499D01*
X90961571Y-137342499D01*
X90792050Y-137376218D01*
X90792041Y-137376221D01*
X90632347Y-137442368D01*
X90632344Y-137442369D01*
X90488626Y-137538399D01*
X90488622Y-137538402D01*
X90366403Y-137660621D01*
X90366400Y-137660625D01*
X90270370Y-137804343D01*
X90270369Y-137804346D01*
X90205061Y-137962016D01*
X90161220Y-138016420D01*
X90094926Y-138038485D01*
X90027227Y-138021206D01*
X89979616Y-137970069D01*
X89966500Y-137914564D01*
X89966500Y-137583413D01*
X89986185Y-137516374D01*
X90002819Y-137495732D01*
X91380730Y-136117821D01*
X91442053Y-136084336D01*
X91468411Y-136081502D01*
X103905620Y-136081502D01*
X103942486Y-136074168D01*
X103994178Y-136063885D01*
X104018369Y-136061503D01*
X105596632Y-136061503D01*
X105663671Y-136081188D01*
X105684313Y-136097822D01*
X106697311Y-137110820D01*
X106730796Y-137172143D01*
X106725812Y-137241835D01*
X106683940Y-137297768D01*
X106618476Y-137322185D01*
X106609630Y-137322501D01*
X106545572Y-137322501D01*
X106376051Y-137356220D01*
X106376042Y-137356223D01*
X106216348Y-137422370D01*
X106216345Y-137422371D01*
X106072627Y-137518401D01*
X106072623Y-137518404D01*
X105950404Y-137640623D01*
X105950401Y-137640627D01*
X105854371Y-137784345D01*
X105854370Y-137784348D01*
X105788223Y-137944042D01*
X105788220Y-137944051D01*
X105754501Y-138113570D01*
X105754501Y-138286431D01*
X105788220Y-138455950D01*
X105788223Y-138455959D01*
X105854370Y-138615653D01*
X105854371Y-138615656D01*
X105950401Y-138759374D01*
X105950404Y-138759378D01*
X106072623Y-138881597D01*
X106072627Y-138881600D01*
X106216345Y-138977630D01*
X106216347Y-138977630D01*
X106216349Y-138977632D01*
X106376044Y-139043779D01*
X106376046Y-139043779D01*
X106376051Y-139043781D01*
X106545570Y-139077500D01*
X106545573Y-139077501D01*
X106545575Y-139077501D01*
X106718429Y-139077501D01*
X106718430Y-139077500D01*
X106787427Y-139063776D01*
X106887950Y-139043781D01*
X106887953Y-139043779D01*
X106887958Y-139043779D01*
X107047653Y-138977632D01*
X107191375Y-138881600D01*
X107313600Y-138759375D01*
X107409632Y-138615653D01*
X107475779Y-138455958D01*
X107491256Y-138378146D01*
X107523640Y-138316238D01*
X107584355Y-138281664D01*
X107654125Y-138285403D01*
X107710797Y-138326269D01*
X107734490Y-138378148D01*
X107750025Y-138456247D01*
X107750027Y-138456253D01*
X107821676Y-138629230D01*
X107821681Y-138629239D01*
X107925697Y-138784909D01*
X107925700Y-138784913D01*
X108058088Y-138917301D01*
X108058092Y-138917304D01*
X108120862Y-138959246D01*
X108120866Y-138959248D01*
X108213769Y-139021324D01*
X108386749Y-139092975D01*
X108570379Y-139129501D01*
X108570383Y-139129502D01*
X108570384Y-139129502D01*
X108757616Y-139129502D01*
X108757978Y-139129430D01*
X108758171Y-139129447D01*
X108763679Y-139128905D01*
X108763781Y-139129949D01*
X108779972Y-139131397D01*
X108801882Y-139128622D01*
X108814093Y-139134448D01*
X108827570Y-139135654D01*
X108845010Y-139149200D01*
X108864941Y-139158711D01*
X108872064Y-139170215D01*
X108882749Y-139178515D01*
X108890096Y-139199339D01*
X108901722Y-139218115D01*
X108901494Y-139231642D01*
X108905997Y-139244403D01*
X108900919Y-139265896D01*
X108900548Y-139287975D01*
X108890950Y-139308088D01*
X108889932Y-139312401D01*
X108885349Y-139319829D01*
X108885273Y-139319943D01*
X108769439Y-139493299D01*
X108697381Y-139667265D01*
X108653540Y-139721668D01*
X108587246Y-139743733D01*
X108519547Y-139726454D01*
X108471936Y-139675317D01*
X108468261Y-139667269D01*
X108425631Y-139564349D01*
X108425629Y-139564347D01*
X108425629Y-139564345D01*
X108329599Y-139420627D01*
X108329596Y-139420623D01*
X108207377Y-139298404D01*
X108207373Y-139298401D01*
X108156560Y-139264448D01*
X108156548Y-139264441D01*
X108063652Y-139202370D01*
X108001305Y-139176545D01*
X108001301Y-139176543D01*
X107903958Y-139136223D01*
X107903949Y-139136220D01*
X107734429Y-139102501D01*
X107734426Y-139102501D01*
X107561574Y-139102501D01*
X107561571Y-139102501D01*
X107392050Y-139136220D01*
X107392041Y-139136223D01*
X107232347Y-139202370D01*
X107232344Y-139202371D01*
X107088626Y-139298401D01*
X107088622Y-139298404D01*
X106966403Y-139420623D01*
X106966400Y-139420627D01*
X106870370Y-139564345D01*
X106870369Y-139564348D01*
X106804222Y-139724042D01*
X106804219Y-139724051D01*
X106770500Y-139893570D01*
X106770500Y-140066431D01*
X106804219Y-140235950D01*
X106804222Y-140235959D01*
X106870369Y-140395653D01*
X106870370Y-140395656D01*
X106966400Y-140539374D01*
X106966403Y-140539378D01*
X107088622Y-140661597D01*
X107088626Y-140661600D01*
X107232344Y-140757630D01*
X107232346Y-140757630D01*
X107232348Y-140757632D01*
X107392043Y-140823779D01*
X107392045Y-140823779D01*
X107392050Y-140823781D01*
X107561569Y-140857500D01*
X107561572Y-140857501D01*
X107561574Y-140857501D01*
X107734428Y-140857501D01*
X107734429Y-140857500D01*
X107803421Y-140843777D01*
X107903949Y-140823781D01*
X107903952Y-140823779D01*
X107903957Y-140823779D01*
X108063652Y-140757632D01*
X108207374Y-140661600D01*
X108329599Y-140539375D01*
X108425631Y-140395653D01*
X108468260Y-140292734D01*
X108512099Y-140238334D01*
X108578393Y-140216268D01*
X108646092Y-140233547D01*
X108693703Y-140284683D01*
X108697381Y-140292737D01*
X108769438Y-140466700D01*
X108769439Y-140466702D01*
X108881888Y-140634993D01*
X108881891Y-140634997D01*
X109037476Y-140790582D01*
X109070961Y-140851905D01*
X109065977Y-140921597D01*
X109037476Y-140965944D01*
X108242592Y-141760829D01*
X107535009Y-142468412D01*
X107535007Y-142468414D01*
X107463446Y-142539974D01*
X107391886Y-142611534D01*
X107279444Y-142779815D01*
X107279439Y-142779824D01*
X107201986Y-142966814D01*
X107201984Y-142966822D01*
X107162500Y-143165321D01*
X107162500Y-146803673D01*
X107148985Y-146859966D01*
X107132635Y-146892054D01*
X107070620Y-147013764D01*
X107070619Y-147013767D01*
X107013445Y-147189734D01*
X107013445Y-147189736D01*
X106984500Y-147372486D01*
X106984500Y-147557514D01*
X106991916Y-147604334D01*
X107013445Y-147740265D01*
X107038437Y-147817183D01*
X107040432Y-147887024D01*
X107004352Y-147946857D01*
X106941651Y-147977685D01*
X106920506Y-147979501D01*
X81006962Y-147979501D01*
X80993078Y-147978721D01*
X80980553Y-147977309D01*
X80902735Y-147968541D01*
X80875666Y-147962363D01*
X80796460Y-147934648D01*
X80771443Y-147922600D01*
X80700399Y-147877961D01*
X80678688Y-147860648D01*
X80619352Y-147801311D01*
X80602043Y-147779607D01*
X80557394Y-147708550D01*
X80545350Y-147683538D01*
X80517636Y-147604333D01*
X80511458Y-147577263D01*
X80501280Y-147486929D01*
X80500500Y-147473046D01*
X80500500Y-142416803D01*
X82306500Y-142416803D01*
X82306500Y-142663196D01*
X82321854Y-142779815D01*
X82338659Y-142907459D01*
X82354565Y-142966822D01*
X82402425Y-143145440D01*
X82496708Y-143373058D01*
X82496712Y-143373068D01*
X82619899Y-143586434D01*
X82769883Y-143781898D01*
X82769889Y-143781905D01*
X82944094Y-143956110D01*
X82944101Y-143956116D01*
X83139565Y-144106100D01*
X83352931Y-144229287D01*
X83352932Y-144229287D01*
X83352935Y-144229289D01*
X83580558Y-144323574D01*
X83818541Y-144387341D01*
X84062811Y-144419500D01*
X84062818Y-144419500D01*
X84309182Y-144419500D01*
X84309189Y-144419500D01*
X84553459Y-144387341D01*
X84791442Y-144323574D01*
X85019065Y-144229289D01*
X85232435Y-144106100D01*
X85427900Y-143956115D01*
X85602115Y-143781900D01*
X85752100Y-143586435D01*
X85875289Y-143373065D01*
X85969574Y-143145442D01*
X86033341Y-142907459D01*
X86065500Y-142663189D01*
X86065500Y-142416811D01*
X86065499Y-142416803D01*
X95006500Y-142416803D01*
X95006500Y-142663196D01*
X95021854Y-142779815D01*
X95038659Y-142907459D01*
X95054565Y-142966822D01*
X95102425Y-143145440D01*
X95196708Y-143373058D01*
X95196712Y-143373068D01*
X95319899Y-143586434D01*
X95469883Y-143781898D01*
X95469889Y-143781905D01*
X95644094Y-143956110D01*
X95644101Y-143956116D01*
X95839565Y-144106100D01*
X96052931Y-144229287D01*
X96052932Y-144229287D01*
X96052935Y-144229289D01*
X96280558Y-144323574D01*
X96518541Y-144387341D01*
X96762811Y-144419500D01*
X96762818Y-144419500D01*
X97009182Y-144419500D01*
X97009189Y-144419500D01*
X97253459Y-144387341D01*
X97491442Y-144323574D01*
X97719065Y-144229289D01*
X97932435Y-144106100D01*
X98127900Y-143956115D01*
X98302115Y-143781900D01*
X98452100Y-143586435D01*
X98575289Y-143373065D01*
X98669574Y-143145442D01*
X98733341Y-142907459D01*
X98765500Y-142663189D01*
X98765500Y-142416811D01*
X98762866Y-142396804D01*
X101954500Y-142396804D01*
X101954500Y-142643197D01*
X101972487Y-142779815D01*
X101986659Y-142887460D01*
X102007922Y-142966814D01*
X102050425Y-143125441D01*
X102144708Y-143353059D01*
X102144712Y-143353069D01*
X102267899Y-143566435D01*
X102417883Y-143761899D01*
X102417889Y-143761906D01*
X102592094Y-143936111D01*
X102592101Y-143936117D01*
X102787565Y-144086101D01*
X103000931Y-144209288D01*
X103000932Y-144209288D01*
X103000935Y-144209290D01*
X103228558Y-144303575D01*
X103466541Y-144367342D01*
X103710811Y-144399501D01*
X103710818Y-144399501D01*
X103957182Y-144399501D01*
X103957189Y-144399501D01*
X104201459Y-144367342D01*
X104439442Y-144303575D01*
X104667065Y-144209290D01*
X104880435Y-144086101D01*
X105075900Y-143936116D01*
X105250115Y-143761901D01*
X105400100Y-143566436D01*
X105523289Y-143353066D01*
X105617574Y-143125443D01*
X105681341Y-142887460D01*
X105713500Y-142643190D01*
X105713500Y-142396812D01*
X105681341Y-142152542D01*
X105617574Y-141914559D01*
X105523289Y-141686936D01*
X105400100Y-141473566D01*
X105250116Y-141278102D01*
X105250110Y-141278095D01*
X105075905Y-141103890D01*
X105075898Y-141103884D01*
X104880434Y-140953900D01*
X104667068Y-140830713D01*
X104667058Y-140830709D01*
X104439440Y-140736426D01*
X104276100Y-140692660D01*
X104201459Y-140672660D01*
X104160636Y-140667285D01*
X103957196Y-140640501D01*
X103957189Y-140640501D01*
X103710811Y-140640501D01*
X103710803Y-140640501D01*
X103478299Y-140671111D01*
X103466541Y-140672660D01*
X103433191Y-140681596D01*
X103228559Y-140736426D01*
X103000941Y-140830709D01*
X103000931Y-140830713D01*
X102787565Y-140953900D01*
X102592101Y-141103884D01*
X102592094Y-141103890D01*
X102417889Y-141278095D01*
X102417883Y-141278102D01*
X102267899Y-141473566D01*
X102144712Y-141686932D01*
X102144708Y-141686942D01*
X102050425Y-141914560D01*
X101986660Y-142152539D01*
X101986658Y-142152550D01*
X101954500Y-142396804D01*
X98762866Y-142396804D01*
X98733341Y-142172541D01*
X98669574Y-141934558D01*
X98575289Y-141706935D01*
X98563740Y-141686932D01*
X98452100Y-141493565D01*
X98302116Y-141298101D01*
X98302110Y-141298094D01*
X98127905Y-141123889D01*
X98127898Y-141123883D01*
X97932434Y-140973899D01*
X97719068Y-140850712D01*
X97719058Y-140850708D01*
X97491440Y-140756425D01*
X97372450Y-140724542D01*
X97253459Y-140692659D01*
X97212636Y-140687284D01*
X97009196Y-140660500D01*
X97009189Y-140660500D01*
X96762811Y-140660500D01*
X96762803Y-140660500D01*
X96530299Y-140691110D01*
X96518541Y-140692659D01*
X96468246Y-140706135D01*
X96280559Y-140756425D01*
X96052941Y-140850708D01*
X96052931Y-140850712D01*
X95839565Y-140973899D01*
X95644101Y-141123883D01*
X95644094Y-141123889D01*
X95469889Y-141298094D01*
X95469883Y-141298101D01*
X95319899Y-141493565D01*
X95196712Y-141706931D01*
X95196708Y-141706941D01*
X95102425Y-141934559D01*
X95076664Y-142030704D01*
X95044019Y-142152539D01*
X95038660Y-142172538D01*
X95038658Y-142172549D01*
X95006500Y-142416803D01*
X86065499Y-142416803D01*
X86033341Y-142172541D01*
X85969574Y-141934558D01*
X85875289Y-141706935D01*
X85863740Y-141686932D01*
X85752100Y-141493565D01*
X85602116Y-141298101D01*
X85602110Y-141298094D01*
X85427905Y-141123889D01*
X85427898Y-141123883D01*
X85232434Y-140973899D01*
X85019068Y-140850712D01*
X85019058Y-140850708D01*
X84791440Y-140756425D01*
X84672450Y-140724542D01*
X84553459Y-140692659D01*
X84512636Y-140687284D01*
X84309196Y-140660500D01*
X84309189Y-140660500D01*
X84062811Y-140660500D01*
X84062803Y-140660500D01*
X83830299Y-140691110D01*
X83818541Y-140692659D01*
X83768246Y-140706135D01*
X83580559Y-140756425D01*
X83352941Y-140850708D01*
X83352931Y-140850712D01*
X83139565Y-140973899D01*
X82944101Y-141123883D01*
X82944094Y-141123889D01*
X82769889Y-141298094D01*
X82769883Y-141298101D01*
X82619899Y-141493565D01*
X82496712Y-141706931D01*
X82496708Y-141706941D01*
X82402425Y-141934559D01*
X82376664Y-142030704D01*
X82344019Y-142152539D01*
X82338660Y-142172538D01*
X82338658Y-142172549D01*
X82306500Y-142416803D01*
X80500500Y-142416803D01*
X80500500Y-139913569D01*
X87122500Y-139913569D01*
X87122500Y-140086430D01*
X87156219Y-140255949D01*
X87156222Y-140255958D01*
X87222369Y-140415652D01*
X87222370Y-140415655D01*
X87318400Y-140559373D01*
X87318403Y-140559377D01*
X87440622Y-140681596D01*
X87440626Y-140681599D01*
X87584344Y-140777629D01*
X87584346Y-140777629D01*
X87584348Y-140777631D01*
X87744043Y-140843778D01*
X87744045Y-140843778D01*
X87744050Y-140843780D01*
X87913569Y-140877499D01*
X87913572Y-140877500D01*
X87913574Y-140877500D01*
X88086428Y-140877500D01*
X88086429Y-140877499D01*
X88142936Y-140866259D01*
X88255949Y-140843780D01*
X88255952Y-140843778D01*
X88255957Y-140843778D01*
X88415652Y-140777631D01*
X88559374Y-140681599D01*
X88681599Y-140559374D01*
X88777631Y-140415652D01*
X88843778Y-140255957D01*
X88847284Y-140238334D01*
X88877499Y-140086430D01*
X88877500Y-140086428D01*
X88877500Y-139913571D01*
X88877499Y-139913569D01*
X89154500Y-139913569D01*
X89154500Y-140086430D01*
X89188219Y-140255949D01*
X89188222Y-140255958D01*
X89254369Y-140415652D01*
X89254370Y-140415655D01*
X89350400Y-140559373D01*
X89350403Y-140559377D01*
X89472622Y-140681596D01*
X89472626Y-140681599D01*
X89616344Y-140777629D01*
X89616346Y-140777629D01*
X89616348Y-140777631D01*
X89776043Y-140843778D01*
X89776045Y-140843778D01*
X89776050Y-140843780D01*
X89945569Y-140877499D01*
X89945572Y-140877500D01*
X89945574Y-140877500D01*
X90118428Y-140877500D01*
X90118429Y-140877499D01*
X90174936Y-140866259D01*
X90287949Y-140843780D01*
X90287952Y-140843778D01*
X90287957Y-140843778D01*
X90447652Y-140777631D01*
X90591374Y-140681599D01*
X90713599Y-140559374D01*
X90809631Y-140415652D01*
X90875778Y-140255957D01*
X90879284Y-140238334D01*
X90909499Y-140086430D01*
X90909500Y-140086428D01*
X90909500Y-139913571D01*
X90909499Y-139913569D01*
X90875780Y-139744050D01*
X90875777Y-139744041D01*
X90809631Y-139584348D01*
X90809629Y-139584346D01*
X90809629Y-139584344D01*
X90713599Y-139440626D01*
X90713596Y-139440622D01*
X90591377Y-139318403D01*
X90591373Y-139318400D01*
X90447655Y-139222370D01*
X90447652Y-139222369D01*
X90287958Y-139156222D01*
X90287949Y-139156219D01*
X90118429Y-139122500D01*
X90118426Y-139122500D01*
X89945574Y-139122500D01*
X89945571Y-139122500D01*
X89776050Y-139156219D01*
X89776046Y-139156221D01*
X89776044Y-139156221D01*
X89776043Y-139156222D01*
X89770034Y-139158711D01*
X89678693Y-139196544D01*
X89678685Y-139196548D01*
X89616348Y-139222369D01*
X89523459Y-139284435D01*
X89523435Y-139284449D01*
X89472628Y-139318398D01*
X89472622Y-139318403D01*
X89350403Y-139440622D01*
X89350400Y-139440626D01*
X89254370Y-139584344D01*
X89254369Y-139584347D01*
X89188222Y-139744041D01*
X89188219Y-139744050D01*
X89154500Y-139913569D01*
X88877499Y-139913569D01*
X88843780Y-139744050D01*
X88843777Y-139744041D01*
X88777631Y-139584348D01*
X88777629Y-139584346D01*
X88777629Y-139584344D01*
X88681599Y-139440626D01*
X88681596Y-139440622D01*
X88559377Y-139318403D01*
X88559373Y-139318400D01*
X88508560Y-139284447D01*
X88508548Y-139284440D01*
X88415652Y-139222369D01*
X88353305Y-139196544D01*
X88353301Y-139196542D01*
X88255958Y-139156222D01*
X88255949Y-139156219D01*
X88086429Y-139122500D01*
X88086426Y-139122500D01*
X87913574Y-139122500D01*
X87913571Y-139122500D01*
X87744050Y-139156219D01*
X87744041Y-139156222D01*
X87584347Y-139222369D01*
X87584344Y-139222370D01*
X87440626Y-139318400D01*
X87440622Y-139318403D01*
X87318403Y-139440622D01*
X87318400Y-139440626D01*
X87222370Y-139584344D01*
X87222369Y-139584347D01*
X87156222Y-139744041D01*
X87156219Y-139744050D01*
X87122500Y-139913569D01*
X80500500Y-139913569D01*
X80500500Y-133313569D01*
X82798500Y-133313569D01*
X82798500Y-133486430D01*
X82832219Y-133655949D01*
X82832222Y-133655958D01*
X82898369Y-133815652D01*
X82898370Y-133815655D01*
X82994400Y-133959373D01*
X82994403Y-133959377D01*
X83116622Y-134081596D01*
X83116626Y-134081599D01*
X83260344Y-134177629D01*
X83260346Y-134177629D01*
X83260348Y-134177631D01*
X83420043Y-134243778D01*
X83420045Y-134243778D01*
X83420050Y-134243780D01*
X83589569Y-134277499D01*
X83589572Y-134277500D01*
X83589574Y-134277500D01*
X83762428Y-134277500D01*
X83762429Y-134277499D01*
X83818936Y-134266259D01*
X83931949Y-134243780D01*
X83931952Y-134243778D01*
X83931957Y-134243778D01*
X84091652Y-134177631D01*
X84235374Y-134081599D01*
X84357599Y-133959374D01*
X84453631Y-133815652D01*
X84519778Y-133655957D01*
X84527084Y-133619231D01*
X84553499Y-133486430D01*
X84553500Y-133486428D01*
X84553500Y-133313571D01*
X84553499Y-133313569D01*
X84519780Y-133144050D01*
X84519777Y-133144041D01*
X84511493Y-133124042D01*
X84453631Y-132984348D01*
X84453629Y-132984346D01*
X84453629Y-132984344D01*
X84357599Y-132840626D01*
X84357596Y-132840622D01*
X84235377Y-132718403D01*
X84235373Y-132718400D01*
X84091655Y-132622370D01*
X84091652Y-132622369D01*
X83931958Y-132556222D01*
X83931949Y-132556219D01*
X83762429Y-132522500D01*
X83762426Y-132522500D01*
X83589574Y-132522500D01*
X83589571Y-132522500D01*
X83420050Y-132556219D01*
X83420041Y-132556222D01*
X83260347Y-132622369D01*
X83260344Y-132622370D01*
X83116626Y-132718400D01*
X83116622Y-132718403D01*
X82994403Y-132840622D01*
X82994400Y-132840626D01*
X82898370Y-132984344D01*
X82898369Y-132984347D01*
X82832222Y-133144041D01*
X82832219Y-133144050D01*
X82798500Y-133313569D01*
X80500500Y-133313569D01*
X80500500Y-130386816D01*
X88917000Y-130386816D01*
X88917000Y-130525182D01*
X88951916Y-130655489D01*
X88952812Y-130658834D01*
X88952813Y-130658837D01*
X89021992Y-130778660D01*
X89021994Y-130778663D01*
X89021995Y-130778664D01*
X89119835Y-130876504D01*
X89239664Y-130945687D01*
X89373317Y-130981499D01*
X89373319Y-130981499D01*
X89511681Y-130981499D01*
X89511683Y-130981499D01*
X89645336Y-130945687D01*
X89765165Y-130876504D01*
X89863005Y-130778664D01*
X89932188Y-130658835D01*
X89932187Y-130658835D01*
X89936252Y-130651796D01*
X89937539Y-130652539D01*
X89975734Y-130605144D01*
X90042028Y-130583079D01*
X90046454Y-130583000D01*
X90342919Y-130583000D01*
X90409958Y-130602685D01*
X90455713Y-130655489D01*
X90462694Y-130674906D01*
X90472152Y-130710206D01*
X90472153Y-130710207D01*
X90541332Y-130830030D01*
X90541334Y-130830033D01*
X90541335Y-130830034D01*
X90639175Y-130927874D01*
X90639176Y-130927875D01*
X90639178Y-130927876D01*
X90670026Y-130945686D01*
X90759004Y-130997057D01*
X90892657Y-131032869D01*
X90892659Y-131032869D01*
X91031021Y-131032869D01*
X91031023Y-131032869D01*
X91164676Y-130997057D01*
X91284505Y-130927874D01*
X91382345Y-130830034D01*
X91451528Y-130710205D01*
X91487340Y-130576552D01*
X91487340Y-130457955D01*
X91507025Y-130390916D01*
X91559829Y-130345161D01*
X91574140Y-130340016D01*
X91577330Y-130338693D01*
X91577336Y-130338692D01*
X91697165Y-130269509D01*
X91795005Y-130171669D01*
X91864188Y-130051840D01*
X91900000Y-129918187D01*
X91900000Y-129779821D01*
X91864188Y-129646168D01*
X91795005Y-129526339D01*
X91697165Y-129428499D01*
X91697164Y-129428498D01*
X91697161Y-129428496D01*
X91577338Y-129359317D01*
X91577337Y-129359316D01*
X91577336Y-129359316D01*
X91443683Y-129323504D01*
X91305317Y-129323504D01*
X91171664Y-129359316D01*
X91171661Y-129359317D01*
X91051838Y-129428496D01*
X91051833Y-129428500D01*
X90954653Y-129525681D01*
X90893330Y-129559166D01*
X90866972Y-129562000D01*
X90090747Y-129562000D01*
X90023708Y-129542315D01*
X89977953Y-129489511D01*
X89976204Y-129484646D01*
X89975993Y-129484734D01*
X89972885Y-129477232D01*
X89972884Y-129477227D01*
X89938292Y-129417312D01*
X89903703Y-129357401D01*
X89903699Y-129357396D01*
X89805862Y-129259559D01*
X89805857Y-129259555D01*
X89686034Y-129190376D01*
X89686033Y-129190375D01*
X89686032Y-129190375D01*
X89552379Y-129154563D01*
X89414013Y-129154563D01*
X89280360Y-129190375D01*
X89280357Y-129190376D01*
X89160534Y-129259555D01*
X89160529Y-129259559D01*
X89062692Y-129357396D01*
X89062688Y-129357401D01*
X88993509Y-129477224D01*
X88993508Y-129477227D01*
X88957696Y-129610880D01*
X88957696Y-129749246D01*
X88965889Y-129779821D01*
X88993508Y-129882898D01*
X88993509Y-129882901D01*
X89048026Y-129977327D01*
X89064499Y-130045227D01*
X89041646Y-130111254D01*
X89028324Y-130127005D01*
X89021994Y-130133334D01*
X89021992Y-130133337D01*
X88952813Y-130253160D01*
X88952812Y-130253163D01*
X88917000Y-130386816D01*
X80500500Y-130386816D01*
X80500500Y-121382486D01*
X104124500Y-121382486D01*
X104124500Y-121567513D01*
X104153445Y-121750265D01*
X104210619Y-121926232D01*
X104210620Y-121926235D01*
X104269281Y-122041362D01*
X104294622Y-122091096D01*
X104403379Y-122240787D01*
X104534213Y-122371621D01*
X104683904Y-122480378D01*
X104751155Y-122514644D01*
X104848764Y-122564379D01*
X104848767Y-122564380D01*
X104936750Y-122592967D01*
X105024736Y-122621555D01*
X105207486Y-122650500D01*
X105207487Y-122650500D01*
X105392513Y-122650500D01*
X105392514Y-122650500D01*
X105575264Y-122621555D01*
X105751235Y-122564379D01*
X105916096Y-122480378D01*
X106002114Y-122417881D01*
X106067920Y-122394401D01*
X106135974Y-122410226D01*
X106147880Y-122417877D01*
X106233905Y-122480378D01*
X106301156Y-122514644D01*
X106398765Y-122564379D01*
X106398768Y-122564380D01*
X106486751Y-122592967D01*
X106574737Y-122621555D01*
X106757487Y-122650500D01*
X106757488Y-122650500D01*
X106942514Y-122650500D01*
X106942515Y-122650500D01*
X107125265Y-122621555D01*
X107301236Y-122564379D01*
X107466097Y-122480378D01*
X107615788Y-122371621D01*
X107746622Y-122240787D01*
X107855379Y-122091096D01*
X107939380Y-121926235D01*
X107996556Y-121750264D01*
X108025501Y-121567514D01*
X108025501Y-121382486D01*
X107996556Y-121199736D01*
X107939380Y-121023765D01*
X107939380Y-121023764D01*
X107855378Y-120858903D01*
X107746622Y-120709213D01*
X107615788Y-120578379D01*
X107579761Y-120552204D01*
X107476615Y-120477263D01*
X107473274Y-120472930D01*
X107468298Y-120470658D01*
X107452165Y-120445555D01*
X107433950Y-120421932D01*
X107432697Y-120415261D01*
X107430524Y-120411880D01*
X107425501Y-120376945D01*
X107425501Y-120265758D01*
X107445186Y-120198719D01*
X107461820Y-120178077D01*
X107883079Y-119756819D01*
X107944402Y-119723334D01*
X107970760Y-119720500D01*
X109463466Y-119720500D01*
X109463467Y-119720499D01*
X109666420Y-119680130D01*
X109857598Y-119600941D01*
X110029655Y-119485977D01*
X110175977Y-119339655D01*
X110175978Y-119339653D01*
X110183044Y-119332587D01*
X110183047Y-119332583D01*
X111459651Y-118055979D01*
X111459655Y-118055977D01*
X111605977Y-117909655D01*
X111720941Y-117737598D01*
X111800130Y-117546420D01*
X111840500Y-117343465D01*
X111840500Y-117220585D01*
X111860185Y-117153546D01*
X111912989Y-117107791D01*
X111948312Y-117097647D01*
X112002238Y-117090548D01*
X112223887Y-117031158D01*
X112435888Y-116943344D01*
X112634612Y-116828611D01*
X112816661Y-116688919D01*
X112816665Y-116688914D01*
X112816670Y-116688911D01*
X112978911Y-116526670D01*
X112978914Y-116526665D01*
X112978919Y-116526661D01*
X113118611Y-116344612D01*
X113231939Y-116148320D01*
X113282506Y-116100105D01*
X113351113Y-116086882D01*
X113415978Y-116112850D01*
X113427007Y-116122640D01*
X113490342Y-116185975D01*
X113490345Y-116185977D01*
X113662402Y-116300941D01*
X113853580Y-116380130D01*
X114031393Y-116415499D01*
X114056530Y-116420499D01*
X114056534Y-116420500D01*
X114056535Y-116420500D01*
X114263466Y-116420500D01*
X114263467Y-116420499D01*
X114466420Y-116380130D01*
X114657598Y-116300941D01*
X114829655Y-116185977D01*
X114975977Y-116039655D01*
X115090941Y-115867598D01*
X115169251Y-115678543D01*
X118569499Y-115678543D01*
X118607947Y-115871829D01*
X118607950Y-115871839D01*
X118683364Y-116053907D01*
X118683371Y-116053920D01*
X118792860Y-116217781D01*
X118792863Y-116217785D01*
X118932214Y-116357136D01*
X118932218Y-116357139D01*
X119096079Y-116466628D01*
X119096092Y-116466635D01*
X119278160Y-116542049D01*
X119278165Y-116542051D01*
X119278169Y-116542051D01*
X119278170Y-116542052D01*
X119471456Y-116580500D01*
X119471459Y-116580500D01*
X119668543Y-116580500D01*
X119798582Y-116554632D01*
X119861835Y-116542051D01*
X120043914Y-116466632D01*
X120207782Y-116357139D01*
X120347139Y-116217782D01*
X120456632Y-116053914D01*
X120464609Y-116034657D01*
X120519476Y-115902193D01*
X120532051Y-115871835D01*
X120570500Y-115678541D01*
X120570500Y-115481459D01*
X120570500Y-115481456D01*
X120532052Y-115288170D01*
X120532051Y-115288169D01*
X120532051Y-115288165D01*
X120460751Y-115116030D01*
X120456635Y-115106092D01*
X120456628Y-115106079D01*
X120347139Y-114942218D01*
X120347136Y-114942214D01*
X120207785Y-114802863D01*
X120207781Y-114802860D01*
X120144006Y-114760247D01*
X121109500Y-114760247D01*
X121109500Y-116399752D01*
X121121131Y-116458229D01*
X121121132Y-116458230D01*
X121165447Y-116524552D01*
X121231769Y-116568867D01*
X121231770Y-116568868D01*
X121290247Y-116580499D01*
X121290250Y-116580500D01*
X121290252Y-116580500D01*
X122929750Y-116580500D01*
X122929751Y-116580499D01*
X122944568Y-116577552D01*
X122988229Y-116568868D01*
X122988229Y-116568867D01*
X122988231Y-116568867D01*
X123054552Y-116524552D01*
X123098867Y-116458231D01*
X123098867Y-116458229D01*
X123098868Y-116458229D01*
X123110499Y-116399752D01*
X123110500Y-116399750D01*
X123110500Y-114760249D01*
X123110499Y-114760247D01*
X123098868Y-114701770D01*
X123098867Y-114701769D01*
X123054552Y-114635447D01*
X122988230Y-114591132D01*
X122988229Y-114591131D01*
X122929752Y-114579500D01*
X122929748Y-114579500D01*
X121290252Y-114579500D01*
X121290247Y-114579500D01*
X121231770Y-114591131D01*
X121231769Y-114591132D01*
X121165447Y-114635447D01*
X121121132Y-114701769D01*
X121121131Y-114701770D01*
X121109500Y-114760247D01*
X120144006Y-114760247D01*
X120043920Y-114693371D01*
X120043907Y-114693364D01*
X119861839Y-114617950D01*
X119861829Y-114617947D01*
X119668543Y-114579500D01*
X119668541Y-114579500D01*
X119471459Y-114579500D01*
X119471457Y-114579500D01*
X119278170Y-114617947D01*
X119278160Y-114617950D01*
X119096092Y-114693364D01*
X119096079Y-114693371D01*
X118932218Y-114802860D01*
X118932214Y-114802863D01*
X118792863Y-114942214D01*
X118792860Y-114942218D01*
X118683371Y-115106079D01*
X118683364Y-115106092D01*
X118607950Y-115288160D01*
X118607947Y-115288170D01*
X118569500Y-115481456D01*
X118569500Y-115481459D01*
X118569500Y-115678541D01*
X118569500Y-115678543D01*
X118569499Y-115678543D01*
X115169251Y-115678543D01*
X115170130Y-115676420D01*
X115210500Y-115473465D01*
X115210500Y-115016535D01*
X115170130Y-114813580D01*
X115090941Y-114622402D01*
X114975977Y-114450345D01*
X114975975Y-114450342D01*
X114829657Y-114304024D01*
X114743626Y-114246541D01*
X114657598Y-114189059D01*
X114466420Y-114109870D01*
X114466412Y-114109868D01*
X114263469Y-114069500D01*
X114263465Y-114069500D01*
X114056535Y-114069500D01*
X114056530Y-114069500D01*
X113853587Y-114109868D01*
X113853579Y-114109870D01*
X113662403Y-114189058D01*
X113490344Y-114304023D01*
X113427007Y-114367360D01*
X113365683Y-114400844D01*
X113295992Y-114395859D01*
X113240058Y-114353988D01*
X113231939Y-114341678D01*
X113143824Y-114189059D01*
X113118611Y-114145388D01*
X113118608Y-114145385D01*
X113118607Y-114145382D01*
X112978918Y-113963338D01*
X112978911Y-113963330D01*
X112816670Y-113801089D01*
X112816661Y-113801081D01*
X112634617Y-113661392D01*
X112435890Y-113546657D01*
X112435876Y-113546650D01*
X112223887Y-113458842D01*
X112002238Y-113399452D01*
X111964215Y-113394446D01*
X111774741Y-113369500D01*
X111774734Y-113369500D01*
X111545266Y-113369500D01*
X111545258Y-113369500D01*
X111328715Y-113398009D01*
X111317762Y-113399452D01*
X111224076Y-113424554D01*
X111096112Y-113458842D01*
X110884123Y-113546650D01*
X110884109Y-113546657D01*
X110685382Y-113661392D01*
X110503338Y-113801081D01*
X110497681Y-113806738D01*
X110436358Y-113840223D01*
X110366666Y-113835239D01*
X110322319Y-113806738D01*
X110316670Y-113801089D01*
X110316661Y-113801081D01*
X110134617Y-113661392D01*
X109935890Y-113546657D01*
X109935876Y-113546650D01*
X109723887Y-113458842D01*
X109502238Y-113399452D01*
X109464215Y-113394446D01*
X109274741Y-113369500D01*
X109274734Y-113369500D01*
X109045266Y-113369500D01*
X109045258Y-113369500D01*
X108828715Y-113398009D01*
X108817762Y-113399452D01*
X108724076Y-113424554D01*
X108596112Y-113458842D01*
X108384123Y-113546650D01*
X108384109Y-113546657D01*
X108185382Y-113661392D01*
X108003338Y-113801081D01*
X107841081Y-113963338D01*
X107701392Y-114145382D01*
X107586657Y-114344109D01*
X107586650Y-114344123D01*
X107498842Y-114556112D01*
X107439453Y-114777759D01*
X107439451Y-114777770D01*
X107409500Y-115005258D01*
X107409500Y-115484741D01*
X107433924Y-115670253D01*
X107439452Y-115712238D01*
X107490349Y-115902190D01*
X107498842Y-115933887D01*
X107586650Y-116145876D01*
X107586657Y-116145890D01*
X107701392Y-116344617D01*
X107841081Y-116526661D01*
X107841089Y-116526670D01*
X108003329Y-116688910D01*
X108003333Y-116688913D01*
X108003339Y-116688919D01*
X108144356Y-116797126D01*
X108185557Y-116853552D01*
X108189712Y-116923299D01*
X108155499Y-116984219D01*
X108093782Y-117016971D01*
X108068868Y-117019500D01*
X107345333Y-117019500D01*
X107345313Y-117019499D01*
X107339199Y-117019499D01*
X107132269Y-117019499D01*
X107132267Y-117019499D01*
X106929319Y-117059868D01*
X106929309Y-117059871D01*
X106738142Y-117139054D01*
X106738129Y-117139061D01*
X106566079Y-117254022D01*
X106566075Y-117254025D01*
X105105347Y-118714755D01*
X105105345Y-118714757D01*
X105032184Y-118787918D01*
X104959023Y-118861078D01*
X104844058Y-119033137D01*
X104764870Y-119224313D01*
X104764868Y-119224321D01*
X104724500Y-119427264D01*
X104724500Y-120376945D01*
X104704815Y-120443984D01*
X104673386Y-120477263D01*
X104534211Y-120578380D01*
X104403381Y-120709210D01*
X104403381Y-120709211D01*
X104403379Y-120709213D01*
X104356672Y-120773499D01*
X104294622Y-120858903D01*
X104210620Y-121023764D01*
X104210619Y-121023767D01*
X104153445Y-121199734D01*
X104124500Y-121382486D01*
X80500500Y-121382486D01*
X80500500Y-113868610D01*
X81995500Y-113868610D01*
X81995500Y-114131389D01*
X82017571Y-114299024D01*
X82029798Y-114391898D01*
X82097806Y-114645708D01*
X82097807Y-114645711D01*
X82097809Y-114645717D01*
X82198359Y-114888466D01*
X82198364Y-114888477D01*
X82230099Y-114943442D01*
X82329743Y-115116030D01*
X82329745Y-115116033D01*
X82329746Y-115116034D01*
X82489701Y-115324493D01*
X82489707Y-115324500D01*
X82675499Y-115510292D01*
X82675505Y-115510297D01*
X82883970Y-115670257D01*
X83030223Y-115754696D01*
X83111522Y-115801635D01*
X83111527Y-115801637D01*
X83111530Y-115801639D01*
X83354292Y-115902194D01*
X83608102Y-115970202D01*
X83868618Y-116004500D01*
X83868625Y-116004500D01*
X84131375Y-116004500D01*
X84131382Y-116004500D01*
X84391898Y-115970202D01*
X84645708Y-115902194D01*
X84888470Y-115801639D01*
X85116030Y-115670257D01*
X85324495Y-115510297D01*
X85510297Y-115324495D01*
X85670257Y-115116030D01*
X85730590Y-115011530D01*
X94689500Y-115011530D01*
X94689500Y-115468469D01*
X94729868Y-115671412D01*
X94729870Y-115671420D01*
X94809059Y-115862598D01*
X94866541Y-115948626D01*
X94924024Y-116034657D01*
X95070342Y-116180975D01*
X95070345Y-116180977D01*
X95242402Y-116295941D01*
X95433580Y-116375130D01*
X95636530Y-116415499D01*
X95636534Y-116415500D01*
X95636535Y-116415500D01*
X95843466Y-116415500D01*
X95843467Y-116415499D01*
X96046420Y-116375130D01*
X96237598Y-116295941D01*
X96409655Y-116180977D01*
X96555977Y-116034655D01*
X96670941Y-115862598D01*
X96750130Y-115671420D01*
X96790500Y-115468465D01*
X96790500Y-115011535D01*
X96790499Y-115011530D01*
X97189500Y-115011530D01*
X97189500Y-115468469D01*
X97229868Y-115671412D01*
X97229870Y-115671420D01*
X97309059Y-115862598D01*
X97366541Y-115948626D01*
X97424024Y-116034657D01*
X97570342Y-116180975D01*
X97570345Y-116180977D01*
X97742402Y-116295941D01*
X97933580Y-116375130D01*
X98136530Y-116415499D01*
X98136534Y-116415500D01*
X98136535Y-116415500D01*
X98343466Y-116415500D01*
X98343467Y-116415499D01*
X98546420Y-116375130D01*
X98737598Y-116295941D01*
X98909655Y-116180977D01*
X99055977Y-116034655D01*
X99170941Y-115862598D01*
X99250130Y-115671420D01*
X99290500Y-115468465D01*
X99290500Y-115011535D01*
X99290499Y-115011530D01*
X99689500Y-115011530D01*
X99689500Y-115468469D01*
X99729868Y-115671412D01*
X99729870Y-115671420D01*
X99809059Y-115862598D01*
X99866541Y-115948626D01*
X99924024Y-116034657D01*
X100070342Y-116180975D01*
X100070345Y-116180977D01*
X100242402Y-116295941D01*
X100433580Y-116375130D01*
X100636530Y-116415499D01*
X100636534Y-116415500D01*
X100636535Y-116415500D01*
X100843466Y-116415500D01*
X100843467Y-116415499D01*
X101046420Y-116375130D01*
X101237598Y-116295941D01*
X101409655Y-116180977D01*
X101555977Y-116034655D01*
X101670941Y-115862598D01*
X101750130Y-115671420D01*
X101790500Y-115468465D01*
X101790500Y-115011535D01*
X101750130Y-114808580D01*
X101670941Y-114617402D01*
X101555977Y-114445345D01*
X101555975Y-114445342D01*
X101409657Y-114299024D01*
X101245081Y-114189059D01*
X101237598Y-114184059D01*
X101046420Y-114104870D01*
X101046412Y-114104868D01*
X100843469Y-114064500D01*
X100843465Y-114064500D01*
X100636535Y-114064500D01*
X100636530Y-114064500D01*
X100433587Y-114104868D01*
X100433579Y-114104870D01*
X100242403Y-114184058D01*
X100070342Y-114299024D01*
X99924024Y-114445342D01*
X99809058Y-114617403D01*
X99729870Y-114808579D01*
X99729868Y-114808587D01*
X99689500Y-115011530D01*
X99290499Y-115011530D01*
X99250130Y-114808580D01*
X99170941Y-114617402D01*
X99055977Y-114445345D01*
X99055975Y-114445342D01*
X98909657Y-114299024D01*
X98745081Y-114189059D01*
X98737598Y-114184059D01*
X98546420Y-114104870D01*
X98546412Y-114104868D01*
X98343469Y-114064500D01*
X98343465Y-114064500D01*
X98136535Y-114064500D01*
X98136530Y-114064500D01*
X97933587Y-114104868D01*
X97933579Y-114104870D01*
X97742403Y-114184058D01*
X97570342Y-114299024D01*
X97424024Y-114445342D01*
X97309058Y-114617403D01*
X97229870Y-114808579D01*
X97229868Y-114808587D01*
X97189500Y-115011530D01*
X96790499Y-115011530D01*
X96750130Y-114808580D01*
X96670941Y-114617402D01*
X96555977Y-114445345D01*
X96555975Y-114445342D01*
X96409657Y-114299024D01*
X96245081Y-114189059D01*
X96237598Y-114184059D01*
X96046420Y-114104870D01*
X96046412Y-114104868D01*
X95843469Y-114064500D01*
X95843465Y-114064500D01*
X95636535Y-114064500D01*
X95636530Y-114064500D01*
X95433587Y-114104868D01*
X95433579Y-114104870D01*
X95242403Y-114184058D01*
X95070342Y-114299024D01*
X94924024Y-114445342D01*
X94809058Y-114617403D01*
X94729870Y-114808579D01*
X94729868Y-114808587D01*
X94689500Y-115011530D01*
X85730590Y-115011530D01*
X85801639Y-114888470D01*
X85902194Y-114645708D01*
X85970202Y-114391898D01*
X86004500Y-114131382D01*
X86004500Y-113868618D01*
X85970202Y-113608102D01*
X85902194Y-113354292D01*
X85801639Y-113111530D01*
X85801637Y-113111527D01*
X85801635Y-113111522D01*
X85754696Y-113030223D01*
X85670257Y-112883970D01*
X85510297Y-112675505D01*
X85510292Y-112675499D01*
X85324500Y-112489707D01*
X85324493Y-112489701D01*
X85116034Y-112329746D01*
X85116033Y-112329745D01*
X85116030Y-112329743D01*
X85025303Y-112277362D01*
X84888477Y-112198364D01*
X84888466Y-112198359D01*
X84645717Y-112097809D01*
X84645711Y-112097807D01*
X84645708Y-112097806D01*
X84391898Y-112029798D01*
X84334005Y-112022176D01*
X84131389Y-111995500D01*
X84131382Y-111995500D01*
X83868618Y-111995500D01*
X83868610Y-111995500D01*
X83637048Y-112025987D01*
X83608102Y-112029798D01*
X83354292Y-112097806D01*
X83354290Y-112097806D01*
X83354282Y-112097809D01*
X83111533Y-112198359D01*
X83111522Y-112198364D01*
X82883965Y-112329746D01*
X82675506Y-112489701D01*
X82675499Y-112489707D01*
X82489707Y-112675499D01*
X82489701Y-112675506D01*
X82329746Y-112883965D01*
X82198364Y-113111522D01*
X82198359Y-113111533D01*
X82097809Y-113354282D01*
X82097806Y-113354290D01*
X82097806Y-113354292D01*
X82046263Y-113546656D01*
X82029798Y-113608103D01*
X81995500Y-113868610D01*
X80500500Y-113868610D01*
X80500500Y-92237544D01*
X90624937Y-92237544D01*
X90624937Y-92507621D01*
X90655173Y-92775979D01*
X90715269Y-93039282D01*
X90715273Y-93039294D01*
X90804465Y-93294188D01*
X90804471Y-93294202D01*
X90921644Y-93537515D01*
X90921646Y-93537518D01*
X91065331Y-93766191D01*
X91233715Y-93977338D01*
X91424682Y-94168305D01*
X91635829Y-94336689D01*
X91864502Y-94480374D01*
X92107825Y-94597552D01*
X92107831Y-94597554D01*
X92362725Y-94686746D01*
X92362737Y-94686750D01*
X92626034Y-94746845D01*
X92626037Y-94746845D01*
X92626040Y-94746846D01*
X92626039Y-94746846D01*
X92760218Y-94761964D01*
X92894399Y-94777082D01*
X92894400Y-94777083D01*
X92894403Y-94777083D01*
X93164474Y-94777083D01*
X93164474Y-94777082D01*
X93358285Y-94755245D01*
X93432833Y-94746846D01*
X93432834Y-94746845D01*
X93432840Y-94746845D01*
X93696137Y-94686750D01*
X93951049Y-94597552D01*
X94194372Y-94480374D01*
X94423045Y-94336689D01*
X94634192Y-94168305D01*
X94825159Y-93977338D01*
X94993543Y-93766191D01*
X95137228Y-93537518D01*
X95254406Y-93294195D01*
X95343604Y-93039283D01*
X95403699Y-92775986D01*
X95407664Y-92740801D01*
X95412099Y-92701431D01*
X95433937Y-92507617D01*
X95433937Y-92237549D01*
X95433936Y-92237544D01*
X95433936Y-92237542D01*
X95409048Y-92016645D01*
X95407666Y-92004385D01*
X95939068Y-92004385D01*
X95939068Y-92030714D01*
X95939068Y-92740781D01*
X95939068Y-92740799D01*
X95939069Y-92740801D01*
X95977607Y-93476153D01*
X95977607Y-93476161D01*
X96054582Y-94208538D01*
X96169778Y-94935851D01*
X96169786Y-94935895D01*
X96322882Y-95656155D01*
X96513480Y-96367477D01*
X96513481Y-96367481D01*
X96631947Y-96732078D01*
X96741039Y-97067827D01*
X97004940Y-97755313D01*
X97304459Y-98428045D01*
X97304468Y-98428062D01*
X97638779Y-99084186D01*
X98006978Y-99721923D01*
X98408039Y-100339505D01*
X98408041Y-100339508D01*
X98840881Y-100935261D01*
X98840883Y-100935263D01*
X98840889Y-100935270D01*
X99304318Y-101507558D01*
X99797064Y-102054808D01*
X100317775Y-102575519D01*
X100865025Y-103068265D01*
X101224755Y-103359568D01*
X101437319Y-103531699D01*
X101437321Y-103531701D01*
X102033074Y-103964541D01*
X102033077Y-103964543D01*
X102535980Y-104291130D01*
X102650665Y-104365608D01*
X103288403Y-104733807D01*
X103944538Y-105068124D01*
X104617270Y-105367643D01*
X105304756Y-105631544D01*
X105862506Y-105812768D01*
X106005101Y-105859101D01*
X106005104Y-105859101D01*
X106005111Y-105859104D01*
X106716415Y-106049697D01*
X106716418Y-106049697D01*
X106716427Y-106049700D01*
X107436687Y-106202796D01*
X107436720Y-106202803D01*
X108071141Y-106303285D01*
X108164044Y-106318000D01*
X108164046Y-106318000D01*
X108164051Y-106318001D01*
X108896414Y-106394975D01*
X109631802Y-106433515D01*
X109631821Y-106433515D01*
X110368179Y-106433515D01*
X110368198Y-106433515D01*
X111103586Y-106394975D01*
X111835949Y-106318001D01*
X112563280Y-106202803D01*
X112891491Y-106133039D01*
X113283572Y-106049700D01*
X113283576Y-106049698D01*
X113283585Y-106049697D01*
X113994889Y-105859104D01*
X114695244Y-105631544D01*
X115382730Y-105367643D01*
X116055462Y-105068124D01*
X116711597Y-104733807D01*
X117349335Y-104365608D01*
X117966930Y-103964538D01*
X118311539Y-103714164D01*
X118562678Y-103531701D01*
X118562680Y-103531699D01*
X118562678Y-103531699D01*
X118562687Y-103531694D01*
X119134975Y-103068265D01*
X119682225Y-102575519D01*
X120202936Y-102054808D01*
X120695682Y-101507558D01*
X121159111Y-100935270D01*
X121591955Y-100339513D01*
X121993025Y-99721918D01*
X122361224Y-99084180D01*
X122695541Y-98428045D01*
X122995060Y-97755313D01*
X123258961Y-97067827D01*
X123486521Y-96367472D01*
X123677114Y-95656168D01*
X123830220Y-94935863D01*
X123945418Y-94208532D01*
X124022392Y-93476169D01*
X124060932Y-92740781D01*
X124060932Y-92004385D01*
X124022392Y-91268997D01*
X123945418Y-90536634D01*
X123830220Y-89809303D01*
X123830213Y-89809270D01*
X123677117Y-89089010D01*
X123486519Y-88377688D01*
X123486518Y-88377684D01*
X123440185Y-88235089D01*
X123258961Y-87677339D01*
X122995060Y-86989853D01*
X122695541Y-86317121D01*
X122361224Y-85660986D01*
X121993025Y-85023248D01*
X121591955Y-84405653D01*
X121159118Y-83809904D01*
X121159116Y-83809902D01*
X120695685Y-83237612D01*
X120695682Y-83237608D01*
X120202936Y-82690358D01*
X119682225Y-82169647D01*
X119134975Y-81676901D01*
X119051805Y-81609551D01*
X118562680Y-81213466D01*
X118562678Y-81213464D01*
X117966925Y-80780624D01*
X117966922Y-80780622D01*
X117349340Y-80379561D01*
X116711603Y-80011362D01*
X116395818Y-79850462D01*
X116055462Y-79677042D01*
X115382730Y-79377523D01*
X114695244Y-79113622D01*
X114523764Y-79057904D01*
X113994898Y-78886064D01*
X113994894Y-78886063D01*
X113283572Y-78695465D01*
X112563312Y-78542369D01*
X112563285Y-78542364D01*
X112563280Y-78542363D01*
X112563272Y-78542361D01*
X112563268Y-78542361D01*
X111835955Y-78427165D01*
X111318101Y-78372737D01*
X111103586Y-78350191D01*
X111103581Y-78350190D01*
X111103574Y-78350190D01*
X110368218Y-78311652D01*
X110368216Y-78311651D01*
X110368198Y-78311651D01*
X109631802Y-78311651D01*
X109631784Y-78311651D01*
X109631781Y-78311652D01*
X108896429Y-78350190D01*
X108896421Y-78350190D01*
X108164044Y-78427165D01*
X107436731Y-78542361D01*
X107436687Y-78542369D01*
X106716427Y-78695465D01*
X106005105Y-78886063D01*
X106005101Y-78886064D01*
X105304759Y-79113621D01*
X105304739Y-79113628D01*
X104617267Y-79377524D01*
X103944542Y-79677040D01*
X103944520Y-79677051D01*
X103288396Y-80011362D01*
X102650659Y-80379561D01*
X102033077Y-80780622D01*
X102033074Y-80780624D01*
X101437321Y-81213464D01*
X101437319Y-81213466D01*
X100865029Y-81676897D01*
X100865021Y-81676904D01*
X100317788Y-82169634D01*
X100317759Y-82169662D01*
X99797079Y-82690342D01*
X99797051Y-82690371D01*
X99304321Y-83237604D01*
X99304314Y-83237612D01*
X98840883Y-83809902D01*
X98840881Y-83809904D01*
X98408041Y-84405657D01*
X98408039Y-84405660D01*
X98006978Y-85023242D01*
X97638779Y-85660979D01*
X97304468Y-86317103D01*
X97304457Y-86317125D01*
X97004941Y-86989850D01*
X96741045Y-87677322D01*
X96741038Y-87677342D01*
X96513481Y-88377684D01*
X96513480Y-88377688D01*
X96322882Y-89089010D01*
X96169786Y-89809270D01*
X96169778Y-89809314D01*
X96054582Y-90536627D01*
X95977607Y-91269004D01*
X95977607Y-91269012D01*
X95968071Y-91450971D01*
X95939068Y-92004385D01*
X95407666Y-92004385D01*
X95403700Y-91969186D01*
X95343604Y-91705883D01*
X95343600Y-91705871D01*
X95254408Y-91450977D01*
X95254406Y-91450971D01*
X95137228Y-91207648D01*
X94993543Y-90978975D01*
X94825159Y-90767828D01*
X94634192Y-90576861D01*
X94423045Y-90408477D01*
X94194372Y-90264792D01*
X94194369Y-90264790D01*
X93951056Y-90147617D01*
X93951042Y-90147611D01*
X93696148Y-90058419D01*
X93696136Y-90058415D01*
X93432833Y-89998319D01*
X93432834Y-89998319D01*
X93164475Y-89968083D01*
X93164471Y-89968083D01*
X92894403Y-89968083D01*
X92894398Y-89968083D01*
X92626040Y-89998319D01*
X92362737Y-90058415D01*
X92362725Y-90058419D01*
X92107831Y-90147611D01*
X92107817Y-90147617D01*
X91864504Y-90264790D01*
X91635830Y-90408476D01*
X91424682Y-90576860D01*
X91233714Y-90767828D01*
X91065330Y-90978976D01*
X90921644Y-91207650D01*
X90804471Y-91450963D01*
X90804465Y-91450977D01*
X90715273Y-91705871D01*
X90715269Y-91705883D01*
X90655173Y-91969186D01*
X90624937Y-92237544D01*
X80500500Y-92237544D01*
X80500500Y-75266981D01*
X107595500Y-75266981D01*
X107595500Y-75537058D01*
X107625736Y-75805416D01*
X107685832Y-76068719D01*
X107685836Y-76068731D01*
X107775028Y-76323625D01*
X107775034Y-76323639D01*
X107892207Y-76566952D01*
X107892209Y-76566955D01*
X108035894Y-76795628D01*
X108204278Y-77006775D01*
X108395245Y-77197742D01*
X108606392Y-77366126D01*
X108835065Y-77509811D01*
X109078388Y-77626989D01*
X109078394Y-77626991D01*
X109333288Y-77716183D01*
X109333300Y-77716187D01*
X109596597Y-77776282D01*
X109596600Y-77776282D01*
X109596603Y-77776283D01*
X109596602Y-77776283D01*
X109730781Y-77791401D01*
X109864962Y-77806519D01*
X109864963Y-77806520D01*
X109864966Y-77806520D01*
X110135037Y-77806520D01*
X110135037Y-77806519D01*
X110328848Y-77784682D01*
X110403396Y-77776283D01*
X110403397Y-77776282D01*
X110403403Y-77776282D01*
X110666700Y-77716187D01*
X110921612Y-77626989D01*
X111164935Y-77509811D01*
X111393608Y-77366126D01*
X111604755Y-77197742D01*
X111795722Y-77006775D01*
X111964106Y-76795628D01*
X112107791Y-76566955D01*
X112224969Y-76323632D01*
X112314167Y-76068720D01*
X112374262Y-75805423D01*
X112404500Y-75537054D01*
X112404500Y-75266986D01*
X112374262Y-74998617D01*
X112314167Y-74735320D01*
X112224969Y-74480408D01*
X112107791Y-74237085D01*
X111964106Y-74008412D01*
X111795722Y-73797265D01*
X111604755Y-73606298D01*
X111393608Y-73437914D01*
X111164935Y-73294229D01*
X111164932Y-73294227D01*
X110921619Y-73177054D01*
X110921605Y-73177048D01*
X110666711Y-73087856D01*
X110666699Y-73087852D01*
X110403396Y-73027756D01*
X110403397Y-73027756D01*
X110135038Y-72997520D01*
X110135034Y-72997520D01*
X109864966Y-72997520D01*
X109864961Y-72997520D01*
X109596603Y-73027756D01*
X109333300Y-73087852D01*
X109333288Y-73087856D01*
X109078394Y-73177048D01*
X109078380Y-73177054D01*
X108835067Y-73294227D01*
X108606393Y-73437913D01*
X108395245Y-73606297D01*
X108204277Y-73797265D01*
X108035893Y-74008413D01*
X107892207Y-74237087D01*
X107775034Y-74480400D01*
X107775028Y-74480414D01*
X107685836Y-74735308D01*
X107685832Y-74735320D01*
X107625736Y-74998623D01*
X107595500Y-75266981D01*
X80500500Y-75266981D01*
X80500500Y-53868610D01*
X81995500Y-53868610D01*
X81995500Y-54131389D01*
X82022176Y-54334005D01*
X82029798Y-54391898D01*
X82097806Y-54645708D01*
X82097807Y-54645711D01*
X82097809Y-54645717D01*
X82198359Y-54888466D01*
X82198364Y-54888477D01*
X82277362Y-55025303D01*
X82329743Y-55116030D01*
X82329745Y-55116033D01*
X82329746Y-55116034D01*
X82489701Y-55324493D01*
X82489707Y-55324500D01*
X82675499Y-55510292D01*
X82675505Y-55510297D01*
X82883970Y-55670257D01*
X83030223Y-55754696D01*
X83111522Y-55801635D01*
X83111527Y-55801637D01*
X83111530Y-55801639D01*
X83354292Y-55902194D01*
X83608102Y-55970202D01*
X83868618Y-56004500D01*
X83868625Y-56004500D01*
X84131375Y-56004500D01*
X84131382Y-56004500D01*
X84391898Y-55970202D01*
X84645708Y-55902194D01*
X84888470Y-55801639D01*
X85116030Y-55670257D01*
X85324495Y-55510297D01*
X85510297Y-55324495D01*
X85670257Y-55116030D01*
X85801639Y-54888470D01*
X85902194Y-54645708D01*
X85970202Y-54391898D01*
X86004500Y-54131382D01*
X86004500Y-53868618D01*
X85970202Y-53608102D01*
X85902194Y-53354292D01*
X85801639Y-53111530D01*
X85801637Y-53111527D01*
X85801635Y-53111522D01*
X85754696Y-53030223D01*
X85670257Y-52883970D01*
X85510297Y-52675505D01*
X85510292Y-52675499D01*
X85324500Y-52489707D01*
X85324493Y-52489701D01*
X85116034Y-52329746D01*
X85116033Y-52329745D01*
X85116030Y-52329743D01*
X85025303Y-52277362D01*
X84888477Y-52198364D01*
X84888466Y-52198359D01*
X84645717Y-52097809D01*
X84645711Y-52097807D01*
X84645708Y-52097806D01*
X84391898Y-52029798D01*
X84334005Y-52022176D01*
X84131389Y-51995500D01*
X84131382Y-51995500D01*
X83868618Y-51995500D01*
X83868610Y-51995500D01*
X83637048Y-52025987D01*
X83608102Y-52029798D01*
X83354292Y-52097806D01*
X83354290Y-52097806D01*
X83354282Y-52097809D01*
X83111533Y-52198359D01*
X83111522Y-52198364D01*
X82883965Y-52329746D01*
X82675506Y-52489701D01*
X82675499Y-52489707D01*
X82489707Y-52675499D01*
X82489701Y-52675506D01*
X82329746Y-52883965D01*
X82198364Y-53111522D01*
X82198359Y-53111533D01*
X82097809Y-53354282D01*
X82097806Y-53354293D01*
X82029798Y-53608103D01*
X81995500Y-53868610D01*
X80500500Y-53868610D01*
X80500500Y-49736953D01*
X80501280Y-49723070D01*
X80505387Y-49686618D01*
X80511459Y-49632730D01*
X80517632Y-49605678D01*
X80545357Y-49526447D01*
X80557391Y-49501457D01*
X80602047Y-49430387D01*
X80619350Y-49408691D01*
X80678690Y-49349351D01*
X80700389Y-49332046D01*
X80771450Y-49287396D01*
X80796456Y-49275353D01*
X80875670Y-49247635D01*
X80902733Y-49241459D01*
X80967183Y-49234197D01*
X80993061Y-49231282D01*
X81006944Y-49230502D01*
X81073488Y-49230502D01*
X81073504Y-49230501D01*
X138926498Y-49230501D01*
X138934104Y-49230501D01*
X138934108Y-49230502D01*
G37*
%TD.AperFunction*%
%TA.AperFunction,Conductor*%
G36*
X136034705Y-129885383D02*
G01*
X136123660Y-129892383D01*
X136144226Y-129895759D01*
X136302424Y-129935620D01*
X136323404Y-129942961D01*
X136470261Y-130009668D01*
X136489587Y-130020634D01*
X136534632Y-130051842D01*
X136622165Y-130112485D01*
X136639230Y-130126732D01*
X136753268Y-130240770D01*
X136767515Y-130257835D01*
X136859362Y-130390408D01*
X136870333Y-130409743D01*
X136937037Y-130556598D01*
X136944379Y-130577581D01*
X136984239Y-130735768D01*
X136987616Y-130756337D01*
X136994617Y-130845293D01*
X136994999Y-130855022D01*
X136994999Y-133004978D01*
X136994617Y-133014707D01*
X136987616Y-133103663D01*
X136984239Y-133124232D01*
X136944379Y-133282419D01*
X136937037Y-133303402D01*
X136870333Y-133450257D01*
X136859362Y-133469592D01*
X136767517Y-133602162D01*
X136753270Y-133619227D01*
X136639226Y-133733271D01*
X136622161Y-133747518D01*
X136489591Y-133839363D01*
X136470256Y-133850334D01*
X136323401Y-133917038D01*
X136302418Y-133924380D01*
X136144231Y-133964240D01*
X136123662Y-133967617D01*
X136034707Y-133974618D01*
X136024978Y-133975000D01*
X133875021Y-133975000D01*
X133865292Y-133974618D01*
X133776336Y-133967617D01*
X133755767Y-133964240D01*
X133597580Y-133924380D01*
X133576597Y-133917038D01*
X133429742Y-133850334D01*
X133410407Y-133839363D01*
X133277834Y-133747516D01*
X133260769Y-133733269D01*
X133146731Y-133619231D01*
X133132484Y-133602166D01*
X133112613Y-133573484D01*
X133040633Y-133469588D01*
X133029665Y-133450258D01*
X133026683Y-133443692D01*
X132962958Y-133303399D01*
X132955621Y-133282432D01*
X132915757Y-133124224D01*
X132912382Y-133103657D01*
X132905382Y-133014699D01*
X132905000Y-133004972D01*
X132905000Y-130855003D01*
X132905382Y-130845275D01*
X132912380Y-130756347D01*
X132915755Y-130735782D01*
X132955621Y-130577567D01*
X132962959Y-130556597D01*
X133029669Y-130409732D01*
X133040630Y-130390416D01*
X133132489Y-130257826D01*
X133146725Y-130240774D01*
X133260773Y-130126726D01*
X133277825Y-130112490D01*
X133410415Y-130020631D01*
X133429731Y-130009670D01*
X133576602Y-129942957D01*
X133597562Y-129935623D01*
X133755776Y-129895758D01*
X133776336Y-129892383D01*
X133846605Y-129886854D01*
X133865301Y-129885383D01*
X133875028Y-129885001D01*
X136024977Y-129885001D01*
X136034705Y-129885383D01*
G37*
%TD.AperFunction*%
%TD*%
%TA.AperFunction,Conductor*%
%TO.N,VCC*%
G36*
X139442539Y-50049686D02*
G01*
X139488294Y-50102490D01*
X139499500Y-50154001D01*
X139499500Y-134706001D01*
X139479815Y-134773040D01*
X139427011Y-134818795D01*
X139375500Y-134830001D01*
X124724000Y-134830001D01*
X124656961Y-134810316D01*
X124611206Y-134757512D01*
X124600000Y-134706001D01*
X124600000Y-130842062D01*
X132699500Y-130842062D01*
X132699500Y-133017925D01*
X132699501Y-133017940D01*
X132709696Y-133147485D01*
X132763596Y-133361396D01*
X132854826Y-133562244D01*
X132980449Y-133743569D01*
X133136431Y-133899551D01*
X133317756Y-134025174D01*
X133317757Y-134025174D01*
X133317761Y-134025177D01*
X133451875Y-134086094D01*
X133518604Y-134116404D01*
X133518605Y-134116404D01*
X133518607Y-134116405D01*
X133732515Y-134170305D01*
X133862067Y-134180501D01*
X136037932Y-134180500D01*
X136167485Y-134170305D01*
X136381393Y-134116405D01*
X136582239Y-134025177D01*
X136763567Y-133899552D01*
X136919551Y-133743568D01*
X137045176Y-133562240D01*
X137136404Y-133361394D01*
X137190304Y-133147486D01*
X137200500Y-133017934D01*
X137200499Y-130842069D01*
X137190304Y-130712516D01*
X137136404Y-130498608D01*
X137045176Y-130297762D01*
X137005521Y-130240524D01*
X136919550Y-130116432D01*
X136763568Y-129960450D01*
X136582243Y-129834827D01*
X136381395Y-129743597D01*
X136238787Y-129707663D01*
X136167485Y-129689697D01*
X136037933Y-129679501D01*
X136037931Y-129679501D01*
X133862075Y-129679501D01*
X133862060Y-129679502D01*
X133732515Y-129689697D01*
X133518604Y-129743597D01*
X133317756Y-129834827D01*
X133136431Y-129960450D01*
X132980449Y-130116432D01*
X132854826Y-130297757D01*
X132763596Y-130498605D01*
X132709696Y-130712516D01*
X132699500Y-130842062D01*
X124600000Y-130842062D01*
X124600000Y-113868610D01*
X133995500Y-113868610D01*
X133995500Y-114131389D01*
X134018229Y-114304023D01*
X134029798Y-114391898D01*
X134097806Y-114645708D01*
X134097807Y-114645711D01*
X134097809Y-114645717D01*
X134198359Y-114888466D01*
X134198364Y-114888477D01*
X134229392Y-114942218D01*
X134329743Y-115116030D01*
X134329745Y-115116033D01*
X134329746Y-115116034D01*
X134489701Y-115324493D01*
X134489707Y-115324500D01*
X134675499Y-115510292D01*
X134675505Y-115510297D01*
X134883970Y-115670257D01*
X135030223Y-115754696D01*
X135111522Y-115801635D01*
X135111527Y-115801637D01*
X135111530Y-115801639D01*
X135354292Y-115902194D01*
X135608102Y-115970202D01*
X135868618Y-116004500D01*
X135868625Y-116004500D01*
X136131375Y-116004500D01*
X136131382Y-116004500D01*
X136391898Y-115970202D01*
X136645708Y-115902194D01*
X136888470Y-115801639D01*
X137116030Y-115670257D01*
X137324495Y-115510297D01*
X137510297Y-115324495D01*
X137670257Y-115116030D01*
X137801639Y-114888470D01*
X137902194Y-114645708D01*
X137970202Y-114391898D01*
X138004500Y-114131382D01*
X138004500Y-113868618D01*
X137970202Y-113608102D01*
X137902194Y-113354292D01*
X137801639Y-113111530D01*
X137801637Y-113111527D01*
X137801635Y-113111522D01*
X137754696Y-113030223D01*
X137670257Y-112883970D01*
X137510297Y-112675505D01*
X137510292Y-112675499D01*
X137324500Y-112489707D01*
X137324493Y-112489701D01*
X137116034Y-112329746D01*
X137116033Y-112329745D01*
X137116030Y-112329743D01*
X137025303Y-112277362D01*
X136888477Y-112198364D01*
X136888466Y-112198359D01*
X136645717Y-112097809D01*
X136645711Y-112097807D01*
X136645708Y-112097806D01*
X136391898Y-112029798D01*
X136334005Y-112022176D01*
X136131389Y-111995500D01*
X136131382Y-111995500D01*
X135868618Y-111995500D01*
X135868610Y-111995500D01*
X135637048Y-112025987D01*
X135608102Y-112029798D01*
X135354292Y-112097806D01*
X135354290Y-112097806D01*
X135354282Y-112097809D01*
X135111533Y-112198359D01*
X135111522Y-112198364D01*
X134883965Y-112329746D01*
X134675506Y-112489701D01*
X134675499Y-112489707D01*
X134489707Y-112675499D01*
X134489701Y-112675506D01*
X134329746Y-112883965D01*
X134198364Y-113111522D01*
X134198359Y-113111533D01*
X134097809Y-113354282D01*
X134097806Y-113354290D01*
X134097806Y-113354292D01*
X134046263Y-113546656D01*
X134029798Y-113608103D01*
X133995500Y-113868610D01*
X124600000Y-113868610D01*
X124600000Y-93535146D01*
X124619685Y-93468107D01*
X124672489Y-93422352D01*
X124741647Y-93412408D01*
X124805203Y-93441433D01*
X124835720Y-93481345D01*
X124862768Y-93537512D01*
X124862772Y-93537518D01*
X125006457Y-93766191D01*
X125174841Y-93977338D01*
X125365808Y-94168305D01*
X125576955Y-94336689D01*
X125805628Y-94480374D01*
X126048951Y-94597552D01*
X126048957Y-94597554D01*
X126303851Y-94686746D01*
X126303863Y-94686750D01*
X126567160Y-94746845D01*
X126567163Y-94746845D01*
X126567166Y-94746846D01*
X126567165Y-94746846D01*
X126701344Y-94761964D01*
X126835525Y-94777082D01*
X126835526Y-94777083D01*
X126835529Y-94777083D01*
X127105600Y-94777083D01*
X127105600Y-94777082D01*
X127299411Y-94755245D01*
X127373959Y-94746846D01*
X127373960Y-94746845D01*
X127373966Y-94746845D01*
X127637263Y-94686750D01*
X127892175Y-94597552D01*
X128135498Y-94480374D01*
X128364171Y-94336689D01*
X128575318Y-94168305D01*
X128766285Y-93977338D01*
X128934669Y-93766191D01*
X129078354Y-93537518D01*
X129195532Y-93294195D01*
X129284730Y-93039283D01*
X129344825Y-92775986D01*
X129375063Y-92507617D01*
X129375063Y-92237549D01*
X129344825Y-91969180D01*
X129284730Y-91705883D01*
X129195532Y-91450971D01*
X129078354Y-91207648D01*
X128934669Y-90978975D01*
X128766285Y-90767828D01*
X128575318Y-90576861D01*
X128364171Y-90408477D01*
X128135498Y-90264792D01*
X128135495Y-90264790D01*
X127892182Y-90147617D01*
X127892168Y-90147611D01*
X127637274Y-90058419D01*
X127637262Y-90058415D01*
X127373959Y-89998319D01*
X127373960Y-89998319D01*
X127105601Y-89968083D01*
X127105597Y-89968083D01*
X126835529Y-89968083D01*
X126835524Y-89968083D01*
X126567166Y-89998319D01*
X126303863Y-90058415D01*
X126303851Y-90058419D01*
X126048957Y-90147611D01*
X126048943Y-90147617D01*
X125805630Y-90264790D01*
X125576956Y-90408476D01*
X125365808Y-90576860D01*
X125174840Y-90767828D01*
X125006456Y-90978976D01*
X124862770Y-91207650D01*
X124835720Y-91263821D01*
X124788897Y-91315680D01*
X124721470Y-91333993D01*
X124654846Y-91312945D01*
X124610178Y-91259219D01*
X124600000Y-91210019D01*
X124600000Y-64030001D01*
X110124000Y-64030001D01*
X110056961Y-64010316D01*
X110011206Y-63957512D01*
X110000000Y-63906001D01*
X110000000Y-53868610D01*
X133995500Y-53868610D01*
X133995500Y-54131389D01*
X134022176Y-54334005D01*
X134029798Y-54391898D01*
X134097806Y-54645708D01*
X134097807Y-54645711D01*
X134097809Y-54645717D01*
X134198359Y-54888466D01*
X134198364Y-54888477D01*
X134277362Y-55025303D01*
X134329743Y-55116030D01*
X134329745Y-55116033D01*
X134329746Y-55116034D01*
X134489701Y-55324493D01*
X134489707Y-55324500D01*
X134675499Y-55510292D01*
X134675505Y-55510297D01*
X134883970Y-55670257D01*
X135030223Y-55754696D01*
X135111522Y-55801635D01*
X135111527Y-55801637D01*
X135111530Y-55801639D01*
X135354292Y-55902194D01*
X135608102Y-55970202D01*
X135868618Y-56004500D01*
X135868625Y-56004500D01*
X136131375Y-56004500D01*
X136131382Y-56004500D01*
X136391898Y-55970202D01*
X136645708Y-55902194D01*
X136888470Y-55801639D01*
X137116030Y-55670257D01*
X137324495Y-55510297D01*
X137510297Y-55324495D01*
X137670257Y-55116030D01*
X137801639Y-54888470D01*
X137902194Y-54645708D01*
X137970202Y-54391898D01*
X138004500Y-54131382D01*
X138004500Y-53868618D01*
X137970202Y-53608102D01*
X137902194Y-53354292D01*
X137801639Y-53111530D01*
X137801637Y-53111527D01*
X137801635Y-53111522D01*
X137754696Y-53030223D01*
X137670257Y-52883970D01*
X137510297Y-52675505D01*
X137510292Y-52675499D01*
X137324500Y-52489707D01*
X137324493Y-52489701D01*
X137116034Y-52329746D01*
X137116033Y-52329745D01*
X137116030Y-52329743D01*
X137025303Y-52277362D01*
X136888477Y-52198364D01*
X136888466Y-52198359D01*
X136645717Y-52097809D01*
X136645711Y-52097807D01*
X136645708Y-52097806D01*
X136391898Y-52029798D01*
X136334005Y-52022176D01*
X136131389Y-51995500D01*
X136131382Y-51995500D01*
X135868618Y-51995500D01*
X135868610Y-51995500D01*
X135637048Y-52025987D01*
X135608102Y-52029798D01*
X135354292Y-52097806D01*
X135354290Y-52097806D01*
X135354282Y-52097809D01*
X135111533Y-52198359D01*
X135111522Y-52198364D01*
X134883965Y-52329746D01*
X134675506Y-52489701D01*
X134675499Y-52489707D01*
X134489707Y-52675499D01*
X134489701Y-52675506D01*
X134329746Y-52883965D01*
X134198364Y-53111522D01*
X134198359Y-53111533D01*
X134097809Y-53354282D01*
X134097806Y-53354293D01*
X134029798Y-53608103D01*
X133995500Y-53868610D01*
X110000000Y-53868610D01*
X110000000Y-50154001D01*
X110019685Y-50086962D01*
X110072489Y-50041207D01*
X110124000Y-50030001D01*
X139375500Y-50030001D01*
X139442539Y-50049686D01*
G37*
%TD.AperFunction*%
%TD*%
M02*
